{
  "accessors": [
    {
      "name": "Buds_A_01_LOD2_Cylinder.035-Mesh_0_positions",
      "componentType": 5126,
      "count": 95,
      "min": [
        -26.083473205566406,
        0.3035149872303009,
        18.997695922851562
      ],
      "max": [
        -23.971044540405273,
        4.376338005065918,
        20.803030014038086
      ],
      "type": "VEC3",
      "bufferView": 0,
      "byteOffset": 0
    },
    {
      "name": "Buds_A_01_LOD2_Cylinder.035-Mesh_0_normals",
      "componentType": 5126,
      "count": 95,
      "min": [
        -0.9665452241897583,
        -0.6397196650505066,
        -0.9871396422386169
      ],
      "max": [
        0.9650349020957947,
        0.9449461698532104,
        0.9871284365653992
      ],
      "type": "VEC3",
      "bufferView": 1,
      "byteOffset": 0
    },
    {
      "name": "Buds_A_01_LOD2_Cylinder.035-Mesh_0_texcoords",
      "componentType": 5126,
      "count": 95,
      "min": [
        0.2575260102748871,
        0.5801780223846436
      ],
      "max": [
        0.5839800238609314,
        0.5801780223846436
      ],
      "type": "VEC2",
      "bufferView": 2,
      "byteOffset": 0
    },
    {
      "name": "Buds_A_01_LOD2_Cylinder.035-Mesh_0_indices",
      "componentType": 5123,
      "count": 414,
      "min": [
        0
      ],
      "max": [
        94
      ],
      "type": "SCALAR",
      "bufferView": 3,
      "byteOffset": 0
    }
  ],
  "asset": {
    "generator": "obj2gltf",
    "version": "2.0"
  },
  "buffers": [
    {
      "name": "Buds_A_01_LOD2",
      "byteLength": 18592,
      "uri": "data:application/octet-stream;base64,"
    }
  ],
  "bufferViews": [
    {
      "name": "bufferView_0",
      "buffer": 0,
      "byteLength": 1140,
      "byteOffset": 0,
      "byteStride": 12,
      "target": 34962
    },
    {
      "name": "bufferView_1",
      "buffer": 0,
      "byteLength": 1140,
      "byteOffset": 1140,
      "byteStride": 12,
      "target": 34962
    },
    {
      "name": "bufferView_2",
      "buffer": 0,
      "byteLength": 760,
      "byteOffset": 2280,
      "byteStride": 8,
      "target": 34962
    },
    {
      "name": "bufferView_3",
      "buffer": 0,
      "byteLength": 828,
      "byteOffset": 3040,
      "target": 34963
    },
    {
      "buffer": 0,
      "byteOffset": 3868,
      "byteLength": 14724
    }
  ],
  "images": [
    {
      "name": "Nature-Palette",
      "mimeType": "image/png",
      "bufferView": 4
    }
  ],
  "materials": [
    {
      "name": "Mat_Nature",
      "pbrMetallicRoughness": {
        "baseColorTexture": {
          "index": 0
        },
        "baseColorFactor": [
          1,
          1,
          1,
          1
        ],
        "metallicFactor": 0,
        "roughnessFactor": 0.775
      },
      "emissiveFactor": [
        0,
        0,
        0
      ],
      "alphaMode": "OPAQUE",
      "doubleSided": false
    }
  ],
  "meshes": [
    {
      "name": "Buds_A_01_LOD2_Cylinder.035-Mesh",
      "primitives": [
        {
          "attributes": {
            "POSITION": 0,
            "NORMAL": 1,
            "TEXCOORD_0": 2
          },
          "indices": 3,
          "material": 0,
          "mode": 4
        }
      ]
    }
  ],
  "nodes": [
    {
      "name": "Buds_A_01_LOD2_Cylinder.035",
      "mesh": 0
    }
  ],
  "samplers": [
    {
      "wrapS": 10497,
      "wrapT": 10497
    }
  ],
  "scene": 0,
  "scenes": [
    {
      "nodes": [
        0
      ]
    }
  ],
  "textures": [
    {
      "name": "Nature-Palette",
      "sampler": 0,
      "source": 0
    }
  ]
}
