{
  "accessors": [
    {
      "name": "Buds_A_02_LOD2_Cylinder.030-Mesh_0_positions",
      "componentType": 5126,
      "count": 82,
      "min": [
        -15.81384563446045,
        0.1300249993801117,
        19.523799896240234
      ],
      "max": [
        -14.3734130859375,
        3.5454680919647217,
        21.599159240722656
      ],
      "type": "VEC3",
      "bufferView": 0,
      "byteOffset": 0
    },
    {
      "name": "Buds_A_02_LOD2_Cylinder.030-Mesh_0_normals",
      "componentType": 5126,
      "count": 82,
      "min": [
        -0.9751657247543335,
        -0.9985295534133911,
        -0.9786574840545654
      ],
      "max": [
        0.9769430160522461,
        0.9833400249481201,
        0.989587664604187
      ],
      "type": "VEC3",
      "bufferView": 1,
      "byteOffset": 0
    },
    {
      "name": "Buds_A_02_LOD2_Cylinder.030-Mesh_0_texcoords",
      "componentType": 5126,
      "count": 82,
      "min": [
        0.2575260102748871,
        0.5801780223846436
      ],
      "max": [
        0.5839800238609314,
        0.5801780223846436
      ],
      "type": "VEC2",
      "bufferView": 2,
      "byteOffset": 0
    },
    {
      "name": "Buds_A_02_LOD2_Cylinder.030-Mesh_0_indices",
      "componentType": 5123,
      "count": 396,
      "min": [
        0
      ],
      "max": [
        81
      ],
      "type": "SCALAR",
      "bufferView": 3,
      "byteOffset": 0
    }
  ],
  "asset": {
    "generator": "obj2gltf",
    "version": "2.0"
  },
  "buffers": [
    {
      "name": "Buds_A_02_LOD2",
      "byteLength": 18140,
      "uri": "data:application/octet-stream;base64,"
    }
  ],
  "bufferViews": [
    {
      "name": "bufferView_0",
      "buffer": 0,
      "byteLength": 984,
      "byteOffset": 0,
      "byteStride": 12,
      "target": 34962
    },
    {
      "name": "bufferView_1",
      "buffer": 0,
      "byteLength": 984,
      "byteOffset": 984,
      "byteStride": 12,
      "target": 34962
    },
    {
      "name": "bufferView_2",
      "buffer": 0,
      "byteLength": 656,
      "byteOffset": 1968,
      "byteStride": 8,
      "target": 34962
    },
    {
      "name": "bufferView_3",
      "buffer": 0,
      "byteLength": 792,
      "byteOffset": 2624,
      "target": 34963
    },
    {
      "buffer": 0,
      "byteOffset": 3416,
      "byteLength": 14724
    }
  ],
  "images": [
    {
      "name": "Nature-Palette",
      "mimeType": "image/png",
      "bufferView": 4
    }
  ],
  "materials": [
    {
      "name": "Mat_Nature",
      "pbrMetallicRoughness": {
        "baseColorTexture": {
          "index": 0
        },
        "baseColorFactor": [
          1,
          1,
          1,
          1
        ],
        "metallicFactor": 0,
        "roughnessFactor": 0.775
      },
      "emissiveFactor": [
        0,
        0,
        0
      ],
      "alphaMode": "OPAQUE",
      "doubleSided": false
    }
  ],
  "meshes": [
    {
      "name": "Buds_A_02_LOD2_Cylinder.030-Mesh",
      "primitives": [
        {
          "attributes": {
            "POSITION": 0,
            "NORMAL": 1,
            "TEXCOORD_0": 2
          },
          "indices": 3,
          "material": 0,
          "mode": 4
        }
      ]
    }
  ],
  "nodes": [
    {
      "name": "Buds_A_02_LOD2_Cylinder.030",
      "mesh": 0
    }
  ],
  "samplers": [
    {
      "wrapS": 10497,
      "wrapT": 10497
    }
  ],
  "scene": 0,
  "scenes": [
    {
      "nodes": [
        0
      ]
    }
  ],
  "textures": [
    {
      "name": "Nature-Palette",
      "sampler": 0,
      "source": 0
    }
  ]
}
