{
  "accessors": [
    {
      "name": "Bush_A_01_LOD2_Cube.798-Mesh_0_positions",
      "componentType": 5126,
      "count": 163,
      "min": [
        2.332789897918701,
        -0.1308789998292923,
        -2.3724710941314697
      ],
      "max": [
        7.664463996887207,
        2.855288028717041,
        2.8248679637908936
      ],
      "type": "VEC3",
      "bufferView": 0,
      "byteOffset": 0
    },
    {
      "name": "Bush_A_01_LOD2_Cube.798-Mesh_0_normals",
      "componentType": 5126,
      "count": 163,
      "min": [
        -0.988676905632019,
        -0.9998745322227478,
        -0.983047604560852
      ],
      "max": [
        0.9985748529434204,
        0.9950098395347595,
        0.9851729273796082
      ],
      "type": "VEC3",
      "bufferView": 1,
      "byteOffset": 0
    },
    {
      "name": "Bush_A_01_LOD2_Cube.798-Mesh_0_texcoords",
      "componentType": 5126,
      "count": 163,
      "min": [
        0.4101170003414154,
        0.08744200319051743
      ],
      "max": [
        0.4111109972000122,
        0.08944399654865265
      ],
      "type": "VEC2",
      "bufferView": 2,
      "byteOffset": 0
    },
    {
      "name": "Bush_A_01_LOD2_Cube.798-Mesh_0_indices",
      "componentType": 5123,
      "count": 954,
      "min": [
        0
      ],
      "max": [
        162
      ],
      "type": "SCALAR",
      "bufferView": 3,
      "byteOffset": 0
    }
  ],
  "asset": {
    "generator": "obj2gltf",
    "version": "2.0"
  },
  "buffers": [
    {
      "name": "Bush_A_01_LOD2",
      "byteLength": 21848,
      "uri": "data:application/octet-stream;base64,"
    }
  ],
  "bufferViews": [
    {
      "name": "bufferView_0",
      "buffer": 0,
      "byteLength": 1956,
      "byteOffset": 0,
      "byteStride": 12,
      "target": 34962
    },
    {
      "name": "bufferView_1",
      "buffer": 0,
      "byteLength": 1956,
      "byteOffset": 1956,
      "byteStride": 12,
      "target": 34962
    },
    {
      "name": "bufferView_2",
      "buffer": 0,
      "byteLength": 1304,
      "byteOffset": 3912,
      "byteStride": 8,
      "target": 34962
    },
    {
      "name": "bufferView_3",
      "buffer": 0,
      "byteLength": 1908,
      "byteOffset": 5216,
      "target": 34963
    },
    {
      "buffer": 0,
      "byteOffset": 7124,
      "byteLength": 14724
    }
  ],
  "images": [
    {
      "name": "Nature-Palette",
      "mimeType": "image/png",
      "bufferView": 4
    }
  ],
  "materials": [
    {
      "name": "Mat_Nature",
      "pbrMetallicRoughness": {
        "baseColorTexture": {
          "index": 0
        },
        "baseColorFactor": [
          1,
          1,
          1,
          1
        ],
        "metallicFactor": 0,
        "roughnessFactor": 0.775
      },
      "emissiveFactor": [
        0,
        0,
        0
      ],
      "alphaMode": "OPAQUE",
      "doubleSided": false
    }
  ],
  "meshes": [
    {
      "name": "Bush_A_01_LOD2_Cube.798-Mesh",
      "primitives": [
        {
          "attributes": {
            "POSITION": 0,
            "NORMAL": 1,
            "TEXCOORD_0": 2
          },
          "indices": 3,
          "material": 0,
          "mode": 4
        }
      ]
    }
  ],
  "nodes": [
    {
      "name": "Bush_A_01_LOD2_Cube.798",
      "mesh": 0
    }
  ],
  "samplers": [
    {
      "wrapS": 10497,
      "wrapT": 10497
    }
  ],
  "scene": 0,
  "scenes": [
    {
      "nodes": [
        0
      ]
    }
  ],
  "textures": [
    {
      "name": "Nature-Palette",
      "sampler": 0,
      "source": 0
    }
  ]
}
