{
  "accessors": [
    {
      "name": "Bush_D_03_LOD2_Cube.655-Mesh_0_positions",
      "componentType": 5126,
      "count": 130,
      "min": [
        31.517295837402344,
        -0.12125600129365921,
        -2.16336989402771
      ],
      "max": [
        38.23647689819336,
        2.8848791122436523,
        2.244128942489624
      ],
      "type": "VEC3",
      "bufferView": 0,
      "byteOffset": 0
    },
    {
      "name": "Bush_D_03_LOD2_Cube.655-Mesh_0_normals",
      "componentType": 5126,
      "count": 130,
      "min": [
        -0.9970826506614685,
        -0.9999951720237732,
        -0.9973719716072083
      ],
      "max": [
        0.9984353184700012,
        0.9984124302864075,
        0.9741191267967224
      ],
      "type": "VEC3",
      "bufferView": 1,
      "byteOffset": 0
    },
    {
      "name": "Bush_D_03_LOD2_Cube.655-Mesh_0_texcoords",
      "componentType": 5126,
      "count": 130,
      "min": [
        0.41374701261520386,
        0.09032099694013596
      ],
      "max": [
        0.41374799609184265,
        0.09032099694013596
      ],
      "type": "VEC2",
      "bufferView": 2,
      "byteOffset": 0
    },
    {
      "name": "Bush_D_03_LOD2_Cube.655-Mesh_0_indices",
      "componentType": 5123,
      "count": 768,
      "min": [
        0
      ],
      "max": [
        129
      ],
      "type": "SCALAR",
      "bufferView": 3,
      "byteOffset": 0
    }
  ],
  "asset": {
    "generator": "obj2gltf",
    "version": "2.0"
  },
  "buffers": [
    {
      "name": "Bush_D_03_LOD2",
      "byteLength": 20420,
      "uri": "data:application/octet-stream;base64,"
    }
  ],
  "bufferViews": [
    {
      "name": "bufferView_0",
      "buffer": 0,
      "byteLength": 1560,
      "byteOffset": 0,
      "byteStride": 12,
      "target": 34962
    },
    {
      "name": "bufferView_1",
      "buffer": 0,
      "byteLength": 1560,
      "byteOffset": 1560,
      "byteStride": 12,
      "target": 34962
    },
    {
      "name": "bufferView_2",
      "buffer": 0,
      "byteLength": 1040,
      "byteOffset": 3120,
      "byteStride": 8,
      "target": 34962
    },
    {
      "name": "bufferView_3",
      "buffer": 0,
      "byteLength": 1536,
      "byteOffset": 4160,
      "target": 34963
    },
    {
      "buffer": 0,
      "byteOffset": 5696,
      "byteLength": 14724
    }
  ],
  "images": [
    {
      "name": "Nature-Palette",
      "mimeType": "image/png",
      "bufferView": 4
    }
  ],
  "materials": [
    {
      "name": "Mat_Nature",
      "pbrMetallicRoughness": {
        "baseColorTexture": {
          "index": 0
        },
        "baseColorFactor": [
          1,
          1,
          1,
          1
        ],
        "metallicFactor": 0,
        "roughnessFactor": 0.775
      },
      "emissiveFactor": [
        0,
        0,
        0
      ],
      "alphaMode": "OPAQUE",
      "doubleSided": false
    }
  ],
  "meshes": [
    {
      "name": "Bush_D_03_LOD2_Cube.655-Mesh",
      "primitives": [
        {
          "attributes": {
            "POSITION": 0,
            "NORMAL": 1,
            "TEXCOORD_0": 2
          },
          "indices": 3,
          "material": 0,
          "mode": 4
        }
      ]
    }
  ],
  "nodes": [
    {
      "name": "Bush_D_03_LOD2_Cube.655",
      "mesh": 0
    }
  ],
  "samplers": [
    {
      "wrapS": 10497,
      "wrapT": 10497
    }
  ],
  "scene": 0,
  "scenes": [
    {
      "nodes": [
        0
      ]
    }
  ],
  "textures": [
    {
      "name": "Nature-Palette",
      "sampler": 0,
      "source": 0
    }
  ]
}
