{
  "accessors": [
    {
      "name": "Bush_B_02_LOD2_Cube.767-Mesh_0_positions",
      "componentType": 5126,
      "count": 269,
      "min": [
        13.044747352600098,
        -0.12992900609970093,
        -12.2171630859375
      ],
      "max": [
        16.959381103515625,
        3.1692728996276855,
        -7.935577869415283
      ],
      "type": "VEC3",
      "bufferView": 0,
      "byteOffset": 0
    },
    {
      "name": "Bush_B_02_LOD2_Cube.767-Mesh_0_normals",
      "componentType": 5126,
      "count": 269,
      "min": [
        -0.9998083114624023,
        -0.9996687173843384,
        -0.9869574904441833
      ],
      "max": [
        0.9961127042770386,
        0.9997411966323853,
        0.99695885181427
      ],
      "type": "VEC3",
      "bufferView": 1,
      "byteOffset": 0
    },
    {
      "name": "Bush_B_02_LOD2_Cube.767-Mesh_0_texcoords",
      "componentType": 5126,
      "count": 269,
      "min": [
        0.2575260102748871,
        0.2580310106277466
      ],
      "max": [
        0.2575260102748871,
        0.2580310106277466
      ],
      "type": "VEC2",
      "bufferView": 2,
      "byteOffset": 0
    },
    {
      "name": "Bush_B_02_LOD2_Cube.767-Mesh_0_indices",
      "componentType": 5123,
      "count": 1440,
      "min": [
        0
      ],
      "max": [
        268
      ],
      "type": "SCALAR",
      "bufferView": 3,
      "byteOffset": 0
    }
  ],
  "asset": {
    "generator": "obj2gltf",
    "version": "2.0"
  },
  "buffers": [
    {
      "name": "Bush_B_02_LOD2",
      "byteLength": 26212,
      "uri": "data:application/octet-stream;base64,"
    }
  ],
  "bufferViews": [
    {
      "name": "bufferView_0",
      "buffer": 0,
      "byteLength": 3228,
      "byteOffset": 0,
      "byteStride": 12,
      "target": 34962
    },
    {
      "name": "bufferView_1",
      "buffer": 0,
      "byteLength": 3228,
      "byteOffset": 3228,
      "byteStride": 12,
      "target": 34962
    },
    {
      "name": "bufferView_2",
      "buffer": 0,
      "byteLength": 2152,
      "byteOffset": 6456,
      "byteStride": 8,
      "target": 34962
    },
    {
      "name": "bufferView_3",
      "buffer": 0,
      "byteLength": 2880,
      "byteOffset": 8608,
      "target": 34963
    },
    {
      "buffer": 0,
      "byteOffset": 11488,
      "byteLength": 14724
    }
  ],
  "images": [
    {
      "name": "Nature-Palette",
      "mimeType": "image/png",
      "bufferView": 4
    }
  ],
  "materials": [
    {
      "name": "Mat_Nature",
      "pbrMetallicRoughness": {
        "baseColorTexture": {
          "index": 0
        },
        "baseColorFactor": [
          1,
          1,
          1,
          1
        ],
        "metallicFactor": 0,
        "roughnessFactor": 0.775
      },
      "emissiveFactor": [
        0,
        0,
        0
      ],
      "alphaMode": "OPAQUE",
      "doubleSided": false
    }
  ],
  "meshes": [
    {
      "name": "Bush_B_02_LOD2_Cube.767-Mesh",
      "primitives": [
        {
          "attributes": {
            "POSITION": 0,
            "NORMAL": 1,
            "TEXCOORD_0": 2
          },
          "indices": 3,
          "material": 0,
          "mode": 4
        }
      ]
    }
  ],
  "nodes": [
    {
      "name": "Bush_B_02_LOD2_Cube.767",
      "mesh": 0
    }
  ],
  "samplers": [
    {
      "wrapS": 10497,
      "wrapT": 10497
    }
  ],
  "scene": 0,
  "scenes": [
    {
      "nodes": [
        0
      ]
    }
  ],
  "textures": [
    {
      "name": "Nature-Palette",
      "sampler": 0,
      "source": 0
    }
  ]
}
