{
  "accessors": [
    {
      "name": "Bush_D_02_LOD2_Cube.656-Mesh_0_positions",
      "componentType": 5126,
      "count": 98,
      "min": [
        42.41649627685547,
        -0.11023899912834167,
        -2.1379830837249756
      ],
      "max": [
        47.502506256103516,
        3.176361083984375,
        2.001004934310913
      ],
      "type": "VEC3",
      "bufferView": 0,
      "byteOffset": 0
    },
    {
      "name": "Bush_D_02_LOD2_Cube.656-Mesh_0_normals",
      "componentType": 5126,
      "count": 98,
      "min": [
        -0.971189022064209,
        -0.9999998807907104,
        -0.9636002779006958
      ],
      "max": [
        0.9618936777114868,
        0.9892750978469849,
        0.982491672039032
      ],
      "type": "VEC3",
      "bufferView": 1,
      "byteOffset": 0
    },
    {
      "name": "Bush_D_02_LOD2_Cube.656-Mesh_0_texcoords",
      "componentType": 5126,
      "count": 98,
      "min": [
        0.41374701261520386,
        0.09032099694013596
      ],
      "max": [
        0.41374799609184265,
        0.09032099694013596
      ],
      "type": "VEC2",
      "bufferView": 2,
      "byteOffset": 0
    },
    {
      "name": "Bush_D_02_LOD2_Cube.656-Mesh_0_indices",
      "componentType": 5123,
      "count": 576,
      "min": [
        0
      ],
      "max": [
        97
      ],
      "type": "SCALAR",
      "bufferView": 3,
      "byteOffset": 0
    }
  ],
  "asset": {
    "generator": "obj2gltf",
    "version": "2.0"
  },
  "buffers": [
    {
      "name": "Bush_D_02_LOD2",
      "byteLength": 19012,
      "uri": "data:application/octet-stream;base64,"
    }
  ],
  "bufferViews": [
    {
      "name": "bufferView_0",
      "buffer": 0,
      "byteLength": 1176,
      "byteOffset": 0,
      "byteStride": 12,
      "target": 34962
    },
    {
      "name": "bufferView_1",
      "buffer": 0,
      "byteLength": 1176,
      "byteOffset": 1176,
      "byteStride": 12,
      "target": 34962
    },
    {
      "name": "bufferView_2",
      "buffer": 0,
      "byteLength": 784,
      "byteOffset": 2352,
      "byteStride": 8,
      "target": 34962
    },
    {
      "name": "bufferView_3",
      "buffer": 0,
      "byteLength": 1152,
      "byteOffset": 3136,
      "target": 34963
    },
    {
      "buffer": 0,
      "byteOffset": 4288,
      "byteLength": 14724
    }
  ],
  "images": [
    {
      "name": "Nature-Palette",
      "mimeType": "image/png",
      "bufferView": 4
    }
  ],
  "materials": [
    {
      "name": "Mat_Nature",
      "pbrMetallicRoughness": {
        "baseColorTexture": {
          "index": 0
        },
        "baseColorFactor": [
          1,
          1,
          1,
          1
        ],
        "metallicFactor": 0,
        "roughnessFactor": 0.775
      },
      "emissiveFactor": [
        0,
        0,
        0
      ],
      "alphaMode": "OPAQUE",
      "doubleSided": false
    }
  ],
  "meshes": [
    {
      "name": "Bush_D_02_LOD2_Cube.656-Mesh",
      "primitives": [
        {
          "attributes": {
            "POSITION": 0,
            "NORMAL": 1,
            "TEXCOORD_0": 2
          },
          "indices": 3,
          "material": 0,
          "mode": 4
        }
      ]
    }
  ],
  "nodes": [
    {
      "name": "Bush_D_02_LOD2_Cube.656",
      "mesh": 0
    }
  ],
  "samplers": [
    {
      "wrapS": 10497,
      "wrapT": 10497
    }
  ],
  "scene": 0,
  "scenes": [
    {
      "nodes": [
        0
      ]
    }
  ],
  "textures": [
    {
      "name": "Nature-Palette",
      "sampler": 0,
      "source": 0
    }
  ]
}
