{
  "accessors": [
    {
      "name": "Bush_A_02_LOD2_Cube.799-Mesh_0_positions",
      "componentType": 5126,
      "count": 150,
      "min": [
        12.768239974975586,
        -0.1028359979391098,
        -2.0139169692993164
      ],
      "max": [
        17.652164459228516,
        2.7938430309295654,
        1.947376012802124
      ],
      "type": "VEC3",
      "bufferView": 0,
      "byteOffset": 0
    },
    {
      "name": "Bush_A_02_LOD2_Cube.799-Mesh_0_normals",
      "componentType": 5126,
      "count": 150,
      "min": [
        -0.9801847338676453,
        -0.9956814646720886,
        -0.9795249700546265
      ],
      "max": [
        0.9947734475135803,
        0.9927624464035034,
        0.9657250642776489
      ],
      "type": "VEC3",
      "bufferView": 1,
      "byteOffset": 0
    },
    {
      "name": "Bush_A_02_LOD2_Cube.799-Mesh_0_texcoords",
      "componentType": 5126,
      "count": 150,
      "min": [
        0.4101170003414154,
        0.08744200319051743
      ],
      "max": [
        0.4111109972000122,
        0.08944399654865265
      ],
      "type": "VEC2",
      "bufferView": 2,
      "byteOffset": 0
    },
    {
      "name": "Bush_A_02_LOD2_Cube.799-Mesh_0_indices",
      "componentType": 5123,
      "count": 876,
      "min": [
        0
      ],
      "max": [
        149
      ],
      "type": "SCALAR",
      "bufferView": 3,
      "byteOffset": 0
    }
  ],
  "asset": {
    "generator": "obj2gltf",
    "version": "2.0"
  },
  "buffers": [
    {
      "name": "Bush_A_02_LOD2",
      "byteLength": 21276,
      "uri": "data:application/octet-stream;base64,"
    }
  ],
  "bufferViews": [
    {
      "name": "bufferView_0",
      "buffer": 0,
      "byteLength": 1800,
      "byteOffset": 0,
      "byteStride": 12,
      "target": 34962
    },
    {
      "name": "bufferView_1",
      "buffer": 0,
      "byteLength": 1800,
      "byteOffset": 1800,
      "byteStride": 12,
      "target": 34962
    },
    {
      "name": "bufferView_2",
      "buffer": 0,
      "byteLength": 1200,
      "byteOffset": 3600,
      "byteStride": 8,
      "target": 34962
    },
    {
      "name": "bufferView_3",
      "buffer": 0,
      "byteLength": 1752,
      "byteOffset": 4800,
      "target": 34963
    },
    {
      "buffer": 0,
      "byteOffset": 6552,
      "byteLength": 14724
    }
  ],
  "images": [
    {
      "name": "Nature-Palette",
      "mimeType": "image/png",
      "bufferView": 4
    }
  ],
  "materials": [
    {
      "name": "Mat_Nature",
      "pbrMetallicRoughness": {
        "baseColorTexture": {
          "index": 0
        },
        "baseColorFactor": [
          1,
          1,
          1,
          1
        ],
        "metallicFactor": 0,
        "roughnessFactor": 0.775
      },
      "emissiveFactor": [
        0,
        0,
        0
      ],
      "alphaMode": "OPAQUE",
      "doubleSided": false
    }
  ],
  "meshes": [
    {
      "name": "Bush_A_02_LOD2_Cube.799-Mesh",
      "primitives": [
        {
          "attributes": {
            "POSITION": 0,
            "NORMAL": 1,
            "TEXCOORD_0": 2
          },
          "indices": 3,
          "material": 0,
          "mode": 4
        }
      ]
    }
  ],
  "nodes": [
    {
      "name": "Bush_A_02_LOD2_Cube.799",
      "mesh": 0
    }
  ],
  "samplers": [
    {
      "wrapS": 10497,
      "wrapT": 10497
    }
  ],
  "scene": 0,
  "scenes": [
    {
      "nodes": [
        0
      ]
    }
  ],
  "textures": [
    {
      "name": "Nature-Palette",
      "sampler": 0,
      "source": 0
    }
  ]
}
