{
  "accessors": [
    {
      "name": "Bush_F_03_LOD2_Cube.724-Mesh_0_positions",
      "componentType": 5126,
      "count": 80,
      "min": [
        -57.233848571777344,
        -0.04719800129532814,
        -12.298070907592773
      ],
      "max": [
        -52.78081512451172,
        5.573678016662598,
        -7.681702136993408
      ],
      "type": "VEC3",
      "bufferView": 0,
      "byteOffset": 0
    },
    {
      "name": "Bush_F_03_LOD2_Cube.724-Mesh_0_normals",
      "componentType": 5126,
      "count": 80,
      "min": [
        -0.973727285861969,
        -0.9823071956634521,
        -0.9669950604438782
      ],
      "max": [
        0.9714106321334839,
        0.9927871227264404,
        0.9660521149635315
      ],
      "type": "VEC3",
      "bufferView": 1,
      "byteOffset": 0
    },
    {
      "name": "Bush_F_03_LOD2_Cube.724-Mesh_0_texcoords",
      "componentType": 5126,
      "count": 80,
      "min": [
        0.4173229932785034,
        0.7504590153694153
      ],
      "max": [
        0.4173229932785034,
        0.7504590153694153
      ],
      "type": "VEC2",
      "bufferView": 2,
      "byteOffset": 0
    },
    {
      "name": "Bush_F_03_LOD2_Cube.724-Mesh_0_indices",
      "componentType": 5123,
      "count": 468,
      "min": [
        0
      ],
      "max": [
        79
      ],
      "type": "SCALAR",
      "bufferView": 3,
      "byteOffset": 0
    }
  ],
  "asset": {
    "generator": "obj2gltf",
    "version": "2.0"
  },
  "buffers": [
    {
      "name": "Bush_F_03_LOD2",
      "byteLength": 18220,
      "uri": "data:application/octet-stream;base64,"
    }
  ],
  "bufferViews": [
    {
      "name": "bufferView_0",
      "buffer": 0,
      "byteLength": 960,
      "byteOffset": 0,
      "byteStride": 12,
      "target": 34962
    },
    {
      "name": "bufferView_1",
      "buffer": 0,
      "byteLength": 960,
      "byteOffset": 960,
      "byteStride": 12,
      "target": 34962
    },
    {
      "name": "bufferView_2",
      "buffer": 0,
      "byteLength": 640,
      "byteOffset": 1920,
      "byteStride": 8,
      "target": 34962
    },
    {
      "name": "bufferView_3",
      "buffer": 0,
      "byteLength": 936,
      "byteOffset": 2560,
      "target": 34963
    },
    {
      "buffer": 0,
      "byteOffset": 3496,
      "byteLength": 14724
    }
  ],
  "images": [
    {
      "name": "Nature-Palette",
      "mimeType": "image/png",
      "bufferView": 4
    }
  ],
  "materials": [
    {
      "name": "Mat_Nature",
      "pbrMetallicRoughness": {
        "baseColorTexture": {
          "index": 0
        },
        "baseColorFactor": [
          1,
          1,
          1,
          1
        ],
        "metallicFactor": 0,
        "roughnessFactor": 0.775
      },
      "emissiveFactor": [
        0,
        0,
        0
      ],
      "alphaMode": "OPAQUE",
      "doubleSided": false
    }
  ],
  "meshes": [
    {
      "name": "Bush_F_03_LOD2_Cube.724-Mesh",
      "primitives": [
        {
          "attributes": {
            "POSITION": 0,
            "NORMAL": 1,
            "TEXCOORD_0": 2
          },
          "indices": 3,
          "material": 0,
          "mode": 4
        }
      ]
    }
  ],
  "nodes": [
    {
      "name": "Bush_F_03_LOD2_Cube.724",
      "mesh": 0
    }
  ],
  "samplers": [
    {
      "wrapS": 10497,
      "wrapT": 10497
    }
  ],
  "scene": 0,
  "scenes": [
    {
      "nodes": [
        0
      ]
    }
  ],
  "textures": [
    {
      "name": "Nature-Palette",
      "sampler": 0,
      "source": 0
    }
  ]
}
