{
  "accessors": [
    {
      "name": "Bush_C_02_LOD2_Cylinder.614-Mesh_0_positions",
      "componentType": 5126,
      "count": 340,
      "min": [
        42.74974822998047,
        -0.1889059990644455,
        -12.217915534973145
      ],
      "max": [
        47.11200714111328,
        4.176927089691162,
        -7.673376083374023
      ],
      "type": "VEC3",
      "bufferView": 0,
      "byteOffset": 0
    },
    {
      "name": "Bush_C_02_LOD2_Cylinder.614-Mesh_0_normals",
      "componentType": 5126,
      "count": 340,
      "min": [
        -0.9976816177368164,
        -0.9991902112960815,
        -0.9819985032081604
      ],
      "max": [
        0.9985244870185852,
        0.9980359077453613,
        0.978289008140564
      ],
      "type": "VEC3",
      "bufferView": 1,
      "byteOffset": 0
    },
    {
      "name": "Bush_C_02_LOD2_Cylinder.614-Mesh_0_texcoords",
      "componentType": 5126,
      "count": 340,
      "min": [
        0.40826401114463806,
        0.08236599713563919
      ],
      "max": [
        0.40826401114463806,
        0.08236599713563919
      ],
      "type": "VEC2",
      "bufferView": 2,
      "byteOffset": 0
    },
    {
      "name": "Bush_C_02_LOD2_Cylinder.614-Mesh_0_indices",
      "componentType": 5123,
      "count": 2016,
      "min": [
        0
      ],
      "max": [
        339
      ],
      "type": "SCALAR",
      "bufferView": 3,
      "byteOffset": 0
    }
  ],
  "asset": {
    "generator": "obj2gltf",
    "version": "2.0"
  },
  "buffers": [
    {
      "name": "Bush_C_02_LOD2",
      "byteLength": 29636,
      "uri": "data:application/octet-stream;base64,"
    }
  ],
  "bufferViews": [
    {
      "name": "bufferView_0",
      "buffer": 0,
      "byteLength": 4080,
      "byteOffset": 0,
      "byteStride": 12,
      "target": 34962
    },
    {
      "name": "bufferView_1",
      "buffer": 0,
      "byteLength": 4080,
      "byteOffset": 4080,
      "byteStride": 12,
      "target": 34962
    },
    {
      "name": "bufferView_2",
      "buffer": 0,
      "byteLength": 2720,
      "byteOffset": 8160,
      "byteStride": 8,
      "target": 34962
    },
    {
      "name": "bufferView_3",
      "buffer": 0,
      "byteLength": 4032,
      "byteOffset": 10880,
      "target": 34963
    },
    {
      "buffer": 0,
      "byteOffset": 14912,
      "byteLength": 14724
    }
  ],
  "images": [
    {
      "name": "Nature-Palette",
      "mimeType": "image/png",
      "bufferView": 4
    }
  ],
  "materials": [
    {
      "name": "Mat_Nature",
      "pbrMetallicRoughness": {
        "baseColorTexture": {
          "index": 0
        },
        "baseColorFactor": [
          1,
          1,
          1,
          1
        ],
        "metallicFactor": 0,
        "roughnessFactor": 0.775
      },
      "emissiveFactor": [
        0,
        0,
        0
      ],
      "alphaMode": "OPAQUE",
      "doubleSided": false
    }
  ],
  "meshes": [
    {
      "name": "Bush_C_02_LOD2_Cylinder.614-Mesh",
      "primitives": [
        {
          "attributes": {
            "POSITION": 0,
            "NORMAL": 1,
            "TEXCOORD_0": 2
          },
          "indices": 3,
          "material": 0,
          "mode": 4
        }
      ]
    }
  ],
  "nodes": [
    {
      "name": "Bush_C_02_LOD2_Cylinder.614",
      "mesh": 0
    }
  ],
  "samplers": [
    {
      "wrapS": 10497,
      "wrapT": 10497
    }
  ],
  "scene": 0,
  "scenes": [
    {
      "nodes": [
        0
      ]
    }
  ],
  "textures": [
    {
      "name": "Nature-Palette",
      "sampler": 0,
      "source": 0
    }
  ]
}
