{
  "accessors": [
    {
      "name": "Bush_E_01_LOD2_Cube.654-Mesh_0_positions",
      "componentType": 5126,
      "count": 153,
      "min": [
        51.81998062133789,
        -0.1733119934797287,
        7.439149856567383
      ],
      "max": [
        57.502113342285156,
        3.7260661125183105,
        12.801288604736328
      ],
      "type": "VEC3",
      "bufferView": 0,
      "byteOffset": 0
    },
    {
      "name": "Bush_E_01_LOD2_Cube.654-Mesh_0_normals",
      "componentType": 5126,
      "count": 153,
      "min": [
        -0.9904775023460388,
        -0.9999663829803467,
        -0.9729732275009155
      ],
      "max": [
        0.9923651218414307,
        0.9982317090034485,
        0.9820194840431213
      ],
      "type": "VEC3",
      "bufferView": 1,
      "byteOffset": 0
    },
    {
      "name": "Bush_E_01_LOD2_Cube.654-Mesh_0_texcoords",
      "componentType": 5126,
      "count": 153,
      "min": [
        0.577485978603363,
        0.0820859968662262
      ],
      "max": [
        0.7428399920463562,
        0.0820859968662262
      ],
      "type": "VEC2",
      "bufferView": 2,
      "byteOffset": 0
    },
    {
      "name": "Bush_E_01_LOD2_Cube.654-Mesh_0_indices",
      "componentType": 5123,
      "count": 570,
      "min": [
        0
      ],
      "max": [
        152
      ],
      "type": "SCALAR",
      "bufferView": 3,
      "byteOffset": 0
    }
  ],
  "asset": {
    "generator": "obj2gltf",
    "version": "2.0"
  },
  "buffers": [
    {
      "name": "Bush_E_01_LOD2",
      "byteLength": 20760,
      "uri": "data:application/octet-stream;base64,"
    }
  ],
  "bufferViews": [
    {
      "name": "bufferView_0",
      "buffer": 0,
      "byteLength": 1836,
      "byteOffset": 0,
      "byteStride": 12,
      "target": 34962
    },
    {
      "name": "bufferView_1",
      "buffer": 0,
      "byteLength": 1836,
      "byteOffset": 1836,
      "byteStride": 12,
      "target": 34962
    },
    {
      "name": "bufferView_2",
      "buffer": 0,
      "byteLength": 1224,
      "byteOffset": 3672,
      "byteStride": 8,
      "target": 34962
    },
    {
      "name": "bufferView_3",
      "buffer": 0,
      "byteLength": 1140,
      "byteOffset": 4896,
      "target": 34963
    },
    {
      "buffer": 0,
      "byteOffset": 6036,
      "byteLength": 14724
    }
  ],
  "images": [
    {
      "name": "Nature-Palette",
      "mimeType": "image/png",
      "bufferView": 4
    }
  ],
  "materials": [
    {
      "name": "Mat_Nature",
      "pbrMetallicRoughness": {
        "baseColorTexture": {
          "index": 0
        },
        "baseColorFactor": [
          1,
          1,
          1,
          1
        ],
        "metallicFactor": 0,
        "roughnessFactor": 0.775
      },
      "emissiveFactor": [
        0,
        0,
        0
      ],
      "alphaMode": "OPAQUE",
      "doubleSided": false
    }
  ],
  "meshes": [
    {
      "name": "Bush_E_01_LOD2_Cube.654-Mesh",
      "primitives": [
        {
          "attributes": {
            "POSITION": 0,
            "NORMAL": 1,
            "TEXCOORD_0": 2
          },
          "indices": 3,
          "material": 0,
          "mode": 4
        }
      ]
    }
  ],
  "nodes": [
    {
      "name": "Bush_E_01_LOD2_Cube.654",
      "mesh": 0
    }
  ],
  "samplers": [
    {
      "wrapS": 10497,
      "wrapT": 10497
    }
  ],
  "scene": 0,
  "scenes": [
    {
      "nodes": [
        0
      ]
    }
  ],
  "textures": [
    {
      "name": "Nature-Palette",
      "sampler": 0,
      "source": 0
    }
  ]
}
