{
  "accessors": [
    {
      "name": "Bush_B_01_LOD2_Cube.768-Mesh_0_positions",
      "componentType": 5126,
      "count": 380,
      "min": [
        2.6046628952026367,
        -0.22000400722026825,
        -12.649675369262695
      ],
      "max": [
        7.376092910766602,
        3.6136128902435303,
        -7.5039448738098145
      ],
      "type": "VEC3",
      "bufferView": 0,
      "byteOffset": 0
    },
    {
      "name": "Bush_B_01_LOD2_Cube.768-Mesh_0_normals",
      "componentType": 5126,
      "count": 380,
      "min": [
        -0.9954423904418945,
        -0.9999769926071167,
        -0.9953469634056091
      ],
      "max": [
        0.9952872395515442,
        0.9996331334114075,
        0.993073582649231
      ],
      "type": "VEC3",
      "bufferView": 1,
      "byteOffset": 0
    },
    {
      "name": "Bush_B_01_LOD2_Cube.768-Mesh_0_texcoords",
      "componentType": 5126,
      "count": 380,
      "min": [
        0.2575260102748871,
        0.2580310106277466
      ],
      "max": [
        0.2575260102748871,
        0.2580310106277466
      ],
      "type": "VEC2",
      "bufferView": 2,
      "byteOffset": 0
    },
    {
      "name": "Bush_B_01_LOD2_Cube.768-Mesh_0_indices",
      "componentType": 5123,
      "count": 1968,
      "min": [
        0
      ],
      "max": [
        379
      ],
      "type": "SCALAR",
      "bufferView": 3,
      "byteOffset": 0
    }
  ],
  "asset": {
    "generator": "obj2gltf",
    "version": "2.0"
  },
  "buffers": [
    {
      "name": "Bush_B_01_LOD2",
      "byteLength": 30820,
      "uri": "data:application/octet-stream;base64,"
    }
  ],
  "bufferViews": [
    {
      "name": "bufferView_0",
      "buffer": 0,
      "byteLength": 4560,
      "byteOffset": 0,
      "byteStride": 12,
      "target": 34962
    },
    {
      "name": "bufferView_1",
      "buffer": 0,
      "byteLength": 4560,
      "byteOffset": 4560,
      "byteStride": 12,
      "target": 34962
    },
    {
      "name": "bufferView_2",
      "buffer": 0,
      "byteLength": 3040,
      "byteOffset": 9120,
      "byteStride": 8,
      "target": 34962
    },
    {
      "name": "bufferView_3",
      "buffer": 0,
      "byteLength": 3936,
      "byteOffset": 12160,
      "target": 34963
    },
    {
      "buffer": 0,
      "byteOffset": 16096,
      "byteLength": 14724
    }
  ],
  "images": [
    {
      "name": "Nature-Palette",
      "mimeType": "image/png",
      "bufferView": 4
    }
  ],
  "materials": [
    {
      "name": "Mat_Nature",
      "pbrMetallicRoughness": {
        "baseColorTexture": {
          "index": 0
        },
        "baseColorFactor": [
          1,
          1,
          1,
          1
        ],
        "metallicFactor": 0,
        "roughnessFactor": 0.775
      },
      "emissiveFactor": [
        0,
        0,
        0
      ],
      "alphaMode": "OPAQUE",
      "doubleSided": false
    }
  ],
  "meshes": [
    {
      "name": "Bush_B_01_LOD2_Cube.768-Mesh",
      "primitives": [
        {
          "attributes": {
            "POSITION": 0,
            "NORMAL": 1,
            "TEXCOORD_0": 2
          },
          "indices": 3,
          "material": 0,
          "mode": 4
        }
      ]
    }
  ],
  "nodes": [
    {
      "name": "Bush_B_01_LOD2_Cube.768",
      "mesh": 0
    }
  ],
  "samplers": [
    {
      "wrapS": 10497,
      "wrapT": 10497
    }
  ],
  "scene": 0,
  "scenes": [
    {
      "nodes": [
        0
      ]
    }
  ],
  "textures": [
    {
      "name": "Nature-Palette",
      "sampler": 0,
      "source": 0
    }
  ]
}
