{
  "accessors": [
    {
      "name": "Bush_C_03_LOD2_Cylinder.613-Mesh_0_positions",
      "componentType": 5126,
      "count": 316,
      "min": [
        52.90634536743164,
        -0.005824999883770943,
        -11.967212677001953
      ],
      "max": [
        57.10445022583008,
        3.6467020511627197,
        -7.786584854125977
      ],
      "type": "VEC3",
      "bufferView": 0,
      "byteOffset": 0
    },
    {
      "name": "Bush_C_03_LOD2_Cylinder.613-Mesh_0_normals",
      "componentType": 5126,
      "count": 316,
      "min": [
        -0.995468258857727,
        -0.9996050000190735,
        -0.99330735206604
      ],
      "max": [
        0.9916950464248657,
        0.998816192150116,
        0.9938502311706543
      ],
      "type": "VEC3",
      "bufferView": 1,
      "byteOffset": 0
    },
    {
      "name": "Bush_C_03_LOD2_Cylinder.613-Mesh_0_texcoords",
      "componentType": 5126,
      "count": 316,
      "min": [
        0.40826401114463806,
        0.08236599713563919
      ],
      "max": [
        0.40826401114463806,
        0.08236599713563919
      ],
      "type": "VEC2",
      "bufferView": 2,
      "byteOffset": 0
    },
    {
      "name": "Bush_C_03_LOD2_Cylinder.613-Mesh_0_indices",
      "componentType": 5123,
      "count": 1872,
      "min": [
        0
      ],
      "max": [
        315
      ],
      "type": "SCALAR",
      "bufferView": 3,
      "byteOffset": 0
    }
  ],
  "asset": {
    "generator": "obj2gltf",
    "version": "2.0"
  },
  "buffers": [
    {
      "name": "Bush_C_03_LOD2",
      "byteLength": 28580,
      "uri": "data:application/octet-stream;base64,"
    }
  ],
  "bufferViews": [
    {
      "name": "bufferView_0",
      "buffer": 0,
      "byteLength": 3792,
      "byteOffset": 0,
      "byteStride": 12,
      "target": 34962
    },
    {
      "name": "bufferView_1",
      "buffer": 0,
      "byteLength": 3792,
      "byteOffset": 3792,
      "byteStride": 12,
      "target": 34962
    },
    {
      "name": "bufferView_2",
      "buffer": 0,
      "byteLength": 2528,
      "byteOffset": 7584,
      "byteStride": 8,
      "target": 34962
    },
    {
      "name": "bufferView_3",
      "buffer": 0,
      "byteLength": 3744,
      "byteOffset": 10112,
      "target": 34963
    },
    {
      "buffer": 0,
      "byteOffset": 13856,
      "byteLength": 14724
    }
  ],
  "images": [
    {
      "name": "Nature-Palette",
      "mimeType": "image/png",
      "bufferView": 4
    }
  ],
  "materials": [
    {
      "name": "Mat_Nature",
      "pbrMetallicRoughness": {
        "baseColorTexture": {
          "index": 0
        },
        "baseColorFactor": [
          1,
          1,
          1,
          1
        ],
        "metallicFactor": 0,
        "roughnessFactor": 0.775
      },
      "emissiveFactor": [
        0,
        0,
        0
      ],
      "alphaMode": "OPAQUE",
      "doubleSided": false
    }
  ],
  "meshes": [
    {
      "name": "Bush_C_03_LOD2_Cylinder.613-Mesh",
      "primitives": [
        {
          "attributes": {
            "POSITION": 0,
            "NORMAL": 1,
            "TEXCOORD_0": 2
          },
          "indices": 3,
          "material": 0,
          "mode": 4
        }
      ]
    }
  ],
  "nodes": [
    {
      "name": "Bush_C_03_LOD2_Cylinder.613",
      "mesh": 0
    }
  ],
  "samplers": [
    {
      "wrapS": 10497,
      "wrapT": 10497
    }
  ],
  "scene": 0,
  "scenes": [
    {
      "nodes": [
        0
      ]
    }
  ],
  "textures": [
    {
      "name": "Nature-Palette",
      "sampler": 0,
      "source": 0
    }
  ]
}
