{
  "accessors": [
    {
      "name": "Bush_E_03_LOD2_Cube.652-Mesh_0_positions",
      "componentType": 5126,
      "count": 208,
      "min": [
        30.70502471923828,
        -0.17183299362659454,
        7.92642879486084
      ],
      "max": [
        39.100746154785156,
        3.129199981689453,
        12.240335464477539
      ],
      "type": "VEC3",
      "bufferView": 0,
      "byteOffset": 0
    },
    {
      "name": "Bush_E_03_LOD2_Cube.652-Mesh_0_normals",
      "componentType": 5126,
      "count": 208,
      "min": [
        -0.9637587666511536,
        -0.9999945759773254,
        -0.9717534184455872
      ],
      "max": [
        0.991741955280304,
        0.9998131394386292,
        0.9826948046684265
      ],
      "type": "VEC3",
      "bufferView": 1,
      "byteOffset": 0
    },
    {
      "name": "Bush_E_03_LOD2_Cube.652-Mesh_0_texcoords",
      "componentType": 5126,
      "count": 208,
      "min": [
        0.5802419781684875,
        0.0820859968662262
      ],
      "max": [
        0.7455970048904419,
        0.08208800107240677
      ],
      "type": "VEC2",
      "bufferView": 2,
      "byteOffset": 0
    },
    {
      "name": "Bush_E_03_LOD2_Cube.652-Mesh_0_indices",
      "componentType": 5123,
      "count": 732,
      "min": [
        0
      ],
      "max": [
        207
      ],
      "type": "SCALAR",
      "bufferView": 3,
      "byteOffset": 0
    }
  ],
  "asset": {
    "generator": "obj2gltf",
    "version": "2.0"
  },
  "buffers": [
    {
      "name": "Bush_E_03_LOD2",
      "byteLength": 22844,
      "uri": "data:application/octet-stream;base64,"
    }
  ],
  "bufferViews": [
    {
      "name": "bufferView_0",
      "buffer": 0,
      "byteLength": 2496,
      "byteOffset": 0,
      "byteStride": 12,
      "target": 34962
    },
    {
      "name": "bufferView_1",
      "buffer": 0,
      "byteLength": 2496,
      "byteOffset": 2496,
      "byteStride": 12,
      "target": 34962
    },
    {
      "name": "bufferView_2",
      "buffer": 0,
      "byteLength": 1664,
      "byteOffset": 4992,
      "byteStride": 8,
      "target": 34962
    },
    {
      "name": "bufferView_3",
      "buffer": 0,
      "byteLength": 1464,
      "byteOffset": 6656,
      "target": 34963
    },
    {
      "buffer": 0,
      "byteOffset": 8120,
      "byteLength": 14724
    }
  ],
  "images": [
    {
      "name": "Nature-Palette",
      "mimeType": "image/png",
      "bufferView": 4
    }
  ],
  "materials": [
    {
      "name": "Mat_Nature",
      "pbrMetallicRoughness": {
        "baseColorTexture": {
          "index": 0
        },
        "baseColorFactor": [
          1,
          1,
          1,
          1
        ],
        "metallicFactor": 0,
        "roughnessFactor": 0.775
      },
      "emissiveFactor": [
        0,
        0,
        0
      ],
      "alphaMode": "OPAQUE",
      "doubleSided": false
    }
  ],
  "meshes": [
    {
      "name": "Bush_E_03_LOD2_Cube.652-Mesh",
      "primitives": [
        {
          "attributes": {
            "POSITION": 0,
            "NORMAL": 1,
            "TEXCOORD_0": 2
          },
          "indices": 3,
          "material": 0,
          "mode": 4
        }
      ]
    }
  ],
  "nodes": [
    {
      "name": "Bush_E_03_LOD2_Cube.652",
      "mesh": 0
    }
  ],
  "samplers": [
    {
      "wrapS": 10497,
      "wrapT": 10497
    }
  ],
  "scene": 0,
  "scenes": [
    {
      "nodes": [
        0
      ]
    }
  ],
  "textures": [
    {
      "name": "Nature-Palette",
      "sampler": 0,
      "source": 0
    }
  ]
}
