{
  "accessors": [
    {
      "name": "Bush_E_02_LOD2_Cube.653-Mesh_0_positions",
      "componentType": 5126,
      "count": 178,
      "min": [
        41.54296875,
        -0.15106000006198883,
        7.262038230895996
      ],
      "max": [
        48.133811950683594,
        3.3668859004974365,
        12.171937942504883
      ],
      "type": "VEC3",
      "bufferView": 0,
      "byteOffset": 0
    },
    {
      "name": "Bush_E_02_LOD2_Cube.653-Mesh_0_normals",
      "componentType": 5126,
      "count": 178,
      "min": [
        -0.9907298684120178,
        -0.9999817609786987,
        -0.9894191026687622
      ],
      "max": [
        0.9985840916633606,
        0.9925902485847473,
        0.977034866809845
      ],
      "type": "VEC3",
      "bufferView": 1,
      "byteOffset": 0
    },
    {
      "name": "Bush_E_02_LOD2_Cube.653-Mesh_0_texcoords",
      "componentType": 5126,
      "count": 178,
      "min": [
        0.5802419781684875,
        0.0820859968662262
      ],
      "max": [
        0.7455959916114807,
        0.0820859968662262
      ],
      "type": "VEC2",
      "bufferView": 2,
      "byteOffset": 0
    },
    {
      "name": "Bush_E_02_LOD2_Cube.653-Mesh_0_indices",
      "componentType": 5123,
      "count": 672,
      "min": [
        0
      ],
      "max": [
        177
      ],
      "type": "SCALAR",
      "bufferView": 3,
      "byteOffset": 0
    }
  ],
  "asset": {
    "generator": "obj2gltf",
    "version": "2.0"
  },
  "buffers": [
    {
      "name": "Bush_E_02_LOD2",
      "byteLength": 21764,
      "uri": "data:application/octet-stream;base64,"
    }
  ],
  "bufferViews": [
    {
      "name": "bufferView_0",
      "buffer": 0,
      "byteLength": 2136,
      "byteOffset": 0,
      "byteStride": 12,
      "target": 34962
    },
    {
      "name": "bufferView_1",
      "buffer": 0,
      "byteLength": 2136,
      "byteOffset": 2136,
      "byteStride": 12,
      "target": 34962
    },
    {
      "name": "bufferView_2",
      "buffer": 0,
      "byteLength": 1424,
      "byteOffset": 4272,
      "byteStride": 8,
      "target": 34962
    },
    {
      "name": "bufferView_3",
      "buffer": 0,
      "byteLength": 1344,
      "byteOffset": 5696,
      "target": 34963
    },
    {
      "buffer": 0,
      "byteOffset": 7040,
      "byteLength": 14724
    }
  ],
  "images": [
    {
      "name": "Nature-Palette",
      "mimeType": "image/png",
      "bufferView": 4
    }
  ],
  "materials": [
    {
      "name": "Mat_Nature",
      "pbrMetallicRoughness": {
        "baseColorTexture": {
          "index": 0
        },
        "baseColorFactor": [
          1,
          1,
          1,
          1
        ],
        "metallicFactor": 0,
        "roughnessFactor": 0.775
      },
      "emissiveFactor": [
        0,
        0,
        0
      ],
      "alphaMode": "OPAQUE",
      "doubleSided": false
    }
  ],
  "meshes": [
    {
      "name": "Bush_E_02_LOD2_Cube.653-Mesh",
      "primitives": [
        {
          "attributes": {
            "POSITION": 0,
            "NORMAL": 1,
            "TEXCOORD_0": 2
          },
          "indices": 3,
          "material": 0,
          "mode": 4
        }
      ]
    }
  ],
  "nodes": [
    {
      "name": "Bush_E_02_LOD2_Cube.653",
      "mesh": 0
    }
  ],
  "samplers": [
    {
      "wrapS": 10497,
      "wrapT": 10497
    }
  ],
  "scene": 0,
  "scenes": [
    {
      "nodes": [
        0
      ]
    }
  ],
  "textures": [
    {
      "name": "Nature-Palette",
      "sampler": 0,
      "source": 0
    }
  ]
}
