{
  "accessors": [
    {
      "name": "Bush_D_01_LOD2_Cube.657-Mesh_0_positions",
      "componentType": 5126,
      "count": 162,
      "min": [
        52.51801681518555,
        -0.1164809986948967,
        -1.9290319681167603
      ],
      "max": [
        57.236053466796875,
        2.7147059440612793,
        1.9098169803619385
      ],
      "type": "VEC3",
      "bufferView": 0,
      "byteOffset": 0
    },
    {
      "name": "Bush_D_01_LOD2_Cube.657-Mesh_0_normals",
      "componentType": 5126,
      "count": 162,
      "min": [
        -0.9974267482757568,
        -0.9999998807907104,
        -0.9947475790977478
      ],
      "max": [
        0.9998630285263062,
        0.9997054934501648,
        0.9984796047210693
      ],
      "type": "VEC3",
      "bufferView": 1,
      "byteOffset": 0
    },
    {
      "name": "Bush_D_01_LOD2_Cube.657-Mesh_0_texcoords",
      "componentType": 5126,
      "count": 162,
      "min": [
        0.41374701261520386,
        0.09307599812746048
      ],
      "max": [
        0.41374799609184265,
        0.09307699650526047
      ],
      "type": "VEC2",
      "bufferView": 2,
      "byteOffset": 0
    },
    {
      "name": "Bush_D_01_LOD2_Cube.657-Mesh_0_indices",
      "componentType": 5123,
      "count": 960,
      "min": [
        0
      ],
      "max": [
        161
      ],
      "type": "SCALAR",
      "bufferView": 3,
      "byteOffset": 0
    }
  ],
  "asset": {
    "generator": "obj2gltf",
    "version": "2.0"
  },
  "buffers": [
    {
      "name": "Bush_D_01_LOD2",
      "byteLength": 21828,
      "uri": "data:application/octet-stream;base64,"
    }
  ],
  "bufferViews": [
    {
      "name": "bufferView_0",
      "buffer": 0,
      "byteLength": 1944,
      "byteOffset": 0,
      "byteStride": 12,
      "target": 34962
    },
    {
      "name": "bufferView_1",
      "buffer": 0,
      "byteLength": 1944,
      "byteOffset": 1944,
      "byteStride": 12,
      "target": 34962
    },
    {
      "name": "bufferView_2",
      "buffer": 0,
      "byteLength": 1296,
      "byteOffset": 3888,
      "byteStride": 8,
      "target": 34962
    },
    {
      "name": "bufferView_3",
      "buffer": 0,
      "byteLength": 1920,
      "byteOffset": 5184,
      "target": 34963
    },
    {
      "buffer": 0,
      "byteOffset": 7104,
      "byteLength": 14724
    }
  ],
  "images": [
    {
      "name": "Nature-Palette",
      "mimeType": "image/png",
      "bufferView": 4
    }
  ],
  "materials": [
    {
      "name": "Mat_Nature",
      "pbrMetallicRoughness": {
        "baseColorTexture": {
          "index": 0
        },
        "baseColorFactor": [
          1,
          1,
          1,
          1
        ],
        "metallicFactor": 0,
        "roughnessFactor": 0.775
      },
      "emissiveFactor": [
        0,
        0,
        0
      ],
      "alphaMode": "OPAQUE",
      "doubleSided": false
    }
  ],
  "meshes": [
    {
      "name": "Bush_D_01_LOD2_Cube.657-Mesh",
      "primitives": [
        {
          "attributes": {
            "POSITION": 0,
            "NORMAL": 1,
            "TEXCOORD_0": 2
          },
          "indices": 3,
          "material": 0,
          "mode": 4
        }
      ]
    }
  ],
  "nodes": [
    {
      "name": "Bush_D_01_LOD2_Cube.657",
      "mesh": 0
    }
  ],
  "samplers": [
    {
      "wrapS": 10497,
      "wrapT": 10497
    }
  ],
  "scene": 0,
  "scenes": [
    {
      "nodes": [
        0
      ]
    }
  ],
  "textures": [
    {
      "name": "Nature-Palette",
      "sampler": 0,
      "source": 0
    }
  ]
}
