{
  "accessors": [
    {
      "name": "Bush_A_03_LOD2_Cube.800-Mesh_0_positions",
      "componentType": 5126,
      "count": 118,
      "min": [
        22.8690242767334,
        -0.12646900117397308,
        -1.487786054611206
      ],
      "max": [
        27.010351181030273,
        2.1575400829315186,
        1.909216046333313
      ],
      "type": "VEC3",
      "bufferView": 0,
      "byteOffset": 0
    },
    {
      "name": "Bush_A_03_LOD2_Cube.800-Mesh_0_normals",
      "componentType": 5126,
      "count": 118,
      "min": [
        -0.9898111820220947,
        -0.9970806241035461,
        -0.9858366250991821
      ],
      "max": [
        0.991126537322998,
        0.9921844601631165,
        0.9915067553520203
      ],
      "type": "VEC3",
      "bufferView": 1,
      "byteOffset": 0
    },
    {
      "name": "Bush_A_03_LOD2_Cube.800-Mesh_0_texcoords",
      "componentType": 5126,
      "count": 118,
      "min": [
        0.4101170003414154,
        0.08744200319051743
      ],
      "max": [
        0.4111109972000122,
        0.08944399654865265
      ],
      "type": "VEC2",
      "bufferView": 2,
      "byteOffset": 0
    },
    {
      "name": "Bush_A_03_LOD2_Cube.800-Mesh_0_indices",
      "componentType": 5123,
      "count": 684,
      "min": [
        0
      ],
      "max": [
        117
      ],
      "type": "SCALAR",
      "bufferView": 3,
      "byteOffset": 0
    }
  ],
  "asset": {
    "generator": "obj2gltf",
    "version": "2.0"
  },
  "buffers": [
    {
      "name": "Bush_A_03_LOD2",
      "byteLength": 19868,
      "uri": "data:application/octet-stream;base64,"
    }
  ],
  "bufferViews": [
    {
      "name": "bufferView_0",
      "buffer": 0,
      "byteLength": 1416,
      "byteOffset": 0,
      "byteStride": 12,
      "target": 34962
    },
    {
      "name": "bufferView_1",
      "buffer": 0,
      "byteLength": 1416,
      "byteOffset": 1416,
      "byteStride": 12,
      "target": 34962
    },
    {
      "name": "bufferView_2",
      "buffer": 0,
      "byteLength": 944,
      "byteOffset": 2832,
      "byteStride": 8,
      "target": 34962
    },
    {
      "name": "bufferView_3",
      "buffer": 0,
      "byteLength": 1368,
      "byteOffset": 3776,
      "target": 34963
    },
    {
      "buffer": 0,
      "byteOffset": 5144,
      "byteLength": 14724
    }
  ],
  "images": [
    {
      "name": "Nature-Palette",
      "mimeType": "image/png",
      "bufferView": 4
    }
  ],
  "materials": [
    {
      "name": "Mat_Nature",
      "pbrMetallicRoughness": {
        "baseColorTexture": {
          "index": 0
        },
        "baseColorFactor": [
          1,
          1,
          1,
          1
        ],
        "metallicFactor": 0,
        "roughnessFactor": 0.775
      },
      "emissiveFactor": [
        0,
        0,
        0
      ],
      "alphaMode": "OPAQUE",
      "doubleSided": false
    }
  ],
  "meshes": [
    {
      "name": "Bush_A_03_LOD2_Cube.800-Mesh",
      "primitives": [
        {
          "attributes": {
            "POSITION": 0,
            "NORMAL": 1,
            "TEXCOORD_0": 2
          },
          "indices": 3,
          "material": 0,
          "mode": 4
        }
      ]
    }
  ],
  "nodes": [
    {
      "name": "Bush_A_03_LOD2_Cube.800",
      "mesh": 0
    }
  ],
  "samplers": [
    {
      "wrapS": 10497,
      "wrapT": 10497
    }
  ],
  "scene": 0,
  "scenes": [
    {
      "nodes": [
        0
      ]
    }
  ],
  "textures": [
    {
      "name": "Nature-Palette",
      "sampler": 0,
      "source": 0
    }
  ]
}
