{
  "accessors": [
    {
      "name": "Conifer_04_LOD2_Cylinder.609-Mesh_0_positions",
      "componentType": 5126,
      "count": 595,
      "min": [
        31.89140510559082,
        0.00773600023239851,
        -32.91947555541992
      ],
      "max": [
        37.856666564941406,
        18.030942916870117,
        -27.176441192626953
      ],
      "type": "VEC3",
      "bufferView": 0,
      "byteOffset": 0
    },
    {
      "name": "Conifer_04_LOD2_Cylinder.609-Mesh_0_normals",
      "componentType": 5126,
      "count": 595,
      "min": [
        -0.9918304681777954,
        -0.9999963045120239,
        -0.9911660552024841
      ],
      "max": [
        0.9655120968818665,
        0.9990294575691223,
        0.9909565448760986
      ],
      "type": "VEC3",
      "bufferView": 1,
      "byteOffset": 0
    },
    {
      "name": "Conifer_04_LOD2_Cylinder.609-Mesh_0_texcoords",
      "componentType": 5126,
      "count": 595,
      "min": [
        0.23765000700950623,
        0.08892799913883209
      ],
      "max": [
        0.9187139868736267,
        0.7490699887275696
      ],
      "type": "VEC2",
      "bufferView": 2,
      "byteOffset": 0
    },
    {
      "name": "Conifer_04_LOD2_Cylinder.609-Mesh_0_indices",
      "componentType": 5123,
      "count": 3504,
      "min": [
        0
      ],
      "max": [
        594
      ],
      "type": "SCALAR",
      "bufferView": 3,
      "byteOffset": 0
    }
  ],
  "asset": {
    "generator": "obj2gltf",
    "version": "2.0"
  },
  "buffers": [
    {
      "name": "Conifer_04_LOD2",
      "byteLength": 40772,
      "uri": "data:application/octet-stream;base64,"
    }
  ],
  "bufferViews": [
    {
      "name": "bufferView_0",
      "buffer": 0,
      "byteLength": 7140,
      "byteOffset": 0,
      "byteStride": 12,
      "target": 34962
    },
    {
      "name": "bufferView_1",
      "buffer": 0,
      "byteLength": 7140,
      "byteOffset": 7140,
      "byteStride": 12,
      "target": 34962
    },
    {
      "name": "bufferView_2",
      "buffer": 0,
      "byteLength": 4760,
      "byteOffset": 14280,
      "byteStride": 8,
      "target": 34962
    },
    {
      "name": "bufferView_3",
      "buffer": 0,
      "byteLength": 7008,
      "byteOffset": 19040,
      "target": 34963
    },
    {
      "buffer": 0,
      "byteOffset": 26048,
      "byteLength": 14724
    }
  ],
  "images": [
    {
      "name": "Nature-Palette",
      "mimeType": "image/png",
      "bufferView": 4
    }
  ],
  "materials": [
    {
      "name": "Mat_Nature",
      "pbrMetallicRoughness": {
        "baseColorTexture": {
          "index": 0
        },
        "baseColorFactor": [
          1,
          1,
          1,
          1
        ],
        "metallicFactor": 0,
        "roughnessFactor": 0.775
      },
      "emissiveFactor": [
        0,
        0,
        0
      ],
      "alphaMode": "OPAQUE",
      "doubleSided": false
    }
  ],
  "meshes": [
    {
      "name": "Conifer_04_LOD2_Cylinder.609-Mesh",
      "primitives": [
        {
          "attributes": {
            "POSITION": 0,
            "NORMAL": 1,
            "TEXCOORD_0": 2
          },
          "indices": 3,
          "material": 0,
          "mode": 4
        }
      ]
    }
  ],
  "nodes": [
    {
      "name": "Conifer_04_LOD2_Cylinder.609",
      "mesh": 0
    }
  ],
  "samplers": [
    {
      "wrapS": 10497,
      "wrapT": 10497
    }
  ],
  "scene": 0,
  "scenes": [
    {
      "nodes": [
        0
      ]
    }
  ],
  "textures": [
    {
      "name": "Nature-Palette",
      "sampler": 0,
      "source": 0
    }
  ]
}
