{
  "accessors": [
    {
      "name": "Conifer_01_LOD2_Cylinder.612-Mesh_0_positions",
      "componentType": 5126,
      "count": 631,
      "min": [
        32.18229675292969,
        0.006936999969184399,
        -22.823257446289062
      ],
      "max": [
        37.657806396484375,
        13.470524787902832,
        -17.389028549194336
      ],
      "type": "VEC3",
      "bufferView": 0,
      "byteOffset": 0
    },
    {
      "name": "Conifer_01_LOD2_Cylinder.612-Mesh_0_normals",
      "componentType": 5126,
      "count": 631,
      "min": [
        -0.999754786491394,
        -0.9999973773956299,
        -0.9947351217269897
      ],
      "max": [
        0.9992945194244385,
        0.9987334609031677,
        0.999641478061676
      ],
      "type": "VEC3",
      "bufferView": 1,
      "byteOffset": 0
    },
    {
      "name": "Conifer_01_LOD2_Cylinder.612-Mesh_0_texcoords",
      "componentType": 5126,
      "count": 631,
      "min": [
        0.23765000700950623,
        0.08892799913883209
      ],
      "max": [
        0.9187139868736267,
        0.7490699887275696
      ],
      "type": "VEC2",
      "bufferView": 2,
      "byteOffset": 0
    },
    {
      "name": "Conifer_01_LOD2_Cylinder.612-Mesh_0_indices",
      "componentType": 5123,
      "count": 3708,
      "min": [
        0
      ],
      "max": [
        630
      ],
      "type": "SCALAR",
      "bufferView": 3,
      "byteOffset": 0
    }
  ],
  "asset": {
    "generator": "obj2gltf",
    "version": "2.0"
  },
  "buffers": [
    {
      "name": "Conifer_01_LOD2",
      "byteLength": 42332,
      "uri": "data:application/octet-stream;base64,"
    }
  ],
  "bufferViews": [
    {
      "name": "bufferView_0",
      "buffer": 0,
      "byteLength": 7572,
      "byteOffset": 0,
      "byteStride": 12,
      "target": 34962
    },
    {
      "name": "bufferView_1",
      "buffer": 0,
      "byteLength": 7572,
      "byteOffset": 7572,
      "byteStride": 12,
      "target": 34962
    },
    {
      "name": "bufferView_2",
      "buffer": 0,
      "byteLength": 5048,
      "byteOffset": 15144,
      "byteStride": 8,
      "target": 34962
    },
    {
      "name": "bufferView_3",
      "buffer": 0,
      "byteLength": 7416,
      "byteOffset": 20192,
      "target": 34963
    },
    {
      "buffer": 0,
      "byteOffset": 27608,
      "byteLength": 14724
    }
  ],
  "images": [
    {
      "name": "Nature-Palette",
      "mimeType": "image/png",
      "bufferView": 4
    }
  ],
  "materials": [
    {
      "name": "Mat_Nature",
      "pbrMetallicRoughness": {
        "baseColorTexture": {
          "index": 0
        },
        "baseColorFactor": [
          1,
          1,
          1,
          1
        ],
        "metallicFactor": 0,
        "roughnessFactor": 0.775
      },
      "emissiveFactor": [
        0,
        0,
        0
      ],
      "alphaMode": "OPAQUE",
      "doubleSided": false
    }
  ],
  "meshes": [
    {
      "name": "Conifer_01_LOD2_Cylinder.612-Mesh",
      "primitives": [
        {
          "attributes": {
            "POSITION": 0,
            "NORMAL": 1,
            "TEXCOORD_0": 2
          },
          "indices": 3,
          "material": 0,
          "mode": 4
        }
      ]
    }
  ],
  "nodes": [
    {
      "name": "Conifer_01_LOD2_Cylinder.612",
      "mesh": 0
    }
  ],
  "samplers": [
    {
      "wrapS": 10497,
      "wrapT": 10497
    }
  ],
  "scene": 0,
  "scenes": [
    {
      "nodes": [
        0
      ]
    }
  ],
  "textures": [
    {
      "name": "Nature-Palette",
      "sampler": 0,
      "source": 0
    }
  ]
}
