{
  "accessors": [
    {
      "name": "Conifer_05_LOD2_Cylinder.608-Mesh_0_positions",
      "componentType": 5126,
      "count": 599,
      "min": [
        42.41046142578125,
        0.0029090000316500664,
        -32.50961685180664
      ],
      "max": [
        47.5369873046875,
        16.291744232177734,
        -27.39304542541504
      ],
      "type": "VEC3",
      "bufferView": 0,
      "byteOffset": 0
    },
    {
      "name": "Conifer_05_LOD2_Cylinder.608-Mesh_0_normals",
      "componentType": 5126,
      "count": 599,
      "min": [
        -0.9928749203681946,
        -0.9999997615814209,
        -0.9894958734512329
      ],
      "max": [
        0.9887546896934509,
        0.9966154098510742,
        0.9932688474655151
      ],
      "type": "VEC3",
      "bufferView": 1,
      "byteOffset": 0
    },
    {
      "name": "Conifer_05_LOD2_Cylinder.608-Mesh_0_texcoords",
      "componentType": 5126,
      "count": 599,
      "min": [
        0.23765000700950623,
        0.08892799913883209
      ],
      "max": [
        0.9187139868736267,
        0.7490699887275696
      ],
      "type": "VEC2",
      "bufferView": 2,
      "byteOffset": 0
    },
    {
      "name": "Conifer_05_LOD2_Cylinder.608-Mesh_0_indices",
      "componentType": 5123,
      "count": 3528,
      "min": [
        0
      ],
      "max": [
        598
      ],
      "type": "SCALAR",
      "bufferView": 3,
      "byteOffset": 0
    }
  ],
  "asset": {
    "generator": "obj2gltf",
    "version": "2.0"
  },
  "buffers": [
    {
      "name": "Conifer_05_LOD2",
      "byteLength": 40948,
      "uri": "data:application/octet-stream;base64,"
    }
  ],
  "bufferViews": [
    {
      "name": "bufferView_0",
      "buffer": 0,
      "byteLength": 7188,
      "byteOffset": 0,
      "byteStride": 12,
      "target": 34962
    },
    {
      "name": "bufferView_1",
      "buffer": 0,
      "byteLength": 7188,
      "byteOffset": 7188,
      "byteStride": 12,
      "target": 34962
    },
    {
      "name": "bufferView_2",
      "buffer": 0,
      "byteLength": 4792,
      "byteOffset": 14376,
      "byteStride": 8,
      "target": 34962
    },
    {
      "name": "bufferView_3",
      "buffer": 0,
      "byteLength": 7056,
      "byteOffset": 19168,
      "target": 34963
    },
    {
      "buffer": 0,
      "byteOffset": 26224,
      "byteLength": 14724
    }
  ],
  "images": [
    {
      "name": "Nature-Palette",
      "mimeType": "image/png",
      "bufferView": 4
    }
  ],
  "materials": [
    {
      "name": "Mat_Nature",
      "pbrMetallicRoughness": {
        "baseColorTexture": {
          "index": 0
        },
        "baseColorFactor": [
          1,
          1,
          1,
          1
        ],
        "metallicFactor": 0,
        "roughnessFactor": 0.775
      },
      "emissiveFactor": [
        0,
        0,
        0
      ],
      "alphaMode": "OPAQUE",
      "doubleSided": false
    }
  ],
  "meshes": [
    {
      "name": "Conifer_05_LOD2_Cylinder.608-Mesh",
      "primitives": [
        {
          "attributes": {
            "POSITION": 0,
            "NORMAL": 1,
            "TEXCOORD_0": 2
          },
          "indices": 3,
          "material": 0,
          "mode": 4
        }
      ]
    }
  ],
  "nodes": [
    {
      "name": "Conifer_05_LOD2_Cylinder.608",
      "mesh": 0
    }
  ],
  "samplers": [
    {
      "wrapS": 10497,
      "wrapT": 10497
    }
  ],
  "scene": 0,
  "scenes": [
    {
      "nodes": [
        0
      ]
    }
  ],
  "textures": [
    {
      "name": "Nature-Palette",
      "sampler": 0,
      "source": 0
    }
  ]
}
