{
  "accessors": [
    {
      "name": "Conifer_02_LOD2_Cylinder.611-Mesh_0_positions",
      "componentType": 5126,
      "count": 619,
      "min": [
        42.337642669677734,
        0.004019999876618385,
        -22.650985717773438
      ],
      "max": [
        47.49604034423828,
        11.787633895874023,
        -17.175573348999023
      ],
      "type": "VEC3",
      "bufferView": 0,
      "byteOffset": 0
    },
    {
      "name": "Conifer_02_LOD2_Cylinder.611-Mesh_0_normals",
      "componentType": 5126,
      "count": 619,
      "min": [
        -0.995830237865448,
        -0.9999998807907104,
        -0.9953042268753052
      ],
      "max": [
        0.9988950490951538,
        0.9968227744102478,
        0.988570511341095
      ],
      "type": "VEC3",
      "bufferView": 1,
      "byteOffset": 0
    },
    {
      "name": "Conifer_02_LOD2_Cylinder.611-Mesh_0_texcoords",
      "componentType": 5126,
      "count": 619,
      "min": [
        0.23765000700950623,
        0.08892799913883209
      ],
      "max": [
        0.9187139868736267,
        0.7490699887275696
      ],
      "type": "VEC2",
      "bufferView": 2,
      "byteOffset": 0
    },
    {
      "name": "Conifer_02_LOD2_Cylinder.611-Mesh_0_indices",
      "componentType": 5123,
      "count": 3636,
      "min": [
        0
      ],
      "max": [
        618
      ],
      "type": "SCALAR",
      "bufferView": 3,
      "byteOffset": 0
    }
  ],
  "asset": {
    "generator": "obj2gltf",
    "version": "2.0"
  },
  "buffers": [
    {
      "name": "Conifer_02_LOD2",
      "byteLength": 41804,
      "uri": "data:application/octet-stream;base64,"
    }
  ],
  "bufferViews": [
    {
      "name": "bufferView_0",
      "buffer": 0,
      "byteLength": 7428,
      "byteOffset": 0,
      "byteStride": 12,
      "target": 34962
    },
    {
      "name": "bufferView_1",
      "buffer": 0,
      "byteLength": 7428,
      "byteOffset": 7428,
      "byteStride": 12,
      "target": 34962
    },
    {
      "name": "bufferView_2",
      "buffer": 0,
      "byteLength": 4952,
      "byteOffset": 14856,
      "byteStride": 8,
      "target": 34962
    },
    {
      "name": "bufferView_3",
      "buffer": 0,
      "byteLength": 7272,
      "byteOffset": 19808,
      "target": 34963
    },
    {
      "buffer": 0,
      "byteOffset": 27080,
      "byteLength": 14724
    }
  ],
  "images": [
    {
      "name": "Nature-Palette",
      "mimeType": "image/png",
      "bufferView": 4
    }
  ],
  "materials": [
    {
      "name": "Mat_Nature",
      "pbrMetallicRoughness": {
        "baseColorTexture": {
          "index": 0
        },
        "baseColorFactor": [
          1,
          1,
          1,
          1
        ],
        "metallicFactor": 0,
        "roughnessFactor": 0.775
      },
      "emissiveFactor": [
        0,
        0,
        0
      ],
      "alphaMode": "OPAQUE",
      "doubleSided": false
    }
  ],
  "meshes": [
    {
      "name": "Conifer_02_LOD2_Cylinder.611-Mesh",
      "primitives": [
        {
          "attributes": {
            "POSITION": 0,
            "NORMAL": 1,
            "TEXCOORD_0": 2
          },
          "indices": 3,
          "material": 0,
          "mode": 4
        }
      ]
    }
  ],
  "nodes": [
    {
      "name": "Conifer_02_LOD2_Cylinder.611",
      "mesh": 0
    }
  ],
  "samplers": [
    {
      "wrapS": 10497,
      "wrapT": 10497
    }
  ],
  "scene": 0,
  "scenes": [
    {
      "nodes": [
        0
      ]
    }
  ],
  "textures": [
    {
      "name": "Nature-Palette",
      "sampler": 0,
      "source": 0
    }
  ]
}
