{
  "accessors": [
    {
      "name": "Conifer_06_LOD2_Cylinder.607-Mesh_0_positions",
      "componentType": 5126,
      "count": 587,
      "min": [
        52.377784729003906,
        0.001905999961309135,
        -32.36042022705078
      ],
      "max": [
        57.451961517333984,
        14.232253074645996,
        -27.42767333984375
      ],
      "type": "VEC3",
      "bufferView": 0,
      "byteOffset": 0
    },
    {
      "name": "Conifer_06_LOD2_Cylinder.607-Mesh_0_normals",
      "componentType": 5126,
      "count": 587,
      "min": [
        -0.9976087808609009,
        -0.9999999403953552,
        -0.9898709058761597
      ],
      "max": [
        0.9950809478759766,
        0.9988499283790588,
        0.9898625016212463
      ],
      "type": "VEC3",
      "bufferView": 1,
      "byteOffset": 0
    },
    {
      "name": "Conifer_06_LOD2_Cylinder.607-Mesh_0_texcoords",
      "componentType": 5126,
      "count": 587,
      "min": [
        0.23765000700950623,
        0.08892799913883209
      ],
      "max": [
        0.9187139868736267,
        0.7490699887275696
      ],
      "type": "VEC2",
      "bufferView": 2,
      "byteOffset": 0
    },
    {
      "name": "Conifer_06_LOD2_Cylinder.607-Mesh_0_indices",
      "componentType": 5123,
      "count": 3456,
      "min": [
        0
      ],
      "max": [
        586
      ],
      "type": "SCALAR",
      "bufferView": 3,
      "byteOffset": 0
    }
  ],
  "asset": {
    "generator": "obj2gltf",
    "version": "2.0"
  },
  "buffers": [
    {
      "name": "Conifer_06_LOD2",
      "byteLength": 40420,
      "uri": "data:application/octet-stream;base64,"
    }
  ],
  "bufferViews": [
    {
      "name": "bufferView_0",
      "buffer": 0,
      "byteLength": 7044,
      "byteOffset": 0,
      "byteStride": 12,
      "target": 34962
    },
    {
      "name": "bufferView_1",
      "buffer": 0,
      "byteLength": 7044,
      "byteOffset": 7044,
      "byteStride": 12,
      "target": 34962
    },
    {
      "name": "bufferView_2",
      "buffer": 0,
      "byteLength": 4696,
      "byteOffset": 14088,
      "byteStride": 8,
      "target": 34962
    },
    {
      "name": "bufferView_3",
      "buffer": 0,
      "byteLength": 6912,
      "byteOffset": 18784,
      "target": 34963
    },
    {
      "buffer": 0,
      "byteOffset": 25696,
      "byteLength": 14724
    }
  ],
  "images": [
    {
      "name": "Nature-Palette",
      "mimeType": "image/png",
      "bufferView": 4
    }
  ],
  "materials": [
    {
      "name": "Mat_Nature",
      "pbrMetallicRoughness": {
        "baseColorTexture": {
          "index": 0
        },
        "baseColorFactor": [
          1,
          1,
          1,
          1
        ],
        "metallicFactor": 0,
        "roughnessFactor": 0.775
      },
      "emissiveFactor": [
        0,
        0,
        0
      ],
      "alphaMode": "OPAQUE",
      "doubleSided": false
    }
  ],
  "meshes": [
    {
      "name": "Conifer_06_LOD2_Cylinder.607-Mesh",
      "primitives": [
        {
          "attributes": {
            "POSITION": 0,
            "NORMAL": 1,
            "TEXCOORD_0": 2
          },
          "indices": 3,
          "material": 0,
          "mode": 4
        }
      ]
    }
  ],
  "nodes": [
    {
      "name": "Conifer_06_LOD2_Cylinder.607",
      "mesh": 0
    }
  ],
  "samplers": [
    {
      "wrapS": 10497,
      "wrapT": 10497
    }
  ],
  "scene": 0,
  "scenes": [
    {
      "nodes": [
        0
      ]
    }
  ],
  "textures": [
    {
      "name": "Nature-Palette",
      "sampler": 0,
      "source": 0
    }
  ]
}
