{
  "accessors": [
    {
      "name": "Conifer_03_LOD2_Cylinder.610-Mesh_0_positions",
      "componentType": 5126,
      "count": 571,
      "min": [
        52.48386001586914,
        0.0026320000179111958,
        -22.233051300048828
      ],
      "max": [
        57.453861236572266,
        10.103398323059082,
        -17.306928634643555
      ],
      "type": "VEC3",
      "bufferView": 0,
      "byteOffset": 0
    },
    {
      "name": "Conifer_03_LOD2_Cylinder.610-Mesh_0_normals",
      "componentType": 5126,
      "count": 571,
      "min": [
        -0.9977210164070129,
        -0.9999998807907104,
        -0.9998009204864502
      ],
      "max": [
        0.9972181916236877,
        0.9984862804412842,
        0.9905278086662292
      ],
      "type": "VEC3",
      "bufferView": 1,
      "byteOffset": 0
    },
    {
      "name": "Conifer_03_LOD2_Cylinder.610-Mesh_0_texcoords",
      "componentType": 5126,
      "count": 571,
      "min": [
        0.23765000700950623,
        0.08892799913883209
      ],
      "max": [
        0.9187139868736267,
        0.7490699887275696
      ],
      "type": "VEC2",
      "bufferView": 2,
      "byteOffset": 0
    },
    {
      "name": "Conifer_03_LOD2_Cylinder.610-Mesh_0_indices",
      "componentType": 5123,
      "count": 3348,
      "min": [
        0
      ],
      "max": [
        570
      ],
      "type": "SCALAR",
      "bufferView": 3,
      "byteOffset": 0
    }
  ],
  "asset": {
    "generator": "obj2gltf",
    "version": "2.0"
  },
  "buffers": [
    {
      "name": "Conifer_03_LOD2",
      "byteLength": 39692,
      "uri": "data:application/octet-stream;base64,"
    }
  ],
  "bufferViews": [
    {
      "name": "bufferView_0",
      "buffer": 0,
      "byteLength": 6852,
      "byteOffset": 0,
      "byteStride": 12,
      "target": 34962
    },
    {
      "name": "bufferView_1",
      "buffer": 0,
      "byteLength": 6852,
      "byteOffset": 6852,
      "byteStride": 12,
      "target": 34962
    },
    {
      "name": "bufferView_2",
      "buffer": 0,
      "byteLength": 4568,
      "byteOffset": 13704,
      "byteStride": 8,
      "target": 34962
    },
    {
      "name": "bufferView_3",
      "buffer": 0,
      "byteLength": 6696,
      "byteOffset": 18272,
      "target": 34963
    },
    {
      "buffer": 0,
      "byteOffset": 24968,
      "byteLength": 14724
    }
  ],
  "images": [
    {
      "name": "Nature-Palette",
      "mimeType": "image/png",
      "bufferView": 4
    }
  ],
  "materials": [
    {
      "name": "Mat_Nature",
      "pbrMetallicRoughness": {
        "baseColorTexture": {
          "index": 0
        },
        "baseColorFactor": [
          1,
          1,
          1,
          1
        ],
        "metallicFactor": 0,
        "roughnessFactor": 0.775
      },
      "emissiveFactor": [
        0,
        0,
        0
      ],
      "alphaMode": "OPAQUE",
      "doubleSided": false
    }
  ],
  "meshes": [
    {
      "name": "Conifer_03_LOD2_Cylinder.610-Mesh",
      "primitives": [
        {
          "attributes": {
            "POSITION": 0,
            "NORMAL": 1,
            "TEXCOORD_0": 2
          },
          "indices": 3,
          "material": 0,
          "mode": 4
        }
      ]
    }
  ],
  "nodes": [
    {
      "name": "Conifer_03_LOD2_Cylinder.610",
      "mesh": 0
    }
  ],
  "samplers": [
    {
      "wrapS": 10497,
      "wrapT": 10497
    }
  ],
  "scene": 0,
  "scenes": [
    {
      "nodes": [
        0
      ]
    }
  ],
  "textures": [
    {
      "name": "Nature-Palette",
      "sampler": 0,
      "source": 0
    }
  ]
}
