{
  "accessors": [
    {
      "name": "DeadTrunk_A_02_LOD2_Cylinder.605-Mesh_0_positions",
      "componentType": 5126,
      "count": 303,
      "min": [
        13.19603443145752,
        -0.1082959994673729,
        -52.44167709350586
      ],
      "max": [
        17.65241050720215,
        12.70314884185791,
        -48.101619720458984
      ],
      "type": "VEC3",
      "bufferView": 0,
      "byteOffset": 0
    },
    {
      "name": "DeadTrunk_A_02_LOD2_Cylinder.605-Mesh_0_normals",
      "componentType": 5126,
      "count": 303,
      "min": [
        -0.996787428855896,
        -0.9835715293884277,
        -0.9970826506614685
      ],
      "max": [
        0.9998570084571838,
        0.9997848868370056,
        0.9883897304534912
      ],
      "type": "VEC3",
      "bufferView": 1,
      "byteOffset": 0
    },
    {
      "name": "DeadTrunk_A_02_LOD2_Cylinder.605-Mesh_0_texcoords",
      "componentType": 5126,
      "count": 303,
      "min": [
        0.9187139868736267,
        0.5824030041694641
      ],
      "max": [
        0.9187139868736267,
        0.5824030041694641
      ],
      "type": "VEC2",
      "bufferView": 2,
      "byteOffset": 0
    },
    {
      "name": "DeadTrunk_A_02_LOD2_Cylinder.605-Mesh_0_indices",
      "componentType": 5123,
      "count": 1806,
      "min": [
        0
      ],
      "max": [
        302
      ],
      "type": "SCALAR",
      "bufferView": 3,
      "byteOffset": 0
    }
  ],
  "asset": {
    "generator": "obj2gltf",
    "version": "2.0"
  },
  "buffers": [
    {
      "name": "DeadTrunk_A_02_LOD2",
      "byteLength": 28032,
      "uri": "data:application/octet-stream;base64,"
    }
  ],
  "bufferViews": [
    {
      "name": "bufferView_0",
      "buffer": 0,
      "byteLength": 3636,
      "byteOffset": 0,
      "byteStride": 12,
      "target": 34962
    },
    {
      "name": "bufferView_1",
      "buffer": 0,
      "byteLength": 3636,
      "byteOffset": 3636,
      "byteStride": 12,
      "target": 34962
    },
    {
      "name": "bufferView_2",
      "buffer": 0,
      "byteLength": 2424,
      "byteOffset": 7272,
      "byteStride": 8,
      "target": 34962
    },
    {
      "name": "bufferView_3",
      "buffer": 0,
      "byteLength": 3612,
      "byteOffset": 9696,
      "target": 34963
    },
    {
      "buffer": 0,
      "byteOffset": 13308,
      "byteLength": 14724
    }
  ],
  "images": [
    {
      "name": "Nature-Palette",
      "mimeType": "image/png",
      "bufferView": 4
    }
  ],
  "materials": [
    {
      "name": "Mat_Nature",
      "pbrMetallicRoughness": {
        "baseColorTexture": {
          "index": 0
        },
        "baseColorFactor": [
          1,
          1,
          1,
          1
        ],
        "metallicFactor": 0,
        "roughnessFactor": 0.775
      },
      "emissiveFactor": [
        0,
        0,
        0
      ],
      "alphaMode": "OPAQUE",
      "doubleSided": false
    }
  ],
  "meshes": [
    {
      "name": "DeadTrunk_A_02_LOD2_Cylinder.605-Mesh",
      "primitives": [
        {
          "attributes": {
            "POSITION": 0,
            "NORMAL": 1,
            "TEXCOORD_0": 2
          },
          "indices": 3,
          "material": 0,
          "mode": 4
        }
      ]
    }
  ],
  "nodes": [
    {
      "name": "DeadTrunk_A_02_LOD2_Cylinder.605",
      "mesh": 0
    }
  ],
  "samplers": [
    {
      "wrapS": 10497,
      "wrapT": 10497
    }
  ],
  "scene": 0,
  "scenes": [
    {
      "nodes": [
        0
      ]
    }
  ],
  "textures": [
    {
      "name": "Nature-Palette",
      "sampler": 0,
      "source": 0
    }
  ]
}
