{
  "accessors": [
    {
      "name": "DeadTrunk_A_03_LOD2_Cylinder.604-Mesh_0_positions",
      "componentType": 5126,
      "count": 261,
      "min": [
        22.82784080505371,
        -0.09877199679613113,
        -52.18368911743164
      ],
      "max": [
        27.301244735717773,
        11.43283462524414,
        -48.31520080566406
      ],
      "type": "VEC3",
      "bufferView": 0,
      "byteOffset": 0
    },
    {
      "name": "DeadTrunk_A_03_LOD2_Cylinder.604-Mesh_0_normals",
      "componentType": 5126,
      "count": 261,
      "min": [
        -0.9980483651161194,
        -0.985583484172821,
        -0.9875426888465881
      ],
      "max": [
        0.9939866065979004,
        0.9866394996643066,
        0.9869754910469055
      ],
      "type": "VEC3",
      "bufferView": 1,
      "byteOffset": 0
    },
    {
      "name": "DeadTrunk_A_03_LOD2_Cylinder.604-Mesh_0_texcoords",
      "componentType": 5126,
      "count": 261,
      "min": [
        0.9187139868736267,
        0.5824030041694641
      ],
      "max": [
        0.9187139868736267,
        0.5824030041694641
      ],
      "type": "VEC2",
      "bufferView": 2,
      "byteOffset": 0
    },
    {
      "name": "DeadTrunk_A_03_LOD2_Cylinder.604-Mesh_0_indices",
      "componentType": 5123,
      "count": 1554,
      "min": [
        0
      ],
      "max": [
        260
      ],
      "type": "SCALAR",
      "bufferView": 3,
      "byteOffset": 0
    }
  ],
  "asset": {
    "generator": "obj2gltf",
    "version": "2.0"
  },
  "buffers": [
    {
      "name": "DeadTrunk_A_03_LOD2",
      "byteLength": 26184,
      "uri": "data:application/octet-stream;base64,"
    }
  ],
  "bufferViews": [
    {
      "name": "bufferView_0",
      "buffer": 0,
      "byteLength": 3132,
      "byteOffset": 0,
      "byteStride": 12,
      "target": 34962
    },
    {
      "name": "bufferView_1",
      "buffer": 0,
      "byteLength": 3132,
      "byteOffset": 3132,
      "byteStride": 12,
      "target": 34962
    },
    {
      "name": "bufferView_2",
      "buffer": 0,
      "byteLength": 2088,
      "byteOffset": 6264,
      "byteStride": 8,
      "target": 34962
    },
    {
      "name": "bufferView_3",
      "buffer": 0,
      "byteLength": 3108,
      "byteOffset": 8352,
      "target": 34963
    },
    {
      "buffer": 0,
      "byteOffset": 11460,
      "byteLength": 14724
    }
  ],
  "images": [
    {
      "name": "Nature-Palette",
      "mimeType": "image/png",
      "bufferView": 4
    }
  ],
  "materials": [
    {
      "name": "Mat_Nature",
      "pbrMetallicRoughness": {
        "baseColorTexture": {
          "index": 0
        },
        "baseColorFactor": [
          1,
          1,
          1,
          1
        ],
        "metallicFactor": 0,
        "roughnessFactor": 0.775
      },
      "emissiveFactor": [
        0,
        0,
        0
      ],
      "alphaMode": "OPAQUE",
      "doubleSided": false
    }
  ],
  "meshes": [
    {
      "name": "DeadTrunk_A_03_LOD2_Cylinder.604-Mesh",
      "primitives": [
        {
          "attributes": {
            "POSITION": 0,
            "NORMAL": 1,
            "TEXCOORD_0": 2
          },
          "indices": 3,
          "material": 0,
          "mode": 4
        }
      ]
    }
  ],
  "nodes": [
    {
      "name": "DeadTrunk_A_03_LOD2_Cylinder.604",
      "mesh": 0
    }
  ],
  "samplers": [
    {
      "wrapS": 10497,
      "wrapT": 10497
    }
  ],
  "scene": 0,
  "scenes": [
    {
      "nodes": [
        0
      ]
    }
  ],
  "textures": [
    {
      "name": "Nature-Palette",
      "sampler": 0,
      "source": 0
    }
  ]
}
