{
  "accessors": [
    {
      "name": "DeadTrunk_A_01_LOD2_Cylinder.606-Mesh_0_positions",
      "componentType": 5126,
      "count": 399,
      "min": [
        2.1208300590515137,
        -0.09890200197696686,
        -52.061100006103516
      ],
      "max": [
        7.20891809463501,
        14.114608764648438,
        -47.8332633972168
      ],
      "type": "VEC3",
      "bufferView": 0,
      "byteOffset": 0
    },
    {
      "name": "DeadTrunk_A_01_LOD2_Cylinder.606-Mesh_0_normals",
      "componentType": 5126,
      "count": 399,
      "min": [
        -0.9993788003921509,
        -0.9319615960121155,
        -0.9987989068031311
      ],
      "max": [
        0.9981009364128113,
        0.9996292591094971,
        0.9729838371276855
      ],
      "type": "VEC3",
      "bufferView": 1,
      "byteOffset": 0
    },
    {
      "name": "DeadTrunk_A_01_LOD2_Cylinder.606-Mesh_0_texcoords",
      "componentType": 5126,
      "count": 399,
      "min": [
        0.9187139868736267,
        0.5824030041694641
      ],
      "max": [
        0.9187139868736267,
        0.5824030041694641
      ],
      "type": "VEC2",
      "bufferView": 2,
      "byteOffset": 0
    },
    {
      "name": "DeadTrunk_A_01_LOD2_Cylinder.606-Mesh_0_indices",
      "componentType": 5123,
      "count": 2382,
      "min": [
        0
      ],
      "max": [
        398
      ],
      "type": "SCALAR",
      "bufferView": 3,
      "byteOffset": 0
    }
  ],
  "asset": {
    "generator": "obj2gltf",
    "version": "2.0"
  },
  "buffers": [
    {
      "name": "DeadTrunk_A_01_LOD2",
      "byteLength": 32256,
      "uri": "data:application/octet-stream;base64,"
    }
  ],
  "bufferViews": [
    {
      "name": "bufferView_0",
      "buffer": 0,
      "byteLength": 4788,
      "byteOffset": 0,
      "byteStride": 12,
      "target": 34962
    },
    {
      "name": "bufferView_1",
      "buffer": 0,
      "byteLength": 4788,
      "byteOffset": 4788,
      "byteStride": 12,
      "target": 34962
    },
    {
      "name": "bufferView_2",
      "buffer": 0,
      "byteLength": 3192,
      "byteOffset": 9576,
      "byteStride": 8,
      "target": 34962
    },
    {
      "name": "bufferView_3",
      "buffer": 0,
      "byteLength": 4764,
      "byteOffset": 12768,
      "target": 34963
    },
    {
      "buffer": 0,
      "byteOffset": 17532,
      "byteLength": 14724
    }
  ],
  "images": [
    {
      "name": "Nature-Palette",
      "mimeType": "image/png",
      "bufferView": 4
    }
  ],
  "materials": [
    {
      "name": "Mat_Nature",
      "pbrMetallicRoughness": {
        "baseColorTexture": {
          "index": 0
        },
        "baseColorFactor": [
          1,
          1,
          1,
          1
        ],
        "metallicFactor": 0,
        "roughnessFactor": 0.775
      },
      "emissiveFactor": [
        0,
        0,
        0
      ],
      "alphaMode": "OPAQUE",
      "doubleSided": false
    }
  ],
  "meshes": [
    {
      "name": "DeadTrunk_A_01_LOD2_Cylinder.606-Mesh",
      "primitives": [
        {
          "attributes": {
            "POSITION": 0,
            "NORMAL": 1,
            "TEXCOORD_0": 2
          },
          "indices": 3,
          "material": 0,
          "mode": 4
        }
      ]
    }
  ],
  "nodes": [
    {
      "name": "DeadTrunk_A_01_LOD2_Cylinder.606",
      "mesh": 0
    }
  ],
  "samplers": [
    {
      "wrapS": 10497,
      "wrapT": 10497
    }
  ],
  "scene": 0,
  "scenes": [
    {
      "nodes": [
        0
      ]
    }
  ],
  "textures": [
    {
      "name": "Nature-Palette",
      "sampler": 0,
      "source": 0
    }
  ]
}
