{
  "accessors": [
    {
      "name": "Flora_A_03_LOD2_Plane.043-Mesh_0_positions",
      "componentType": 5126,
      "count": 873,
      "min": [
        -57.066162109375,
        -0.055629000067710876,
        46.48731231689453
      ],
      "max": [
        -53.44677734375,
        5.448290824890137,
        52.377166748046875
      ],
      "type": "VEC3",
      "bufferView": 0,
      "byteOffset": 0
    },
    {
      "name": "Flora_A_03_LOD2_Plane.043-Mesh_0_normals",
      "componentType": 5126,
      "count": 873,
      "min": [
        -0.9984545707702637,
        -0.9988966584205627,
        -0.9990463256835938
      ],
      "max": [
        0.9993498921394348,
        0.998248279094696,
        0.9992799162864685
      ],
      "type": "VEC3",
      "bufferView": 1,
      "byteOffset": 0
    },
    {
      "name": "Flora_A_03_LOD2_Plane.043-Mesh_0_texcoords",
      "componentType": 5126,
      "count": 873,
      "min": [
        0.403889000415802,
        0.08131899684667587
      ],
      "max": [
        0.7473049759864807,
        0.9157509803771973
      ],
      "type": "VEC2",
      "bufferView": 2,
      "byteOffset": 0
    },
    {
      "name": "Flora_A_03_LOD2_Plane.043-Mesh_0_indices",
      "componentType": 5123,
      "count": 4296,
      "min": [
        0
      ],
      "max": [
        872
      ],
      "type": "SCALAR",
      "bufferView": 3,
      "byteOffset": 0
    }
  ],
  "asset": {
    "generator": "obj2gltf",
    "version": "2.0"
  },
  "buffers": [
    {
      "name": "Flora_A_03_LOD2",
      "byteLength": 51252,
      "uri": "data:application/octet-stream;base64,"
    }
  ],
  "bufferViews": [
    {
      "name": "bufferView_0",
      "buffer": 0,
      "byteLength": 10476,
      "byteOffset": 0,
      "byteStride": 12,
      "target": 34962
    },
    {
      "name": "bufferView_1",
      "buffer": 0,
      "byteLength": 10476,
      "byteOffset": 10476,
      "byteStride": 12,
      "target": 34962
    },
    {
      "name": "bufferView_2",
      "buffer": 0,
      "byteLength": 6984,
      "byteOffset": 20952,
      "byteStride": 8,
      "target": 34962
    },
    {
      "name": "bufferView_3",
      "buffer": 0,
      "byteLength": 8592,
      "byteOffset": 27936,
      "target": 34963
    },
    {
      "buffer": 0,
      "byteOffset": 36528,
      "byteLength": 14724
    }
  ],
  "images": [
    {
      "name": "Nature-Palette",
      "mimeType": "image/png",
      "bufferView": 4
    }
  ],
  "materials": [
    {
      "name": "Mat_Nature",
      "pbrMetallicRoughness": {
        "baseColorTexture": {
          "index": 0
        },
        "baseColorFactor": [
          1,
          1,
          1,
          1
        ],
        "metallicFactor": 0,
        "roughnessFactor": 0.775
      },
      "emissiveFactor": [
        0,
        0,
        0
      ],
      "alphaMode": "OPAQUE",
      "doubleSided": false
    }
  ],
  "meshes": [
    {
      "name": "Flora_A_03_LOD2_Plane.043-Mesh",
      "primitives": [
        {
          "attributes": {
            "POSITION": 0,
            "NORMAL": 1,
            "TEXCOORD_0": 2
          },
          "indices": 3,
          "material": 0,
          "mode": 4
        }
      ]
    }
  ],
  "nodes": [
    {
      "name": "Flora_A_03_LOD2_Plane.043",
      "mesh": 0
    }
  ],
  "samplers": [
    {
      "wrapS": 10497,
      "wrapT": 10497
    }
  ],
  "scene": 0,
  "scenes": [
    {
      "nodes": [
        0
      ]
    }
  ],
  "textures": [
    {
      "name": "Nature-Palette",
      "sampler": 0,
      "source": 0
    }
  ]
}
