{
  "accessors": [
    {
      "name": "Flora_B_02_LOD2_Plane.041-Mesh_0_positions",
      "componentType": 5126,
      "count": 336,
      "min": [
        -46.74885559082031,
        0.10827700048685074,
        38.23241424560547
      ],
      "max": [
        -43.25400924682617,
        3.188426971435547,
        41.41464614868164
      ],
      "type": "VEC3",
      "bufferView": 0,
      "byteOffset": 0
    },
    {
      "name": "Flora_B_02_LOD2_Plane.041-Mesh_0_normals",
      "componentType": 5126,
      "count": 336,
      "min": [
        -0.988422691822052,
        -0.8865413665771484,
        -0.9972572326660156
      ],
      "max": [
        0.9821627736091614,
        0.9386233687400818,
        0.9351285099983215
      ],
      "type": "VEC3",
      "bufferView": 1,
      "byteOffset": 0
    },
    {
      "name": "Flora_B_02_LOD2_Plane.041-Mesh_0_texcoords",
      "componentType": 5126,
      "count": 336,
      "min": [
        0.40204399824142456,
        0.08112700283527374
      ],
      "max": [
        0.5776659846305847,
        0.08132000267505646
      ],
      "type": "VEC2",
      "bufferView": 2,
      "byteOffset": 0
    },
    {
      "name": "Flora_B_02_LOD2_Plane.041-Mesh_0_indices",
      "componentType": 5123,
      "count": 1488,
      "min": [
        0
      ],
      "max": [
        335
      ],
      "type": "SCALAR",
      "bufferView": 3,
      "byteOffset": 0
    }
  ],
  "asset": {
    "generator": "obj2gltf",
    "version": "2.0"
  },
  "buffers": [
    {
      "name": "Flora_B_02_LOD2",
      "byteLength": 28452,
      "uri": "data:application/octet-stream;base64,"
    }
  ],
  "bufferViews": [
    {
      "name": "bufferView_0",
      "buffer": 0,
      "byteLength": 4032,
      "byteOffset": 0,
      "byteStride": 12,
      "target": 34962
    },
    {
      "name": "bufferView_1",
      "buffer": 0,
      "byteLength": 4032,
      "byteOffset": 4032,
      "byteStride": 12,
      "target": 34962
    },
    {
      "name": "bufferView_2",
      "buffer": 0,
      "byteLength": 2688,
      "byteOffset": 8064,
      "byteStride": 8,
      "target": 34962
    },
    {
      "name": "bufferView_3",
      "buffer": 0,
      "byteLength": 2976,
      "byteOffset": 10752,
      "target": 34963
    },
    {
      "buffer": 0,
      "byteOffset": 13728,
      "byteLength": 14724
    }
  ],
  "images": [
    {
      "name": "Nature-Palette",
      "mimeType": "image/png",
      "bufferView": 4
    }
  ],
  "materials": [
    {
      "name": "Mat_Nature",
      "pbrMetallicRoughness": {
        "baseColorTexture": {
          "index": 0
        },
        "baseColorFactor": [
          1,
          1,
          1,
          1
        ],
        "metallicFactor": 0,
        "roughnessFactor": 0.775
      },
      "emissiveFactor": [
        0,
        0,
        0
      ],
      "alphaMode": "OPAQUE",
      "doubleSided": false
    }
  ],
  "meshes": [
    {
      "name": "Flora_B_02_LOD2_Plane.041-Mesh",
      "primitives": [
        {
          "attributes": {
            "POSITION": 0,
            "NORMAL": 1,
            "TEXCOORD_0": 2
          },
          "indices": 3,
          "material": 0,
          "mode": 4
        }
      ]
    }
  ],
  "nodes": [
    {
      "name": "Flora_B_02_LOD2_Plane.041",
      "mesh": 0
    }
  ],
  "samplers": [
    {
      "wrapS": 10497,
      "wrapT": 10497
    }
  ],
  "scene": 0,
  "scenes": [
    {
      "nodes": [
        0
      ]
    }
  ],
  "textures": [
    {
      "name": "Nature-Palette",
      "sampler": 0,
      "source": 0
    }
  ]
}
