{
  "accessors": [
    {
      "name": "Flora_B_01_LOD2_Plane.042-Mesh_0_positions",
      "componentType": 5126,
      "count": 228,
      "min": [
        -36.80091857910156,
        0.11052700132131577,
        38.4365348815918
      ],
      "max": [
        -33.91585922241211,
        2.8123888969421387,
        41.42401123046875
      ],
      "type": "VEC3",
      "bufferView": 0,
      "byteOffset": 0
    },
    {
      "name": "Flora_B_01_LOD2_Plane.042-Mesh_0_normals",
      "componentType": 5126,
      "count": 228,
      "min": [
        -0.9859949350357056,
        -0.9119888544082642,
        -0.9675778746604919
      ],
      "max": [
        0.9650570154190063,
        0.9987702965736389,
        0.9721188545227051
      ],
      "type": "VEC3",
      "bufferView": 1,
      "byteOffset": 0
    },
    {
      "name": "Flora_B_01_LOD2_Plane.042-Mesh_0_texcoords",
      "componentType": 5126,
      "count": 228,
      "min": [
        0.40204399824142456,
        0.08112700283527374
      ],
      "max": [
        0.5776659846305847,
        0.08132000267505646
      ],
      "type": "VEC2",
      "bufferView": 2,
      "byteOffset": 0
    },
    {
      "name": "Flora_B_01_LOD2_Plane.042-Mesh_0_indices",
      "componentType": 5123,
      "count": 1008,
      "min": [
        0
      ],
      "max": [
        227
      ],
      "type": "SCALAR",
      "bufferView": 3,
      "byteOffset": 0
    }
  ],
  "asset": {
    "generator": "obj2gltf",
    "version": "2.0"
  },
  "buffers": [
    {
      "name": "Flora_B_01_LOD2",
      "byteLength": 24036,
      "uri": "data:application/octet-stream;base64,"
    }
  ],
  "bufferViews": [
    {
      "name": "bufferView_0",
      "buffer": 0,
      "byteLength": 2736,
      "byteOffset": 0,
      "byteStride": 12,
      "target": 34962
    },
    {
      "name": "bufferView_1",
      "buffer": 0,
      "byteLength": 2736,
      "byteOffset": 2736,
      "byteStride": 12,
      "target": 34962
    },
    {
      "name": "bufferView_2",
      "buffer": 0,
      "byteLength": 1824,
      "byteOffset": 5472,
      "byteStride": 8,
      "target": 34962
    },
    {
      "name": "bufferView_3",
      "buffer": 0,
      "byteLength": 2016,
      "byteOffset": 7296,
      "target": 34963
    },
    {
      "buffer": 0,
      "byteOffset": 9312,
      "byteLength": 14724
    }
  ],
  "images": [
    {
      "name": "Nature-Palette",
      "mimeType": "image/png",
      "bufferView": 4
    }
  ],
  "materials": [
    {
      "name": "Mat_Nature",
      "pbrMetallicRoughness": {
        "baseColorTexture": {
          "index": 0
        },
        "baseColorFactor": [
          1,
          1,
          1,
          1
        ],
        "metallicFactor": 0,
        "roughnessFactor": 0.775
      },
      "emissiveFactor": [
        0,
        0,
        0
      ],
      "alphaMode": "OPAQUE",
      "doubleSided": false
    }
  ],
  "meshes": [
    {
      "name": "Flora_B_01_LOD2_Plane.042-Mesh",
      "primitives": [
        {
          "attributes": {
            "POSITION": 0,
            "NORMAL": 1,
            "TEXCOORD_0": 2
          },
          "indices": 3,
          "material": 0,
          "mode": 4
        }
      ]
    }
  ],
  "nodes": [
    {
      "name": "Flora_B_01_LOD2_Plane.042",
      "mesh": 0
    }
  ],
  "samplers": [
    {
      "wrapS": 10497,
      "wrapT": 10497
    }
  ],
  "scene": 0,
  "scenes": [
    {
      "nodes": [
        0
      ]
    }
  ],
  "textures": [
    {
      "name": "Nature-Palette",
      "sampler": 0,
      "source": 0
    }
  ]
}
