{
  "accessors": [
    {
      "name": "Flora_A_02_LOD2_Plane.044-Mesh_0_positions",
      "componentType": 5126,
      "count": 801,
      "min": [
        -47.073585510253906,
        -0.010223999619483948,
        47.59626388549805
      ],
      "max": [
        -42.993717193603516,
        4.772158145904541,
        52.307804107666016
      ],
      "type": "VEC3",
      "bufferView": 0,
      "byteOffset": 0
    },
    {
      "name": "Flora_A_02_LOD2_Plane.044-Mesh_0_normals",
      "componentType": 5126,
      "count": 801,
      "min": [
        -0.9995626211166382,
        -0.9945470690727234,
        -0.9921842813491821
      ],
      "max": [
        0.9996878504753113,
        0.9990082383155823,
        0.9959956407546997
      ],
      "type": "VEC3",
      "bufferView": 1,
      "byteOffset": 0
    },
    {
      "name": "Flora_A_02_LOD2_Plane.044-Mesh_0_texcoords",
      "componentType": 5126,
      "count": 801,
      "min": [
        0.403889000415802,
        0.07913199812173843
      ],
      "max": [
        0.7473049759864807,
        0.9157509803771973
      ],
      "type": "VEC2",
      "bufferView": 2,
      "byteOffset": 0
    },
    {
      "name": "Flora_A_02_LOD2_Plane.044-Mesh_0_indices",
      "componentType": 5123,
      "count": 3990,
      "min": [
        0
      ],
      "max": [
        800
      ],
      "type": "SCALAR",
      "bufferView": 3,
      "byteOffset": 0
    }
  ],
  "asset": {
    "generator": "obj2gltf",
    "version": "2.0"
  },
  "buffers": [
    {
      "name": "Flora_A_02_LOD2",
      "byteLength": 48336,
      "uri": "data:application/octet-stream;base64,"
    }
  ],
  "bufferViews": [
    {
      "name": "bufferView_0",
      "buffer": 0,
      "byteLength": 9612,
      "byteOffset": 0,
      "byteStride": 12,
      "target": 34962
    },
    {
      "name": "bufferView_1",
      "buffer": 0,
      "byteLength": 9612,
      "byteOffset": 9612,
      "byteStride": 12,
      "target": 34962
    },
    {
      "name": "bufferView_2",
      "buffer": 0,
      "byteLength": 6408,
      "byteOffset": 19224,
      "byteStride": 8,
      "target": 34962
    },
    {
      "name": "bufferView_3",
      "buffer": 0,
      "byteLength": 7980,
      "byteOffset": 25632,
      "target": 34963
    },
    {
      "buffer": 0,
      "byteOffset": 33612,
      "byteLength": 14724
    }
  ],
  "images": [
    {
      "name": "Nature-Palette",
      "mimeType": "image/png",
      "bufferView": 4
    }
  ],
  "materials": [
    {
      "name": "Mat_Nature",
      "pbrMetallicRoughness": {
        "baseColorTexture": {
          "index": 0
        },
        "baseColorFactor": [
          1,
          1,
          1,
          1
        ],
        "metallicFactor": 0,
        "roughnessFactor": 0.775
      },
      "emissiveFactor": [
        0,
        0,
        0
      ],
      "alphaMode": "OPAQUE",
      "doubleSided": false
    }
  ],
  "meshes": [
    {
      "name": "Flora_A_02_LOD2_Plane.044-Mesh",
      "primitives": [
        {
          "attributes": {
            "POSITION": 0,
            "NORMAL": 1,
            "TEXCOORD_0": 2
          },
          "indices": 3,
          "material": 0,
          "mode": 4
        }
      ]
    }
  ],
  "nodes": [
    {
      "name": "Flora_A_02_LOD2_Plane.044",
      "mesh": 0
    }
  ],
  "samplers": [
    {
      "wrapS": 10497,
      "wrapT": 10497
    }
  ],
  "scene": 0,
  "scenes": [
    {
      "nodes": [
        0
      ]
    }
  ],
  "textures": [
    {
      "name": "Nature-Palette",
      "sampler": 0,
      "source": 0
    }
  ]
}
