{
  "accessors": [
    {
      "name": "Flora_A_01_LOD2_Plane.045-Mesh_0_positions",
      "componentType": 5126,
      "count": 577,
      "min": [
        -37.46562576293945,
        -0.03489600121974945,
        47.88055419921875
      ],
      "max": [
        -33.0434455871582,
        5.0364861488342285,
        52.2360954284668
      ],
      "type": "VEC3",
      "bufferView": 0,
      "byteOffset": 0
    },
    {
      "name": "Flora_A_01_LOD2_Plane.045-Mesh_0_normals",
      "componentType": 5126,
      "count": 577,
      "min": [
        -0.9955621957778931,
        -0.9988768696784973,
        -0.998858630657196
      ],
      "max": [
        0.9851949214935303,
        0.9997848272323608,
        0.9994231462478638
      ],
      "type": "VEC3",
      "bufferView": 1,
      "byteOffset": 0
    },
    {
      "name": "Flora_A_01_LOD2_Plane.045-Mesh_0_texcoords",
      "componentType": 5126,
      "count": 577,
      "min": [
        0.403889000415802,
        0.07913199812173843
      ],
      "max": [
        0.7473049759864807,
        0.9157509803771973
      ],
      "type": "VEC2",
      "bufferView": 2,
      "byteOffset": 0
    },
    {
      "name": "Flora_A_01_LOD2_Plane.045-Mesh_0_indices",
      "componentType": 5123,
      "count": 2802,
      "min": [
        0
      ],
      "max": [
        576
      ],
      "type": "SCALAR",
      "bufferView": 3,
      "byteOffset": 0
    }
  ],
  "asset": {
    "generator": "obj2gltf",
    "version": "2.0"
  },
  "buffers": [
    {
      "name": "Flora_A_01_LOD2",
      "byteLength": 38792,
      "uri": "data:application/octet-stream;base64,"
    }
  ],
  "bufferViews": [
    {
      "name": "bufferView_0",
      "buffer": 0,
      "byteLength": 6924,
      "byteOffset": 0,
      "byteStride": 12,
      "target": 34962
    },
    {
      "name": "bufferView_1",
      "buffer": 0,
      "byteLength": 6924,
      "byteOffset": 6924,
      "byteStride": 12,
      "target": 34962
    },
    {
      "name": "bufferView_2",
      "buffer": 0,
      "byteLength": 4616,
      "byteOffset": 13848,
      "byteStride": 8,
      "target": 34962
    },
    {
      "name": "bufferView_3",
      "buffer": 0,
      "byteLength": 5604,
      "byteOffset": 18464,
      "target": 34963
    },
    {
      "buffer": 0,
      "byteOffset": 24068,
      "byteLength": 14724
    }
  ],
  "images": [
    {
      "name": "Nature-Palette",
      "mimeType": "image/png",
      "bufferView": 4
    }
  ],
  "materials": [
    {
      "name": "Mat_Nature",
      "pbrMetallicRoughness": {
        "baseColorTexture": {
          "index": 0
        },
        "baseColorFactor": [
          1,
          1,
          1,
          1
        ],
        "metallicFactor": 0,
        "roughnessFactor": 0.775
      },
      "emissiveFactor": [
        0,
        0,
        0
      ],
      "alphaMode": "OPAQUE",
      "doubleSided": false
    }
  ],
  "meshes": [
    {
      "name": "Flora_A_01_LOD2_Plane.045-Mesh",
      "primitives": [
        {
          "attributes": {
            "POSITION": 0,
            "NORMAL": 1,
            "TEXCOORD_0": 2
          },
          "indices": 3,
          "material": 0,
          "mode": 4
        }
      ]
    }
  ],
  "nodes": [
    {
      "name": "Flora_A_01_LOD2_Plane.045",
      "mesh": 0
    }
  ],
  "samplers": [
    {
      "wrapS": 10497,
      "wrapT": 10497
    }
  ],
  "scene": 0,
  "scenes": [
    {
      "nodes": [
        0
      ]
    }
  ],
  "textures": [
    {
      "name": "Nature-Palette",
      "sampler": 0,
      "source": 0
    }
  ]
}
