{
  "accessors": [
    {
      "name": "Flora_B_03_LOD2_Plane.040-Mesh_0_positions",
      "componentType": 5126,
      "count": 337,
      "min": [
        -56.725311279296875,
        0.1106799989938736,
        38.2955322265625
      ],
      "max": [
        -53.937034606933594,
        3.4604859352111816,
        41.304317474365234
      ],
      "type": "VEC3",
      "bufferView": 0,
      "byteOffset": 0
    },
    {
      "name": "Flora_B_03_LOD2_Plane.040-Mesh_0_normals",
      "componentType": 5126,
      "count": 337,
      "min": [
        -0.9915071725845337,
        -0.9662431478500366,
        -0.9958303570747375
      ],
      "max": [
        0.9717043042182922,
        0.9853941202163696,
        0.9826736450195312
      ],
      "type": "VEC3",
      "bufferView": 1,
      "byteOffset": 0
    },
    {
      "name": "Flora_B_03_LOD2_Plane.040-Mesh_0_texcoords",
      "componentType": 5126,
      "count": 337,
      "min": [
        0.40204399824142456,
        0.08112700283527374
      ],
      "max": [
        0.5776659846305847,
        0.08132000267505646
      ],
      "type": "VEC2",
      "bufferView": 2,
      "byteOffset": 0
    },
    {
      "name": "Flora_B_03_LOD2_Plane.040-Mesh_0_indices",
      "componentType": 5123,
      "count": 1494,
      "min": [
        0
      ],
      "max": [
        336
      ],
      "type": "SCALAR",
      "bufferView": 3,
      "byteOffset": 0
    }
  ],
  "asset": {
    "generator": "obj2gltf",
    "version": "2.0"
  },
  "buffers": [
    {
      "name": "Flora_B_03_LOD2",
      "byteLength": 28496,
      "uri": "data:application/octet-stream;base64,"
    }
  ],
  "bufferViews": [
    {
      "name": "bufferView_0",
      "buffer": 0,
      "byteLength": 4044,
      "byteOffset": 0,
      "byteStride": 12,
      "target": 34962
    },
    {
      "name": "bufferView_1",
      "buffer": 0,
      "byteLength": 4044,
      "byteOffset": 4044,
      "byteStride": 12,
      "target": 34962
    },
    {
      "name": "bufferView_2",
      "buffer": 0,
      "byteLength": 2696,
      "byteOffset": 8088,
      "byteStride": 8,
      "target": 34962
    },
    {
      "name": "bufferView_3",
      "buffer": 0,
      "byteLength": 2988,
      "byteOffset": 10784,
      "target": 34963
    },
    {
      "buffer": 0,
      "byteOffset": 13772,
      "byteLength": 14724
    }
  ],
  "images": [
    {
      "name": "Nature-Palette",
      "mimeType": "image/png",
      "bufferView": 4
    }
  ],
  "materials": [
    {
      "name": "Mat_Nature",
      "pbrMetallicRoughness": {
        "baseColorTexture": {
          "index": 0
        },
        "baseColorFactor": [
          1,
          1,
          1,
          1
        ],
        "metallicFactor": 0,
        "roughnessFactor": 0.775
      },
      "emissiveFactor": [
        0,
        0,
        0
      ],
      "alphaMode": "OPAQUE",
      "doubleSided": false
    }
  ],
  "meshes": [
    {
      "name": "Flora_B_03_LOD2_Plane.040-Mesh",
      "primitives": [
        {
          "attributes": {
            "POSITION": 0,
            "NORMAL": 1,
            "TEXCOORD_0": 2
          },
          "indices": 3,
          "material": 0,
          "mode": 4
        }
      ]
    }
  ],
  "nodes": [
    {
      "name": "Flora_B_03_LOD2_Plane.040",
      "mesh": 0
    }
  ],
  "samplers": [
    {
      "wrapS": 10497,
      "wrapT": 10497
    }
  ],
  "scene": 0,
  "scenes": [
    {
      "nodes": [
        0
      ]
    }
  ],
  "textures": [
    {
      "name": "Nature-Palette",
      "sampler": 0,
      "source": 0
    }
  ]
}
