{
  "accessors": [
    {
      "name": "Flower_B_03_LOD2_Plane.037-Mesh_0_positions",
      "componentType": 5126,
      "count": 794,
      "min": [
        -56.95685958862305,
        0.0012829999905079603,
        38.141841888427734
      ],
      "max": [
        -52.6862907409668,
        6.220163822174072,
        41.45282745361328
      ],
      "type": "VEC3",
      "bufferView": 0,
      "byteOffset": 0
    },
    {
      "name": "Flower_B_03_LOD2_Plane.037-Mesh_0_normals",
      "componentType": 5126,
      "count": 794,
      "min": [
        -0.9999595880508423,
        -0.990760326385498,
        -0.9991175532341003
      ],
      "max": [
        0.999657392501831,
        0.9978891015052795,
        0.9987483024597168
      ],
      "type": "VEC3",
      "bufferView": 1,
      "byteOffset": 0
    },
    {
      "name": "Flower_B_03_LOD2_Plane.037-Mesh_0_texcoords",
      "componentType": 5126,
      "count": 794,
      "min": [
        0.5739330053329468,
        0.08112700283527374
      ],
      "max": [
        0.7473049759864807,
        0.9180259704589844
      ],
      "type": "VEC2",
      "bufferView": 2,
      "byteOffset": 0
    },
    {
      "name": "Flower_B_03_LOD2_Plane.037-Mesh_0_indices",
      "componentType": 5123,
      "count": 4260,
      "min": [
        0
      ],
      "max": [
        793
      ],
      "type": "SCALAR",
      "bufferView": 3,
      "byteOffset": 0
    }
  ],
  "asset": {
    "generator": "obj2gltf",
    "version": "2.0"
  },
  "buffers": [
    {
      "name": "Flower_B_03_LOD2",
      "byteLength": 48652,
      "uri": "data:application/octet-stream;base64,"
    }
  ],
  "bufferViews": [
    {
      "name": "bufferView_0",
      "buffer": 0,
      "byteLength": 9528,
      "byteOffset": 0,
      "byteStride": 12,
      "target": 34962
    },
    {
      "name": "bufferView_1",
      "buffer": 0,
      "byteLength": 9528,
      "byteOffset": 9528,
      "byteStride": 12,
      "target": 34962
    },
    {
      "name": "bufferView_2",
      "buffer": 0,
      "byteLength": 6352,
      "byteOffset": 19056,
      "byteStride": 8,
      "target": 34962
    },
    {
      "name": "bufferView_3",
      "buffer": 0,
      "byteLength": 8520,
      "byteOffset": 25408,
      "target": 34963
    },
    {
      "buffer": 0,
      "byteOffset": 33928,
      "byteLength": 14724
    }
  ],
  "images": [
    {
      "name": "Nature-Palette",
      "mimeType": "image/png",
      "bufferView": 4
    }
  ],
  "materials": [
    {
      "name": "Mat_Nature",
      "pbrMetallicRoughness": {
        "baseColorTexture": {
          "index": 0
        },
        "baseColorFactor": [
          1,
          1,
          1,
          1
        ],
        "metallicFactor": 0,
        "roughnessFactor": 0.775
      },
      "emissiveFactor": [
        0,
        0,
        0
      ],
      "alphaMode": "OPAQUE",
      "doubleSided": false
    }
  ],
  "meshes": [
    {
      "name": "Flower_B_03_LOD2_Plane.037-Mesh",
      "primitives": [
        {
          "attributes": {
            "POSITION": 0,
            "NORMAL": 1,
            "TEXCOORD_0": 2
          },
          "indices": 3,
          "material": 0,
          "mode": 4
        }
      ]
    }
  ],
  "nodes": [
    {
      "name": "Flower_B_03_LOD2_Plane.037",
      "mesh": 0
    }
  ],
  "samplers": [
    {
      "wrapS": 10497,
      "wrapT": 10497
    }
  ],
  "scene": 0,
  "scenes": [
    {
      "nodes": [
        0
      ]
    }
  ],
  "textures": [
    {
      "name": "Nature-Palette",
      "sampler": 0,
      "source": 0
    }
  ]
}
