{
  "accessors": [
    {
      "name": "Flower_B_01_LOD2_Plane.039-Mesh_0_positions",
      "componentType": 5126,
      "count": 210,
      "min": [
        -35.69864273071289,
        0.0012829999905079603,
        38.74189758300781
      ],
      "max": [
        -34.03953552246094,
        5.816772937774658,
        40.53932571411133
      ],
      "type": "VEC3",
      "bufferView": 0,
      "byteOffset": 0
    },
    {
      "name": "Flower_B_01_LOD2_Plane.039-Mesh_0_normals",
      "componentType": 5126,
      "count": 210,
      "min": [
        -0.9727584719657898,
        -0.9991823434829712,
        -0.9968698620796204
      ],
      "max": [
        0.9676522612571716,
        0.9991839528083801,
        0.9897355437278748
      ],
      "type": "VEC3",
      "bufferView": 1,
      "byteOffset": 0
    },
    {
      "name": "Flower_B_01_LOD2_Plane.039-Mesh_0_texcoords",
      "componentType": 5126,
      "count": 210,
      "min": [
        0.5739330053329468,
        0.08112700283527374
      ],
      "max": [
        0.7473049759864807,
        0.9180259704589844
      ],
      "type": "VEC2",
      "bufferView": 2,
      "byteOffset": 0
    },
    {
      "name": "Flower_B_01_LOD2_Plane.039-Mesh_0_indices",
      "componentType": 5123,
      "count": 1092,
      "min": [
        0
      ],
      "max": [
        209
      ],
      "type": "SCALAR",
      "bufferView": 3,
      "byteOffset": 0
    }
  ],
  "asset": {
    "generator": "obj2gltf",
    "version": "2.0"
  },
  "buffers": [
    {
      "name": "Flower_B_01_LOD2",
      "byteLength": 23628,
      "uri": "data:application/octet-stream;base64,"
    }
  ],
  "bufferViews": [
    {
      "name": "bufferView_0",
      "buffer": 0,
      "byteLength": 2520,
      "byteOffset": 0,
      "byteStride": 12,
      "target": 34962
    },
    {
      "name": "bufferView_1",
      "buffer": 0,
      "byteLength": 2520,
      "byteOffset": 2520,
      "byteStride": 12,
      "target": 34962
    },
    {
      "name": "bufferView_2",
      "buffer": 0,
      "byteLength": 1680,
      "byteOffset": 5040,
      "byteStride": 8,
      "target": 34962
    },
    {
      "name": "bufferView_3",
      "buffer": 0,
      "byteLength": 2184,
      "byteOffset": 6720,
      "target": 34963
    },
    {
      "buffer": 0,
      "byteOffset": 8904,
      "byteLength": 14724
    }
  ],
  "images": [
    {
      "name": "Nature-Palette",
      "mimeType": "image/png",
      "bufferView": 4
    }
  ],
  "materials": [
    {
      "name": "Mat_Nature",
      "pbrMetallicRoughness": {
        "baseColorTexture": {
          "index": 0
        },
        "baseColorFactor": [
          1,
          1,
          1,
          1
        ],
        "metallicFactor": 0,
        "roughnessFactor": 0.775
      },
      "emissiveFactor": [
        0,
        0,
        0
      ],
      "alphaMode": "OPAQUE",
      "doubleSided": false
    }
  ],
  "meshes": [
    {
      "name": "Flower_B_01_LOD2_Plane.039-Mesh",
      "primitives": [
        {
          "attributes": {
            "POSITION": 0,
            "NORMAL": 1,
            "TEXCOORD_0": 2
          },
          "indices": 3,
          "material": 0,
          "mode": 4
        }
      ]
    }
  ],
  "nodes": [
    {
      "name": "Flower_B_01_LOD2_Plane.039",
      "mesh": 0
    }
  ],
  "samplers": [
    {
      "wrapS": 10497,
      "wrapT": 10497
    }
  ],
  "scene": 0,
  "scenes": [
    {
      "nodes": [
        0
      ]
    }
  ],
  "textures": [
    {
      "name": "Nature-Palette",
      "sampler": 0,
      "source": 0
    }
  ]
}
