{
  "accessors": [
    {
      "name": "Flower_B_02_LOD2_Plane.038-Mesh_0_positions",
      "componentType": 5126,
      "count": 420,
      "min": [
        -46.54831314086914,
        0.0012829999905079603,
        38.57241439819336
      ],
      "max": [
        -43.44649124145508,
        5.566195011138916,
        41.141212463378906
      ],
      "type": "VEC3",
      "bufferView": 0,
      "byteOffset": 0
    },
    {
      "name": "Flower_B_02_LOD2_Plane.038-Mesh_0_normals",
      "componentType": 5126,
      "count": 420,
      "min": [
        -0.9975738525390625,
        -0.9851621389389038,
        -0.9893560409545898
      ],
      "max": [
        0.9966241121292114,
        0.9851621389389038,
        0.9894457459449768
      ],
      "type": "VEC3",
      "bufferView": 1,
      "byteOffset": 0
    },
    {
      "name": "Flower_B_02_LOD2_Plane.038-Mesh_0_texcoords",
      "componentType": 5126,
      "count": 420,
      "min": [
        0.5739330053329468,
        0.08112700283527374
      ],
      "max": [
        0.7473049759864807,
        0.9180259704589844
      ],
      "type": "VEC2",
      "bufferView": 2,
      "byteOffset": 0
    },
    {
      "name": "Flower_B_02_LOD2_Plane.038-Mesh_0_indices",
      "componentType": 5123,
      "count": 2184,
      "min": [
        0
      ],
      "max": [
        419
      ],
      "type": "SCALAR",
      "bufferView": 3,
      "byteOffset": 0
    }
  ],
  "asset": {
    "generator": "obj2gltf",
    "version": "2.0"
  },
  "buffers": [
    {
      "name": "Flower_B_02_LOD2",
      "byteLength": 32532,
      "uri": "data:application/octet-stream;base64,"
    }
  ],
  "bufferViews": [
    {
      "name": "bufferView_0",
      "buffer": 0,
      "byteLength": 5040,
      "byteOffset": 0,
      "byteStride": 12,
      "target": 34962
    },
    {
      "name": "bufferView_1",
      "buffer": 0,
      "byteLength": 5040,
      "byteOffset": 5040,
      "byteStride": 12,
      "target": 34962
    },
    {
      "name": "bufferView_2",
      "buffer": 0,
      "byteLength": 3360,
      "byteOffset": 10080,
      "byteStride": 8,
      "target": 34962
    },
    {
      "name": "bufferView_3",
      "buffer": 0,
      "byteLength": 4368,
      "byteOffset": 13440,
      "target": 34963
    },
    {
      "buffer": 0,
      "byteOffset": 17808,
      "byteLength": 14724
    }
  ],
  "images": [
    {
      "name": "Nature-Palette",
      "mimeType": "image/png",
      "bufferView": 4
    }
  ],
  "materials": [
    {
      "name": "Mat_Nature",
      "pbrMetallicRoughness": {
        "baseColorTexture": {
          "index": 0
        },
        "baseColorFactor": [
          1,
          1,
          1,
          1
        ],
        "metallicFactor": 0,
        "roughnessFactor": 0.775
      },
      "emissiveFactor": [
        0,
        0,
        0
      ],
      "alphaMode": "OPAQUE",
      "doubleSided": false
    }
  ],
  "meshes": [
    {
      "name": "Flower_B_02_LOD2_Plane.038-Mesh",
      "primitives": [
        {
          "attributes": {
            "POSITION": 0,
            "NORMAL": 1,
            "TEXCOORD_0": 2
          },
          "indices": 3,
          "material": 0,
          "mode": 4
        }
      ]
    }
  ],
  "nodes": [
    {
      "name": "Flower_B_02_LOD2_Plane.038",
      "mesh": 0
    }
  ],
  "samplers": [
    {
      "wrapS": 10497,
      "wrapT": 10497
    }
  ],
  "scene": 0,
  "scenes": [
    {
      "nodes": [
        0
      ]
    }
  ],
  "textures": [
    {
      "name": "Nature-Palette",
      "sampler": 0,
      "source": 0
    }
  ]
}
