{
  "accessors": [
    {
      "name": "FlowerBush_A_03_LOD2_Cube.722-Mesh_0_positions",
      "componentType": 5126,
      "count": 498,
      "min": [
        -59.090423583984375,
        -0.19141699373722076,
        57.61249542236328
      ],
      "max": [
        -50.69887161254883,
        3.800874948501587,
        62.60013961791992
      ],
      "type": "VEC3",
      "bufferView": 0,
      "byteOffset": 0
    },
    {
      "name": "FlowerBush_A_03_LOD2_Cube.722-Mesh_0_normals",
      "componentType": 5126,
      "count": 498,
      "min": [
        -0.9963560104370117,
        -0.9981051087379456,
        -0.9983325004577637
      ],
      "max": [
        0.9921606779098511,
        0.9980157017707825,
        0.9994839429855347
      ],
      "type": "VEC3",
      "bufferView": 1,
      "byteOffset": 0
    },
    {
      "name": "FlowerBush_A_03_LOD2_Cube.722-Mesh_0_texcoords",
      "componentType": 5126,
      "count": 498,
      "min": [
        0.2420240044593811,
        0.08420100063085556
      ],
      "max": [
        0.7473049759864807,
        0.9157509803771973
      ],
      "type": "VEC2",
      "bufferView": 2,
      "byteOffset": 0
    },
    {
      "name": "FlowerBush_A_03_LOD2_Cube.722-Mesh_0_indices",
      "componentType": 5123,
      "count": 2544,
      "min": [
        0
      ],
      "max": [
        497
      ],
      "type": "SCALAR",
      "bufferView": 3,
      "byteOffset": 0
    }
  ],
  "asset": {
    "generator": "obj2gltf",
    "version": "2.0"
  },
  "buffers": [
    {
      "name": "FlowerBush_A_03_LOD2",
      "byteLength": 35748,
      "uri": "data:application/octet-stream;base64,"
    }
  ],
  "bufferViews": [
    {
      "name": "bufferView_0",
      "buffer": 0,
      "byteLength": 5976,
      "byteOffset": 0,
      "byteStride": 12,
      "target": 34962
    },
    {
      "name": "bufferView_1",
      "buffer": 0,
      "byteLength": 5976,
      "byteOffset": 5976,
      "byteStride": 12,
      "target": 34962
    },
    {
      "name": "bufferView_2",
      "buffer": 0,
      "byteLength": 3984,
      "byteOffset": 11952,
      "byteStride": 8,
      "target": 34962
    },
    {
      "name": "bufferView_3",
      "buffer": 0,
      "byteLength": 5088,
      "byteOffset": 15936,
      "target": 34963
    },
    {
      "buffer": 0,
      "byteOffset": 21024,
      "byteLength": 14724
    }
  ],
  "images": [
    {
      "name": "Nature-Palette",
      "mimeType": "image/png",
      "bufferView": 4
    }
  ],
  "materials": [
    {
      "name": "Mat_Nature",
      "pbrMetallicRoughness": {
        "baseColorTexture": {
          "index": 0
        },
        "baseColorFactor": [
          1,
          1,
          1,
          1
        ],
        "metallicFactor": 0,
        "roughnessFactor": 0.775
      },
      "emissiveFactor": [
        0,
        0,
        0
      ],
      "alphaMode": "OPAQUE",
      "doubleSided": false
    }
  ],
  "meshes": [
    {
      "name": "FlowerBush_A_03_LOD2_Cube.722-Mesh",
      "primitives": [
        {
          "attributes": {
            "POSITION": 0,
            "NORMAL": 1,
            "TEXCOORD_0": 2
          },
          "indices": 3,
          "material": 0,
          "mode": 4
        }
      ]
    }
  ],
  "nodes": [
    {
      "name": "FlowerBush_A_03_LOD2_Cube.722",
      "mesh": 0
    }
  ],
  "samplers": [
    {
      "wrapS": 10497,
      "wrapT": 10497
    }
  ],
  "scene": 0,
  "scenes": [
    {
      "nodes": [
        0
      ]
    }
  ],
  "textures": [
    {
      "name": "Nature-Palette",
      "sampler": 0,
      "source": 0
    }
  ]
}
