{
  "accessors": [
    {
      "name": "FlowerBush_A_0_LOD2_Cube.721-Mesh_0_positions",
      "componentType": 5126,
      "count": 401,
      "min": [
        -38.080142974853516,
        -0.1575929969549179,
        57.413551330566406
      ],
      "max": [
        -32.555816650390625,
        3.9105629920959473,
        62.828399658203125
      ],
      "type": "VEC3",
      "bufferView": 0,
      "byteOffset": 0
    },
    {
      "name": "FlowerBush_A_0_LOD2_Cube.721-Mesh_0_normals",
      "componentType": 5126,
      "count": 401,
      "min": [
        -0.9939284324645996,
        -0.9990085363388062,
        -0.991286039352417
      ],
      "max": [
        0.9921310544013977,
        0.9929900169372559,
        0.9978958964347839
      ],
      "type": "VEC3",
      "bufferView": 1,
      "byteOffset": 0
    },
    {
      "name": "FlowerBush_A_0_LOD2_Cube.721-Mesh_0_texcoords",
      "componentType": 5126,
      "count": 401,
      "min": [
        0.2420240044593811,
        0.08420100063085556
      ],
      "max": [
        0.7473049759864807,
        0.9157509803771973
      ],
      "type": "VEC2",
      "bufferView": 2,
      "byteOffset": 0
    },
    {
      "name": "FlowerBush_A_0_LOD2_Cube.721-Mesh_0_indices",
      "componentType": 5123,
      "count": 2070,
      "min": [
        0
      ],
      "max": [
        400
      ],
      "type": "SCALAR",
      "bufferView": 3,
      "byteOffset": 0
    }
  ],
  "asset": {
    "generator": "obj2gltf",
    "version": "2.0"
  },
  "buffers": [
    {
      "name": "FlowerBush_A_0_LOD2",
      "byteLength": 31696,
      "uri": "data:application/octet-stream;base64,"
    }
  ],
  "bufferViews": [
    {
      "name": "bufferView_0",
      "buffer": 0,
      "byteLength": 4812,
      "byteOffset": 0,
      "byteStride": 12,
      "target": 34962
    },
    {
      "name": "bufferView_1",
      "buffer": 0,
      "byteLength": 4812,
      "byteOffset": 4812,
      "byteStride": 12,
      "target": 34962
    },
    {
      "name": "bufferView_2",
      "buffer": 0,
      "byteLength": 3208,
      "byteOffset": 9624,
      "byteStride": 8,
      "target": 34962
    },
    {
      "name": "bufferView_3",
      "buffer": 0,
      "byteLength": 4140,
      "byteOffset": 12832,
      "target": 34963
    },
    {
      "buffer": 0,
      "byteOffset": 16972,
      "byteLength": 14724
    }
  ],
  "images": [
    {
      "name": "Nature-Palette",
      "mimeType": "image/png",
      "bufferView": 4
    }
  ],
  "materials": [
    {
      "name": "Mat_Nature",
      "pbrMetallicRoughness": {
        "baseColorTexture": {
          "index": 0
        },
        "baseColorFactor": [
          1,
          1,
          1,
          1
        ],
        "metallicFactor": 0,
        "roughnessFactor": 0.775
      },
      "emissiveFactor": [
        0,
        0,
        0
      ],
      "alphaMode": "OPAQUE",
      "doubleSided": false
    }
  ],
  "meshes": [
    {
      "name": "FlowerBush_A_0_LOD2_Cube.721-Mesh",
      "primitives": [
        {
          "attributes": {
            "POSITION": 0,
            "NORMAL": 1,
            "TEXCOORD_0": 2
          },
          "indices": 3,
          "material": 0,
          "mode": 4
        }
      ]
    }
  ],
  "nodes": [
    {
      "name": "FlowerBush_A_0_LOD2_Cube.721",
      "mesh": 0
    }
  ],
  "samplers": [
    {
      "wrapS": 10497,
      "wrapT": 10497
    }
  ],
  "scene": 0,
  "scenes": [
    {
      "nodes": [
        0
      ]
    }
  ],
  "textures": [
    {
      "name": "Nature-Palette",
      "sampler": 0,
      "source": 0
    }
  ]
}
