{
  "accessors": [
    {
      "name": "FlowerBush_A_02_LOD2_Cube.723-Mesh_0_positions",
      "componentType": 5126,
      "count": 407,
      "min": [
        -48.459022521972656,
        -0.13687600195407867,
        57.325138092041016
      ],
      "max": [
        -41.97836685180664,
        3.3491060733795166,
        62.171142578125
      ],
      "type": "VEC3",
      "bufferView": 0,
      "byteOffset": 0
    },
    {
      "name": "FlowerBush_A_02_LOD2_Cube.723-Mesh_0_normals",
      "componentType": 5126,
      "count": 407,
      "min": [
        -0.9996514320373535,
        -0.9991409182548523,
        -0.9921104907989502
      ],
      "max": [
        0.983367383480072,
        0.9986975789070129,
        0.9938720464706421
      ],
      "type": "VEC3",
      "bufferView": 1,
      "byteOffset": 0
    },
    {
      "name": "FlowerBush_A_02_LOD2_Cube.723-Mesh_0_texcoords",
      "componentType": 5126,
      "count": 407,
      "min": [
        0.2420240044593811,
        0.08420100063085556
      ],
      "max": [
        0.7473049759864807,
        0.9157509803771973
      ],
      "type": "VEC2",
      "bufferView": 2,
      "byteOffset": 0
    },
    {
      "name": "FlowerBush_A_02_LOD2_Cube.723-Mesh_0_indices",
      "componentType": 5123,
      "count": 2106,
      "min": [
        0
      ],
      "max": [
        406
      ],
      "type": "SCALAR",
      "bufferView": 3,
      "byteOffset": 0
    }
  ],
  "asset": {
    "generator": "obj2gltf",
    "version": "2.0"
  },
  "buffers": [
    {
      "name": "FlowerBush_A_02_LOD2",
      "byteLength": 31960,
      "uri": "data:application/octet-stream;base64,"
    }
  ],
  "bufferViews": [
    {
      "name": "bufferView_0",
      "buffer": 0,
      "byteLength": 4884,
      "byteOffset": 0,
      "byteStride": 12,
      "target": 34962
    },
    {
      "name": "bufferView_1",
      "buffer": 0,
      "byteLength": 4884,
      "byteOffset": 4884,
      "byteStride": 12,
      "target": 34962
    },
    {
      "name": "bufferView_2",
      "buffer": 0,
      "byteLength": 3256,
      "byteOffset": 9768,
      "byteStride": 8,
      "target": 34962
    },
    {
      "name": "bufferView_3",
      "buffer": 0,
      "byteLength": 4212,
      "byteOffset": 13024,
      "target": 34963
    },
    {
      "buffer": 0,
      "byteOffset": 17236,
      "byteLength": 14724
    }
  ],
  "images": [
    {
      "name": "Nature-Palette",
      "mimeType": "image/png",
      "bufferView": 4
    }
  ],
  "materials": [
    {
      "name": "Mat_Nature",
      "pbrMetallicRoughness": {
        "baseColorTexture": {
          "index": 0
        },
        "baseColorFactor": [
          1,
          1,
          1,
          1
        ],
        "metallicFactor": 0,
        "roughnessFactor": 0.775
      },
      "emissiveFactor": [
        0,
        0,
        0
      ],
      "alphaMode": "OPAQUE",
      "doubleSided": false
    }
  ],
  "meshes": [
    {
      "name": "FlowerBush_A_02_LOD2_Cube.723-Mesh",
      "primitives": [
        {
          "attributes": {
            "POSITION": 0,
            "NORMAL": 1,
            "TEXCOORD_0": 2
          },
          "indices": 3,
          "material": 0,
          "mode": 4
        }
      ]
    }
  ],
  "nodes": [
    {
      "name": "FlowerBush_A_02_LOD2_Cube.723",
      "mesh": 0
    }
  ],
  "samplers": [
    {
      "wrapS": 10497,
      "wrapT": 10497
    }
  ],
  "scene": 0,
  "scenes": [
    {
      "nodes": [
        0
      ]
    }
  ],
  "textures": [
    {
      "name": "Nature-Palette",
      "sampler": 0,
      "source": 0
    }
  ]
}
