{
  "accessors": [
    {
      "name": "Fungus_A_02_LOD2_Cylinder.088-Mesh_0_positions",
      "componentType": 5126,
      "count": 96,
      "min": [
        13.099042892456055,
        0,
        8.228802680969238
      ],
      "max": [
        16.45502471923828,
        1.7985479831695557,
        12.171197891235352
      ],
      "type": "VEC3",
      "bufferView": 0,
      "byteOffset": 0
    },
    {
      "name": "Fungus_A_02_LOD2_Cylinder.088-Mesh_0_normals",
      "componentType": 5126,
      "count": 96,
      "min": [
        -0.9529454708099365,
        -1,
        -0.9720730781555176
      ],
      "max": [
        0.8450005650520325,
        0.987511157989502,
        0.982459545135498
      ],
      "type": "VEC3",
      "bufferView": 1,
      "byteOffset": 0
    },
    {
      "name": "Fungus_A_02_LOD2_Cylinder.088-Mesh_0_texcoords",
      "componentType": 5126,
      "count": 96,
      "min": [
        0.08682899922132492,
        0.5801780223846436
      ],
      "max": [
        0.7462760210037231,
        0.5801780223846436
      ],
      "type": "VEC2",
      "bufferView": 2,
      "byteOffset": 0
    },
    {
      "name": "Fungus_A_02_LOD2_Cylinder.088-Mesh_0_indices",
      "componentType": 5123,
      "count": 480,
      "min": [
        0
      ],
      "max": [
        95
      ],
      "type": "SCALAR",
      "bufferView": 3,
      "byteOffset": 0
    }
  ],
  "asset": {
    "generator": "obj2gltf",
    "version": "2.0"
  },
  "buffers": [
    {
      "name": "Fungus_A_02_LOD2",
      "byteLength": 18756,
      "uri": "data:application/octet-stream;base64,"
    }
  ],
  "bufferViews": [
    {
      "name": "bufferView_0",
      "buffer": 0,
      "byteLength": 1152,
      "byteOffset": 0,
      "byteStride": 12,
      "target": 34962
    },
    {
      "name": "bufferView_1",
      "buffer": 0,
      "byteLength": 1152,
      "byteOffset": 1152,
      "byteStride": 12,
      "target": 34962
    },
    {
      "name": "bufferView_2",
      "buffer": 0,
      "byteLength": 768,
      "byteOffset": 2304,
      "byteStride": 8,
      "target": 34962
    },
    {
      "name": "bufferView_3",
      "buffer": 0,
      "byteLength": 960,
      "byteOffset": 3072,
      "target": 34963
    },
    {
      "buffer": 0,
      "byteOffset": 4032,
      "byteLength": 14724
    }
  ],
  "images": [
    {
      "name": "Nature-Palette",
      "mimeType": "image/png",
      "bufferView": 4
    }
  ],
  "materials": [
    {
      "name": "Mat_Nature",
      "pbrMetallicRoughness": {
        "baseColorTexture": {
          "index": 0
        },
        "baseColorFactor": [
          1,
          1,
          1,
          1
        ],
        "metallicFactor": 0,
        "roughnessFactor": 0.775
      },
      "emissiveFactor": [
        0,
        0,
        0
      ],
      "alphaMode": "OPAQUE",
      "doubleSided": false
    }
  ],
  "meshes": [
    {
      "name": "Fungus_A_02_LOD2_Cylinder.088-Mesh",
      "primitives": [
        {
          "attributes": {
            "POSITION": 0,
            "NORMAL": 1,
            "TEXCOORD_0": 2
          },
          "indices": 3,
          "material": 0,
          "mode": 4
        }
      ]
    }
  ],
  "nodes": [
    {
      "name": "Fungus_A_02_LOD2_Cylinder.088",
      "mesh": 0
    }
  ],
  "samplers": [
    {
      "wrapS": 10497,
      "wrapT": 10497
    }
  ],
  "scene": 0,
  "scenes": [
    {
      "nodes": [
        0
      ]
    }
  ],
  "textures": [
    {
      "name": "Nature-Palette",
      "sampler": 0,
      "source": 0
    }
  ]
}
