{
  "accessors": [
    {
      "name": "Fungus_A_01_LOD2_Cylinder.086-Mesh_0_positions",
      "componentType": 5126,
      "count": 54,
      "min": [
        24.130434036254883,
        0,
        9.089897155761719
      ],
      "max": [
        25.767152786254883,
        1.940513014793396,
        11.096084594726562
      ],
      "type": "VEC3",
      "bufferView": 0,
      "byteOffset": 0
    },
    {
      "name": "Fungus_A_01_LOD2_Cylinder.086-Mesh_0_normals",
      "componentType": 5126,
      "count": 54,
      "min": [
        -0.9266442060470581,
        -1,
        -0.9681150913238525
      ],
      "max": [
        0.8793153166770935,
        0.9260154366493225,
        0.9675971865653992
      ],
      "type": "VEC3",
      "bufferView": 1,
      "byteOffset": 0
    },
    {
      "name": "Fungus_A_01_LOD2_Cylinder.086-Mesh_0_texcoords",
      "componentType": 5126,
      "count": 54,
      "min": [
        0.08682899922132492,
        0.5801780223846436
      ],
      "max": [
        0.7462760210037231,
        0.5801780223846436
      ],
      "type": "VEC2",
      "bufferView": 2,
      "byteOffset": 0
    },
    {
      "name": "Fungus_A_01_LOD2_Cylinder.086-Mesh_0_indices",
      "componentType": 5123,
      "count": 276,
      "min": [
        0
      ],
      "max": [
        53
      ],
      "type": "SCALAR",
      "bufferView": 3,
      "byteOffset": 0
    }
  ],
  "asset": {
    "generator": "obj2gltf",
    "version": "2.0"
  },
  "buffers": [
    {
      "name": "Fungus_A_01_LOD2",
      "byteLength": 17004,
      "uri": "data:application/octet-stream;base64,"
    }
  ],
  "bufferViews": [
    {
      "name": "bufferView_0",
      "buffer": 0,
      "byteLength": 648,
      "byteOffset": 0,
      "byteStride": 12,
      "target": 34962
    },
    {
      "name": "bufferView_1",
      "buffer": 0,
      "byteLength": 648,
      "byteOffset": 648,
      "byteStride": 12,
      "target": 34962
    },
    {
      "name": "bufferView_2",
      "buffer": 0,
      "byteLength": 432,
      "byteOffset": 1296,
      "byteStride": 8,
      "target": 34962
    },
    {
      "name": "bufferView_3",
      "buffer": 0,
      "byteLength": 552,
      "byteOffset": 1728,
      "target": 34963
    },
    {
      "buffer": 0,
      "byteOffset": 2280,
      "byteLength": 14724
    }
  ],
  "images": [
    {
      "name": "Nature-Palette",
      "mimeType": "image/png",
      "bufferView": 4
    }
  ],
  "materials": [
    {
      "name": "Mat_Nature",
      "pbrMetallicRoughness": {
        "baseColorTexture": {
          "index": 0
        },
        "baseColorFactor": [
          1,
          1,
          1,
          1
        ],
        "metallicFactor": 0,
        "roughnessFactor": 0.775
      },
      "emissiveFactor": [
        0,
        0,
        0
      ],
      "alphaMode": "OPAQUE",
      "doubleSided": false
    }
  ],
  "meshes": [
    {
      "name": "Fungus_A_01_LOD2_Cylinder.086-Mesh",
      "primitives": [
        {
          "attributes": {
            "POSITION": 0,
            "NORMAL": 1,
            "TEXCOORD_0": 2
          },
          "indices": 3,
          "material": 0,
          "mode": 4
        }
      ]
    }
  ],
  "nodes": [
    {
      "name": "Fungus_A_01_LOD2_Cylinder.086",
      "mesh": 0
    }
  ],
  "samplers": [
    {
      "wrapS": 10497,
      "wrapT": 10497
    }
  ],
  "scene": 0,
  "scenes": [
    {
      "nodes": [
        0
      ]
    }
  ],
  "textures": [
    {
      "name": "Nature-Palette",
      "sampler": 0,
      "source": 0
    }
  ]
}
