{
  "accessors": [
    {
      "name": "Fungus_A_03_LOD2_Cylinder.087-Mesh_0_positions",
      "componentType": 5126,
      "count": 144,
      "min": [
        3.009345054626465,
        0,
        8.262845993041992
      ],
      "max": [
        7.208817958831787,
        1.8606120347976685,
        12.063858985900879
      ],
      "type": "VEC3",
      "bufferView": 0,
      "byteOffset": 0
    },
    {
      "name": "Fungus_A_03_LOD2_Cylinder.087-Mesh_0_normals",
      "componentType": 5126,
      "count": 144,
      "min": [
        -0.9897071719169617,
        -1,
        -0.9995236992835999
      ],
      "max": [
        0.9869676828384399,
        0.9900494813919067,
        0.9488124251365662
      ],
      "type": "VEC3",
      "bufferView": 1,
      "byteOffset": 0
    },
    {
      "name": "Fungus_A_03_LOD2_Cylinder.087-Mesh_0_texcoords",
      "componentType": 5126,
      "count": 144,
      "min": [
        0.08682899922132492,
        0.5801780223846436
      ],
      "max": [
        0.7462760210037231,
        0.5801780223846436
      ],
      "type": "VEC2",
      "bufferView": 2,
      "byteOffset": 0
    },
    {
      "name": "Fungus_A_03_LOD2_Cylinder.087-Mesh_0_indices",
      "componentType": 5123,
      "count": 720,
      "min": [
        0
      ],
      "max": [
        143
      ],
      "type": "SCALAR",
      "bufferView": 3,
      "byteOffset": 0
    }
  ],
  "asset": {
    "generator": "obj2gltf",
    "version": "2.0"
  },
  "buffers": [
    {
      "name": "Fungus_A_03_LOD2",
      "byteLength": 20772,
      "uri": "data:application/octet-stream;base64,"
    }
  ],
  "bufferViews": [
    {
      "name": "bufferView_0",
      "buffer": 0,
      "byteLength": 1728,
      "byteOffset": 0,
      "byteStride": 12,
      "target": 34962
    },
    {
      "name": "bufferView_1",
      "buffer": 0,
      "byteLength": 1728,
      "byteOffset": 1728,
      "byteStride": 12,
      "target": 34962
    },
    {
      "name": "bufferView_2",
      "buffer": 0,
      "byteLength": 1152,
      "byteOffset": 3456,
      "byteStride": 8,
      "target": 34962
    },
    {
      "name": "bufferView_3",
      "buffer": 0,
      "byteLength": 1440,
      "byteOffset": 4608,
      "target": 34963
    },
    {
      "buffer": 0,
      "byteOffset": 6048,
      "byteLength": 14724
    }
  ],
  "images": [
    {
      "name": "Nature-Palette",
      "mimeType": "image/png",
      "bufferView": 4
    }
  ],
  "materials": [
    {
      "name": "Mat_Nature",
      "pbrMetallicRoughness": {
        "baseColorTexture": {
          "index": 0
        },
        "baseColorFactor": [
          1,
          1,
          1,
          1
        ],
        "metallicFactor": 0,
        "roughnessFactor": 0.775
      },
      "emissiveFactor": [
        0,
        0,
        0
      ],
      "alphaMode": "OPAQUE",
      "doubleSided": false
    }
  ],
  "meshes": [
    {
      "name": "Fungus_A_03_LOD2_Cylinder.087-Mesh",
      "primitives": [
        {
          "attributes": {
            "POSITION": 0,
            "NORMAL": 1,
            "TEXCOORD_0": 2
          },
          "indices": 3,
          "material": 0,
          "mode": 4
        }
      ]
    }
  ],
  "nodes": [
    {
      "name": "Fungus_A_03_LOD2_Cylinder.087",
      "mesh": 0
    }
  ],
  "samplers": [
    {
      "wrapS": 10497,
      "wrapT": 10497
    }
  ],
  "scene": 0,
  "scenes": [
    {
      "nodes": [
        0
      ]
    }
  ],
  "textures": [
    {
      "name": "Nature-Palette",
      "sampler": 0,
      "source": 0
    }
  ]
}
