{
  "accessors": [
    {
      "name": "Grass_B_03_LOD2_Cube.715-Mesh_0_positions",
      "componentType": 5126,
      "count": 68,
      "min": [
        -6.887178897857666,
        0,
        48.64524841308594
      ],
      "max": [
        -3.201082944869995,
        5.389810085296631,
        51.667179107666016
      ],
      "type": "VEC3",
      "bufferView": 0,
      "byteOffset": 0
    },
    {
      "name": "Grass_B_03_LOD2_Cube.715-Mesh_0_normals",
      "componentType": 5126,
      "count": 68,
      "min": [
        -0.992693305015564,
        -0.2954004406929016,
        -0.9952573776245117
      ],
      "max": [
        0.9980352520942688,
        0.9177377820014954,
        0.9948402047157288
      ],
      "type": "VEC3",
      "bufferView": 1,
      "byteOffset": 0
    },
    {
      "name": "Grass_B_03_LOD2_Cube.715-Mesh_0_texcoords",
      "componentType": 5126,
      "count": 68,
      "min": [
        0.5778489708900452,
        0.08569400012493134
      ],
      "max": [
        0.5778489708900452,
        0.08569400012493134
      ],
      "type": "VEC2",
      "bufferView": 2,
      "byteOffset": 0
    },
    {
      "name": "Grass_B_03_LOD2_Cube.715-Mesh_0_indices",
      "componentType": 5123,
      "count": 336,
      "min": [
        0
      ],
      "max": [
        67
      ],
      "type": "SCALAR",
      "bufferView": 3,
      "byteOffset": 0
    }
  ],
  "asset": {
    "generator": "obj2gltf",
    "version": "2.0"
  },
  "buffers": [
    {
      "name": "Grass_B_03_LOD2",
      "byteLength": 17572,
      "uri": "data:application/octet-stream;base64,"
    }
  ],
  "bufferViews": [
    {
      "name": "bufferView_0",
      "buffer": 0,
      "byteLength": 816,
      "byteOffset": 0,
      "byteStride": 12,
      "target": 34962
    },
    {
      "name": "bufferView_1",
      "buffer": 0,
      "byteLength": 816,
      "byteOffset": 816,
      "byteStride": 12,
      "target": 34962
    },
    {
      "name": "bufferView_2",
      "buffer": 0,
      "byteLength": 544,
      "byteOffset": 1632,
      "byteStride": 8,
      "target": 34962
    },
    {
      "name": "bufferView_3",
      "buffer": 0,
      "byteLength": 672,
      "byteOffset": 2176,
      "target": 34963
    },
    {
      "buffer": 0,
      "byteOffset": 2848,
      "byteLength": 14724
    }
  ],
  "images": [
    {
      "name": "Nature-Palette",
      "mimeType": "image/png",
      "bufferView": 4
    }
  ],
  "materials": [
    {
      "name": "Mat_Nature",
      "pbrMetallicRoughness": {
        "baseColorTexture": {
          "index": 0
        },
        "baseColorFactor": [
          1,
          1,
          1,
          1
        ],
        "metallicFactor": 0,
        "roughnessFactor": 0.775
      },
      "emissiveFactor": [
        0,
        0,
        0
      ],
      "alphaMode": "OPAQUE",
      "doubleSided": false
    }
  ],
  "meshes": [
    {
      "name": "Grass_B_03_LOD2_Cube.715-Mesh",
      "primitives": [
        {
          "attributes": {
            "POSITION": 0,
            "NORMAL": 1,
            "TEXCOORD_0": 2
          },
          "indices": 3,
          "material": 0,
          "mode": 4
        }
      ]
    }
  ],
  "nodes": [
    {
      "name": "Grass_B_03_LOD2_Cube.715",
      "mesh": 0
    }
  ],
  "samplers": [
    {
      "wrapS": 10497,
      "wrapT": 10497
    }
  ],
  "scene": 0,
  "scenes": [
    {
      "nodes": [
        0
      ]
    }
  ],
  "textures": [
    {
      "name": "Nature-Palette",
      "sampler": 0,
      "source": 0
    }
  ]
}
