{
  "accessors": [
    {
      "name": "Grass_A_06_LOD2_Cube.718-Mesh_0_positions",
      "componentType": 5126,
      "count": 85,
      "min": [
        -6.439610004425049,
        0,
        38.750221252441406
      ],
      "max": [
        -3.3156700134277344,
        3.2191359996795654,
        41.71031951904297
      ],
      "type": "VEC3",
      "bufferView": 0,
      "byteOffset": 0
    },
    {
      "name": "Grass_A_06_LOD2_Cube.718-Mesh_0_normals",
      "componentType": 5126,
      "count": 85,
      "min": [
        -0.9978972673416138,
        -0.43120086193084717,
        -0.9970113635063171
      ],
      "max": [
        0.9996276497840881,
        0.9941732287406921,
        0.9968416094779968
      ],
      "type": "VEC3",
      "bufferView": 1,
      "byteOffset": 0
    },
    {
      "name": "Grass_A_06_LOD2_Cube.718-Mesh_0_texcoords",
      "componentType": 5126,
      "count": 85,
      "min": [
        0.7462760210037231,
        0.08131899684667587
      ],
      "max": [
        0.7462760210037231,
        0.08132000267505646
      ],
      "type": "VEC2",
      "bufferView": 2,
      "byteOffset": 0
    },
    {
      "name": "Grass_A_06_LOD2_Cube.718-Mesh_0_indices",
      "componentType": 5123,
      "count": 420,
      "min": [
        0
      ],
      "max": [
        84
      ],
      "type": "SCALAR",
      "bufferView": 3,
      "byteOffset": 0
    }
  ],
  "asset": {
    "generator": "obj2gltf",
    "version": "2.0"
  },
  "buffers": [
    {
      "name": "Grass_A_06_LOD2",
      "byteLength": 18284,
      "uri": "data:application/octet-stream;base64,"
    }
  ],
  "bufferViews": [
    {
      "name": "bufferView_0",
      "buffer": 0,
      "byteLength": 1020,
      "byteOffset": 0,
      "byteStride": 12,
      "target": 34962
    },
    {
      "name": "bufferView_1",
      "buffer": 0,
      "byteLength": 1020,
      "byteOffset": 1020,
      "byteStride": 12,
      "target": 34962
    },
    {
      "name": "bufferView_2",
      "buffer": 0,
      "byteLength": 680,
      "byteOffset": 2040,
      "byteStride": 8,
      "target": 34962
    },
    {
      "name": "bufferView_3",
      "buffer": 0,
      "byteLength": 840,
      "byteOffset": 2720,
      "target": 34963
    },
    {
      "buffer": 0,
      "byteOffset": 3560,
      "byteLength": 14724
    }
  ],
  "images": [
    {
      "name": "Nature-Palette",
      "mimeType": "image/png",
      "bufferView": 4
    }
  ],
  "materials": [
    {
      "name": "Mat_Nature",
      "pbrMetallicRoughness": {
        "baseColorTexture": {
          "index": 0
        },
        "baseColorFactor": [
          1,
          1,
          1,
          1
        ],
        "metallicFactor": 0,
        "roughnessFactor": 0.775
      },
      "emissiveFactor": [
        0,
        0,
        0
      ],
      "alphaMode": "OPAQUE",
      "doubleSided": false
    }
  ],
  "meshes": [
    {
      "name": "Grass_A_06_LOD2_Cube.718-Mesh",
      "primitives": [
        {
          "attributes": {
            "POSITION": 0,
            "NORMAL": 1,
            "TEXCOORD_0": 2
          },
          "indices": 3,
          "material": 0,
          "mode": 4
        }
      ]
    }
  ],
  "nodes": [
    {
      "name": "Grass_A_06_LOD2_Cube.718",
      "mesh": 0
    }
  ],
  "samplers": [
    {
      "wrapS": 10497,
      "wrapT": 10497
    }
  ],
  "scene": 0,
  "scenes": [
    {
      "nodes": [
        0
      ]
    }
  ],
  "textures": [
    {
      "name": "Nature-Palette",
      "sampler": 0,
      "source": 0
    }
  ]
}
