{
  "accessors": [
    {
      "name": "Grass_A_02_LOD2_Cube.777-Mesh_0_positions",
      "componentType": 5126,
      "count": 72,
      "min": [
        -16.7587947845459,
        0,
        28.956899642944336
      ],
      "max": [
        -13.472784996032715,
        3.180419921875,
        31.363431930541992
      ],
      "type": "VEC3",
      "bufferView": 0,
      "byteOffset": 0
    },
    {
      "name": "Grass_A_02_LOD2_Cube.777-Mesh_0_normals",
      "componentType": 5126,
      "count": 72,
      "min": [
        -0.997330904006958,
        -0.48700231313705444,
        -0.9993778467178345
      ],
      "max": [
        0.9966372847557068,
        0.9984695315361023,
        0.9946601390838623
      ],
      "type": "VEC3",
      "bufferView": 1,
      "byteOffset": 0
    },
    {
      "name": "Grass_A_02_LOD2_Cube.777-Mesh_0_texcoords",
      "componentType": 5126,
      "count": 72,
      "min": [
        0.7462760210037231,
        0.08131899684667587
      ],
      "max": [
        0.7462760210037231,
        0.08132000267505646
      ],
      "type": "VEC2",
      "bufferView": 2,
      "byteOffset": 0
    },
    {
      "name": "Grass_A_02_LOD2_Cube.777-Mesh_0_indices",
      "componentType": 5123,
      "count": 357,
      "min": [
        0
      ],
      "max": [
        71
      ],
      "type": "SCALAR",
      "bufferView": 3,
      "byteOffset": 0
    }
  ],
  "asset": {
    "generator": "obj2gltf",
    "version": "2.0"
  },
  "buffers": [
    {
      "name": "Grass_A_02_LOD2",
      "byteLength": 17744,
      "uri": "data:application/octet-stream;base64,"
    }
  ],
  "bufferViews": [
    {
      "name": "bufferView_0",
      "buffer": 0,
      "byteLength": 864,
      "byteOffset": 0,
      "byteStride": 12,
      "target": 34962
    },
    {
      "name": "bufferView_1",
      "buffer": 0,
      "byteLength": 864,
      "byteOffset": 864,
      "byteStride": 12,
      "target": 34962
    },
    {
      "name": "bufferView_2",
      "buffer": 0,
      "byteLength": 576,
      "byteOffset": 1728,
      "byteStride": 8,
      "target": 34962
    },
    {
      "name": "bufferView_3",
      "buffer": 0,
      "byteLength": 716,
      "byteOffset": 2304,
      "target": 34963
    },
    {
      "buffer": 0,
      "byteOffset": 3020,
      "byteLength": 14724
    }
  ],
  "images": [
    {
      "name": "Nature-Palette",
      "mimeType": "image/png",
      "bufferView": 4
    }
  ],
  "materials": [
    {
      "name": "Mat_Nature",
      "pbrMetallicRoughness": {
        "baseColorTexture": {
          "index": 0
        },
        "baseColorFactor": [
          1,
          1,
          1,
          1
        ],
        "metallicFactor": 0,
        "roughnessFactor": 0.775
      },
      "emissiveFactor": [
        0,
        0,
        0
      ],
      "alphaMode": "OPAQUE",
      "doubleSided": false
    }
  ],
  "meshes": [
    {
      "name": "Grass_A_02_LOD2_Cube.777-Mesh",
      "primitives": [
        {
          "attributes": {
            "POSITION": 0,
            "NORMAL": 1,
            "TEXCOORD_0": 2
          },
          "indices": 3,
          "material": 0,
          "mode": 4
        }
      ]
    }
  ],
  "nodes": [
    {
      "name": "Grass_A_02_LOD2_Cube.777",
      "mesh": 0
    }
  ],
  "samplers": [
    {
      "wrapS": 10497,
      "wrapT": 10497
    }
  ],
  "scene": 0,
  "scenes": [
    {
      "nodes": [
        0
      ]
    }
  ],
  "textures": [
    {
      "name": "Nature-Palette",
      "sampler": 0,
      "source": 0
    }
  ]
}
