{
  "accessors": [
    {
      "name": "Grass_B_04_LOD2_Cube.714-Mesh_0_positions",
      "componentType": 5126,
      "count": 84,
      "min": [
        -26.94364356994629,
        0,
        58.585838317871094
      ],
      "max": [
        -23.74803924560547,
        5.473437786102295,
        61.4195671081543
      ],
      "type": "VEC3",
      "bufferView": 0,
      "byteOffset": 0
    },
    {
      "name": "Grass_B_04_LOD2_Cube.714-Mesh_0_normals",
      "componentType": 5126,
      "count": 84,
      "min": [
        -0.9745482206344604,
        -0.2196035236120224,
        -0.9945744872093201
      ],
      "max": [
        0.9935433268547058,
        0.9961754083633423,
        0.9982497692108154
      ],
      "type": "VEC3",
      "bufferView": 1,
      "byteOffset": 0
    },
    {
      "name": "Grass_B_04_LOD2_Cube.714-Mesh_0_texcoords",
      "componentType": 5126,
      "count": 84,
      "min": [
        0.5778489708900452,
        0.08569400012493134
      ],
      "max": [
        0.5778489708900452,
        0.08569400012493134
      ],
      "type": "VEC2",
      "bufferView": 2,
      "byteOffset": 0
    },
    {
      "name": "Grass_B_04_LOD2_Cube.714-Mesh_0_indices",
      "componentType": 5123,
      "count": 417,
      "min": [
        0
      ],
      "max": [
        83
      ],
      "type": "SCALAR",
      "bufferView": 3,
      "byteOffset": 0
    }
  ],
  "asset": {
    "generator": "obj2gltf",
    "version": "2.0"
  },
  "buffers": [
    {
      "name": "Grass_B_04_LOD2",
      "byteLength": 18248,
      "uri": "data:application/octet-stream;base64,"
    }
  ],
  "bufferViews": [
    {
      "name": "bufferView_0",
      "buffer": 0,
      "byteLength": 1008,
      "byteOffset": 0,
      "byteStride": 12,
      "target": 34962
    },
    {
      "name": "bufferView_1",
      "buffer": 0,
      "byteLength": 1008,
      "byteOffset": 1008,
      "byteStride": 12,
      "target": 34962
    },
    {
      "name": "bufferView_2",
      "buffer": 0,
      "byteLength": 672,
      "byteOffset": 2016,
      "byteStride": 8,
      "target": 34962
    },
    {
      "name": "bufferView_3",
      "buffer": 0,
      "byteLength": 836,
      "byteOffset": 2688,
      "target": 34963
    },
    {
      "buffer": 0,
      "byteOffset": 3524,
      "byteLength": 14724
    }
  ],
  "images": [
    {
      "name": "Nature-Palette",
      "mimeType": "image/png",
      "bufferView": 4
    }
  ],
  "materials": [
    {
      "name": "Mat_Nature",
      "pbrMetallicRoughness": {
        "baseColorTexture": {
          "index": 0
        },
        "baseColorFactor": [
          1,
          1,
          1,
          1
        ],
        "metallicFactor": 0,
        "roughnessFactor": 0.775
      },
      "emissiveFactor": [
        0,
        0,
        0
      ],
      "alphaMode": "OPAQUE",
      "doubleSided": false
    }
  ],
  "meshes": [
    {
      "name": "Grass_B_04_LOD2_Cube.714-Mesh",
      "primitives": [
        {
          "attributes": {
            "POSITION": 0,
            "NORMAL": 1,
            "TEXCOORD_0": 2
          },
          "indices": 3,
          "material": 0,
          "mode": 4
        }
      ]
    }
  ],
  "nodes": [
    {
      "name": "Grass_B_04_LOD2_Cube.714",
      "mesh": 0
    }
  ],
  "samplers": [
    {
      "wrapS": 10497,
      "wrapT": 10497
    }
  ],
  "scene": 0,
  "scenes": [
    {
      "nodes": [
        0
      ]
    }
  ],
  "textures": [
    {
      "name": "Nature-Palette",
      "sampler": 0,
      "source": 0
    }
  ]
}
