{
  "accessors": [
    {
      "name": "Herb_C_02_LOD2_Cylinder.796-Mesh_0_positions",
      "componentType": 5126,
      "count": 78,
      "min": [
        -17.443103790283203,
        -0.13947099447250366,
        17.710926055908203
      ],
      "max": [
        -12.169912338256836,
        2.94496488571167,
        23.495136260986328
      ],
      "type": "VEC3",
      "bufferView": 0,
      "byteOffset": 0
    },
    {
      "name": "Herb_C_02_LOD2_Cylinder.796-Mesh_0_normals",
      "componentType": 5126,
      "count": 78,
      "min": [
        -0.9807261228561401,
        -0.9982554316520691,
        -0.9718685150146484
      ],
      "max": [
        0.9945382475852966,
        0.9676887392997742,
        0.9694806337356567
      ],
      "type": "VEC3",
      "bufferView": 1,
      "byteOffset": 0
    },
    {
      "name": "Herb_C_02_LOD2_Cylinder.796-Mesh_0_texcoords",
      "componentType": 5126,
      "count": 78,
      "min": [
        0.4157339930534363,
        0.08131899684667587
      ],
      "max": [
        0.4157339930534363,
        0.08132000267505646
      ],
      "type": "VEC2",
      "bufferView": 2,
      "byteOffset": 0
    },
    {
      "name": "Herb_C_02_LOD2_Cylinder.796-Mesh_0_indices",
      "componentType": 5123,
      "count": 399,
      "min": [
        0
      ],
      "max": [
        77
      ],
      "type": "SCALAR",
      "bufferView": 3,
      "byteOffset": 0
    }
  ],
  "asset": {
    "generator": "obj2gltf",
    "version": "2.0"
  },
  "buffers": [
    {
      "name": "Herb_C_02_LOD2",
      "byteLength": 18020,
      "uri": "data:application/octet-stream;base64,"
    }
  ],
  "bufferViews": [
    {
      "name": "bufferView_0",
      "buffer": 0,
      "byteLength": 936,
      "byteOffset": 0,
      "byteStride": 12,
      "target": 34962
    },
    {
      "name": "bufferView_1",
      "buffer": 0,
      "byteLength": 936,
      "byteOffset": 936,
      "byteStride": 12,
      "target": 34962
    },
    {
      "name": "bufferView_2",
      "buffer": 0,
      "byteLength": 624,
      "byteOffset": 1872,
      "byteStride": 8,
      "target": 34962
    },
    {
      "name": "bufferView_3",
      "buffer": 0,
      "byteLength": 800,
      "byteOffset": 2496,
      "target": 34963
    },
    {
      "buffer": 0,
      "byteOffset": 3296,
      "byteLength": 14724
    }
  ],
  "images": [
    {
      "name": "Nature-Palette",
      "mimeType": "image/png",
      "bufferView": 4
    }
  ],
  "materials": [
    {
      "name": "Mat_Nature",
      "pbrMetallicRoughness": {
        "baseColorTexture": {
          "index": 0
        },
        "baseColorFactor": [
          1,
          1,
          1,
          1
        ],
        "metallicFactor": 0,
        "roughnessFactor": 0.775
      },
      "emissiveFactor": [
        0,
        0,
        0
      ],
      "alphaMode": "OPAQUE",
      "doubleSided": false
    }
  ],
  "meshes": [
    {
      "name": "Herb_C_02_LOD2_Cylinder.796-Mesh",
      "primitives": [
        {
          "attributes": {
            "POSITION": 0,
            "NORMAL": 1,
            "TEXCOORD_0": 2
          },
          "indices": 3,
          "material": 0,
          "mode": 4
        }
      ]
    }
  ],
  "nodes": [
    {
      "name": "Herb_C_02_LOD2_Cylinder.796",
      "mesh": 0
    }
  ],
  "samplers": [
    {
      "wrapS": 10497,
      "wrapT": 10497
    }
  ],
  "scene": 0,
  "scenes": [
    {
      "nodes": [
        0
      ]
    }
  ],
  "textures": [
    {
      "name": "Nature-Palette",
      "sampler": 0,
      "source": 0
    }
  ]
}
