{
  "accessors": [
    {
      "name": "Herb_B_02_LOD2_Cube.732-Mesh_0_positions",
      "componentType": 5126,
      "count": 171,
      "min": [
        -16.727861404418945,
        0,
        8.596784591674805
      ],
      "max": [
        -12.726783752441406,
        4.388330936431885,
        12.266522407531738
      ],
      "type": "VEC3",
      "bufferView": 0,
      "byteOffset": 0
    },
    {
      "name": "Herb_B_02_LOD2_Cube.732-Mesh_0_normals",
      "componentType": 5126,
      "count": 171,
      "min": [
        -0.9985664486885071,
        -0.9484440088272095,
        -0.97218918800354
      ],
      "max": [
        0.997969388961792,
        0.9906001091003418,
        0.994389533996582
      ],
      "type": "VEC3",
      "bufferView": 1,
      "byteOffset": 0
    },
    {
      "name": "Herb_B_02_LOD2_Cube.732-Mesh_0_texcoords",
      "componentType": 5126,
      "count": 171,
      "min": [
        0.2575260102748871,
        0.7490699887275696
      ],
      "max": [
        0.5839800238609314,
        0.7490699887275696
      ],
      "type": "VEC2",
      "bufferView": 2,
      "byteOffset": 0
    },
    {
      "name": "Herb_B_02_LOD2_Cube.732-Mesh_0_indices",
      "componentType": 5123,
      "count": 918,
      "min": [
        0
      ],
      "max": [
        170
      ],
      "type": "SCALAR",
      "bufferView": 3,
      "byteOffset": 0
    }
  ],
  "asset": {
    "generator": "obj2gltf",
    "version": "2.0"
  },
  "buffers": [
    {
      "name": "Herb_B_02_LOD2",
      "byteLength": 22032,
      "uri": "data:application/octet-stream;base64,"
    }
  ],
  "bufferViews": [
    {
      "name": "bufferView_0",
      "buffer": 0,
      "byteLength": 2052,
      "byteOffset": 0,
      "byteStride": 12,
      "target": 34962
    },
    {
      "name": "bufferView_1",
      "buffer": 0,
      "byteLength": 2052,
      "byteOffset": 2052,
      "byteStride": 12,
      "target": 34962
    },
    {
      "name": "bufferView_2",
      "buffer": 0,
      "byteLength": 1368,
      "byteOffset": 4104,
      "byteStride": 8,
      "target": 34962
    },
    {
      "name": "bufferView_3",
      "buffer": 0,
      "byteLength": 1836,
      "byteOffset": 5472,
      "target": 34963
    },
    {
      "buffer": 0,
      "byteOffset": 7308,
      "byteLength": 14724
    }
  ],
  "images": [
    {
      "name": "Nature-Palette",
      "mimeType": "image/png",
      "bufferView": 4
    }
  ],
  "materials": [
    {
      "name": "Mat_Nature",
      "pbrMetallicRoughness": {
        "baseColorTexture": {
          "index": 0
        },
        "baseColorFactor": [
          1,
          1,
          1,
          1
        ],
        "metallicFactor": 0,
        "roughnessFactor": 0.775
      },
      "emissiveFactor": [
        0,
        0,
        0
      ],
      "alphaMode": "OPAQUE",
      "doubleSided": false
    }
  ],
  "meshes": [
    {
      "name": "Herb_B_02_LOD2_Cube.732-Mesh",
      "primitives": [
        {
          "attributes": {
            "POSITION": 0,
            "NORMAL": 1,
            "TEXCOORD_0": 2
          },
          "indices": 3,
          "material": 0,
          "mode": 4
        }
      ]
    }
  ],
  "nodes": [
    {
      "name": "Herb_B_02_LOD2_Cube.732",
      "mesh": 0
    }
  ],
  "samplers": [
    {
      "wrapS": 10497,
      "wrapT": 10497
    }
  ],
  "scene": 0,
  "scenes": [
    {
      "nodes": [
        0
      ]
    }
  ],
  "textures": [
    {
      "name": "Nature-Palette",
      "sampler": 0,
      "source": 0
    }
  ]
}
