{
  "accessors": [
    {
      "name": "Herb_A_02_LOD2_Plane.059-Mesh_0_positions",
      "componentType": 5126,
      "count": 335,
      "min": [
        -17.67637825012207,
        -0.013577000238001347,
        -13.88668155670166
      ],
      "max": [
        -12.09241771697998,
        3.6835999488830566,
        -6.596031188964844
      ],
      "type": "VEC3",
      "bufferView": 0,
      "byteOffset": 0
    },
    {
      "name": "Herb_A_02_LOD2_Plane.059-Mesh_0_normals",
      "componentType": 5126,
      "count": 335,
      "min": [
        -0.9989034533500671,
        -0.9997289180755615,
        -0.9940673112869263
      ],
      "max": [
        0.9952906966209412,
        0.9961887001991272,
        0.9842483997344971
      ],
      "type": "VEC3",
      "bufferView": 1,
      "byteOffset": 0
    },
    {
      "name": "Herb_A_02_LOD2_Plane.059-Mesh_0_texcoords",
      "componentType": 5126,
      "count": 335,
      "min": [
        0.2575260102748871,
        0.08131899684667587
      ],
      "max": [
        0.4157339930534363,
        0.08132000267505646
      ],
      "type": "VEC2",
      "bufferView": 2,
      "byteOffset": 0
    },
    {
      "name": "Herb_A_02_LOD2_Plane.059-Mesh_0_indices",
      "componentType": 5123,
      "count": 1530,
      "min": [
        0
      ],
      "max": [
        334
      ],
      "type": "SCALAR",
      "bufferView": 3,
      "byteOffset": 0
    }
  ],
  "asset": {
    "generator": "obj2gltf",
    "version": "2.0"
  },
  "buffers": [
    {
      "name": "Herb_A_02_LOD2",
      "byteLength": 28504,
      "uri": "data:application/octet-stream;base64,"
    }
  ],
  "bufferViews": [
    {
      "name": "bufferView_0",
      "buffer": 0,
      "byteLength": 4020,
      "byteOffset": 0,
      "byteStride": 12,
      "target": 34962
    },
    {
      "name": "bufferView_1",
      "buffer": 0,
      "byteLength": 4020,
      "byteOffset": 4020,
      "byteStride": 12,
      "target": 34962
    },
    {
      "name": "bufferView_2",
      "buffer": 0,
      "byteLength": 2680,
      "byteOffset": 8040,
      "byteStride": 8,
      "target": 34962
    },
    {
      "name": "bufferView_3",
      "buffer": 0,
      "byteLength": 3060,
      "byteOffset": 10720,
      "target": 34963
    },
    {
      "buffer": 0,
      "byteOffset": 13780,
      "byteLength": 14724
    }
  ],
  "images": [
    {
      "name": "Nature-Palette",
      "mimeType": "image/png",
      "bufferView": 4
    }
  ],
  "materials": [
    {
      "name": "Mat_Nature",
      "pbrMetallicRoughness": {
        "baseColorTexture": {
          "index": 0
        },
        "baseColorFactor": [
          1,
          1,
          1,
          1
        ],
        "metallicFactor": 0,
        "roughnessFactor": 0.775
      },
      "emissiveFactor": [
        0,
        0,
        0
      ],
      "alphaMode": "OPAQUE",
      "doubleSided": false
    }
  ],
  "meshes": [
    {
      "name": "Herb_A_02_LOD2_Plane.059-Mesh",
      "primitives": [
        {
          "attributes": {
            "POSITION": 0,
            "NORMAL": 1,
            "TEXCOORD_0": 2
          },
          "indices": 3,
          "material": 0,
          "mode": 4
        }
      ]
    }
  ],
  "nodes": [
    {
      "name": "Herb_A_02_LOD2_Plane.059",
      "mesh": 0
    }
  ],
  "samplers": [
    {
      "wrapS": 10497,
      "wrapT": 10497
    }
  ],
  "scene": 0,
  "scenes": [
    {
      "nodes": [
        0
      ]
    }
  ],
  "textures": [
    {
      "name": "Nature-Palette",
      "sampler": 0,
      "source": 0
    }
  ]
}
