{
  "accessors": [
    {
      "name": "Herb_B_01_LOD2_Cube.730-Mesh_0_positions",
      "componentType": 5126,
      "count": 145,
      "min": [
        -6.377627849578857,
        0,
        8.108189582824707
      ],
      "max": [
        -2.8866961002349854,
        3.8913609981536865,
        11.798530578613281
      ],
      "type": "VEC3",
      "bufferView": 0,
      "byteOffset": 0
    },
    {
      "name": "Herb_B_01_LOD2_Cube.730-Mesh_0_normals",
      "componentType": 5126,
      "count": 145,
      "min": [
        -0.9979079365730286,
        -0.9877792000770569,
        -0.9970839619636536
      ],
      "max": [
        0.9966260194778442,
        0.9989705085754395,
        0.9974538087844849
      ],
      "type": "VEC3",
      "bufferView": 1,
      "byteOffset": 0
    },
    {
      "name": "Herb_B_01_LOD2_Cube.730-Mesh_0_texcoords",
      "componentType": 5126,
      "count": 145,
      "min": [
        0.2575260102748871,
        0.7490699887275696
      ],
      "max": [
        0.5839800238609314,
        0.7490699887275696
      ],
      "type": "VEC2",
      "bufferView": 2,
      "byteOffset": 0
    },
    {
      "name": "Herb_B_01_LOD2_Cube.730-Mesh_0_indices",
      "componentType": 5123,
      "count": 765,
      "min": [
        0
      ],
      "max": [
        144
      ],
      "type": "SCALAR",
      "bufferView": 3,
      "byteOffset": 0
    }
  ],
  "asset": {
    "generator": "obj2gltf",
    "version": "2.0"
  },
  "buffers": [
    {
      "name": "Herb_B_01_LOD2",
      "byteLength": 20896,
      "uri": "data:application/octet-stream;base64,"
    }
  ],
  "bufferViews": [
    {
      "name": "bufferView_0",
      "buffer": 0,
      "byteLength": 1740,
      "byteOffset": 0,
      "byteStride": 12,
      "target": 34962
    },
    {
      "name": "bufferView_1",
      "buffer": 0,
      "byteLength": 1740,
      "byteOffset": 1740,
      "byteStride": 12,
      "target": 34962
    },
    {
      "name": "bufferView_2",
      "buffer": 0,
      "byteLength": 1160,
      "byteOffset": 3480,
      "byteStride": 8,
      "target": 34962
    },
    {
      "name": "bufferView_3",
      "buffer": 0,
      "byteLength": 1532,
      "byteOffset": 4640,
      "target": 34963
    },
    {
      "buffer": 0,
      "byteOffset": 6172,
      "byteLength": 14724
    }
  ],
  "images": [
    {
      "name": "Nature-Palette",
      "mimeType": "image/png",
      "bufferView": 4
    }
  ],
  "materials": [
    {
      "name": "Mat_Nature",
      "pbrMetallicRoughness": {
        "baseColorTexture": {
          "index": 0
        },
        "baseColorFactor": [
          1,
          1,
          1,
          1
        ],
        "metallicFactor": 0,
        "roughnessFactor": 0.775
      },
      "emissiveFactor": [
        0,
        0,
        0
      ],
      "alphaMode": "OPAQUE",
      "doubleSided": false
    }
  ],
  "meshes": [
    {
      "name": "Herb_B_01_LOD2_Cube.730-Mesh",
      "primitives": [
        {
          "attributes": {
            "POSITION": 0,
            "NORMAL": 1,
            "TEXCOORD_0": 2
          },
          "indices": 3,
          "material": 0,
          "mode": 4
        }
      ]
    }
  ],
  "nodes": [
    {
      "name": "Herb_B_01_LOD2_Cube.730",
      "mesh": 0
    }
  ],
  "samplers": [
    {
      "wrapS": 10497,
      "wrapT": 10497
    }
  ],
  "scene": 0,
  "scenes": [
    {
      "nodes": [
        0
      ]
    }
  ],
  "textures": [
    {
      "name": "Nature-Palette",
      "sampler": 0,
      "source": 0
    }
  ]
}
