{
  "accessors": [
    {
      "name": "Herb_A_01_LOD2_Plane.060-Mesh_0_positions",
      "componentType": 5126,
      "count": 332,
      "min": [
        -8.780320167541504,
        -0.013577000238001347,
        -13.089781761169434
      ],
      "max": [
        -1.980780005455017,
        3.0461840629577637,
        -6.6452789306640625
      ],
      "type": "VEC3",
      "bufferView": 0,
      "byteOffset": 0
    },
    {
      "name": "Herb_A_01_LOD2_Plane.060-Mesh_0_normals",
      "componentType": 5126,
      "count": 332,
      "min": [
        -0.9888338446617126,
        -0.9957078695297241,
        -0.9787495732307434
      ],
      "max": [
        0.9925312995910645,
        0.9982851147651672,
        0.9985251426696777
      ],
      "type": "VEC3",
      "bufferView": 1,
      "byteOffset": 0
    },
    {
      "name": "Herb_A_01_LOD2_Plane.060-Mesh_0_texcoords",
      "componentType": 5126,
      "count": 332,
      "min": [
        0.2575260102748871,
        0.08131899684667587
      ],
      "max": [
        0.4157339930534363,
        0.08132000267505646
      ],
      "type": "VEC2",
      "bufferView": 2,
      "byteOffset": 0
    },
    {
      "name": "Herb_A_01_LOD2_Plane.060-Mesh_0_indices",
      "componentType": 5123,
      "count": 1512,
      "min": [
        0
      ],
      "max": [
        331
      ],
      "type": "SCALAR",
      "bufferView": 3,
      "byteOffset": 0
    }
  ],
  "asset": {
    "generator": "obj2gltf",
    "version": "2.0"
  },
  "buffers": [
    {
      "name": "Herb_A_01_LOD2",
      "byteLength": 28372,
      "uri": "data:application/octet-stream;base64,"
    }
  ],
  "bufferViews": [
    {
      "name": "bufferView_0",
      "buffer": 0,
      "byteLength": 3984,
      "byteOffset": 0,
      "byteStride": 12,
      "target": 34962
    },
    {
      "name": "bufferView_1",
      "buffer": 0,
      "byteLength": 3984,
      "byteOffset": 3984,
      "byteStride": 12,
      "target": 34962
    },
    {
      "name": "bufferView_2",
      "buffer": 0,
      "byteLength": 2656,
      "byteOffset": 7968,
      "byteStride": 8,
      "target": 34962
    },
    {
      "name": "bufferView_3",
      "buffer": 0,
      "byteLength": 3024,
      "byteOffset": 10624,
      "target": 34963
    },
    {
      "buffer": 0,
      "byteOffset": 13648,
      "byteLength": 14724
    }
  ],
  "images": [
    {
      "name": "Nature-Palette",
      "mimeType": "image/png",
      "bufferView": 4
    }
  ],
  "materials": [
    {
      "name": "Mat_Nature",
      "pbrMetallicRoughness": {
        "baseColorTexture": {
          "index": 0
        },
        "baseColorFactor": [
          1,
          1,
          1,
          1
        ],
        "metallicFactor": 0,
        "roughnessFactor": 0.775
      },
      "emissiveFactor": [
        0,
        0,
        0
      ],
      "alphaMode": "OPAQUE",
      "doubleSided": false
    }
  ],
  "meshes": [
    {
      "name": "Herb_A_01_LOD2_Plane.060-Mesh",
      "primitives": [
        {
          "attributes": {
            "POSITION": 0,
            "NORMAL": 1,
            "TEXCOORD_0": 2
          },
          "indices": 3,
          "material": 0,
          "mode": 4
        }
      ]
    }
  ],
  "nodes": [
    {
      "name": "Herb_A_01_LOD2_Plane.060",
      "mesh": 0
    }
  ],
  "samplers": [
    {
      "wrapS": 10497,
      "wrapT": 10497
    }
  ],
  "scene": 0,
  "scenes": [
    {
      "nodes": [
        0
      ]
    }
  ],
  "textures": [
    {
      "name": "Nature-Palette",
      "sampler": 0,
      "source": 0
    }
  ]
}
