{
  "accessors": [
    {
      "name": "Herb_A_03_LOD2_Plane.058-Mesh_0_positions",
      "componentType": 5126,
      "count": 421,
      "min": [
        -28.283924102783203,
        -0.07699300348758698,
        -13.210339546203613
      ],
      "max": [
        -21.361316680908203,
        4.217065811157227,
        -7.046197891235352
      ],
      "type": "VEC3",
      "bufferView": 0,
      "byteOffset": 0
    },
    {
      "name": "Herb_A_03_LOD2_Plane.058-Mesh_0_normals",
      "componentType": 5126,
      "count": 421,
      "min": [
        -0.9721147418022156,
        -0.9927635788917542,
        -0.994687020778656
      ],
      "max": [
        0.9935410618782043,
        0.998638391494751,
        0.9919024109840393
      ],
      "type": "VEC3",
      "bufferView": 1,
      "byteOffset": 0
    },
    {
      "name": "Herb_A_03_LOD2_Plane.058-Mesh_0_texcoords",
      "componentType": 5126,
      "count": 421,
      "min": [
        0.2575260102748871,
        0.08131899684667587
      ],
      "max": [
        0.4157339930534363,
        0.08132000267505646
      ],
      "type": "VEC2",
      "bufferView": 2,
      "byteOffset": 0
    },
    {
      "name": "Herb_A_03_LOD2_Plane.058-Mesh_0_indices",
      "componentType": 5123,
      "count": 1926,
      "min": [
        0
      ],
      "max": [
        420
      ],
      "type": "SCALAR",
      "bufferView": 3,
      "byteOffset": 0
    }
  ],
  "asset": {
    "generator": "obj2gltf",
    "version": "2.0"
  },
  "buffers": [
    {
      "name": "Herb_A_03_LOD2",
      "byteLength": 32048,
      "uri": "data:application/octet-stream;base64,"
    }
  ],
  "bufferViews": [
    {
      "name": "bufferView_0",
      "buffer": 0,
      "byteLength": 5052,
      "byteOffset": 0,
      "byteStride": 12,
      "target": 34962
    },
    {
      "name": "bufferView_1",
      "buffer": 0,
      "byteLength": 5052,
      "byteOffset": 5052,
      "byteStride": 12,
      "target": 34962
    },
    {
      "name": "bufferView_2",
      "buffer": 0,
      "byteLength": 3368,
      "byteOffset": 10104,
      "byteStride": 8,
      "target": 34962
    },
    {
      "name": "bufferView_3",
      "buffer": 0,
      "byteLength": 3852,
      "byteOffset": 13472,
      "target": 34963
    },
    {
      "buffer": 0,
      "byteOffset": 17324,
      "byteLength": 14724
    }
  ],
  "images": [
    {
      "name": "Nature-Palette",
      "mimeType": "image/png",
      "bufferView": 4
    }
  ],
  "materials": [
    {
      "name": "Mat_Nature",
      "pbrMetallicRoughness": {
        "baseColorTexture": {
          "index": 0
        },
        "baseColorFactor": [
          1,
          1,
          1,
          1
        ],
        "metallicFactor": 0,
        "roughnessFactor": 0.775
      },
      "emissiveFactor": [
        0,
        0,
        0
      ],
      "alphaMode": "OPAQUE",
      "doubleSided": false
    }
  ],
  "meshes": [
    {
      "name": "Herb_A_03_LOD2_Plane.058-Mesh",
      "primitives": [
        {
          "attributes": {
            "POSITION": 0,
            "NORMAL": 1,
            "TEXCOORD_0": 2
          },
          "indices": 3,
          "material": 0,
          "mode": 4
        }
      ]
    }
  ],
  "nodes": [
    {
      "name": "Herb_A_03_LOD2_Plane.058",
      "mesh": 0
    }
  ],
  "samplers": [
    {
      "wrapS": 10497,
      "wrapT": 10497
    }
  ],
  "scene": 0,
  "scenes": [
    {
      "nodes": [
        0
      ]
    }
  ],
  "textures": [
    {
      "name": "Nature-Palette",
      "sampler": 0,
      "source": 0
    }
  ]
}
