{
  "accessors": [
    {
      "name": "Herb_C_03_LOD2_Cylinder.797-Mesh_0_positions",
      "componentType": 5126,
      "count": 95,
      "min": [
        -28.386457443237305,
        -0.15484100580215454,
        17.44778823852539
      ],
      "max": [
        -21.744325637817383,
        3.4945850372314453,
        22.55592155456543
      ],
      "type": "VEC3",
      "bufferView": 0,
      "byteOffset": 0
    },
    {
      "name": "Herb_C_03_LOD2_Cylinder.797-Mesh_0_normals",
      "componentType": 5126,
      "count": 95,
      "min": [
        -0.991456925868988,
        -0.989294707775116,
        -0.9988815784454346
      ],
      "max": [
        0.9661842584609985,
        0.9806334376335144,
        0.9843072891235352
      ],
      "type": "VEC3",
      "bufferView": 1,
      "byteOffset": 0
    },
    {
      "name": "Herb_C_03_LOD2_Cylinder.797-Mesh_0_texcoords",
      "componentType": 5126,
      "count": 95,
      "min": [
        0.4157339930534363,
        0.08131899684667587
      ],
      "max": [
        0.4157339930534363,
        0.08132000267505646
      ],
      "type": "VEC2",
      "bufferView": 2,
      "byteOffset": 0
    },
    {
      "name": "Herb_C_03_LOD2_Cylinder.797-Mesh_0_indices",
      "componentType": 5123,
      "count": 507,
      "min": [
        0
      ],
      "max": [
        94
      ],
      "type": "SCALAR",
      "bufferView": 3,
      "byteOffset": 0
    }
  ],
  "asset": {
    "generator": "obj2gltf",
    "version": "2.0"
  },
  "buffers": [
    {
      "name": "Herb_C_03_LOD2",
      "byteLength": 18780,
      "uri": "data:application/octet-stream;base64,"
    }
  ],
  "bufferViews": [
    {
      "name": "bufferView_0",
      "buffer": 0,
      "byteLength": 1140,
      "byteOffset": 0,
      "byteStride": 12,
      "target": 34962
    },
    {
      "name": "bufferView_1",
      "buffer": 0,
      "byteLength": 1140,
      "byteOffset": 1140,
      "byteStride": 12,
      "target": 34962
    },
    {
      "name": "bufferView_2",
      "buffer": 0,
      "byteLength": 760,
      "byteOffset": 2280,
      "byteStride": 8,
      "target": 34962
    },
    {
      "name": "bufferView_3",
      "buffer": 0,
      "byteLength": 1016,
      "byteOffset": 3040,
      "target": 34963
    },
    {
      "buffer": 0,
      "byteOffset": 4056,
      "byteLength": 14724
    }
  ],
  "images": [
    {
      "name": "Nature-Palette",
      "mimeType": "image/png",
      "bufferView": 4
    }
  ],
  "materials": [
    {
      "name": "Mat_Nature",
      "pbrMetallicRoughness": {
        "baseColorTexture": {
          "index": 0
        },
        "baseColorFactor": [
          1,
          1,
          1,
          1
        ],
        "metallicFactor": 0,
        "roughnessFactor": 0.775
      },
      "emissiveFactor": [
        0,
        0,
        0
      ],
      "alphaMode": "OPAQUE",
      "doubleSided": false
    }
  ],
  "meshes": [
    {
      "name": "Herb_C_03_LOD2_Cylinder.797-Mesh",
      "primitives": [
        {
          "attributes": {
            "POSITION": 0,
            "NORMAL": 1,
            "TEXCOORD_0": 2
          },
          "indices": 3,
          "material": 0,
          "mode": 4
        }
      ]
    }
  ],
  "nodes": [
    {
      "name": "Herb_C_03_LOD2_Cylinder.797",
      "mesh": 0
    }
  ],
  "samplers": [
    {
      "wrapS": 10497,
      "wrapT": 10497
    }
  ],
  "scene": 0,
  "scenes": [
    {
      "nodes": [
        0
      ]
    }
  ],
  "textures": [
    {
      "name": "Nature-Palette",
      "sampler": 0,
      "source": 0
    }
  ]
}
