{
  "accessors": [
    {
      "name": "Log_01_LOD2_Cylinder.106-Mesh_0_positions",
      "componentType": 5126,
      "count": 120,
      "min": [
        1.4475990533828735,
        -0.09627000242471695,
        27.473196029663086
      ],
      "max": [
        8.853235244750977,
        2.2731900215148926,
        33.132198333740234
      ],
      "type": "VEC3",
      "bufferView": 0,
      "byteOffset": 0
    },
    {
      "name": "Log_01_LOD2_Cylinder.106-Mesh_0_normals",
      "componentType": 5126,
      "count": 120,
      "min": [
        -0.7756102681159973,
        -0.9999197125434875,
        -0.9991111755371094
      ],
      "max": [
        0.9178524613380432,
        0.9989287853240967,
        0.9991490840911865
      ],
      "type": "VEC3",
      "bufferView": 1,
      "byteOffset": 0
    },
    {
      "name": "Log_01_LOD2_Cylinder.106-Mesh_0_texcoords",
      "componentType": 5126,
      "count": 120,
      "min": [
        0.4157339930534363,
        0.5801780223846436
      ],
      "max": [
        0.9187139868736267,
        0.7490699887275696
      ],
      "type": "VEC2",
      "bufferView": 2,
      "byteOffset": 0
    },
    {
      "name": "Log_01_LOD2_Cylinder.106-Mesh_0_indices",
      "componentType": 5123,
      "count": 624,
      "min": [
        0
      ],
      "max": [
        119
      ],
      "type": "SCALAR",
      "bufferView": 3,
      "byteOffset": 0
    }
  ],
  "asset": {
    "generator": "obj2gltf",
    "version": "2.0"
  },
  "buffers": [
    {
      "name": "Log_01_LOD2",
      "byteLength": 19812,
      "uri": "data:application/octet-stream;base64,"
    }
  ],
  "bufferViews": [
    {
      "name": "bufferView_0",
      "buffer": 0,
      "byteLength": 1440,
      "byteOffset": 0,
      "byteStride": 12,
      "target": 34962
    },
    {
      "name": "bufferView_1",
      "buffer": 0,
      "byteLength": 1440,
      "byteOffset": 1440,
      "byteStride": 12,
      "target": 34962
    },
    {
      "name": "bufferView_2",
      "buffer": 0,
      "byteLength": 960,
      "byteOffset": 2880,
      "byteStride": 8,
      "target": 34962
    },
    {
      "name": "bufferView_3",
      "buffer": 0,
      "byteLength": 1248,
      "byteOffset": 3840,
      "target": 34963
    },
    {
      "buffer": 0,
      "byteOffset": 5088,
      "byteLength": 14724
    }
  ],
  "images": [
    {
      "name": "Nature-Palette",
      "mimeType": "image/png",
      "bufferView": 4
    }
  ],
  "materials": [
    {
      "name": "Mat_Nature",
      "pbrMetallicRoughness": {
        "baseColorTexture": {
          "index": 0
        },
        "baseColorFactor": [
          1,
          1,
          1,
          1
        ],
        "metallicFactor": 0,
        "roughnessFactor": 0.775
      },
      "emissiveFactor": [
        0,
        0,
        0
      ],
      "alphaMode": "OPAQUE",
      "doubleSided": false
    }
  ],
  "meshes": [
    {
      "name": "Log_01_LOD2_Cylinder.106-Mesh",
      "primitives": [
        {
          "attributes": {
            "POSITION": 0,
            "NORMAL": 1,
            "TEXCOORD_0": 2
          },
          "indices": 3,
          "material": 0,
          "mode": 4
        }
      ]
    }
  ],
  "nodes": [
    {
      "name": "Log_01_LOD2_Cylinder.106",
      "mesh": 0
    }
  ],
  "samplers": [
    {
      "wrapS": 10497,
      "wrapT": 10497
    }
  ],
  "scene": 0,
  "scenes": [
    {
      "nodes": [
        0
      ]
    }
  ],
  "textures": [
    {
      "name": "Nature-Palette",
      "sampler": 0,
      "source": 0
    }
  ]
}
