{
  "accessors": [
    {
      "name": "Log_03_LOD2_Cylinder.734-Mesh_0_positions",
      "componentType": 5126,
      "count": 108,
      "min": [
        23.239944458007812,
        -0.1418060064315796,
        28.64232635498047
      ],
      "max": [
        26.95885467529297,
        2.3460090160369873,
        31.71497344970703
      ],
      "type": "VEC3",
      "bufferView": 0,
      "byteOffset": 0
    },
    {
      "name": "Log_03_LOD2_Cylinder.734-Mesh_0_normals",
      "componentType": 5126,
      "count": 108,
      "min": [
        -0.8152492642402649,
        -0.9971566200256348,
        -0.9984386563301086
      ],
      "max": [
        0.870991587638855,
        0.9891496300697327,
        0.993090808391571
      ],
      "type": "VEC3",
      "bufferView": 1,
      "byteOffset": 0
    },
    {
      "name": "Log_03_LOD2_Cylinder.734-Mesh_0_texcoords",
      "componentType": 5126,
      "count": 108,
      "min": [
        0.4157339930534363,
        0.5801780223846436
      ],
      "max": [
        0.9187139868736267,
        0.7490689754486084
      ],
      "type": "VEC2",
      "bufferView": 2,
      "byteOffset": 0
    },
    {
      "name": "Log_03_LOD2_Cylinder.734-Mesh_0_indices",
      "componentType": 5123,
      "count": 552,
      "min": [
        0
      ],
      "max": [
        107
      ],
      "type": "SCALAR",
      "bufferView": 3,
      "byteOffset": 0
    }
  ],
  "asset": {
    "generator": "obj2gltf",
    "version": "2.0"
  },
  "buffers": [
    {
      "name": "Log_03_LOD2",
      "byteLength": 19284,
      "uri": "data:application/octet-stream;base64,"
    }
  ],
  "bufferViews": [
    {
      "name": "bufferView_0",
      "buffer": 0,
      "byteLength": 1296,
      "byteOffset": 0,
      "byteStride": 12,
      "target": 34962
    },
    {
      "name": "bufferView_1",
      "buffer": 0,
      "byteLength": 1296,
      "byteOffset": 1296,
      "byteStride": 12,
      "target": 34962
    },
    {
      "name": "bufferView_2",
      "buffer": 0,
      "byteLength": 864,
      "byteOffset": 2592,
      "byteStride": 8,
      "target": 34962
    },
    {
      "name": "bufferView_3",
      "buffer": 0,
      "byteLength": 1104,
      "byteOffset": 3456,
      "target": 34963
    },
    {
      "buffer": 0,
      "byteOffset": 4560,
      "byteLength": 14724
    }
  ],
  "images": [
    {
      "name": "Nature-Palette",
      "mimeType": "image/png",
      "bufferView": 4
    }
  ],
  "materials": [
    {
      "name": "Mat_Nature",
      "pbrMetallicRoughness": {
        "baseColorTexture": {
          "index": 0
        },
        "baseColorFactor": [
          1,
          1,
          1,
          1
        ],
        "metallicFactor": 0,
        "roughnessFactor": 0.775
      },
      "emissiveFactor": [
        0,
        0,
        0
      ],
      "alphaMode": "OPAQUE",
      "doubleSided": false
    }
  ],
  "meshes": [
    {
      "name": "Log_03_LOD2_Cylinder.734-Mesh",
      "primitives": [
        {
          "attributes": {
            "POSITION": 0,
            "NORMAL": 1,
            "TEXCOORD_0": 2
          },
          "indices": 3,
          "material": 0,
          "mode": 4
        }
      ]
    }
  ],
  "nodes": [
    {
      "name": "Log_03_LOD2_Cylinder.734",
      "mesh": 0
    }
  ],
  "samplers": [
    {
      "wrapS": 10497,
      "wrapT": 10497
    }
  ],
  "scene": 0,
  "scenes": [
    {
      "nodes": [
        0
      ]
    }
  ],
  "textures": [
    {
      "name": "Nature-Palette",
      "sampler": 0,
      "source": 0
    }
  ]
}
