{
  "accessors": [
    {
      "name": "Log_02_LOD2_Cylinder.082-Mesh_0_positions",
      "componentType": 5126,
      "count": 108,
      "min": [
        12.282760620117188,
        -0.10226000100374222,
        27.62830352783203
      ],
      "max": [
        18.01976776123047,
        2.2731900215148926,
        31.41425323486328
      ],
      "type": "VEC3",
      "bufferView": 0,
      "byteOffset": 0
    },
    {
      "name": "Log_02_LOD2_Cylinder.082-Mesh_0_normals",
      "componentType": 5126,
      "count": 108,
      "min": [
        -0.773495078086853,
        -0.9997349381446838,
        -0.9986332058906555
      ],
      "max": [
        0.9046006202697754,
        0.9994443655014038,
        0.9993236660957336
      ],
      "type": "VEC3",
      "bufferView": 1,
      "byteOffset": 0
    },
    {
      "name": "Log_02_LOD2_Cylinder.082-Mesh_0_texcoords",
      "componentType": 5126,
      "count": 108,
      "min": [
        0.4157339930534363,
        0.5801780223846436
      ],
      "max": [
        0.9187139868736267,
        0.7490699887275696
      ],
      "type": "VEC2",
      "bufferView": 2,
      "byteOffset": 0
    },
    {
      "name": "Log_02_LOD2_Cylinder.082-Mesh_0_indices",
      "componentType": 5123,
      "count": 552,
      "min": [
        0
      ],
      "max": [
        107
      ],
      "type": "SCALAR",
      "bufferView": 3,
      "byteOffset": 0
    }
  ],
  "asset": {
    "generator": "obj2gltf",
    "version": "2.0"
  },
  "buffers": [
    {
      "name": "Log_02_LOD2",
      "byteLength": 19284,
      "uri": "data:application/octet-stream;base64,"
    }
  ],
  "bufferViews": [
    {
      "name": "bufferView_0",
      "buffer": 0,
      "byteLength": 1296,
      "byteOffset": 0,
      "byteStride": 12,
      "target": 34962
    },
    {
      "name": "bufferView_1",
      "buffer": 0,
      "byteLength": 1296,
      "byteOffset": 1296,
      "byteStride": 12,
      "target": 34962
    },
    {
      "name": "bufferView_2",
      "buffer": 0,
      "byteLength": 864,
      "byteOffset": 2592,
      "byteStride": 8,
      "target": 34962
    },
    {
      "name": "bufferView_3",
      "buffer": 0,
      "byteLength": 1104,
      "byteOffset": 3456,
      "target": 34963
    },
    {
      "buffer": 0,
      "byteOffset": 4560,
      "byteLength": 14724
    }
  ],
  "images": [
    {
      "name": "Nature-Palette",
      "mimeType": "image/png",
      "bufferView": 4
    }
  ],
  "materials": [
    {
      "name": "Mat_Nature",
      "pbrMetallicRoughness": {
        "baseColorTexture": {
          "index": 0
        },
        "baseColorFactor": [
          1,
          1,
          1,
          1
        ],
        "metallicFactor": 0,
        "roughnessFactor": 0.775
      },
      "emissiveFactor": [
        0,
        0,
        0
      ],
      "alphaMode": "OPAQUE",
      "doubleSided": false
    }
  ],
  "meshes": [
    {
      "name": "Log_02_LOD2_Cylinder.082-Mesh",
      "primitives": [
        {
          "attributes": {
            "POSITION": 0,
            "NORMAL": 1,
            "TEXCOORD_0": 2
          },
          "indices": 3,
          "material": 0,
          "mode": 4
        }
      ]
    }
  ],
  "nodes": [
    {
      "name": "Log_02_LOD2_Cylinder.082",
      "mesh": 0
    }
  ],
  "samplers": [
    {
      "wrapS": 10497,
      "wrapT": 10497
    }
  ],
  "scene": 0,
  "scenes": [
    {
      "nodes": [
        0
      ]
    }
  ],
  "textures": [
    {
      "name": "Nature-Palette",
      "sampler": 0,
      "source": 0
    }
  ]
}
