{
  "accessors": [
    {
      "name": "Pine_05_LOD2_Cylinder.788-Mesh_0_positions",
      "componentType": 5126,
      "count": 428,
      "min": [
        11.793131828308105,
        0.001218999968841672,
        -33.212303161621094
      ],
      "max": [
        18.080780029296875,
        15.224713325500488,
        -26.734451293945312
      ],
      "type": "VEC3",
      "bufferView": 0,
      "byteOffset": 0
    },
    {
      "name": "Pine_05_LOD2_Cylinder.788-Mesh_0_normals",
      "componentType": 5126,
      "count": 428,
      "min": [
        -0.9992707371711731,
        -0.9999998807907104,
        -0.9997284412384033
      ],
      "max": [
        0.9986090660095215,
        0.9953147768974304,
        0.9993407130241394
      ],
      "type": "VEC3",
      "bufferView": 1,
      "byteOffset": 0
    },
    {
      "name": "Pine_05_LOD2_Cylinder.788-Mesh_0_texcoords",
      "componentType": 5126,
      "count": 428,
      "min": [
        0.2575260102748871,
        0.08131899684667587
      ],
      "max": [
        0.9187139868736267,
        0.7490699887275696
      ],
      "type": "VEC2",
      "bufferView": 2,
      "byteOffset": 0
    },
    {
      "name": "Pine_05_LOD2_Cylinder.788-Mesh_0_indices",
      "componentType": 5123,
      "count": 2445,
      "min": [
        0
      ],
      "max": [
        427
      ],
      "type": "SCALAR",
      "bufferView": 3,
      "byteOffset": 0
    }
  ],
  "asset": {
    "generator": "obj2gltf",
    "version": "2.0"
  },
  "buffers": [
    {
      "name": "Pine_05_LOD2",
      "byteLength": 33312,
      "uri": "data:application/octet-stream;base64,"
    }
  ],
  "bufferViews": [
    {
      "name": "bufferView_0",
      "buffer": 0,
      "byteLength": 5136,
      "byteOffset": 0,
      "byteStride": 12,
      "target": 34962
    },
    {
      "name": "bufferView_1",
      "buffer": 0,
      "byteLength": 5136,
      "byteOffset": 5136,
      "byteStride": 12,
      "target": 34962
    },
    {
      "name": "bufferView_2",
      "buffer": 0,
      "byteLength": 3424,
      "byteOffset": 10272,
      "byteStride": 8,
      "target": 34962
    },
    {
      "name": "bufferView_3",
      "buffer": 0,
      "byteLength": 4892,
      "byteOffset": 13696,
      "target": 34963
    },
    {
      "buffer": 0,
      "byteOffset": 18588,
      "byteLength": 14724
    }
  ],
  "images": [
    {
      "name": "Nature-Palette",
      "mimeType": "image/png",
      "bufferView": 4
    }
  ],
  "materials": [
    {
      "name": "Mat_Nature",
      "pbrMetallicRoughness": {
        "baseColorTexture": {
          "index": 0
        },
        "baseColorFactor": [
          1,
          1,
          1,
          1
        ],
        "metallicFactor": 0,
        "roughnessFactor": 0.775
      },
      "emissiveFactor": [
        0,
        0,
        0
      ],
      "alphaMode": "OPAQUE",
      "doubleSided": false
    }
  ],
  "meshes": [
    {
      "name": "Pine_05_LOD2_Cylinder.788-Mesh",
      "primitives": [
        {
          "attributes": {
            "POSITION": 0,
            "NORMAL": 1,
            "TEXCOORD_0": 2
          },
          "indices": 3,
          "material": 0,
          "mode": 4
        }
      ]
    }
  ],
  "nodes": [
    {
      "name": "Pine_05_LOD2_Cylinder.788",
      "mesh": 0
    }
  ],
  "samplers": [
    {
      "wrapS": 10497,
      "wrapT": 10497
    }
  ],
  "scene": 0,
  "scenes": [
    {
      "nodes": [
        0
      ]
    }
  ],
  "textures": [
    {
      "name": "Nature-Palette",
      "sampler": 0,
      "source": 0
    }
  ]
}
