{
  "accessors": [
    {
      "name": "Pine_04_LOD2_Cylinder.787-Mesh_0_positions",
      "componentType": 5126,
      "count": 472,
      "min": [
        2.0978739261627197,
        0.009239000268280506,
        -33.15678405761719
      ],
      "max": [
        8.486120223999023,
        16.769519805908203,
        -26.682048797607422
      ],
      "type": "VEC3",
      "bufferView": 0,
      "byteOffset": 0
    },
    {
      "name": "Pine_04_LOD2_Cylinder.787-Mesh_0_normals",
      "componentType": 5126,
      "count": 472,
      "min": [
        -0.9997925758361816,
        -0.9999976754188538,
        -0.9958990216255188
      ],
      "max": [
        0.999574601650238,
        0.9595126509666443,
        0.9986445307731628
      ],
      "type": "VEC3",
      "bufferView": 1,
      "byteOffset": 0
    },
    {
      "name": "Pine_04_LOD2_Cylinder.787-Mesh_0_texcoords",
      "componentType": 5126,
      "count": 472,
      "min": [
        0.2575260102748871,
        0.08131899684667587
      ],
      "max": [
        0.9187139868736267,
        0.7490699887275696
      ],
      "type": "VEC2",
      "bufferView": 2,
      "byteOffset": 0
    },
    {
      "name": "Pine_04_LOD2_Cylinder.787-Mesh_0_indices",
      "componentType": 5123,
      "count": 2703,
      "min": [
        0
      ],
      "max": [
        471
      ],
      "type": "SCALAR",
      "bufferView": 3,
      "byteOffset": 0
    }
  ],
  "asset": {
    "generator": "obj2gltf",
    "version": "2.0"
  },
  "buffers": [
    {
      "name": "Pine_04_LOD2",
      "byteLength": 35236,
      "uri": "data:application/octet-stream;base64,"
    }
  ],
  "bufferViews": [
    {
      "name": "bufferView_0",
      "buffer": 0,
      "byteLength": 5664,
      "byteOffset": 0,
      "byteStride": 12,
      "target": 34962
    },
    {
      "name": "bufferView_1",
      "buffer": 0,
      "byteLength": 5664,
      "byteOffset": 5664,
      "byteStride": 12,
      "target": 34962
    },
    {
      "name": "bufferView_2",
      "buffer": 0,
      "byteLength": 3776,
      "byteOffset": 11328,
      "byteStride": 8,
      "target": 34962
    },
    {
      "name": "bufferView_3",
      "buffer": 0,
      "byteLength": 5408,
      "byteOffset": 15104,
      "target": 34963
    },
    {
      "buffer": 0,
      "byteOffset": 20512,
      "byteLength": 14724
    }
  ],
  "images": [
    {
      "name": "Nature-Palette",
      "mimeType": "image/png",
      "bufferView": 4
    }
  ],
  "materials": [
    {
      "name": "Mat_Nature",
      "pbrMetallicRoughness": {
        "baseColorTexture": {
          "index": 0
        },
        "baseColorFactor": [
          1,
          1,
          1,
          1
        ],
        "metallicFactor": 0,
        "roughnessFactor": 0.775
      },
      "emissiveFactor": [
        0,
        0,
        0
      ],
      "alphaMode": "OPAQUE",
      "doubleSided": false
    }
  ],
  "meshes": [
    {
      "name": "Pine_04_LOD2_Cylinder.787-Mesh",
      "primitives": [
        {
          "attributes": {
            "POSITION": 0,
            "NORMAL": 1,
            "TEXCOORD_0": 2
          },
          "indices": 3,
          "material": 0,
          "mode": 4
        }
      ]
    }
  ],
  "nodes": [
    {
      "name": "Pine_04_LOD2_Cylinder.787",
      "mesh": 0
    }
  ],
  "samplers": [
    {
      "wrapS": 10497,
      "wrapT": 10497
    }
  ],
  "scene": 0,
  "scenes": [
    {
      "nodes": [
        0
      ]
    }
  ],
  "textures": [
    {
      "name": "Nature-Palette",
      "sampler": 0,
      "source": 0
    }
  ]
}
