{
  "accessors": [
    {
      "name": "Pine_03_LOD2_Cylinder.759-Mesh_0_positions",
      "componentType": 5126,
      "count": 609,
      "min": [
        22.435054779052734,
        0.00041099998634308577,
        -22.165725708007812
      ],
      "max": [
        27.397029876708984,
        11.408732414245605,
        -17.67858123779297
      ],
      "type": "VEC3",
      "bufferView": 0,
      "byteOffset": 0
    },
    {
      "name": "Pine_03_LOD2_Cylinder.759-Mesh_0_normals",
      "componentType": 5126,
      "count": 609,
      "min": [
        -0.9953045845031738,
        -0.9999999403953552,
        -0.9969671964645386
      ],
      "max": [
        0.9994477033615112,
        0.9995675086975098,
        0.9975653290748596
      ],
      "type": "VEC3",
      "bufferView": 1,
      "byteOffset": 0
    },
    {
      "name": "Pine_03_LOD2_Cylinder.759-Mesh_0_texcoords",
      "componentType": 5126,
      "count": 609,
      "min": [
        0.2575260102748871,
        0.08131899684667587
      ],
      "max": [
        0.9187139868736267,
        0.7490699887275696
      ],
      "type": "VEC2",
      "bufferView": 2,
      "byteOffset": 0
    },
    {
      "name": "Pine_03_LOD2_Cylinder.759-Mesh_0_indices",
      "componentType": 5123,
      "count": 2607,
      "min": [
        0
      ],
      "max": [
        608
      ],
      "type": "SCALAR",
      "bufferView": 3,
      "byteOffset": 0
    }
  ],
  "asset": {
    "generator": "obj2gltf",
    "version": "2.0"
  },
  "buffers": [
    {
      "name": "Pine_03_LOD2",
      "byteLength": 39428,
      "uri": "data:application/octet-stream;base64,"
    }
  ],
  "bufferViews": [
    {
      "name": "bufferView_0",
      "buffer": 0,
      "byteLength": 7308,
      "byteOffset": 0,
      "byteStride": 12,
      "target": 34962
    },
    {
      "name": "bufferView_1",
      "buffer": 0,
      "byteLength": 7308,
      "byteOffset": 7308,
      "byteStride": 12,
      "target": 34962
    },
    {
      "name": "bufferView_2",
      "buffer": 0,
      "byteLength": 4872,
      "byteOffset": 14616,
      "byteStride": 8,
      "target": 34962
    },
    {
      "name": "bufferView_3",
      "buffer": 0,
      "byteLength": 5216,
      "byteOffset": 19488,
      "target": 34963
    },
    {
      "buffer": 0,
      "byteOffset": 24704,
      "byteLength": 14724
    }
  ],
  "images": [
    {
      "name": "Nature-Palette",
      "mimeType": "image/png",
      "bufferView": 4
    }
  ],
  "materials": [
    {
      "name": "Mat_Nature",
      "pbrMetallicRoughness": {
        "baseColorTexture": {
          "index": 0
        },
        "baseColorFactor": [
          1,
          1,
          1,
          1
        ],
        "metallicFactor": 0,
        "roughnessFactor": 0.775
      },
      "emissiveFactor": [
        0,
        0,
        0
      ],
      "alphaMode": "OPAQUE",
      "doubleSided": false
    }
  ],
  "meshes": [
    {
      "name": "Pine_03_LOD2_Cylinder.759-Mesh",
      "primitives": [
        {
          "attributes": {
            "POSITION": 0,
            "NORMAL": 1,
            "TEXCOORD_0": 2
          },
          "indices": 3,
          "material": 0,
          "mode": 4
        }
      ]
    }
  ],
  "nodes": [
    {
      "name": "Pine_03_LOD2_Cylinder.759",
      "mesh": 0
    }
  ],
  "samplers": [
    {
      "wrapS": 10497,
      "wrapT": 10497
    }
  ],
  "scene": 0,
  "scenes": [
    {
      "nodes": [
        0
      ]
    }
  ],
  "textures": [
    {
      "name": "Nature-Palette",
      "sampler": 0,
      "source": 0
    }
  ]
}
