{
  "accessors": [
    {
      "name": "Pine_01_LOD2_Cylinder.757-Mesh_0_positions",
      "componentType": 5126,
      "count": 472,
      "min": [
        1.682049036026001,
        0.006159000098705292,
        -22.90212631225586
      ],
      "max": [
        8.15678596496582,
        14.479757308959961,
        -16.513879776000977
      ],
      "type": "VEC3",
      "bufferView": 0,
      "byteOffset": 0
    },
    {
      "name": "Pine_01_LOD2_Cylinder.757-Mesh_0_normals",
      "componentType": 5126,
      "count": 472,
      "min": [
        -0.9994364976882935,
        -0.999998927116394,
        -0.9952183961868286
      ],
      "max": [
        0.9994667172431946,
        0.9595126509666443,
        0.9982908368110657
      ],
      "type": "VEC3",
      "bufferView": 1,
      "byteOffset": 0
    },
    {
      "name": "Pine_01_LOD2_Cylinder.757-Mesh_0_texcoords",
      "componentType": 5126,
      "count": 472,
      "min": [
        0.2575260102748871,
        0.08131899684667587
      ],
      "max": [
        0.9187139868736267,
        0.7490699887275696
      ],
      "type": "VEC2",
      "bufferView": 2,
      "byteOffset": 0
    },
    {
      "name": "Pine_01_LOD2_Cylinder.757-Mesh_0_indices",
      "componentType": 5123,
      "count": 2703,
      "min": [
        0
      ],
      "max": [
        471
      ],
      "type": "SCALAR",
      "bufferView": 3,
      "byteOffset": 0
    }
  ],
  "asset": {
    "generator": "obj2gltf",
    "version": "2.0"
  },
  "buffers": [
    {
      "name": "Pine_01_LOD2",
      "byteLength": 35236,
      "uri": "data:application/octet-stream;base64,"
    }
  ],
  "bufferViews": [
    {
      "name": "bufferView_0",
      "buffer": 0,
      "byteLength": 5664,
      "byteOffset": 0,
      "byteStride": 12,
      "target": 34962
    },
    {
      "name": "bufferView_1",
      "buffer": 0,
      "byteLength": 5664,
      "byteOffset": 5664,
      "byteStride": 12,
      "target": 34962
    },
    {
      "name": "bufferView_2",
      "buffer": 0,
      "byteLength": 3776,
      "byteOffset": 11328,
      "byteStride": 8,
      "target": 34962
    },
    {
      "name": "bufferView_3",
      "buffer": 0,
      "byteLength": 5408,
      "byteOffset": 15104,
      "target": 34963
    },
    {
      "buffer": 0,
      "byteOffset": 20512,
      "byteLength": 14724
    }
  ],
  "images": [
    {
      "name": "Nature-Palette",
      "mimeType": "image/png",
      "bufferView": 4
    }
  ],
  "materials": [
    {
      "name": "Mat_Nature",
      "pbrMetallicRoughness": {
        "baseColorTexture": {
          "index": 0
        },
        "baseColorFactor": [
          1,
          1,
          1,
          1
        ],
        "metallicFactor": 0,
        "roughnessFactor": 0.775
      },
      "emissiveFactor": [
        0,
        0,
        0
      ],
      "alphaMode": "OPAQUE",
      "doubleSided": false
    }
  ],
  "meshes": [
    {
      "name": "Pine_01_LOD2_Cylinder.757-Mesh",
      "primitives": [
        {
          "attributes": {
            "POSITION": 0,
            "NORMAL": 1,
            "TEXCOORD_0": 2
          },
          "indices": 3,
          "material": 0,
          "mode": 4
        }
      ]
    }
  ],
  "nodes": [
    {
      "name": "Pine_01_LOD2_Cylinder.757",
      "mesh": 0
    }
  ],
  "samplers": [
    {
      "wrapS": 10497,
      "wrapT": 10497
    }
  ],
  "scene": 0,
  "scenes": [
    {
      "nodes": [
        0
      ]
    }
  ],
  "textures": [
    {
      "name": "Nature-Palette",
      "sampler": 0,
      "source": 0
    }
  ]
}
