{
  "accessors": [
    {
      "name": "Plant_B_03_LOD2_Cube.706-Mesh_0_positions",
      "componentType": 5126,
      "count": 117,
      "min": [
        -57.826683044433594,
        0.08091600239276886,
        16.9886474609375
      ],
      "max": [
        -52.26872634887695,
        2.682694911956787,
        23.022409439086914
      ],
      "type": "VEC3",
      "bufferView": 0,
      "byteOffset": 0
    },
    {
      "name": "Plant_B_03_LOD2_Cube.706-Mesh_0_normals",
      "componentType": 5126,
      "count": 117,
      "min": [
        -0.9935938715934753,
        -0.9935473799705505,
        -0.992617130279541
      ],
      "max": [
        0.9753750562667847,
        0.9802523255348206,
        0.9988420009613037
      ],
      "type": "VEC3",
      "bufferView": 1,
      "byteOffset": 0
    },
    {
      "name": "Plant_B_03_LOD2_Cube.706-Mesh_0_texcoords",
      "componentType": 5126,
      "count": 117,
      "min": [
        0.2575260102748871,
        0.4209649860858917
      ],
      "max": [
        0.2575260102748871,
        0.4209649860858917
      ],
      "type": "VEC2",
      "bufferView": 2,
      "byteOffset": 0
    },
    {
      "name": "Plant_B_03_LOD2_Cube.706-Mesh_0_indices",
      "componentType": 5123,
      "count": 642,
      "min": [
        0
      ],
      "max": [
        116
      ],
      "type": "SCALAR",
      "bufferView": 3,
      "byteOffset": 0
    }
  ],
  "asset": {
    "generator": "obj2gltf",
    "version": "2.0"
  },
  "buffers": [
    {
      "name": "Plant_B_03_LOD2",
      "byteLength": 19752,
      "uri": "data:application/octet-stream;base64,"
    }
  ],
  "bufferViews": [
    {
      "name": "bufferView_0",
      "buffer": 0,
      "byteLength": 1404,
      "byteOffset": 0,
      "byteStride": 12,
      "target": 34962
    },
    {
      "name": "bufferView_1",
      "buffer": 0,
      "byteLength": 1404,
      "byteOffset": 1404,
      "byteStride": 12,
      "target": 34962
    },
    {
      "name": "bufferView_2",
      "buffer": 0,
      "byteLength": 936,
      "byteOffset": 2808,
      "byteStride": 8,
      "target": 34962
    },
    {
      "name": "bufferView_3",
      "buffer": 0,
      "byteLength": 1284,
      "byteOffset": 3744,
      "target": 34963
    },
    {
      "buffer": 0,
      "byteOffset": 5028,
      "byteLength": 14724
    }
  ],
  "images": [
    {
      "name": "Nature-Palette",
      "mimeType": "image/png",
      "bufferView": 4
    }
  ],
  "materials": [
    {
      "name": "Mat_Nature",
      "pbrMetallicRoughness": {
        "baseColorTexture": {
          "index": 0
        },
        "baseColorFactor": [
          1,
          1,
          1,
          1
        ],
        "metallicFactor": 0,
        "roughnessFactor": 0.775
      },
      "emissiveFactor": [
        0,
        0,
        0
      ],
      "alphaMode": "OPAQUE",
      "doubleSided": false
    }
  ],
  "meshes": [
    {
      "name": "Plant_B_03_LOD2_Cube.706-Mesh",
      "primitives": [
        {
          "attributes": {
            "POSITION": 0,
            "NORMAL": 1,
            "TEXCOORD_0": 2
          },
          "indices": 3,
          "material": 0,
          "mode": 4
        }
      ]
    }
  ],
  "nodes": [
    {
      "name": "Plant_B_03_LOD2_Cube.706",
      "mesh": 0
    }
  ],
  "samplers": [
    {
      "wrapS": 10497,
      "wrapT": 10497
    }
  ],
  "scene": 0,
  "scenes": [
    {
      "nodes": [
        0
      ]
    }
  ],
  "textures": [
    {
      "name": "Nature-Palette",
      "sampler": 0,
      "source": 0
    }
  ]
}
