{
  "accessors": [
    {
      "name": "Plant_C_02_LOD2_Cube.704-Mesh_0_positions",
      "componentType": 5126,
      "count": 224,
      "min": [
        -47.981719970703125,
        0.19128000736236572,
        26.79149627685547
      ],
      "max": [
        -41.6628532409668,
        3.3172690868377686,
        32.95442581176758
      ],
      "type": "VEC3",
      "bufferView": 0,
      "byteOffset": 0
    },
    {
      "name": "Plant_C_02_LOD2_Cube.704-Mesh_0_normals",
      "componentType": 5126,
      "count": 224,
      "min": [
        -0.98883455991745,
        -0.9852657318115234,
        -0.9857595562934875
      ],
      "max": [
        0.9969229698181152,
        0.9897733330726624,
        0.990769624710083
      ],
      "type": "VEC3",
      "bufferView": 1,
      "byteOffset": 0
    },
    {
      "name": "Plant_C_02_LOD2_Cube.704-Mesh_0_texcoords",
      "componentType": 5126,
      "count": 224,
      "min": [
        0.24352699518203735,
        0.5833550095558167
      ],
      "max": [
        0.24352699518203735,
        0.5833550095558167
      ],
      "type": "VEC2",
      "bufferView": 2,
      "byteOffset": 0
    },
    {
      "name": "Plant_C_02_LOD2_Cube.704-Mesh_0_indices",
      "componentType": 5123,
      "count": 1248,
      "min": [
        0
      ],
      "max": [
        223
      ],
      "type": "SCALAR",
      "bufferView": 3,
      "byteOffset": 0
    }
  ],
  "asset": {
    "generator": "obj2gltf",
    "version": "2.0"
  },
  "buffers": [
    {
      "name": "Plant_C_02_LOD2",
      "byteLength": 24388,
      "uri": "data:application/octet-stream;base64,"
    }
  ],
  "bufferViews": [
    {
      "name": "bufferView_0",
      "buffer": 0,
      "byteLength": 2688,
      "byteOffset": 0,
      "byteStride": 12,
      "target": 34962
    },
    {
      "name": "bufferView_1",
      "buffer": 0,
      "byteLength": 2688,
      "byteOffset": 2688,
      "byteStride": 12,
      "target": 34962
    },
    {
      "name": "bufferView_2",
      "buffer": 0,
      "byteLength": 1792,
      "byteOffset": 5376,
      "byteStride": 8,
      "target": 34962
    },
    {
      "name": "bufferView_3",
      "buffer": 0,
      "byteLength": 2496,
      "byteOffset": 7168,
      "target": 34963
    },
    {
      "buffer": 0,
      "byteOffset": 9664,
      "byteLength": 14724
    }
  ],
  "images": [
    {
      "name": "Nature-Palette",
      "mimeType": "image/png",
      "bufferView": 4
    }
  ],
  "materials": [
    {
      "name": "Mat_Nature",
      "pbrMetallicRoughness": {
        "baseColorTexture": {
          "index": 0
        },
        "baseColorFactor": [
          1,
          1,
          1,
          1
        ],
        "metallicFactor": 0,
        "roughnessFactor": 0.775
      },
      "emissiveFactor": [
        0,
        0,
        0
      ],
      "alphaMode": "OPAQUE",
      "doubleSided": false
    }
  ],
  "meshes": [
    {
      "name": "Plant_C_02_LOD2_Cube.704-Mesh",
      "primitives": [
        {
          "attributes": {
            "POSITION": 0,
            "NORMAL": 1,
            "TEXCOORD_0": 2
          },
          "indices": 3,
          "material": 0,
          "mode": 4
        }
      ]
    }
  ],
  "nodes": [
    {
      "name": "Plant_C_02_LOD2_Cube.704",
      "mesh": 0
    }
  ],
  "samplers": [
    {
      "wrapS": 10497,
      "wrapT": 10497
    }
  ],
  "scene": 0,
  "scenes": [
    {
      "nodes": [
        0
      ]
    }
  ],
  "textures": [
    {
      "name": "Nature-Palette",
      "sampler": 0,
      "source": 0
    }
  ]
}
