{
  "accessors": [
    {
      "name": "Plant_B_02_LOD2_Cube.707-Mesh_0_positions",
      "componentType": 5126,
      "count": 121,
      "min": [
        -47.56660461425781,
        0.08196999877691269,
        17.019390106201172
      ],
      "max": [
        -42.50031280517578,
        2.935120105743408,
        22.558671951293945
      ],
      "type": "VEC3",
      "bufferView": 0,
      "byteOffset": 0
    },
    {
      "name": "Plant_B_02_LOD2_Cube.707-Mesh_0_normals",
      "componentType": 5126,
      "count": 121,
      "min": [
        -0.9852380752563477,
        -0.9705292582511902,
        -0.9948883056640625
      ],
      "max": [
        0.9983645081520081,
        0.9802427887916565,
        0.9843378067016602
      ],
      "type": "VEC3",
      "bufferView": 1,
      "byteOffset": 0
    },
    {
      "name": "Plant_B_02_LOD2_Cube.707-Mesh_0_texcoords",
      "componentType": 5126,
      "count": 121,
      "min": [
        0.2575260102748871,
        0.4209649860858917
      ],
      "max": [
        0.2575260102748871,
        0.4209649860858917
      ],
      "type": "VEC2",
      "bufferView": 2,
      "byteOffset": 0
    },
    {
      "name": "Plant_B_02_LOD2_Cube.707-Mesh_0_indices",
      "componentType": 5123,
      "count": 666,
      "min": [
        0
      ],
      "max": [
        120
      ],
      "type": "SCALAR",
      "bufferView": 3,
      "byteOffset": 0
    }
  ],
  "asset": {
    "generator": "obj2gltf",
    "version": "2.0"
  },
  "buffers": [
    {
      "name": "Plant_B_02_LOD2",
      "byteLength": 19928,
      "uri": "data:application/octet-stream;base64,"
    }
  ],
  "bufferViews": [
    {
      "name": "bufferView_0",
      "buffer": 0,
      "byteLength": 1452,
      "byteOffset": 0,
      "byteStride": 12,
      "target": 34962
    },
    {
      "name": "bufferView_1",
      "buffer": 0,
      "byteLength": 1452,
      "byteOffset": 1452,
      "byteStride": 12,
      "target": 34962
    },
    {
      "name": "bufferView_2",
      "buffer": 0,
      "byteLength": 968,
      "byteOffset": 2904,
      "byteStride": 8,
      "target": 34962
    },
    {
      "name": "bufferView_3",
      "buffer": 0,
      "byteLength": 1332,
      "byteOffset": 3872,
      "target": 34963
    },
    {
      "buffer": 0,
      "byteOffset": 5204,
      "byteLength": 14724
    }
  ],
  "images": [
    {
      "name": "Nature-Palette",
      "mimeType": "image/png",
      "bufferView": 4
    }
  ],
  "materials": [
    {
      "name": "Mat_Nature",
      "pbrMetallicRoughness": {
        "baseColorTexture": {
          "index": 0
        },
        "baseColorFactor": [
          1,
          1,
          1,
          1
        ],
        "metallicFactor": 0,
        "roughnessFactor": 0.775
      },
      "emissiveFactor": [
        0,
        0,
        0
      ],
      "alphaMode": "OPAQUE",
      "doubleSided": false
    }
  ],
  "meshes": [
    {
      "name": "Plant_B_02_LOD2_Cube.707-Mesh",
      "primitives": [
        {
          "attributes": {
            "POSITION": 0,
            "NORMAL": 1,
            "TEXCOORD_0": 2
          },
          "indices": 3,
          "material": 0,
          "mode": 4
        }
      ]
    }
  ],
  "nodes": [
    {
      "name": "Plant_B_02_LOD2_Cube.707",
      "mesh": 0
    }
  ],
  "samplers": [
    {
      "wrapS": 10497,
      "wrapT": 10497
    }
  ],
  "scene": 0,
  "scenes": [
    {
      "nodes": [
        0
      ]
    }
  ],
  "textures": [
    {
      "name": "Nature-Palette",
      "sampler": 0,
      "source": 0
    }
  ]
}
