{
  "accessors": [
    {
      "name": "Plant_C_03_LOD2_Cube.703-Mesh_0_positions",
      "componentType": 5126,
      "count": 264,
      "min": [
        -58.12315368652344,
        0.1883849948644638,
        26.64780616760254
      ],
      "max": [
        -52.0941047668457,
        3.2164790630340576,
        33.863250732421875
      ],
      "type": "VEC3",
      "bufferView": 0,
      "byteOffset": 0
    },
    {
      "name": "Plant_C_03_LOD2_Cube.703-Mesh_0_normals",
      "componentType": 5126,
      "count": 264,
      "min": [
        -0.9637019038200378,
        -0.98816978931427,
        -0.9683082699775696
      ],
      "max": [
        0.992231011390686,
        0.999464750289917,
        0.9992144703865051
      ],
      "type": "VEC3",
      "bufferView": 1,
      "byteOffset": 0
    },
    {
      "name": "Plant_C_03_LOD2_Cube.703-Mesh_0_texcoords",
      "componentType": 5126,
      "count": 264,
      "min": [
        0.24352699518203735,
        0.5833550095558167
      ],
      "max": [
        0.24352699518203735,
        0.5833550095558167
      ],
      "type": "VEC2",
      "bufferView": 2,
      "byteOffset": 0
    },
    {
      "name": "Plant_C_03_LOD2_Cube.703-Mesh_0_indices",
      "componentType": 5123,
      "count": 1476,
      "min": [
        0
      ],
      "max": [
        263
      ],
      "type": "SCALAR",
      "bufferView": 3,
      "byteOffset": 0
    }
  ],
  "asset": {
    "generator": "obj2gltf",
    "version": "2.0"
  },
  "buffers": [
    {
      "name": "Plant_C_03_LOD2",
      "byteLength": 26124,
      "uri": "data:application/octet-stream;base64,"
    }
  ],
  "bufferViews": [
    {
      "name": "bufferView_0",
      "buffer": 0,
      "byteLength": 3168,
      "byteOffset": 0,
      "byteStride": 12,
      "target": 34962
    },
    {
      "name": "bufferView_1",
      "buffer": 0,
      "byteLength": 3168,
      "byteOffset": 3168,
      "byteStride": 12,
      "target": 34962
    },
    {
      "name": "bufferView_2",
      "buffer": 0,
      "byteLength": 2112,
      "byteOffset": 6336,
      "byteStride": 8,
      "target": 34962
    },
    {
      "name": "bufferView_3",
      "buffer": 0,
      "byteLength": 2952,
      "byteOffset": 8448,
      "target": 34963
    },
    {
      "buffer": 0,
      "byteOffset": 11400,
      "byteLength": 14724
    }
  ],
  "images": [
    {
      "name": "Nature-Palette",
      "mimeType": "image/png",
      "bufferView": 4
    }
  ],
  "materials": [
    {
      "name": "Mat_Nature",
      "pbrMetallicRoughness": {
        "baseColorTexture": {
          "index": 0
        },
        "baseColorFactor": [
          1,
          1,
          1,
          1
        ],
        "metallicFactor": 0,
        "roughnessFactor": 0.775
      },
      "emissiveFactor": [
        0,
        0,
        0
      ],
      "alphaMode": "OPAQUE",
      "doubleSided": false
    }
  ],
  "meshes": [
    {
      "name": "Plant_C_03_LOD2_Cube.703-Mesh",
      "primitives": [
        {
          "attributes": {
            "POSITION": 0,
            "NORMAL": 1,
            "TEXCOORD_0": 2
          },
          "indices": 3,
          "material": 0,
          "mode": 4
        }
      ]
    }
  ],
  "nodes": [
    {
      "name": "Plant_C_03_LOD2_Cube.703",
      "mesh": 0
    }
  ],
  "samplers": [
    {
      "wrapS": 10497,
      "wrapT": 10497
    }
  ],
  "scene": 0,
  "scenes": [
    {
      "nodes": [
        0
      ]
    }
  ],
  "textures": [
    {
      "name": "Nature-Palette",
      "sampler": 0,
      "source": 0
    }
  ]
}
