{
  "accessors": [
    {
      "name": "Plant_B_01_LOD2_Cube.708-Mesh_0_positions",
      "componentType": 5126,
      "count": 96,
      "min": [
        -37.00859069824219,
        0.03294200077652931,
        17.488496780395508
      ],
      "max": [
        -32.671607971191406,
        2.8311879634857178,
        21.931974411010742
      ],
      "type": "VEC3",
      "bufferView": 0,
      "byteOffset": 0
    },
    {
      "name": "Plant_B_01_LOD2_Cube.708-Mesh_0_normals",
      "componentType": 5126,
      "count": 96,
      "min": [
        -0.9817562699317932,
        -0.9949892163276672,
        -0.9886483550071716
      ],
      "max": [
        0.9953504204750061,
        0.9588077068328857,
        0.971186101436615
      ],
      "type": "VEC3",
      "bufferView": 1,
      "byteOffset": 0
    },
    {
      "name": "Plant_B_01_LOD2_Cube.708-Mesh_0_texcoords",
      "componentType": 5126,
      "count": 96,
      "min": [
        0.2575260102748871,
        0.4209649860858917
      ],
      "max": [
        0.2575260102748871,
        0.4209649860858917
      ],
      "type": "VEC2",
      "bufferView": 2,
      "byteOffset": 0
    },
    {
      "name": "Plant_B_01_LOD2_Cube.708-Mesh_0_indices",
      "componentType": 5123,
      "count": 528,
      "min": [
        0
      ],
      "max": [
        95
      ],
      "type": "SCALAR",
      "bufferView": 3,
      "byteOffset": 0
    }
  ],
  "asset": {
    "generator": "obj2gltf",
    "version": "2.0"
  },
  "buffers": [
    {
      "name": "Plant_B_01_LOD2",
      "byteLength": 18852,
      "uri": "data:application/octet-stream;base64,"
    }
  ],
  "bufferViews": [
    {
      "name": "bufferView_0",
      "buffer": 0,
      "byteLength": 1152,
      "byteOffset": 0,
      "byteStride": 12,
      "target": 34962
    },
    {
      "name": "bufferView_1",
      "buffer": 0,
      "byteLength": 1152,
      "byteOffset": 1152,
      "byteStride": 12,
      "target": 34962
    },
    {
      "name": "bufferView_2",
      "buffer": 0,
      "byteLength": 768,
      "byteOffset": 2304,
      "byteStride": 8,
      "target": 34962
    },
    {
      "name": "bufferView_3",
      "buffer": 0,
      "byteLength": 1056,
      "byteOffset": 3072,
      "target": 34963
    },
    {
      "buffer": 0,
      "byteOffset": 4128,
      "byteLength": 14724
    }
  ],
  "images": [
    {
      "name": "Nature-Palette",
      "mimeType": "image/png",
      "bufferView": 4
    }
  ],
  "materials": [
    {
      "name": "Mat_Nature",
      "pbrMetallicRoughness": {
        "baseColorTexture": {
          "index": 0
        },
        "baseColorFactor": [
          1,
          1,
          1,
          1
        ],
        "metallicFactor": 0,
        "roughnessFactor": 0.775
      },
      "emissiveFactor": [
        0,
        0,
        0
      ],
      "alphaMode": "OPAQUE",
      "doubleSided": false
    }
  ],
  "meshes": [
    {
      "name": "Plant_B_01_LOD2_Cube.708-Mesh",
      "primitives": [
        {
          "attributes": {
            "POSITION": 0,
            "NORMAL": 1,
            "TEXCOORD_0": 2
          },
          "indices": 3,
          "material": 0,
          "mode": 4
        }
      ]
    }
  ],
  "nodes": [
    {
      "name": "Plant_B_01_LOD2_Cube.708",
      "mesh": 0
    }
  ],
  "samplers": [
    {
      "wrapS": 10497,
      "wrapT": 10497
    }
  ],
  "scene": 0,
  "scenes": [
    {
      "nodes": [
        0
      ]
    }
  ],
  "textures": [
    {
      "name": "Nature-Palette",
      "sampler": 0,
      "source": 0
    }
  ]
}
