{
  "accessors": [
    {
      "name": "Plant_A_02_LOD2_Cube.710-Mesh_0_positions",
      "componentType": 5126,
      "count": 120,
      "min": [
        -46.7685432434082,
        0.15562300384044647,
        7.691833972930908
      ],
      "max": [
        -42.772003173828125,
        4.774316787719727,
        12.302821159362793
      ],
      "type": "VEC3",
      "bufferView": 0,
      "byteOffset": 0
    },
    {
      "name": "Plant_A_02_LOD2_Cube.710-Mesh_0_normals",
      "componentType": 5126,
      "count": 120,
      "min": [
        -0.9539695382118225,
        -0.9466668367385864,
        -0.9880275726318359
      ],
      "max": [
        0.9797177910804749,
        0.9501287341117859,
        0.9807856678962708
      ],
      "type": "VEC3",
      "bufferView": 1,
      "byteOffset": 0
    },
    {
      "name": "Plant_A_02_LOD2_Cube.710-Mesh_0_texcoords",
      "componentType": 5126,
      "count": 120,
      "min": [
        0.5746939778327942,
        0.09067299962043762
      ],
      "max": [
        0.5746939778327942,
        0.09067299962043762
      ],
      "type": "VEC2",
      "bufferView": 2,
      "byteOffset": 0
    },
    {
      "name": "Plant_A_02_LOD2_Cube.710-Mesh_0_indices",
      "componentType": 5123,
      "count": 660,
      "min": [
        0
      ],
      "max": [
        119
      ],
      "type": "SCALAR",
      "bufferView": 3,
      "byteOffset": 0
    }
  ],
  "asset": {
    "generator": "obj2gltf",
    "version": "2.0"
  },
  "buffers": [
    {
      "name": "Plant_A_02_LOD2",
      "byteLength": 19884,
      "uri": "data:application/octet-stream;base64,"
    }
  ],
  "bufferViews": [
    {
      "name": "bufferView_0",
      "buffer": 0,
      "byteLength": 1440,
      "byteOffset": 0,
      "byteStride": 12,
      "target": 34962
    },
    {
      "name": "bufferView_1",
      "buffer": 0,
      "byteLength": 1440,
      "byteOffset": 1440,
      "byteStride": 12,
      "target": 34962
    },
    {
      "name": "bufferView_2",
      "buffer": 0,
      "byteLength": 960,
      "byteOffset": 2880,
      "byteStride": 8,
      "target": 34962
    },
    {
      "name": "bufferView_3",
      "buffer": 0,
      "byteLength": 1320,
      "byteOffset": 3840,
      "target": 34963
    },
    {
      "buffer": 0,
      "byteOffset": 5160,
      "byteLength": 14724
    }
  ],
  "images": [
    {
      "name": "Nature-Palette",
      "mimeType": "image/png",
      "bufferView": 4
    }
  ],
  "materials": [
    {
      "name": "Mat_Nature",
      "pbrMetallicRoughness": {
        "baseColorTexture": {
          "index": 0
        },
        "baseColorFactor": [
          1,
          1,
          1,
          1
        ],
        "metallicFactor": 0,
        "roughnessFactor": 0.775
      },
      "emissiveFactor": [
        0,
        0,
        0
      ],
      "alphaMode": "OPAQUE",
      "doubleSided": false
    }
  ],
  "meshes": [
    {
      "name": "Plant_A_02_LOD2_Cube.710-Mesh",
      "primitives": [
        {
          "attributes": {
            "POSITION": 0,
            "NORMAL": 1,
            "TEXCOORD_0": 2
          },
          "indices": 3,
          "material": 0,
          "mode": 4
        }
      ]
    }
  ],
  "nodes": [
    {
      "name": "Plant_A_02_LOD2_Cube.710",
      "mesh": 0
    }
  ],
  "samplers": [
    {
      "wrapS": 10497,
      "wrapT": 10497
    }
  ],
  "scene": 0,
  "scenes": [
    {
      "nodes": [
        0
      ]
    }
  ],
  "textures": [
    {
      "name": "Nature-Palette",
      "sampler": 0,
      "source": 0
    }
  ]
}
