{
  "accessors": [
    {
      "name": "Plant_A_03_LOD2_Cube.709-Mesh_0_positions",
      "componentType": 5126,
      "count": 120,
      "min": [
        -57.31667709350586,
        0.15873299539089203,
        7.8614959716796875
      ],
      "max": [
        -52.80957794189453,
        5.0671539306640625,
        11.723944664001465
      ],
      "type": "VEC3",
      "bufferView": 0,
      "byteOffset": 0
    },
    {
      "name": "Plant_A_03_LOD2_Cube.709-Mesh_0_normals",
      "componentType": 5126,
      "count": 120,
      "min": [
        -0.9979714751243591,
        -0.960979700088501,
        -0.9806553721427917
      ],
      "max": [
        0.9644142389297485,
        0.95167475938797,
        0.9958427548408508
      ],
      "type": "VEC3",
      "bufferView": 1,
      "byteOffset": 0
    },
    {
      "name": "Plant_A_03_LOD2_Cube.709-Mesh_0_texcoords",
      "componentType": 5126,
      "count": 120,
      "min": [
        0.5746939778327942,
        0.09067299962043762
      ],
      "max": [
        0.5746939778327942,
        0.09067299962043762
      ],
      "type": "VEC2",
      "bufferView": 2,
      "byteOffset": 0
    },
    {
      "name": "Plant_A_03_LOD2_Cube.709-Mesh_0_indices",
      "componentType": 5123,
      "count": 660,
      "min": [
        0
      ],
      "max": [
        119
      ],
      "type": "SCALAR",
      "bufferView": 3,
      "byteOffset": 0
    }
  ],
  "asset": {
    "generator": "obj2gltf",
    "version": "2.0"
  },
  "buffers": [
    {
      "name": "Plant_A_03_LOD2",
      "byteLength": 19884,
      "uri": "data:application/octet-stream;base64,"
    }
  ],
  "bufferViews": [
    {
      "name": "bufferView_0",
      "buffer": 0,
      "byteLength": 1440,
      "byteOffset": 0,
      "byteStride": 12,
      "target": 34962
    },
    {
      "name": "bufferView_1",
      "buffer": 0,
      "byteLength": 1440,
      "byteOffset": 1440,
      "byteStride": 12,
      "target": 34962
    },
    {
      "name": "bufferView_2",
      "buffer": 0,
      "byteLength": 960,
      "byteOffset": 2880,
      "byteStride": 8,
      "target": 34962
    },
    {
      "name": "bufferView_3",
      "buffer": 0,
      "byteLength": 1320,
      "byteOffset": 3840,
      "target": 34963
    },
    {
      "buffer": 0,
      "byteOffset": 5160,
      "byteLength": 14724
    }
  ],
  "images": [
    {
      "name": "Nature-Palette",
      "mimeType": "image/png",
      "bufferView": 4
    }
  ],
  "materials": [
    {
      "name": "Mat_Nature",
      "pbrMetallicRoughness": {
        "baseColorTexture": {
          "index": 0
        },
        "baseColorFactor": [
          1,
          1,
          1,
          1
        ],
        "metallicFactor": 0,
        "roughnessFactor": 0.775
      },
      "emissiveFactor": [
        0,
        0,
        0
      ],
      "alphaMode": "OPAQUE",
      "doubleSided": false
    }
  ],
  "meshes": [
    {
      "name": "Plant_A_03_LOD2_Cube.709-Mesh",
      "primitives": [
        {
          "attributes": {
            "POSITION": 0,
            "NORMAL": 1,
            "TEXCOORD_0": 2
          },
          "indices": 3,
          "material": 0,
          "mode": 4
        }
      ]
    }
  ],
  "nodes": [
    {
      "name": "Plant_A_03_LOD2_Cube.709",
      "mesh": 0
    }
  ],
  "samplers": [
    {
      "wrapS": 10497,
      "wrapT": 10497
    }
  ],
  "scene": 0,
  "scenes": [
    {
      "nodes": [
        0
      ]
    }
  ],
  "textures": [
    {
      "name": "Nature-Palette",
      "sampler": 0,
      "source": 0
    }
  ]
}
