{
  "accessors": [
    {
      "name": "Plant_C_01_LOD2_Cube.705-Mesh_0_positions",
      "componentType": 5126,
      "count": 159,
      "min": [
        -38.4810676574707,
        0.19128000736236572,
        27.694561004638672
      ],
      "max": [
        -32.162200927734375,
        3.414762020111084,
        33.29127883911133
      ],
      "type": "VEC3",
      "bufferView": 0,
      "byteOffset": 0
    },
    {
      "name": "Plant_C_01_LOD2_Cube.705-Mesh_0_normals",
      "componentType": 5126,
      "count": 159,
      "min": [
        -0.9873659014701843,
        -0.9852657318115234,
        -0.9726318717002869
      ],
      "max": [
        0.9959933757781982,
        0.9790993928909302,
        0.9918195605278015
      ],
      "type": "VEC3",
      "bufferView": 1,
      "byteOffset": 0
    },
    {
      "name": "Plant_C_01_LOD2_Cube.705-Mesh_0_texcoords",
      "componentType": 5126,
      "count": 159,
      "min": [
        0.24352699518203735,
        0.5833550095558167
      ],
      "max": [
        0.24352699518203735,
        0.5833550095558167
      ],
      "type": "VEC2",
      "bufferView": 2,
      "byteOffset": 0
    },
    {
      "name": "Plant_C_01_LOD2_Cube.705-Mesh_0_indices",
      "componentType": 5123,
      "count": 882,
      "min": [
        0
      ],
      "max": [
        158
      ],
      "type": "SCALAR",
      "bufferView": 3,
      "byteOffset": 0
    }
  ],
  "asset": {
    "generator": "obj2gltf",
    "version": "2.0"
  },
  "buffers": [
    {
      "name": "Plant_C_01_LOD2",
      "byteLength": 21576,
      "uri": "data:application/octet-stream;base64,"
    }
  ],
  "bufferViews": [
    {
      "name": "bufferView_0",
      "buffer": 0,
      "byteLength": 1908,
      "byteOffset": 0,
      "byteStride": 12,
      "target": 34962
    },
    {
      "name": "bufferView_1",
      "buffer": 0,
      "byteLength": 1908,
      "byteOffset": 1908,
      "byteStride": 12,
      "target": 34962
    },
    {
      "name": "bufferView_2",
      "buffer": 0,
      "byteLength": 1272,
      "byteOffset": 3816,
      "byteStride": 8,
      "target": 34962
    },
    {
      "name": "bufferView_3",
      "buffer": 0,
      "byteLength": 1764,
      "byteOffset": 5088,
      "target": 34963
    },
    {
      "buffer": 0,
      "byteOffset": 6852,
      "byteLength": 14724
    }
  ],
  "images": [
    {
      "name": "Nature-Palette",
      "mimeType": "image/png",
      "bufferView": 4
    }
  ],
  "materials": [
    {
      "name": "Mat_Nature",
      "pbrMetallicRoughness": {
        "baseColorTexture": {
          "index": 0
        },
        "baseColorFactor": [
          1,
          1,
          1,
          1
        ],
        "metallicFactor": 0,
        "roughnessFactor": 0.775
      },
      "emissiveFactor": [
        0,
        0,
        0
      ],
      "alphaMode": "OPAQUE",
      "doubleSided": false
    }
  ],
  "meshes": [
    {
      "name": "Plant_C_01_LOD2_Cube.705-Mesh",
      "primitives": [
        {
          "attributes": {
            "POSITION": 0,
            "NORMAL": 1,
            "TEXCOORD_0": 2
          },
          "indices": 3,
          "material": 0,
          "mode": 4
        }
      ]
    }
  ],
  "nodes": [
    {
      "name": "Plant_C_01_LOD2_Cube.705",
      "mesh": 0
    }
  ],
  "samplers": [
    {
      "wrapS": 10497,
      "wrapT": 10497
    }
  ],
  "scene": 0,
  "scenes": [
    {
      "nodes": [
        0
      ]
    }
  ],
  "textures": [
    {
      "name": "Nature-Palette",
      "sampler": 0,
      "source": 0
    }
  ]
}
