{
  "accessors": [
    {
      "name": "Plant_A_01_LOD2_Cube.711-Mesh_0_positions",
      "componentType": 5126,
      "count": 96,
      "min": [
        -36.64883041381836,
        0.10341600328683853,
        8.372293472290039
      ],
      "max": [
        -33.21822738647461,
        4.524343967437744,
        11.33564567565918
      ],
      "type": "VEC3",
      "bufferView": 0,
      "byteOffset": 0
    },
    {
      "name": "Plant_A_01_LOD2_Cube.711-Mesh_0_normals",
      "componentType": 5126,
      "count": 96,
      "min": [
        -0.9958342909812927,
        -0.9922014474868774,
        -0.9953641891479492
      ],
      "max": [
        0.9934517741203308,
        0.9241053462028503,
        0.9964214563369751
      ],
      "type": "VEC3",
      "bufferView": 1,
      "byteOffset": 0
    },
    {
      "name": "Plant_A_01_LOD2_Cube.711-Mesh_0_texcoords",
      "componentType": 5126,
      "count": 96,
      "min": [
        0.5746939778327942,
        0.09067299962043762
      ],
      "max": [
        0.5746939778327942,
        0.09067299962043762
      ],
      "type": "VEC2",
      "bufferView": 2,
      "byteOffset": 0
    },
    {
      "name": "Plant_A_01_LOD2_Cube.711-Mesh_0_indices",
      "componentType": 5123,
      "count": 528,
      "min": [
        0
      ],
      "max": [
        95
      ],
      "type": "SCALAR",
      "bufferView": 3,
      "byteOffset": 0
    }
  ],
  "asset": {
    "generator": "obj2gltf",
    "version": "2.0"
  },
  "buffers": [
    {
      "name": "Plant_A_01_LOD2",
      "byteLength": 18852,
      "uri": "data:application/octet-stream;base64,"
    }
  ],
  "bufferViews": [
    {
      "name": "bufferView_0",
      "buffer": 0,
      "byteLength": 1152,
      "byteOffset": 0,
      "byteStride": 12,
      "target": 34962
    },
    {
      "name": "bufferView_1",
      "buffer": 0,
      "byteLength": 1152,
      "byteOffset": 1152,
      "byteStride": 12,
      "target": 34962
    },
    {
      "name": "bufferView_2",
      "buffer": 0,
      "byteLength": 768,
      "byteOffset": 2304,
      "byteStride": 8,
      "target": 34962
    },
    {
      "name": "bufferView_3",
      "buffer": 0,
      "byteLength": 1056,
      "byteOffset": 3072,
      "target": 34963
    },
    {
      "buffer": 0,
      "byteOffset": 4128,
      "byteLength": 14724
    }
  ],
  "images": [
    {
      "name": "Nature-Palette",
      "mimeType": "image/png",
      "bufferView": 4
    }
  ],
  "materials": [
    {
      "name": "Mat_Nature",
      "pbrMetallicRoughness": {
        "baseColorTexture": {
          "index": 0
        },
        "baseColorFactor": [
          1,
          1,
          1,
          1
        ],
        "metallicFactor": 0,
        "roughnessFactor": 0.775
      },
      "emissiveFactor": [
        0,
        0,
        0
      ],
      "alphaMode": "OPAQUE",
      "doubleSided": false
    }
  ],
  "meshes": [
    {
      "name": "Plant_A_01_LOD2_Cube.711-Mesh",
      "primitives": [
        {
          "attributes": {
            "POSITION": 0,
            "NORMAL": 1,
            "TEXCOORD_0": 2
          },
          "indices": 3,
          "material": 0,
          "mode": 4
        }
      ]
    }
  ],
  "nodes": [
    {
      "name": "Plant_A_01_LOD2_Cube.711",
      "mesh": 0
    }
  ],
  "samplers": [
    {
      "wrapS": 10497,
      "wrapT": 10497
    }
  ],
  "scene": 0,
  "scenes": [
    {
      "nodes": [
        0
      ]
    }
  ],
  "textures": [
    {
      "name": "Nature-Palette",
      "sampler": 0,
      "source": 0
    }
  ]
}
