{
  "accessors": [
    {
      "name": "Rock_B_06_LOD2_Cube.759-Mesh_0_positions",
      "componentType": 5126,
      "count": 82,
      "min": [
        32.58454513549805,
        -0.06986299902200699,
        57.31084060668945
      ],
      "max": [
        36.909202575683594,
        1.3978190422058105,
        62.849510192871094
      ],
      "type": "VEC3",
      "bufferView": 0,
      "byteOffset": 0
    },
    {
      "name": "Rock_B_06_LOD2_Cube.759-Mesh_0_normals",
      "componentType": 5126,
      "count": 82,
      "min": [
        -0.8557479977607727,
        -0.9999625086784363,
        -0.9208866953849792
      ],
      "max": [
        0.8971230387687683,
        0.9945014715194702,
        0.8891934752464294
      ],
      "type": "VEC3",
      "bufferView": 1,
      "byteOffset": 0
    },
    {
      "name": "Rock_B_06_LOD2_Cube.759-Mesh_0_texcoords",
      "componentType": 5126,
      "count": 82,
      "min": [
        0.25077399611473083,
        0.25516799092292786
      ],
      "max": [
        0.25077399611473083,
        0.25516799092292786
      ],
      "type": "VEC2",
      "bufferView": 2,
      "byteOffset": 0
    },
    {
      "name": "Rock_B_06_LOD2_Cube.759-Mesh_0_indices",
      "componentType": 5123,
      "count": 480,
      "min": [
        0
      ],
      "max": [
        81
      ],
      "type": "SCALAR",
      "bufferView": 3,
      "byteOffset": 0
    }
  ],
  "asset": {
    "generator": "obj2gltf",
    "version": "2.0"
  },
  "buffers": [
    {
      "name": "Rock_B_06_LOD2",
      "byteLength": 18308,
      "uri": "data:application/octet-stream;base64,"
    }
  ],
  "bufferViews": [
    {
      "name": "bufferView_0",
      "buffer": 0,
      "byteLength": 984,
      "byteOffset": 0,
      "byteStride": 12,
      "target": 34962
    },
    {
      "name": "bufferView_1",
      "buffer": 0,
      "byteLength": 984,
      "byteOffset": 984,
      "byteStride": 12,
      "target": 34962
    },
    {
      "name": "bufferView_2",
      "buffer": 0,
      "byteLength": 656,
      "byteOffset": 1968,
      "byteStride": 8,
      "target": 34962
    },
    {
      "name": "bufferView_3",
      "buffer": 0,
      "byteLength": 960,
      "byteOffset": 2624,
      "target": 34963
    },
    {
      "buffer": 0,
      "byteOffset": 3584,
      "byteLength": 14724
    }
  ],
  "images": [
    {
      "name": "Nature-Palette",
      "mimeType": "image/png",
      "bufferView": 4
    }
  ],
  "materials": [
    {
      "name": "Mat_Nature",
      "pbrMetallicRoughness": {
        "baseColorTexture": {
          "index": 0
        },
        "baseColorFactor": [
          1,
          1,
          1,
          1
        ],
        "metallicFactor": 0,
        "roughnessFactor": 0.775
      },
      "emissiveFactor": [
        0,
        0,
        0
      ],
      "alphaMode": "OPAQUE",
      "doubleSided": false
    }
  ],
  "meshes": [
    {
      "name": "Rock_B_06_LOD2_Cube.759-Mesh",
      "primitives": [
        {
          "attributes": {
            "POSITION": 0,
            "NORMAL": 1,
            "TEXCOORD_0": 2
          },
          "indices": 3,
          "material": 0,
          "mode": 4
        }
      ]
    }
  ],
  "nodes": [
    {
      "name": "Rock_B_06_LOD2_Cube.759",
      "mesh": 0
    }
  ],
  "samplers": [
    {
      "wrapS": 10497,
      "wrapT": 10497
    }
  ],
  "scene": 0,
  "scenes": [
    {
      "nodes": [
        0
      ]
    }
  ],
  "textures": [
    {
      "name": "Nature-Palette",
      "sampler": 0,
      "source": 0
    }
  ]
}
