{
  "accessors": [
    {
      "name": "Rock_A_03_LOD2_Cube.738-Mesh_0_positions",
      "componentType": 5126,
      "count": 56,
      "min": [
        33.462947845458984,
        -0.05613600090146065,
        38.7806396484375
      ],
      "max": [
        36.470947265625,
        1.4685579538345337,
        41.2264404296875
      ],
      "type": "VEC3",
      "bufferView": 0,
      "byteOffset": 0
    },
    {
      "name": "Rock_A_03_LOD2_Cube.738-Mesh_0_normals",
      "componentType": 5126,
      "count": 56,
      "min": [
        -0.926576554775238,
        -0.997519314289093,
        -0.9511032700538635
      ],
      "max": [
        0.9522511959075928,
        0.9964020252227783,
        0.9819528460502625
      ],
      "type": "VEC3",
      "bufferView": 1,
      "byteOffset": 0
    },
    {
      "name": "Rock_A_03_LOD2_Cube.738-Mesh_0_texcoords",
      "componentType": 5126,
      "count": 56,
      "min": [
        0.5766909718513489,
        0.25516799092292786
      ],
      "max": [
        0.5766909718513489,
        0.25516799092292786
      ],
      "type": "VEC2",
      "bufferView": 2,
      "byteOffset": 0
    },
    {
      "name": "Rock_A_03_LOD2_Cube.738-Mesh_0_indices",
      "componentType": 5123,
      "count": 324,
      "min": [
        0
      ],
      "max": [
        55
      ],
      "type": "SCALAR",
      "bufferView": 3,
      "byteOffset": 0
    }
  ],
  "asset": {
    "generator": "obj2gltf",
    "version": "2.0"
  },
  "buffers": [
    {
      "name": "Rock_A_03_LOD2",
      "byteLength": 17164,
      "uri": "data:application/octet-stream;base64,"
    }
  ],
  "bufferViews": [
    {
      "name": "bufferView_0",
      "buffer": 0,
      "byteLength": 672,
      "byteOffset": 0,
      "byteStride": 12,
      "target": 34962
    },
    {
      "name": "bufferView_1",
      "buffer": 0,
      "byteLength": 672,
      "byteOffset": 672,
      "byteStride": 12,
      "target": 34962
    },
    {
      "name": "bufferView_2",
      "buffer": 0,
      "byteLength": 448,
      "byteOffset": 1344,
      "byteStride": 8,
      "target": 34962
    },
    {
      "name": "bufferView_3",
      "buffer": 0,
      "byteLength": 648,
      "byteOffset": 1792,
      "target": 34963
    },
    {
      "buffer": 0,
      "byteOffset": 2440,
      "byteLength": 14724
    }
  ],
  "images": [
    {
      "name": "Nature-Palette",
      "mimeType": "image/png",
      "bufferView": 4
    }
  ],
  "materials": [
    {
      "name": "Mat_Nature",
      "pbrMetallicRoughness": {
        "baseColorTexture": {
          "index": 0
        },
        "baseColorFactor": [
          1,
          1,
          1,
          1
        ],
        "metallicFactor": 0,
        "roughnessFactor": 0.775
      },
      "emissiveFactor": [
        0,
        0,
        0
      ],
      "alphaMode": "OPAQUE",
      "doubleSided": false
    }
  ],
  "meshes": [
    {
      "name": "Rock_A_03_LOD2_Cube.738-Mesh",
      "primitives": [
        {
          "attributes": {
            "POSITION": 0,
            "NORMAL": 1,
            "TEXCOORD_0": 2
          },
          "indices": 3,
          "material": 0,
          "mode": 4
        }
      ]
    }
  ],
  "nodes": [
    {
      "name": "Rock_A_03_LOD2_Cube.738",
      "mesh": 0
    }
  ],
  "samplers": [
    {
      "wrapS": 10497,
      "wrapT": 10497
    }
  ],
  "scene": 0,
  "scenes": [
    {
      "nodes": [
        0
      ]
    }
  ],
  "textures": [
    {
      "name": "Nature-Palette",
      "sampler": 0,
      "source": 0
    }
  ]
}
