{
  "accessors": [
    {
      "name": "Rock_A_01_LOD2_Cube.736-Mesh_0_positions",
      "componentType": 5126,
      "count": 56,
      "min": [
        53.648502349853516,
        -0.033973000943660736,
        38.758872985839844
      ],
      "max": [
        56.37349319458008,
        1.5037519931793213,
        41.241127014160156
      ],
      "type": "VEC3",
      "bufferView": 0,
      "byteOffset": 0
    },
    {
      "name": "Rock_A_01_LOD2_Cube.736-Mesh_0_normals",
      "componentType": 5126,
      "count": 56,
      "min": [
        -0.9414259791374207,
        -0.995879054069519,
        -0.956152617931366
      ],
      "max": [
        0.9522555470466614,
        0.9783248901367188,
        0.956152617931366
      ],
      "type": "VEC3",
      "bufferView": 1,
      "byteOffset": 0
    },
    {
      "name": "Rock_A_01_LOD2_Cube.736-Mesh_0_texcoords",
      "componentType": 5126,
      "count": 56,
      "min": [
        0.5766909718513489,
        0.25516799092292786
      ],
      "max": [
        0.5766909718513489,
        0.25516799092292786
      ],
      "type": "VEC2",
      "bufferView": 2,
      "byteOffset": 0
    },
    {
      "name": "Rock_A_01_LOD2_Cube.736-Mesh_0_indices",
      "componentType": 5123,
      "count": 324,
      "min": [
        0
      ],
      "max": [
        55
      ],
      "type": "SCALAR",
      "bufferView": 3,
      "byteOffset": 0
    }
  ],
  "asset": {
    "generator": "obj2gltf",
    "version": "2.0"
  },
  "buffers": [
    {
      "name": "Rock_A_01_LOD2",
      "byteLength": 17164,
      "uri": "data:application/octet-stream;base64,"
    }
  ],
  "bufferViews": [
    {
      "name": "bufferView_0",
      "buffer": 0,
      "byteLength": 672,
      "byteOffset": 0,
      "byteStride": 12,
      "target": 34962
    },
    {
      "name": "bufferView_1",
      "buffer": 0,
      "byteLength": 672,
      "byteOffset": 672,
      "byteStride": 12,
      "target": 34962
    },
    {
      "name": "bufferView_2",
      "buffer": 0,
      "byteLength": 448,
      "byteOffset": 1344,
      "byteStride": 8,
      "target": 34962
    },
    {
      "name": "bufferView_3",
      "buffer": 0,
      "byteLength": 648,
      "byteOffset": 1792,
      "target": 34963
    },
    {
      "buffer": 0,
      "byteOffset": 2440,
      "byteLength": 14724
    }
  ],
  "images": [
    {
      "name": "Nature-Palette",
      "mimeType": "image/png",
      "bufferView": 4
    }
  ],
  "materials": [
    {
      "name": "Mat_Nature",
      "pbrMetallicRoughness": {
        "baseColorTexture": {
          "index": 0
        },
        "baseColorFactor": [
          1,
          1,
          1,
          1
        ],
        "metallicFactor": 0,
        "roughnessFactor": 0.775
      },
      "emissiveFactor": [
        0,
        0,
        0
      ],
      "alphaMode": "OPAQUE",
      "doubleSided": false
    }
  ],
  "meshes": [
    {
      "name": "Rock_A_01_LOD2_Cube.736-Mesh",
      "primitives": [
        {
          "attributes": {
            "POSITION": 0,
            "NORMAL": 1,
            "TEXCOORD_0": 2
          },
          "indices": 3,
          "material": 0,
          "mode": 4
        }
      ]
    }
  ],
  "nodes": [
    {
      "name": "Rock_A_01_LOD2_Cube.736",
      "mesh": 0
    }
  ],
  "samplers": [
    {
      "wrapS": 10497,
      "wrapT": 10497
    }
  ],
  "scene": 0,
  "scenes": [
    {
      "nodes": [
        0
      ]
    }
  ],
  "textures": [
    {
      "name": "Nature-Palette",
      "sampler": 0,
      "source": 0
    }
  ]
}
