{
  "accessors": [
    {
      "name": "Rock_C_05_LOD2_Cube.764-Mesh_0_positions",
      "componentType": 5126,
      "count": 82,
      "min": [
        12.192771911621094,
        -0.11579500138759613,
        56.91083526611328
      ],
      "max": [
        17.390811920166016,
        2.663367986679077,
        62.3596076965332
      ],
      "type": "VEC3",
      "bufferView": 0,
      "byteOffset": 0
    },
    {
      "name": "Rock_C_05_LOD2_Cube.764-Mesh_0_normals",
      "componentType": 5126,
      "count": 82,
      "min": [
        -0.9474940896034241,
        -0.9997059106826782,
        -0.9380508065223694
      ],
      "max": [
        0.9716070294380188,
        0.9989631175994873,
        0.9976946115493774
      ],
      "type": "VEC3",
      "bufferView": 1,
      "byteOffset": 0
    },
    {
      "name": "Rock_C_05_LOD2_Cube.764-Mesh_0_texcoords",
      "componentType": 5126,
      "count": 82,
      "min": [
        0.2420240044593811,
        0.24641799926757812
      ],
      "max": [
        0.2420240044593811,
        0.24641799926757812
      ],
      "type": "VEC2",
      "bufferView": 2,
      "byteOffset": 0
    },
    {
      "name": "Rock_C_05_LOD2_Cube.764-Mesh_0_indices",
      "componentType": 5123,
      "count": 480,
      "min": [
        0
      ],
      "max": [
        81
      ],
      "type": "SCALAR",
      "bufferView": 3,
      "byteOffset": 0
    }
  ],
  "asset": {
    "generator": "obj2gltf",
    "version": "2.0"
  },
  "buffers": [
    {
      "name": "Rock_C_05_LOD2",
      "byteLength": 18308,
      "uri": "data:application/octet-stream;base64,"
    }
  ],
  "bufferViews": [
    {
      "name": "bufferView_0",
      "buffer": 0,
      "byteLength": 984,
      "byteOffset": 0,
      "byteStride": 12,
      "target": 34962
    },
    {
      "name": "bufferView_1",
      "buffer": 0,
      "byteLength": 984,
      "byteOffset": 984,
      "byteStride": 12,
      "target": 34962
    },
    {
      "name": "bufferView_2",
      "buffer": 0,
      "byteLength": 656,
      "byteOffset": 1968,
      "byteStride": 8,
      "target": 34962
    },
    {
      "name": "bufferView_3",
      "buffer": 0,
      "byteLength": 960,
      "byteOffset": 2624,
      "target": 34963
    },
    {
      "buffer": 0,
      "byteOffset": 3584,
      "byteLength": 14724
    }
  ],
  "images": [
    {
      "name": "Nature-Palette",
      "mimeType": "image/png",
      "bufferView": 4
    }
  ],
  "materials": [
    {
      "name": "Mat_Nature",
      "pbrMetallicRoughness": {
        "baseColorTexture": {
          "index": 0
        },
        "baseColorFactor": [
          1,
          1,
          1,
          1
        ],
        "metallicFactor": 0,
        "roughnessFactor": 0.775
      },
      "emissiveFactor": [
        0,
        0,
        0
      ],
      "alphaMode": "OPAQUE",
      "doubleSided": false
    }
  ],
  "meshes": [
    {
      "name": "Rock_C_05_LOD2_Cube.764-Mesh",
      "primitives": [
        {
          "attributes": {
            "POSITION": 0,
            "NORMAL": 1,
            "TEXCOORD_0": 2
          },
          "indices": 3,
          "material": 0,
          "mode": 4
        }
      ]
    }
  ],
  "nodes": [
    {
      "name": "Rock_C_05_LOD2_Cube.764",
      "mesh": 0
    }
  ],
  "samplers": [
    {
      "wrapS": 10497,
      "wrapT": 10497
    }
  ],
  "scene": 0,
  "scenes": [
    {
      "nodes": [
        0
      ]
    }
  ],
  "textures": [
    {
      "name": "Nature-Palette",
      "sampler": 0,
      "source": 0
    }
  ]
}
