{
  "accessors": [
    {
      "name": "Rock_B_01_LOD2_Cube.754-Mesh_0_positions",
      "componentType": 5126,
      "count": 82,
      "min": [
        53.08822250366211,
        -0.03831600025296211,
        47.99889373779297
      ],
      "max": [
        56.91899871826172,
        0.9598609805107117,
        51.92936325073242
      ],
      "type": "VEC3",
      "bufferView": 0,
      "byteOffset": 0
    },
    {
      "name": "Rock_B_01_LOD2_Cube.754-Mesh_0_normals",
      "componentType": 5126,
      "count": 82,
      "min": [
        -0.9099376797676086,
        -1,
        -0.9062750935554504
      ],
      "max": [
        0.8879127502441406,
        0.9997512698173523,
        0.9005577564239502
      ],
      "type": "VEC3",
      "bufferView": 1,
      "byteOffset": 0
    },
    {
      "name": "Rock_B_01_LOD2_Cube.754-Mesh_0_texcoords",
      "componentType": 5126,
      "count": 82,
      "min": [
        0.23983700573444366,
        0.25297999382019043
      ],
      "max": [
        0.23983700573444366,
        0.2529810070991516
      ],
      "type": "VEC2",
      "bufferView": 2,
      "byteOffset": 0
    },
    {
      "name": "Rock_B_01_LOD2_Cube.754-Mesh_0_indices",
      "componentType": 5123,
      "count": 480,
      "min": [
        0
      ],
      "max": [
        81
      ],
      "type": "SCALAR",
      "bufferView": 3,
      "byteOffset": 0
    }
  ],
  "asset": {
    "generator": "obj2gltf",
    "version": "2.0"
  },
  "buffers": [
    {
      "name": "Rock_B_01_LOD2",
      "byteLength": 18308,
      "uri": "data:application/octet-stream;base64,"
    }
  ],
  "bufferViews": [
    {
      "name": "bufferView_0",
      "buffer": 0,
      "byteLength": 984,
      "byteOffset": 0,
      "byteStride": 12,
      "target": 34962
    },
    {
      "name": "bufferView_1",
      "buffer": 0,
      "byteLength": 984,
      "byteOffset": 984,
      "byteStride": 12,
      "target": 34962
    },
    {
      "name": "bufferView_2",
      "buffer": 0,
      "byteLength": 656,
      "byteOffset": 1968,
      "byteStride": 8,
      "target": 34962
    },
    {
      "name": "bufferView_3",
      "buffer": 0,
      "byteLength": 960,
      "byteOffset": 2624,
      "target": 34963
    },
    {
      "buffer": 0,
      "byteOffset": 3584,
      "byteLength": 14724
    }
  ],
  "images": [
    {
      "name": "Nature-Palette",
      "mimeType": "image/png",
      "bufferView": 4
    }
  ],
  "materials": [
    {
      "name": "Mat_Nature",
      "pbrMetallicRoughness": {
        "baseColorTexture": {
          "index": 0
        },
        "baseColorFactor": [
          1,
          1,
          1,
          1
        ],
        "metallicFactor": 0,
        "roughnessFactor": 0.775
      },
      "emissiveFactor": [
        0,
        0,
        0
      ],
      "alphaMode": "OPAQUE",
      "doubleSided": false
    }
  ],
  "meshes": [
    {
      "name": "Rock_B_01_LOD2_Cube.754-Mesh",
      "primitives": [
        {
          "attributes": {
            "POSITION": 0,
            "NORMAL": 1,
            "TEXCOORD_0": 2
          },
          "indices": 3,
          "material": 0,
          "mode": 4
        }
      ]
    }
  ],
  "nodes": [
    {
      "name": "Rock_B_01_LOD2_Cube.754",
      "mesh": 0
    }
  ],
  "samplers": [
    {
      "wrapS": 10497,
      "wrapT": 10497
    }
  ],
  "scene": 0,
  "scenes": [
    {
      "nodes": [
        0
      ]
    }
  ],
  "textures": [
    {
      "name": "Nature-Palette",
      "sampler": 0,
      "source": 0
    }
  ]
}
