{
  "accessors": [
    {
      "name": "Root_03_LOD2_Cylinder.601-Mesh_0_positions",
      "componentType": 5126,
      "count": 205,
      "min": [
        53.17789840698242,
        -0.12162599712610245,
        27.19564437866211
      ],
      "max": [
        56.858116149902344,
        2.1859281063079834,
        32.961585998535156
      ],
      "type": "VEC3",
      "bufferView": 0,
      "byteOffset": 0
    },
    {
      "name": "Root_03_LOD2_Cylinder.601-Mesh_0_normals",
      "componentType": 5126,
      "count": 205,
      "min": [
        -0.9852333068847656,
        -1,
        -0.990230917930603
      ],
      "max": [
        0.9709773659706116,
        0.9818723797798157,
        0.9840934872627258
      ],
      "type": "VEC3",
      "bufferView": 1,
      "byteOffset": 0
    },
    {
      "name": "Root_03_LOD2_Cylinder.601-Mesh_0_texcoords",
      "componentType": 5126,
      "count": 205,
      "min": [
        0.9187139868736267,
        0.5801780223846436
      ],
      "max": [
        0.9187139868736267,
        0.5801780223846436
      ],
      "type": "VEC2",
      "bufferView": 2,
      "byteOffset": 0
    },
    {
      "name": "Root_03_LOD2_Cylinder.601-Mesh_0_indices",
      "componentType": 5123,
      "count": 1218,
      "min": [
        0
      ],
      "max": [
        204
      ],
      "type": "SCALAR",
      "bufferView": 3,
      "byteOffset": 0
    }
  ],
  "asset": {
    "generator": "obj2gltf",
    "version": "2.0"
  },
  "buffers": [
    {
      "name": "Root_03_LOD2",
      "byteLength": 23720,
      "uri": "data:application/octet-stream;base64,"
    }
  ],
  "bufferViews": [
    {
      "name": "bufferView_0",
      "buffer": 0,
      "byteLength": 2460,
      "byteOffset": 0,
      "byteStride": 12,
      "target": 34962
    },
    {
      "name": "bufferView_1",
      "buffer": 0,
      "byteLength": 2460,
      "byteOffset": 2460,
      "byteStride": 12,
      "target": 34962
    },
    {
      "name": "bufferView_2",
      "buffer": 0,
      "byteLength": 1640,
      "byteOffset": 4920,
      "byteStride": 8,
      "target": 34962
    },
    {
      "name": "bufferView_3",
      "buffer": 0,
      "byteLength": 2436,
      "byteOffset": 6560,
      "target": 34963
    },
    {
      "buffer": 0,
      "byteOffset": 8996,
      "byteLength": 14724
    }
  ],
  "images": [
    {
      "name": "Nature-Palette",
      "mimeType": "image/png",
      "bufferView": 4
    }
  ],
  "materials": [
    {
      "name": "Mat_Nature",
      "pbrMetallicRoughness": {
        "baseColorTexture": {
          "index": 0
        },
        "baseColorFactor": [
          1,
          1,
          1,
          1
        ],
        "metallicFactor": 0,
        "roughnessFactor": 0.775
      },
      "emissiveFactor": [
        0,
        0,
        0
      ],
      "alphaMode": "OPAQUE",
      "doubleSided": false
    }
  ],
  "meshes": [
    {
      "name": "Root_03_LOD2_Cylinder.601-Mesh",
      "primitives": [
        {
          "attributes": {
            "POSITION": 0,
            "NORMAL": 1,
            "TEXCOORD_0": 2
          },
          "indices": 3,
          "material": 0,
          "mode": 4
        }
      ]
    }
  ],
  "nodes": [
    {
      "name": "Root_03_LOD2_Cylinder.601",
      "mesh": 0
    }
  ],
  "samplers": [
    {
      "wrapS": 10497,
      "wrapT": 10497
    }
  ],
  "scene": 0,
  "scenes": [
    {
      "nodes": [
        0
      ]
    }
  ],
  "textures": [
    {
      "name": "Nature-Palette",
      "sampler": 0,
      "source": 0
    }
  ]
}
