{
  "accessors": [
    {
      "name": "Root_01_LOD2_Cylinder.603-Mesh_0_positions",
      "componentType": 5126,
      "count": 162,
      "min": [
        33.680145263671875,
        -0.12669600546360016,
        28.111377716064453
      ],
      "max": [
        36.86038589477539,
        2.7491660118103027,
        32.781036376953125
      ],
      "type": "VEC3",
      "bufferView": 0,
      "byteOffset": 0
    },
    {
      "name": "Root_01_LOD2_Cylinder.603-Mesh_0_normals",
      "componentType": 5126,
      "count": 162,
      "min": [
        -0.9920497536659241,
        -0.9999684691429138,
        -0.9240837693214417
      ],
      "max": [
        0.9974866509437561,
        0.9686214327812195,
        0.9846282601356506
      ],
      "type": "VEC3",
      "bufferView": 1,
      "byteOffset": 0
    },
    {
      "name": "Root_01_LOD2_Cylinder.603-Mesh_0_texcoords",
      "componentType": 5126,
      "count": 162,
      "min": [
        0.9187139868736267,
        0.5801780223846436
      ],
      "max": [
        0.9187139868736267,
        0.5801780223846436
      ],
      "type": "VEC2",
      "bufferView": 2,
      "byteOffset": 0
    },
    {
      "name": "Root_01_LOD2_Cylinder.603-Mesh_0_indices",
      "componentType": 5123,
      "count": 960,
      "min": [
        0
      ],
      "max": [
        161
      ],
      "type": "SCALAR",
      "bufferView": 3,
      "byteOffset": 0
    }
  ],
  "asset": {
    "generator": "obj2gltf",
    "version": "2.0"
  },
  "buffers": [
    {
      "name": "Root_01_LOD2",
      "byteLength": 21828,
      "uri": "data:application/octet-stream;base64,"
    }
  ],
  "bufferViews": [
    {
      "name": "bufferView_0",
      "buffer": 0,
      "byteLength": 1944,
      "byteOffset": 0,
      "byteStride": 12,
      "target": 34962
    },
    {
      "name": "bufferView_1",
      "buffer": 0,
      "byteLength": 1944,
      "byteOffset": 1944,
      "byteStride": 12,
      "target": 34962
    },
    {
      "name": "bufferView_2",
      "buffer": 0,
      "byteLength": 1296,
      "byteOffset": 3888,
      "byteStride": 8,
      "target": 34962
    },
    {
      "name": "bufferView_3",
      "buffer": 0,
      "byteLength": 1920,
      "byteOffset": 5184,
      "target": 34963
    },
    {
      "buffer": 0,
      "byteOffset": 7104,
      "byteLength": 14724
    }
  ],
  "images": [
    {
      "name": "Nature-Palette",
      "mimeType": "image/png",
      "bufferView": 4
    }
  ],
  "materials": [
    {
      "name": "Mat_Nature",
      "pbrMetallicRoughness": {
        "baseColorTexture": {
          "index": 0
        },
        "baseColorFactor": [
          1,
          1,
          1,
          1
        ],
        "metallicFactor": 0,
        "roughnessFactor": 0.775
      },
      "emissiveFactor": [
        0,
        0,
        0
      ],
      "alphaMode": "OPAQUE",
      "doubleSided": false
    }
  ],
  "meshes": [
    {
      "name": "Root_01_LOD2_Cylinder.603-Mesh",
      "primitives": [
        {
          "attributes": {
            "POSITION": 0,
            "NORMAL": 1,
            "TEXCOORD_0": 2
          },
          "indices": 3,
          "material": 0,
          "mode": 4
        }
      ]
    }
  ],
  "nodes": [
    {
      "name": "Root_01_LOD2_Cylinder.603",
      "mesh": 0
    }
  ],
  "samplers": [
    {
      "wrapS": 10497,
      "wrapT": 10497
    }
  ],
  "scene": 0,
  "scenes": [
    {
      "nodes": [
        0
      ]
    }
  ],
  "textures": [
    {
      "name": "Nature-Palette",
      "sampler": 0,
      "source": 0
    }
  ]
}
