{
  "accessors": [
    {
      "name": "Shrub_Top_B_03_LOD2_Cylinder.684-Mesh_0_positions",
      "componentType": 5126,
      "count": 120,
      "min": [
        -58.58282470703125,
        2.0514490604400635,
        -2.370347023010254
      ],
      "max": [
        -51.115089416503906,
        7.573609828948975,
        3.2678780555725098
      ],
      "type": "VEC3",
      "bufferView": 0,
      "byteOffset": 0
    },
    {
      "name": "Shrub_Top_B_03_LOD2_Cylinder.684-Mesh_0_normals",
      "componentType": 5126,
      "count": 120,
      "min": [
        -0.9935782551765442,
        -0.9959589242935181,
        -0.9873329997062683
      ],
      "max": [
        0.992273211479187,
        0.9982471466064453,
        0.9824011921882629
      ],
      "type": "VEC3",
      "bufferView": 1,
      "byteOffset": 0
    },
    {
      "name": "Shrub_Top_B_03_LOD2_Cylinder.684-Mesh_0_texcoords",
      "componentType": 5126,
      "count": 120,
      "min": [
        0.41043201088905334,
        0.5825309753417969
      ],
      "max": [
        0.41043201088905334,
        0.5825309753417969
      ],
      "type": "VEC2",
      "bufferView": 2,
      "byteOffset": 0
    },
    {
      "name": "Shrub_Top_B_03_LOD2_Cylinder.684-Mesh_0_indices",
      "componentType": 5123,
      "count": 684,
      "min": [
        0
      ],
      "max": [
        119
      ],
      "type": "SCALAR",
      "bufferView": 3,
      "byteOffset": 0
    }
  ],
  "asset": {
    "generator": "obj2gltf",
    "version": "2.0"
  },
  "buffers": [
    {
      "name": "Shrub_Top_B_03_LOD2",
      "byteLength": 19932,
      "uri": "data:application/octet-stream;base64,"
    }
  ],
  "bufferViews": [
    {
      "name": "bufferView_0",
      "buffer": 0,
      "byteLength": 1440,
      "byteOffset": 0,
      "byteStride": 12,
      "target": 34962
    },
    {
      "name": "bufferView_1",
      "buffer": 0,
      "byteLength": 1440,
      "byteOffset": 1440,
      "byteStride": 12,
      "target": 34962
    },
    {
      "name": "bufferView_2",
      "buffer": 0,
      "byteLength": 960,
      "byteOffset": 2880,
      "byteStride": 8,
      "target": 34962
    },
    {
      "name": "bufferView_3",
      "buffer": 0,
      "byteLength": 1368,
      "byteOffset": 3840,
      "target": 34963
    },
    {
      "buffer": 0,
      "byteOffset": 5208,
      "byteLength": 14724
    }
  ],
  "images": [
    {
      "name": "Nature-Palette",
      "mimeType": "image/png",
      "bufferView": 4
    }
  ],
  "materials": [
    {
      "name": "Mat_Nature",
      "pbrMetallicRoughness": {
        "baseColorTexture": {
          "index": 0
        },
        "baseColorFactor": [
          1,
          1,
          1,
          1
        ],
        "metallicFactor": 0,
        "roughnessFactor": 0.775
      },
      "emissiveFactor": [
        0,
        0,
        0
      ],
      "alphaMode": "OPAQUE",
      "doubleSided": false
    }
  ],
  "meshes": [
    {
      "name": "Shrub_Top_B_03_LOD2_Cylinder.684-Mesh",
      "primitives": [
        {
          "attributes": {
            "POSITION": 0,
            "NORMAL": 1,
            "TEXCOORD_0": 2
          },
          "indices": 3,
          "material": 0,
          "mode": 4
        }
      ]
    }
  ],
  "nodes": [
    {
      "name": "Shrub_Top_B_03_LOD2_Cylinder.684",
      "mesh": 0
    }
  ],
  "samplers": [
    {
      "wrapS": 10497,
      "wrapT": 10497
    }
  ],
  "scene": 0,
  "scenes": [
    {
      "nodes": [
        0
      ]
    }
  ],
  "textures": [
    {
      "name": "Nature-Palette",
      "sampler": 0,
      "source": 0
    }
  ]
}
