{
  "accessors": [
    {
      "name": "Shrub_Top_A_03_LOD2_Cylinder.727-Mesh_0_positions",
      "componentType": 5126,
      "count": 168,
      "min": [
        -29.28788948059082,
        1.904412031173706,
        -3.1931049823760986
      ],
      "max": [
        -21.905595779418945,
        7.014050006866455,
        3.166141986846924
      ],
      "type": "VEC3",
      "bufferView": 0,
      "byteOffset": 0
    },
    {
      "name": "Shrub_Top_A_03_LOD2_Cylinder.727-Mesh_0_normals",
      "componentType": 5126,
      "count": 168,
      "min": [
        -0.9808986186981201,
        -0.9908778071403503,
        -0.9871792197227478
      ],
      "max": [
        0.9758428931236267,
        0.9983323812484741,
        0.9764962196350098
      ],
      "type": "VEC3",
      "bufferView": 1,
      "byteOffset": 0
    },
    {
      "name": "Shrub_Top_A_03_LOD2_Cylinder.727-Mesh_0_texcoords",
      "componentType": 5126,
      "count": 168,
      "min": [
        0.4157339930534363,
        0.9195899963378906
      ],
      "max": [
        0.4157339930534363,
        0.9195899963378906
      ],
      "type": "VEC2",
      "bufferView": 2,
      "byteOffset": 0
    },
    {
      "name": "Shrub_Top_A_03_LOD2_Cylinder.727-Mesh_0_indices",
      "componentType": 5123,
      "count": 972,
      "min": [
        0
      ],
      "max": [
        167
      ],
      "type": "SCALAR",
      "bufferView": 3,
      "byteOffset": 0
    }
  ],
  "asset": {
    "generator": "obj2gltf",
    "version": "2.0"
  },
  "buffers": [
    {
      "name": "Shrub_Top_A_03_LOD2",
      "byteLength": 22044,
      "uri": "data:application/octet-stream;base64,"
    }
  ],
  "bufferViews": [
    {
      "name": "bufferView_0",
      "buffer": 0,
      "byteLength": 2016,
      "byteOffset": 0,
      "byteStride": 12,
      "target": 34962
    },
    {
      "name": "bufferView_1",
      "buffer": 0,
      "byteLength": 2016,
      "byteOffset": 2016,
      "byteStride": 12,
      "target": 34962
    },
    {
      "name": "bufferView_2",
      "buffer": 0,
      "byteLength": 1344,
      "byteOffset": 4032,
      "byteStride": 8,
      "target": 34962
    },
    {
      "name": "bufferView_3",
      "buffer": 0,
      "byteLength": 1944,
      "byteOffset": 5376,
      "target": 34963
    },
    {
      "buffer": 0,
      "byteOffset": 7320,
      "byteLength": 14724
    }
  ],
  "images": [
    {
      "name": "Nature-Palette",
      "mimeType": "image/png",
      "bufferView": 4
    }
  ],
  "materials": [
    {
      "name": "Mat_Nature",
      "pbrMetallicRoughness": {
        "baseColorTexture": {
          "index": 0
        },
        "baseColorFactor": [
          1,
          1,
          1,
          1
        ],
        "metallicFactor": 0,
        "roughnessFactor": 0.775
      },
      "emissiveFactor": [
        0,
        0,
        0
      ],
      "alphaMode": "OPAQUE",
      "doubleSided": false
    }
  ],
  "meshes": [
    {
      "name": "Shrub_Top_A_03_LOD2_Cylinder.727-Mesh",
      "primitives": [
        {
          "attributes": {
            "POSITION": 0,
            "NORMAL": 1,
            "TEXCOORD_0": 2
          },
          "indices": 3,
          "material": 0,
          "mode": 4
        }
      ]
    }
  ],
  "nodes": [
    {
      "name": "Shrub_Top_A_03_LOD2_Cylinder.727",
      "mesh": 0
    }
  ],
  "samplers": [
    {
      "wrapS": 10497,
      "wrapT": 10497
    }
  ],
  "scene": 0,
  "scenes": [
    {
      "nodes": [
        0
      ]
    }
  ],
  "textures": [
    {
      "name": "Nature-Palette",
      "sampler": 0,
      "source": 0
    }
  ]
}
