{
  "accessors": [
    {
      "name": "Shrub_Top_A_01_LOD2_Cylinder.729-Mesh_0_positions",
      "componentType": 5126,
      "count": 56,
      "min": [
        -7.515082836151123,
        2.4943439960479736,
        -2.433588981628418
      ],
      "max": [
        -2.514130115509033,
        5.92645788192749,
        2.596971035003662
      ],
      "type": "VEC3",
      "bufferView": 0,
      "byteOffset": 0
    },
    {
      "name": "Shrub_Top_A_01_LOD2_Cylinder.729-Mesh_0_normals",
      "componentType": 5126,
      "count": 56,
      "min": [
        -0.9543117880821228,
        -0.9814425110816956,
        -0.9139962792396545
      ],
      "max": [
        0.9461632966995239,
        0.9986106753349304,
        0.9262023568153381
      ],
      "type": "VEC3",
      "bufferView": 1,
      "byteOffset": 0
    },
    {
      "name": "Shrub_Top_A_01_LOD2_Cylinder.729-Mesh_0_texcoords",
      "componentType": 5126,
      "count": 56,
      "min": [
        0.4157339930534363,
        0.9195899963378906
      ],
      "max": [
        0.4157339930534363,
        0.9195899963378906
      ],
      "type": "VEC2",
      "bufferView": 2,
      "byteOffset": 0
    },
    {
      "name": "Shrub_Top_A_01_LOD2_Cylinder.729-Mesh_0_indices",
      "componentType": 5123,
      "count": 324,
      "min": [
        0
      ],
      "max": [
        55
      ],
      "type": "SCALAR",
      "bufferView": 3,
      "byteOffset": 0
    }
  ],
  "asset": {
    "generator": "obj2gltf",
    "version": "2.0"
  },
  "buffers": [
    {
      "name": "Shrub_Top_A_01_LOD2",
      "byteLength": 17164,
      "uri": "data:application/octet-stream;base64,"
    }
  ],
  "bufferViews": [
    {
      "name": "bufferView_0",
      "buffer": 0,
      "byteLength": 672,
      "byteOffset": 0,
      "byteStride": 12,
      "target": 34962
    },
    {
      "name": "bufferView_1",
      "buffer": 0,
      "byteLength": 672,
      "byteOffset": 672,
      "byteStride": 12,
      "target": 34962
    },
    {
      "name": "bufferView_2",
      "buffer": 0,
      "byteLength": 448,
      "byteOffset": 1344,
      "byteStride": 8,
      "target": 34962
    },
    {
      "name": "bufferView_3",
      "buffer": 0,
      "byteLength": 648,
      "byteOffset": 1792,
      "target": 34963
    },
    {
      "buffer": 0,
      "byteOffset": 2440,
      "byteLength": 14724
    }
  ],
  "images": [
    {
      "name": "Nature-Palette",
      "mimeType": "image/png",
      "bufferView": 4
    }
  ],
  "materials": [
    {
      "name": "Mat_Nature",
      "pbrMetallicRoughness": {
        "baseColorTexture": {
          "index": 0
        },
        "baseColorFactor": [
          1,
          1,
          1,
          1
        ],
        "metallicFactor": 0,
        "roughnessFactor": 0.775
      },
      "emissiveFactor": [
        0,
        0,
        0
      ],
      "alphaMode": "OPAQUE",
      "doubleSided": false
    }
  ],
  "meshes": [
    {
      "name": "Shrub_Top_A_01_LOD2_Cylinder.729-Mesh",
      "primitives": [
        {
          "attributes": {
            "POSITION": 0,
            "NORMAL": 1,
            "TEXCOORD_0": 2
          },
          "indices": 3,
          "material": 0,
          "mode": 4
        }
      ]
    }
  ],
  "nodes": [
    {
      "name": "Shrub_Top_A_01_LOD2_Cylinder.729",
      "mesh": 0
    }
  ],
  "samplers": [
    {
      "wrapS": 10497,
      "wrapT": 10497
    }
  ],
  "scene": 0,
  "scenes": [
    {
      "nodes": [
        0
      ]
    }
  ],
  "textures": [
    {
      "name": "Nature-Palette",
      "sampler": 0,
      "source": 0
    }
  ]
}
