{
  "accessors": [
    {
      "name": "Shrub_Btm_B_03_LOD2_Cylinder.681-Mesh_0_positions",
      "componentType": 5126,
      "count": 122,
      "min": [
        -56.40115737915039,
        -0.027164999395608902,
        -0.952252984046936
      ],
      "max": [
        -53.42266082763672,
        3.4684090614318848,
        1.5378880500793457
      ],
      "type": "VEC3",
      "bufferView": 0,
      "byteOffset": 0
    },
    {
      "name": "Shrub_Btm_B_03_LOD2_Cylinder.681-Mesh_0_normals",
      "componentType": 5126,
      "count": 122,
      "min": [
        -0.9991592764854431,
        -0.9997339248657227,
        -0.99378901720047
      ],
      "max": [
        0.9942031502723694,
        0.9977074861526489,
        0.9523134827613831
      ],
      "type": "VEC3",
      "bufferView": 1,
      "byteOffset": 0
    },
    {
      "name": "Shrub_Btm_B_03_LOD2_Cylinder.681-Mesh_0_texcoords",
      "componentType": 5126,
      "count": 122,
      "min": [
        0.9187139868736267,
        0.5801780223846436
      ],
      "max": [
        0.9187139868736267,
        0.5801780223846436
      ],
      "type": "VEC2",
      "bufferView": 2,
      "byteOffset": 0
    },
    {
      "name": "Shrub_Btm_B_03_LOD2_Cylinder.681-Mesh_0_indices",
      "componentType": 5123,
      "count": 720,
      "min": [
        0
      ],
      "max": [
        121
      ],
      "type": "SCALAR",
      "bufferView": 3,
      "byteOffset": 0
    }
  ],
  "asset": {
    "generator": "obj2gltf",
    "version": "2.0"
  },
  "buffers": [
    {
      "name": "Shrub_Btm_B_03_LOD2",
      "byteLength": 20068,
      "uri": "data:application/octet-stream;base64,"
    }
  ],
  "bufferViews": [
    {
      "name": "bufferView_0",
      "buffer": 0,
      "byteLength": 1464,
      "byteOffset": 0,
      "byteStride": 12,
      "target": 34962
    },
    {
      "name": "bufferView_1",
      "buffer": 0,
      "byteLength": 1464,
      "byteOffset": 1464,
      "byteStride": 12,
      "target": 34962
    },
    {
      "name": "bufferView_2",
      "buffer": 0,
      "byteLength": 976,
      "byteOffset": 2928,
      "byteStride": 8,
      "target": 34962
    },
    {
      "name": "bufferView_3",
      "buffer": 0,
      "byteLength": 1440,
      "byteOffset": 3904,
      "target": 34963
    },
    {
      "buffer": 0,
      "byteOffset": 5344,
      "byteLength": 14724
    }
  ],
  "images": [
    {
      "name": "Nature-Palette",
      "mimeType": "image/png",
      "bufferView": 4
    }
  ],
  "materials": [
    {
      "name": "Mat_Nature",
      "pbrMetallicRoughness": {
        "baseColorTexture": {
          "index": 0
        },
        "baseColorFactor": [
          1,
          1,
          1,
          1
        ],
        "metallicFactor": 0,
        "roughnessFactor": 0.775
      },
      "emissiveFactor": [
        0,
        0,
        0
      ],
      "alphaMode": "OPAQUE",
      "doubleSided": false
    }
  ],
  "meshes": [
    {
      "name": "Shrub_Btm_B_03_LOD2_Cylinder.681-Mesh",
      "primitives": [
        {
          "attributes": {
            "POSITION": 0,
            "NORMAL": 1,
            "TEXCOORD_0": 2
          },
          "indices": 3,
          "material": 0,
          "mode": 4
        }
      ]
    }
  ],
  "nodes": [
    {
      "name": "Shrub_Btm_B_03_LOD2_Cylinder.681",
      "mesh": 0
    }
  ],
  "samplers": [
    {
      "wrapS": 10497,
      "wrapT": 10497
    }
  ],
  "scene": 0,
  "scenes": [
    {
      "nodes": [
        0
      ]
    }
  ],
  "textures": [
    {
      "name": "Nature-Palette",
      "sampler": 0,
      "source": 0
    }
  ]
}
