{
  "accessors": [
    {
      "name": "Shrub_Btm_B_02_LOD2_Cylinder.682-Mesh_0_positions",
      "componentType": 5126,
      "count": 90,
      "min": [
        -46.459564208984375,
        0.01678300090134144,
        -0.5930690169334412
      ],
      "max": [
        -42.90753936767578,
        3.508647918701172,
        0.4241040050983429
      ],
      "type": "VEC3",
      "bufferView": 0,
      "byteOffset": 0
    },
    {
      "name": "Shrub_Btm_B_02_LOD2_Cylinder.682-Mesh_0_normals",
      "componentType": 5126,
      "count": 90,
      "min": [
        -0.897357702255249,
        -0.7676761150360107,
        -0.9981066584587097
      ],
      "max": [
        0.9278354048728943,
        0.8849533200263977,
        0.9970809817314148
      ],
      "type": "VEC3",
      "bufferView": 1,
      "byteOffset": 0
    },
    {
      "name": "Shrub_Btm_B_02_LOD2_Cylinder.682-Mesh_0_texcoords",
      "componentType": 5126,
      "count": 90,
      "min": [
        0.9187139868736267,
        0.5801780223846436
      ],
      "max": [
        0.9187139868736267,
        0.5801780223846436
      ],
      "type": "VEC2",
      "bufferView": 2,
      "byteOffset": 0
    },
    {
      "name": "Shrub_Btm_B_02_LOD2_Cylinder.682-Mesh_0_indices",
      "componentType": 5123,
      "count": 528,
      "min": [
        0
      ],
      "max": [
        89
      ],
      "type": "SCALAR",
      "bufferView": 3,
      "byteOffset": 0
    }
  ],
  "asset": {
    "generator": "obj2gltf",
    "version": "2.0"
  },
  "buffers": [
    {
      "name": "Shrub_Btm_B_02_LOD2",
      "byteLength": 18660,
      "uri": "data:application/octet-stream;base64,"
    }
  ],
  "bufferViews": [
    {
      "name": "bufferView_0",
      "buffer": 0,
      "byteLength": 1080,
      "byteOffset": 0,
      "byteStride": 12,
      "target": 34962
    },
    {
      "name": "bufferView_1",
      "buffer": 0,
      "byteLength": 1080,
      "byteOffset": 1080,
      "byteStride": 12,
      "target": 34962
    },
    {
      "name": "bufferView_2",
      "buffer": 0,
      "byteLength": 720,
      "byteOffset": 2160,
      "byteStride": 8,
      "target": 34962
    },
    {
      "name": "bufferView_3",
      "buffer": 0,
      "byteLength": 1056,
      "byteOffset": 2880,
      "target": 34963
    },
    {
      "buffer": 0,
      "byteOffset": 3936,
      "byteLength": 14724
    }
  ],
  "images": [
    {
      "name": "Nature-Palette",
      "mimeType": "image/png",
      "bufferView": 4
    }
  ],
  "materials": [
    {
      "name": "Mat_Nature",
      "pbrMetallicRoughness": {
        "baseColorTexture": {
          "index": 0
        },
        "baseColorFactor": [
          1,
          1,
          1,
          1
        ],
        "metallicFactor": 0,
        "roughnessFactor": 0.775
      },
      "emissiveFactor": [
        0,
        0,
        0
      ],
      "alphaMode": "OPAQUE",
      "doubleSided": false
    }
  ],
  "meshes": [
    {
      "name": "Shrub_Btm_B_02_LOD2_Cylinder.682-Mesh",
      "primitives": [
        {
          "attributes": {
            "POSITION": 0,
            "NORMAL": 1,
            "TEXCOORD_0": 2
          },
          "indices": 3,
          "material": 0,
          "mode": 4
        }
      ]
    }
  ],
  "nodes": [
    {
      "name": "Shrub_Btm_B_02_LOD2_Cylinder.682",
      "mesh": 0
    }
  ],
  "samplers": [
    {
      "wrapS": 10497,
      "wrapT": 10497
    }
  ],
  "scene": 0,
  "scenes": [
    {
      "nodes": [
        0
      ]
    }
  ],
  "textures": [
    {
      "name": "Nature-Palette",
      "sampler": 0,
      "source": 0
    }
  ]
}
