{
  "accessors": [
    {
      "name": "Shrub_Btm_A_03_LOD2_Cylinder.175-Mesh_0_positions",
      "componentType": 5126,
      "count": 36,
      "min": [
        -25.978818893432617,
        -0.029736999422311783,
        -0.4069559872150421
      ],
      "max": [
        -23.824588775634766,
        3.2397959232330322,
        0.8595479726791382
      ],
      "type": "VEC3",
      "bufferView": 0,
      "byteOffset": 0
    },
    {
      "name": "Shrub_Btm_A_03_LOD2_Cylinder.175-Mesh_0_normals",
      "componentType": 5126,
      "count": 36,
      "min": [
        -0.7653998136520386,
        -0.5767244100570679,
        -0.8694128394126892
      ],
      "max": [
        0.7375413775444031,
        0.9433892369270325,
        0.7919813394546509
      ],
      "type": "VEC3",
      "bufferView": 1,
      "byteOffset": 0
    },
    {
      "name": "Shrub_Btm_A_03_LOD2_Cylinder.175-Mesh_0_texcoords",
      "componentType": 5126,
      "count": 36,
      "min": [
        0.9187139868736267,
        0.5801780223846436
      ],
      "max": [
        0.9187139868736267,
        0.5801780223846436
      ],
      "type": "VEC2",
      "bufferView": 2,
      "byteOffset": 0
    },
    {
      "name": "Shrub_Btm_A_03_LOD2_Cylinder.175-Mesh_0_indices",
      "componentType": 5123,
      "count": 204,
      "min": [
        0
      ],
      "max": [
        35
      ],
      "type": "SCALAR",
      "bufferView": 3,
      "byteOffset": 0
    }
  ],
  "asset": {
    "generator": "obj2gltf",
    "version": "2.0"
  },
  "buffers": [
    {
      "name": "Shrub_Btm_A_03_LOD2",
      "byteLength": 16284,
      "uri": "data:application/octet-stream;base64,"
    }
  ],
  "bufferViews": [
    {
      "name": "bufferView_0",
      "buffer": 0,
      "byteLength": 432,
      "byteOffset": 0,
      "byteStride": 12,
      "target": 34962
    },
    {
      "name": "bufferView_1",
      "buffer": 0,
      "byteLength": 432,
      "byteOffset": 432,
      "byteStride": 12,
      "target": 34962
    },
    {
      "name": "bufferView_2",
      "buffer": 0,
      "byteLength": 288,
      "byteOffset": 864,
      "byteStride": 8,
      "target": 34962
    },
    {
      "name": "bufferView_3",
      "buffer": 0,
      "byteLength": 408,
      "byteOffset": 1152,
      "target": 34963
    },
    {
      "buffer": 0,
      "byteOffset": 1560,
      "byteLength": 14724
    }
  ],
  "images": [
    {
      "name": "Nature-Palette",
      "mimeType": "image/png",
      "bufferView": 4
    }
  ],
  "materials": [
    {
      "name": "Mat_Nature",
      "pbrMetallicRoughness": {
        "baseColorTexture": {
          "index": 0
        },
        "baseColorFactor": [
          1,
          1,
          1,
          1
        ],
        "metallicFactor": 0,
        "roughnessFactor": 0.775
      },
      "emissiveFactor": [
        0,
        0,
        0
      ],
      "alphaMode": "OPAQUE",
      "doubleSided": false
    }
  ],
  "meshes": [
    {
      "name": "Shrub_Btm_A_03_LOD2_Cylinder.175-Mesh",
      "primitives": [
        {
          "attributes": {
            "POSITION": 0,
            "NORMAL": 1,
            "TEXCOORD_0": 2
          },
          "indices": 3,
          "material": 0,
          "mode": 4
        }
      ]
    }
  ],
  "nodes": [
    {
      "name": "Shrub_Btm_A_03_LOD2_Cylinder.175",
      "mesh": 0
    }
  ],
  "samplers": [
    {
      "wrapS": 10497,
      "wrapT": 10497
    }
  ],
  "scene": 0,
  "scenes": [
    {
      "nodes": [
        0
      ]
    }
  ],
  "textures": [
    {
      "name": "Nature-Palette",
      "sampler": 0,
      "source": 0
    }
  ]
}
