{
  "accessors": [
    {
      "name": "Shrub_Top_B_01_LOD2_Cylinder.686-Mesh_0_positions",
      "componentType": 5126,
      "count": 42,
      "min": [
        -37.181427001953125,
        2.3729939460754395,
        -2.245604991912842
      ],
      "max": [
        -32.7238655090332,
        6.295862197875977,
        2.5282890796661377
      ],
      "type": "VEC3",
      "bufferView": 0,
      "byteOffset": 0
    },
    {
      "name": "Shrub_Top_B_01_LOD2_Cylinder.686-Mesh_0_normals",
      "componentType": 5126,
      "count": 42,
      "min": [
        -0.9699699282646179,
        -0.9993829727172852,
        -0.9684299826622009
      ],
      "max": [
        0.9817432761192322,
        0.9981986880302429,
        0.9792839288711548
      ],
      "type": "VEC3",
      "bufferView": 1,
      "byteOffset": 0
    },
    {
      "name": "Shrub_Top_B_01_LOD2_Cylinder.686-Mesh_0_texcoords",
      "componentType": 5126,
      "count": 42,
      "min": [
        0.41043201088905334,
        0.5825309753417969
      ],
      "max": [
        0.41043201088905334,
        0.5825309753417969
      ],
      "type": "VEC2",
      "bufferView": 2,
      "byteOffset": 0
    },
    {
      "name": "Shrub_Top_B_01_LOD2_Cylinder.686-Mesh_0_indices",
      "componentType": 5123,
      "count": 240,
      "min": [
        0
      ],
      "max": [
        41
      ],
      "type": "SCALAR",
      "bufferView": 3,
      "byteOffset": 0
    }
  ],
  "asset": {
    "generator": "obj2gltf",
    "version": "2.0"
  },
  "buffers": [
    {
      "name": "Shrub_Top_B_01_LOD2",
      "byteLength": 16548,
      "uri": "data:application/octet-stream;base64,"
    }
  ],
  "bufferViews": [
    {
      "name": "bufferView_0",
      "buffer": 0,
      "byteLength": 504,
      "byteOffset": 0,
      "byteStride": 12,
      "target": 34962
    },
    {
      "name": "bufferView_1",
      "buffer": 0,
      "byteLength": 504,
      "byteOffset": 504,
      "byteStride": 12,
      "target": 34962
    },
    {
      "name": "bufferView_2",
      "buffer": 0,
      "byteLength": 336,
      "byteOffset": 1008,
      "byteStride": 8,
      "target": 34962
    },
    {
      "name": "bufferView_3",
      "buffer": 0,
      "byteLength": 480,
      "byteOffset": 1344,
      "target": 34963
    },
    {
      "buffer": 0,
      "byteOffset": 1824,
      "byteLength": 14724
    }
  ],
  "images": [
    {
      "name": "Nature-Palette",
      "mimeType": "image/png",
      "bufferView": 4
    }
  ],
  "materials": [
    {
      "name": "Mat_Nature",
      "pbrMetallicRoughness": {
        "baseColorTexture": {
          "index": 0
        },
        "baseColorFactor": [
          1,
          1,
          1,
          1
        ],
        "metallicFactor": 0,
        "roughnessFactor": 0.775
      },
      "emissiveFactor": [
        0,
        0,
        0
      ],
      "alphaMode": "OPAQUE",
      "doubleSided": false
    }
  ],
  "meshes": [
    {
      "name": "Shrub_Top_B_01_LOD2_Cylinder.686-Mesh",
      "primitives": [
        {
          "attributes": {
            "POSITION": 0,
            "NORMAL": 1,
            "TEXCOORD_0": 2
          },
          "indices": 3,
          "material": 0,
          "mode": 4
        }
      ]
    }
  ],
  "nodes": [
    {
      "name": "Shrub_Top_B_01_LOD2_Cylinder.686",
      "mesh": 0
    }
  ],
  "samplers": [
    {
      "wrapS": 10497,
      "wrapT": 10497
    }
  ],
  "scene": 0,
  "scenes": [
    {
      "nodes": [
        0
      ]
    }
  ],
  "textures": [
    {
      "name": "Nature-Palette",
      "sampler": 0,
      "source": 0
    }
  ]
}
