{
  "accessors": [
    {
      "name": "Shrub_Top_B_02_LOD2_Cylinder.685-Mesh_0_positions",
      "componentType": 5126,
      "count": 74,
      "min": [
        -48.194854736328125,
        1.9845930337905884,
        -2.164163112640381
      ],
      "max": [
        -40.17817687988281,
        6.8896379470825195,
        2.3446600437164307
      ],
      "type": "VEC3",
      "bufferView": 0,
      "byteOffset": 0
    },
    {
      "name": "Shrub_Top_B_02_LOD2_Cylinder.685-Mesh_0_normals",
      "componentType": 5126,
      "count": 74,
      "min": [
        -0.9728670716285706,
        -0.9962875247001648,
        -0.9922128915786743
      ],
      "max": [
        0.9969708323478699,
        0.9984598159790039,
        0.9930171966552734
      ],
      "type": "VEC3",
      "bufferView": 1,
      "byteOffset": 0
    },
    {
      "name": "Shrub_Top_B_02_LOD2_Cylinder.685-Mesh_0_texcoords",
      "componentType": 5126,
      "count": 74,
      "min": [
        0.41043201088905334,
        0.5825309753417969
      ],
      "max": [
        0.41043201088905334,
        0.5825309753417969
      ],
      "type": "VEC2",
      "bufferView": 2,
      "byteOffset": 0
    },
    {
      "name": "Shrub_Top_B_02_LOD2_Cylinder.685-Mesh_0_indices",
      "componentType": 5123,
      "count": 420,
      "min": [
        0
      ],
      "max": [
        73
      ],
      "type": "SCALAR",
      "bufferView": 3,
      "byteOffset": 0
    }
  ],
  "asset": {
    "generator": "obj2gltf",
    "version": "2.0"
  },
  "buffers": [
    {
      "name": "Shrub_Top_B_02_LOD2",
      "byteLength": 17932,
      "uri": "data:application/octet-stream;base64,"
    }
  ],
  "bufferViews": [
    {
      "name": "bufferView_0",
      "buffer": 0,
      "byteLength": 888,
      "byteOffset": 0,
      "byteStride": 12,
      "target": 34962
    },
    {
      "name": "bufferView_1",
      "buffer": 0,
      "byteLength": 888,
      "byteOffset": 888,
      "byteStride": 12,
      "target": 34962
    },
    {
      "name": "bufferView_2",
      "buffer": 0,
      "byteLength": 592,
      "byteOffset": 1776,
      "byteStride": 8,
      "target": 34962
    },
    {
      "name": "bufferView_3",
      "buffer": 0,
      "byteLength": 840,
      "byteOffset": 2368,
      "target": 34963
    },
    {
      "buffer": 0,
      "byteOffset": 3208,
      "byteLength": 14724
    }
  ],
  "images": [
    {
      "name": "Nature-Palette",
      "mimeType": "image/png",
      "bufferView": 4
    }
  ],
  "materials": [
    {
      "name": "Mat_Nature",
      "pbrMetallicRoughness": {
        "baseColorTexture": {
          "index": 0
        },
        "baseColorFactor": [
          1,
          1,
          1,
          1
        ],
        "metallicFactor": 0,
        "roughnessFactor": 0.775
      },
      "emissiveFactor": [
        0,
        0,
        0
      ],
      "alphaMode": "OPAQUE",
      "doubleSided": false
    }
  ],
  "meshes": [
    {
      "name": "Shrub_Top_B_02_LOD2_Cylinder.685-Mesh",
      "primitives": [
        {
          "attributes": {
            "POSITION": 0,
            "NORMAL": 1,
            "TEXCOORD_0": 2
          },
          "indices": 3,
          "material": 0,
          "mode": 4
        }
      ]
    }
  ],
  "nodes": [
    {
      "name": "Shrub_Top_B_02_LOD2_Cylinder.685",
      "mesh": 0
    }
  ],
  "samplers": [
    {
      "wrapS": 10497,
      "wrapT": 10497
    }
  ],
  "scene": 0,
  "scenes": [
    {
      "nodes": [
        0
      ]
    }
  ],
  "textures": [
    {
      "name": "Nature-Palette",
      "sampler": 0,
      "source": 0
    }
  ]
}
