{
  "accessors": [
    {
      "name": "Shrub_Top_A_02_LOD2_Cylinder.728-Mesh_0_positions",
      "componentType": 5126,
      "count": 112,
      "min": [
        -18.5143985748291,
        1.2547639608383179,
        -2.4284350872039795
      ],
      "max": [
        -11.782793045043945,
        6.114731788635254,
        2.397761106491089
      ],
      "type": "VEC3",
      "bufferView": 0,
      "byteOffset": 0
    },
    {
      "name": "Shrub_Top_A_02_LOD2_Cylinder.728-Mesh_0_normals",
      "componentType": 5126,
      "count": 112,
      "min": [
        -0.9881705045700073,
        -0.9829188585281372,
        -0.9876964688301086
      ],
      "max": [
        0.9789063930511475,
        0.9975562691688538,
        0.9812424182891846
      ],
      "type": "VEC3",
      "bufferView": 1,
      "byteOffset": 0
    },
    {
      "name": "Shrub_Top_A_02_LOD2_Cylinder.728-Mesh_0_texcoords",
      "componentType": 5126,
      "count": 112,
      "min": [
        0.4157339930534363,
        0.9195899963378906
      ],
      "max": [
        0.4157339930534363,
        0.9195899963378906
      ],
      "type": "VEC2",
      "bufferView": 2,
      "byteOffset": 0
    },
    {
      "name": "Shrub_Top_A_02_LOD2_Cylinder.728-Mesh_0_indices",
      "componentType": 5123,
      "count": 648,
      "min": [
        0
      ],
      "max": [
        111
      ],
      "type": "SCALAR",
      "bufferView": 3,
      "byteOffset": 0
    }
  ],
  "asset": {
    "generator": "obj2gltf",
    "version": "2.0"
  },
  "buffers": [
    {
      "name": "Shrub_Top_A_02_LOD2",
      "byteLength": 19604,
      "uri": "data:application/octet-stream;base64,"
    }
  ],
  "bufferViews": [
    {
      "name": "bufferView_0",
      "buffer": 0,
      "byteLength": 1344,
      "byteOffset": 0,
      "byteStride": 12,
      "target": 34962
    },
    {
      "name": "bufferView_1",
      "buffer": 0,
      "byteLength": 1344,
      "byteOffset": 1344,
      "byteStride": 12,
      "target": 34962
    },
    {
      "name": "bufferView_2",
      "buffer": 0,
      "byteLength": 896,
      "byteOffset": 2688,
      "byteStride": 8,
      "target": 34962
    },
    {
      "name": "bufferView_3",
      "buffer": 0,
      "byteLength": 1296,
      "byteOffset": 3584,
      "target": 34963
    },
    {
      "buffer": 0,
      "byteOffset": 4880,
      "byteLength": 14724
    }
  ],
  "images": [
    {
      "name": "Nature-Palette",
      "mimeType": "image/png",
      "bufferView": 4
    }
  ],
  "materials": [
    {
      "name": "Mat_Nature",
      "pbrMetallicRoughness": {
        "baseColorTexture": {
          "index": 0
        },
        "baseColorFactor": [
          1,
          1,
          1,
          1
        ],
        "metallicFactor": 0,
        "roughnessFactor": 0.775
      },
      "emissiveFactor": [
        0,
        0,
        0
      ],
      "alphaMode": "OPAQUE",
      "doubleSided": false
    }
  ],
  "meshes": [
    {
      "name": "Shrub_Top_A_02_LOD2_Cylinder.728-Mesh",
      "primitives": [
        {
          "attributes": {
            "POSITION": 0,
            "NORMAL": 1,
            "TEXCOORD_0": 2
          },
          "indices": 3,
          "material": 0,
          "mode": 4
        }
      ]
    }
  ],
  "nodes": [
    {
      "name": "Shrub_Top_A_02_LOD2_Cylinder.728",
      "mesh": 0
    }
  ],
  "samplers": [
    {
      "wrapS": 10497,
      "wrapT": 10497
    }
  ],
  "scene": 0,
  "scenes": [
    {
      "nodes": [
        0
      ]
    }
  ],
  "textures": [
    {
      "name": "Nature-Palette",
      "sampler": 0,
      "source": 0
    }
  ]
}
