{
  "accessors": [
    {
      "name": "Shrub_Btm_B_01_LOD2_Cylinder.683-Mesh_0_positions",
      "componentType": 5126,
      "count": 84,
      "min": [
        -36.29829788208008,
        0.01420699991285801,
        -0.4729729890823364
      ],
      "max": [
        -33.95234298706055,
        3.581463098526001,
        0.8435419797897339
      ],
      "type": "VEC3",
      "bufferView": 0,
      "byteOffset": 0
    },
    {
      "name": "Shrub_Btm_B_01_LOD2_Cylinder.683-Mesh_0_normals",
      "componentType": 5126,
      "count": 84,
      "min": [
        -0.9320517778396606,
        -0.6615151166915894,
        -0.981590747833252
      ],
      "max": [
        0.9276158809661865,
        0.8681468367576599,
        0.9874715209007263
      ],
      "type": "VEC3",
      "bufferView": 1,
      "byteOffset": 0
    },
    {
      "name": "Shrub_Btm_B_01_LOD2_Cylinder.683-Mesh_0_texcoords",
      "componentType": 5126,
      "count": 84,
      "min": [
        0.9187139868736267,
        0.5801780223846436
      ],
      "max": [
        0.9187139868736267,
        0.5801780223846436
      ],
      "type": "VEC2",
      "bufferView": 2,
      "byteOffset": 0
    },
    {
      "name": "Shrub_Btm_B_01_LOD2_Cylinder.683-Mesh_0_indices",
      "componentType": 5123,
      "count": 492,
      "min": [
        0
      ],
      "max": [
        83
      ],
      "type": "SCALAR",
      "bufferView": 3,
      "byteOffset": 0
    }
  ],
  "asset": {
    "generator": "obj2gltf",
    "version": "2.0"
  },
  "buffers": [
    {
      "name": "Shrub_Btm_B_01_LOD2",
      "byteLength": 18396,
      "uri": "data:application/octet-stream;base64,"
    }
  ],
  "bufferViews": [
    {
      "name": "bufferView_0",
      "buffer": 0,
      "byteLength": 1008,
      "byteOffset": 0,
      "byteStride": 12,
      "target": 34962
    },
    {
      "name": "bufferView_1",
      "buffer": 0,
      "byteLength": 1008,
      "byteOffset": 1008,
      "byteStride": 12,
      "target": 34962
    },
    {
      "name": "bufferView_2",
      "buffer": 0,
      "byteLength": 672,
      "byteOffset": 2016,
      "byteStride": 8,
      "target": 34962
    },
    {
      "name": "bufferView_3",
      "buffer": 0,
      "byteLength": 984,
      "byteOffset": 2688,
      "target": 34963
    },
    {
      "buffer": 0,
      "byteOffset": 3672,
      "byteLength": 14724
    }
  ],
  "images": [
    {
      "name": "Nature-Palette",
      "mimeType": "image/png",
      "bufferView": 4
    }
  ],
  "materials": [
    {
      "name": "Mat_Nature",
      "pbrMetallicRoughness": {
        "baseColorTexture": {
          "index": 0
        },
        "baseColorFactor": [
          1,
          1,
          1,
          1
        ],
        "metallicFactor": 0,
        "roughnessFactor": 0.775
      },
      "emissiveFactor": [
        0,
        0,
        0
      ],
      "alphaMode": "OPAQUE",
      "doubleSided": false
    }
  ],
  "meshes": [
    {
      "name": "Shrub_Btm_B_01_LOD2_Cylinder.683-Mesh",
      "primitives": [
        {
          "attributes": {
            "POSITION": 0,
            "NORMAL": 1,
            "TEXCOORD_0": 2
          },
          "indices": 3,
          "material": 0,
          "mode": 4
        }
      ]
    }
  ],
  "nodes": [
    {
      "name": "Shrub_Btm_B_01_LOD2_Cylinder.683",
      "mesh": 0
    }
  ],
  "samplers": [
    {
      "wrapS": 10497,
      "wrapT": 10497
    }
  ],
  "scene": 0,
  "scenes": [
    {
      "nodes": [
        0
      ]
    }
  ],
  "textures": [
    {
      "name": "Nature-Palette",
      "sampler": 0,
      "source": 0
    }
  ]
}
