{
  "accessors": [
    {
      "name": "Stump_B_01_LOD2_Cylinder.600-Mesh_0_positions",
      "componentType": 5126,
      "count": 140,
      "min": [
        32.83964157104492,
        0,
        17.711353302001953
      ],
      "max": [
        36.51555252075195,
        2.2301859855651855,
        21.79752540588379
      ],
      "type": "VEC3",
      "bufferView": 0,
      "byteOffset": 0
    },
    {
      "name": "Stump_B_01_LOD2_Cylinder.600-Mesh_0_normals",
      "componentType": 5126,
      "count": 140,
      "min": [
        -0.8671867251396179,
        -1,
        -0.9407076835632324
      ],
      "max": [
        0.9866272807121277,
        0.9999988079071045,
        0.9869824051856995
      ],
      "type": "VEC3",
      "bufferView": 1,
      "byteOffset": 0
    },
    {
      "name": "Stump_B_01_LOD2_Cylinder.600-Mesh_0_texcoords",
      "componentType": 5126,
      "count": 140,
      "min": [
        0.5839800238609314,
        0.2580310106277466
      ],
      "max": [
        0.9187139868736267,
        0.7490689754486084
      ],
      "type": "VEC2",
      "bufferView": 2,
      "byteOffset": 0
    },
    {
      "name": "Stump_B_01_LOD2_Cylinder.600-Mesh_0_indices",
      "componentType": 5123,
      "count": 648,
      "min": [
        0
      ],
      "max": [
        139
      ],
      "type": "SCALAR",
      "bufferView": 3,
      "byteOffset": 0
    }
  ],
  "asset": {
    "generator": "obj2gltf",
    "version": "2.0"
  },
  "buffers": [
    {
      "name": "Stump_B_01_LOD2",
      "byteLength": 20500,
      "uri": "data:application/octet-stream;base64,"
    }
  ],
  "bufferViews": [
    {
      "name": "bufferView_0",
      "buffer": 0,
      "byteLength": 1680,
      "byteOffset": 0,
      "byteStride": 12,
      "target": 34962
    },
    {
      "name": "bufferView_1",
      "buffer": 0,
      "byteLength": 1680,
      "byteOffset": 1680,
      "byteStride": 12,
      "target": 34962
    },
    {
      "name": "bufferView_2",
      "buffer": 0,
      "byteLength": 1120,
      "byteOffset": 3360,
      "byteStride": 8,
      "target": 34962
    },
    {
      "name": "bufferView_3",
      "buffer": 0,
      "byteLength": 1296,
      "byteOffset": 4480,
      "target": 34963
    },
    {
      "buffer": 0,
      "byteOffset": 5776,
      "byteLength": 14724
    }
  ],
  "images": [
    {
      "name": "Nature-Palette",
      "mimeType": "image/png",
      "bufferView": 4
    }
  ],
  "materials": [
    {
      "name": "Mat_Nature",
      "pbrMetallicRoughness": {
        "baseColorTexture": {
          "index": 0
        },
        "baseColorFactor": [
          1,
          1,
          1,
          1
        ],
        "metallicFactor": 0,
        "roughnessFactor": 0.775
      },
      "emissiveFactor": [
        0,
        0,
        0
      ],
      "alphaMode": "OPAQUE",
      "doubleSided": false
    }
  ],
  "meshes": [
    {
      "name": "Stump_B_01_LOD2_Cylinder.600-Mesh",
      "primitives": [
        {
          "attributes": {
            "POSITION": 0,
            "NORMAL": 1,
            "TEXCOORD_0": 2
          },
          "indices": 3,
          "material": 0,
          "mode": 4
        }
      ]
    }
  ],
  "nodes": [
    {
      "name": "Stump_B_01_LOD2_Cylinder.600",
      "mesh": 0
    }
  ],
  "samplers": [
    {
      "wrapS": 10497,
      "wrapT": 10497
    }
  ],
  "scene": 0,
  "scenes": [
    {
      "nodes": [
        0
      ]
    }
  ],
  "textures": [
    {
      "name": "Nature-Palette",
      "sampler": 0,
      "source": 0
    }
  ]
}
