{
  "accessors": [
    {
      "name": "Stump_B_03_LOD2_Cylinder.598-Mesh_0_positions",
      "componentType": 5126,
      "count": 82,
      "min": [
        53.73383712768555,
        0,
        18.786190032958984
      ],
      "max": [
        56.275901794433594,
        2.7825849056243896,
        21.167587280273438
      ],
      "type": "VEC3",
      "bufferView": 0,
      "byteOffset": 0
    },
    {
      "name": "Stump_B_03_LOD2_Cylinder.598-Mesh_0_normals",
      "componentType": 5126,
      "count": 82,
      "min": [
        -0.9962632656097412,
        -1,
        -0.9953262805938721
      ],
      "max": [
        0.9949148893356323,
        0.9999579787254333,
        0.9933061003684998
      ],
      "type": "VEC3",
      "bufferView": 1,
      "byteOffset": 0
    },
    {
      "name": "Stump_B_03_LOD2_Cylinder.598-Mesh_0_texcoords",
      "componentType": 5126,
      "count": 82,
      "min": [
        0.5839800238609314,
        0.4253070056438446
      ],
      "max": [
        0.9204789996147156,
        0.7501189708709717
      ],
      "type": "VEC2",
      "bufferView": 2,
      "byteOffset": 0
    },
    {
      "name": "Stump_B_03_LOD2_Cylinder.598-Mesh_0_indices",
      "componentType": 5123,
      "count": 336,
      "min": [
        0
      ],
      "max": [
        81
      ],
      "type": "SCALAR",
      "bufferView": 3,
      "byteOffset": 0
    }
  ],
  "asset": {
    "generator": "obj2gltf",
    "version": "2.0"
  },
  "buffers": [
    {
      "name": "Stump_B_03_LOD2",
      "byteLength": 18020,
      "uri": "data:application/octet-stream;base64,"
    }
  ],
  "bufferViews": [
    {
      "name": "bufferView_0",
      "buffer": 0,
      "byteLength": 984,
      "byteOffset": 0,
      "byteStride": 12,
      "target": 34962
    },
    {
      "name": "bufferView_1",
      "buffer": 0,
      "byteLength": 984,
      "byteOffset": 984,
      "byteStride": 12,
      "target": 34962
    },
    {
      "name": "bufferView_2",
      "buffer": 0,
      "byteLength": 656,
      "byteOffset": 1968,
      "byteStride": 8,
      "target": 34962
    },
    {
      "name": "bufferView_3",
      "buffer": 0,
      "byteLength": 672,
      "byteOffset": 2624,
      "target": 34963
    },
    {
      "buffer": 0,
      "byteOffset": 3296,
      "byteLength": 14724
    }
  ],
  "images": [
    {
      "name": "Nature-Palette",
      "mimeType": "image/png",
      "bufferView": 4
    }
  ],
  "materials": [
    {
      "name": "Mat_Nature",
      "pbrMetallicRoughness": {
        "baseColorTexture": {
          "index": 0
        },
        "baseColorFactor": [
          1,
          1,
          1,
          1
        ],
        "metallicFactor": 0,
        "roughnessFactor": 0.775
      },
      "emissiveFactor": [
        0,
        0,
        0
      ],
      "alphaMode": "OPAQUE",
      "doubleSided": false
    }
  ],
  "meshes": [
    {
      "name": "Stump_B_03_LOD2_Cylinder.598-Mesh",
      "primitives": [
        {
          "attributes": {
            "POSITION": 0,
            "NORMAL": 1,
            "TEXCOORD_0": 2
          },
          "indices": 3,
          "material": 0,
          "mode": 4
        }
      ]
    }
  ],
  "nodes": [
    {
      "name": "Stump_B_03_LOD2_Cylinder.598",
      "mesh": 0
    }
  ],
  "samplers": [
    {
      "wrapS": 10497,
      "wrapT": 10497
    }
  ],
  "scene": 0,
  "scenes": [
    {
      "nodes": [
        0
      ]
    }
  ],
  "textures": [
    {
      "name": "Nature-Palette",
      "sampler": 0,
      "source": 0
    }
  ]
}
