{
  "accessors": [
    {
      "name": "Stump_B_02_LOD2_Cylinder.599-Mesh_0_positions",
      "componentType": 5126,
      "count": 132,
      "min": [
        43.08805465698242,
        0,
        18.487943649291992
      ],
      "max": [
        46.88201141357422,
        2.4141249656677246,
        21.633981704711914
      ],
      "type": "VEC3",
      "bufferView": 0,
      "byteOffset": 0
    },
    {
      "name": "Stump_B_02_LOD2_Cylinder.599-Mesh_0_normals",
      "componentType": 5126,
      "count": 132,
      "min": [
        -0.964246928691864,
        -1,
        -0.9873470067977905
      ],
      "max": [
        0.8865134716033936,
        0.9999954700469971,
        0.9936233162879944
      ],
      "type": "VEC3",
      "bufferView": 1,
      "byteOffset": 0
    },
    {
      "name": "Stump_B_02_LOD2_Cylinder.599-Mesh_0_texcoords",
      "componentType": 5126,
      "count": 132,
      "min": [
        0.5839800238609314,
        0.2580310106277466
      ],
      "max": [
        0.9187139868736267,
        0.7490699887275696
      ],
      "type": "VEC2",
      "bufferView": 2,
      "byteOffset": 0
    },
    {
      "name": "Stump_B_02_LOD2_Cylinder.599-Mesh_0_indices",
      "componentType": 5123,
      "count": 600,
      "min": [
        0
      ],
      "max": [
        131
      ],
      "type": "SCALAR",
      "bufferView": 3,
      "byteOffset": 0
    }
  ],
  "asset": {
    "generator": "obj2gltf",
    "version": "2.0"
  },
  "buffers": [
    {
      "name": "Stump_B_02_LOD2",
      "byteLength": 20148,
      "uri": "data:application/octet-stream;base64,"
    }
  ],
  "bufferViews": [
    {
      "name": "bufferView_0",
      "buffer": 0,
      "byteLength": 1584,
      "byteOffset": 0,
      "byteStride": 12,
      "target": 34962
    },
    {
      "name": "bufferView_1",
      "buffer": 0,
      "byteLength": 1584,
      "byteOffset": 1584,
      "byteStride": 12,
      "target": 34962
    },
    {
      "name": "bufferView_2",
      "buffer": 0,
      "byteLength": 1056,
      "byteOffset": 3168,
      "byteStride": 8,
      "target": 34962
    },
    {
      "name": "bufferView_3",
      "buffer": 0,
      "byteLength": 1200,
      "byteOffset": 4224,
      "target": 34963
    },
    {
      "buffer": 0,
      "byteOffset": 5424,
      "byteLength": 14724
    }
  ],
  "images": [
    {
      "name": "Nature-Palette",
      "mimeType": "image/png",
      "bufferView": 4
    }
  ],
  "materials": [
    {
      "name": "Mat_Nature",
      "pbrMetallicRoughness": {
        "baseColorTexture": {
          "index": 0
        },
        "baseColorFactor": [
          1,
          1,
          1,
          1
        ],
        "metallicFactor": 0,
        "roughnessFactor": 0.775
      },
      "emissiveFactor": [
        0,
        0,
        0
      ],
      "alphaMode": "OPAQUE",
      "doubleSided": false
    }
  ],
  "meshes": [
    {
      "name": "Stump_B_02_LOD2_Cylinder.599-Mesh",
      "primitives": [
        {
          "attributes": {
            "POSITION": 0,
            "NORMAL": 1,
            "TEXCOORD_0": 2
          },
          "indices": 3,
          "material": 0,
          "mode": 4
        }
      ]
    }
  ],
  "nodes": [
    {
      "name": "Stump_B_02_LOD2_Cylinder.599",
      "mesh": 0
    }
  ],
  "samplers": [
    {
      "wrapS": 10497,
      "wrapT": 10497
    }
  ],
  "scene": 0,
  "scenes": [
    {
      "nodes": [
        0
      ]
    }
  ],
  "textures": [
    {
      "name": "Nature-Palette",
      "sampler": 0,
      "source": 0
    }
  ]
}
