{
  "accessors": [
    {
      "name": "Tree_Btm_D_02_LOD2_Cylinder.668-Mesh_0_positions",
      "componentType": 5126,
      "count": 138,
      "min": [
        -16.853710174560547,
        0,
        -30.805917739868164
      ],
      "max": [
        -12.64061164855957,
        7.957347869873047,
        -29.319786071777344
      ],
      "type": "VEC3",
      "bufferView": 0,
      "byteOffset": 0
    },
    {
      "name": "Tree_Btm_D_02_LOD2_Cylinder.668-Mesh_0_normals",
      "componentType": 5126,
      "count": 138,
      "min": [
        -0.9497002959251404,
        -0.991222620010376,
        -0.9999769330024719
      ],
      "max": [
        0.9438950419425964,
        0.9570174813270569,
        0.9992839097976685
      ],
      "type": "VEC3",
      "bufferView": 1,
      "byteOffset": 0
    },
    {
      "name": "Tree_Btm_D_02_LOD2_Cylinder.668-Mesh_0_texcoords",
      "componentType": 5126,
      "count": 138,
      "min": [
        0.9178720116615295,
        0.5892999768257141
      ],
      "max": [
        0.9178720116615295,
        0.5892999768257141
      ],
      "type": "VEC2",
      "bufferView": 2,
      "byteOffset": 0
    },
    {
      "name": "Tree_Btm_D_02_LOD2_Cylinder.668-Mesh_0_indices",
      "componentType": 5123,
      "count": 816,
      "min": [
        0
      ],
      "max": [
        137
      ],
      "type": "SCALAR",
      "bufferView": 3,
      "byteOffset": 0
    }
  ],
  "asset": {
    "generator": "obj2gltf",
    "version": "2.0"
  },
  "buffers": [
    {
      "name": "Tree_Btm_D_02_LOD2",
      "byteLength": 20772,
      "uri": "data:application/octet-stream;base64,"
    }
  ],
  "bufferViews": [
    {
      "name": "bufferView_0",
      "buffer": 0,
      "byteLength": 1656,
      "byteOffset": 0,
      "byteStride": 12,
      "target": 34962
    },
    {
      "name": "bufferView_1",
      "buffer": 0,
      "byteLength": 1656,
      "byteOffset": 1656,
      "byteStride": 12,
      "target": 34962
    },
    {
      "name": "bufferView_2",
      "buffer": 0,
      "byteLength": 1104,
      "byteOffset": 3312,
      "byteStride": 8,
      "target": 34962
    },
    {
      "name": "bufferView_3",
      "buffer": 0,
      "byteLength": 1632,
      "byteOffset": 4416,
      "target": 34963
    },
    {
      "buffer": 0,
      "byteOffset": 6048,
      "byteLength": 14724
    }
  ],
  "images": [
    {
      "name": "Nature-Palette",
      "mimeType": "image/png",
      "bufferView": 4
    }
  ],
  "materials": [
    {
      "name": "Mat_Nature",
      "pbrMetallicRoughness": {
        "baseColorTexture": {
          "index": 0
        },
        "baseColorFactor": [
          1,
          1,
          1,
          1
        ],
        "metallicFactor": 0,
        "roughnessFactor": 0.775
      },
      "emissiveFactor": [
        0,
        0,
        0
      ],
      "alphaMode": "OPAQUE",
      "doubleSided": false
    }
  ],
  "meshes": [
    {
      "name": "Tree_Btm_D_02_LOD2_Cylinder.668-Mesh",
      "primitives": [
        {
          "attributes": {
            "POSITION": 0,
            "NORMAL": 1,
            "TEXCOORD_0": 2
          },
          "indices": 3,
          "material": 0,
          "mode": 4
        }
      ]
    }
  ],
  "nodes": [
    {
      "name": "Tree_Btm_D_02_LOD2_Cylinder.668",
      "mesh": 0
    }
  ],
  "samplers": [
    {
      "wrapS": 10497,
      "wrapT": 10497
    }
  ],
  "scene": 0,
  "scenes": [
    {
      "nodes": [
        0
      ]
    }
  ],
  "textures": [
    {
      "name": "Nature-Palette",
      "sampler": 0,
      "source": 0
    }
  ]
}
