{
  "accessors": [
    {
      "name": "Tree_Top_B_02_LOD2_Cylinder.678-Mesh_0_positions",
      "componentType": 5126,
      "count": 100,
      "min": [
        -49.42393493652344,
        3.6113040447235107,
        -23.778013229370117
      ],
      "max": [
        -39.75890350341797,
        10.44660758972168,
        -16.476835250854492
      ],
      "type": "VEC3",
      "bufferView": 0,
      "byteOffset": 0
    },
    {
      "name": "Tree_Top_B_02_LOD2_Cylinder.678-Mesh_0_normals",
      "componentType": 5126,
      "count": 100,
      "min": [
        -0.9807438850402832,
        -0.9965452551841736,
        -0.9939703345298767
      ],
      "max": [
        0.9852988123893738,
        0.9966490268707275,
        0.991025447845459
      ],
      "type": "VEC3",
      "bufferView": 1,
      "byteOffset": 0
    },
    {
      "name": "Tree_Top_B_02_LOD2_Cylinder.678-Mesh_0_texcoords",
      "componentType": 5126,
      "count": 100,
      "min": [
        0.4055800139904022,
        0.08892799913883209
      ],
      "max": [
        0.4055800139904022,
        0.08892799913883209
      ],
      "type": "VEC2",
      "bufferView": 2,
      "byteOffset": 0
    },
    {
      "name": "Tree_Top_B_02_LOD2_Cylinder.678-Mesh_0_indices",
      "componentType": 5123,
      "count": 576,
      "min": [
        0
      ],
      "max": [
        99
      ],
      "type": "SCALAR",
      "bufferView": 3,
      "byteOffset": 0
    }
  ],
  "asset": {
    "generator": "obj2gltf",
    "version": "2.0"
  },
  "buffers": [
    {
      "name": "Tree_Top_B_02_LOD2",
      "byteLength": 19076,
      "uri": "data:application/octet-stream;base64,"
    }
  ],
  "bufferViews": [
    {
      "name": "bufferView_0",
      "buffer": 0,
      "byteLength": 1200,
      "byteOffset": 0,
      "byteStride": 12,
      "target": 34962
    },
    {
      "name": "bufferView_1",
      "buffer": 0,
      "byteLength": 1200,
      "byteOffset": 1200,
      "byteStride": 12,
      "target": 34962
    },
    {
      "name": "bufferView_2",
      "buffer": 0,
      "byteLength": 800,
      "byteOffset": 2400,
      "byteStride": 8,
      "target": 34962
    },
    {
      "name": "bufferView_3",
      "buffer": 0,
      "byteLength": 1152,
      "byteOffset": 3200,
      "target": 34963
    },
    {
      "buffer": 0,
      "byteOffset": 4352,
      "byteLength": 14724
    }
  ],
  "images": [
    {
      "name": "Nature-Palette",
      "mimeType": "image/png",
      "bufferView": 4
    }
  ],
  "materials": [
    {
      "name": "Mat_Nature",
      "pbrMetallicRoughness": {
        "baseColorTexture": {
          "index": 0
        },
        "baseColorFactor": [
          1,
          1,
          1,
          1
        ],
        "metallicFactor": 0,
        "roughnessFactor": 0.775
      },
      "emissiveFactor": [
        0,
        0,
        0
      ],
      "alphaMode": "OPAQUE",
      "doubleSided": false
    }
  ],
  "meshes": [
    {
      "name": "Tree_Top_B_02_LOD2_Cylinder.678-Mesh",
      "primitives": [
        {
          "attributes": {
            "POSITION": 0,
            "NORMAL": 1,
            "TEXCOORD_0": 2
          },
          "indices": 3,
          "material": 0,
          "mode": 4
        }
      ]
    }
  ],
  "nodes": [
    {
      "name": "Tree_Top_B_02_LOD2_Cylinder.678",
      "mesh": 0
    }
  ],
  "samplers": [
    {
      "wrapS": 10497,
      "wrapT": 10497
    }
  ],
  "scene": 0,
  "scenes": [
    {
      "nodes": [
        0
      ]
    }
  ],
  "textures": [
    {
      "name": "Nature-Palette",
      "sampler": 0,
      "source": 0
    }
  ]
}
