{
  "accessors": [
    {
      "name": "Tree_Top_B_01_LOD2_Cylinder.680-Mesh_0_positions",
      "componentType": 5126,
      "count": 50,
      "min": [
        -37.379310607910156,
        4.01511812210083,
        -22.65372657775879
      ],
      "max": [
        -32.197486877441406,
        8.85753059387207,
        -17.237022399902344
      ],
      "type": "VEC3",
      "bufferView": 0,
      "byteOffset": 0
    },
    {
      "name": "Tree_Top_B_01_LOD2_Cylinder.680-Mesh_0_normals",
      "componentType": 5126,
      "count": 50,
      "min": [
        -0.9231070280075073,
        -0.9990605115890503,
        -0.9341938495635986
      ],
      "max": [
        0.9186685681343079,
        0.9975081086158752,
        0.9117124080657959
      ],
      "type": "VEC3",
      "bufferView": 1,
      "byteOffset": 0
    },
    {
      "name": "Tree_Top_B_01_LOD2_Cylinder.680-Mesh_0_texcoords",
      "componentType": 5126,
      "count": 50,
      "min": [
        0.4055800139904022,
        0.08892799913883209
      ],
      "max": [
        0.4055800139904022,
        0.08892799913883209
      ],
      "type": "VEC2",
      "bufferView": 2,
      "byteOffset": 0
    },
    {
      "name": "Tree_Top_B_01_LOD2_Cylinder.680-Mesh_0_indices",
      "componentType": 5123,
      "count": 288,
      "min": [
        0
      ],
      "max": [
        49
      ],
      "type": "SCALAR",
      "bufferView": 3,
      "byteOffset": 0
    }
  ],
  "asset": {
    "generator": "obj2gltf",
    "version": "2.0"
  },
  "buffers": [
    {
      "name": "Tree_Top_B_01_LOD2",
      "byteLength": 16900,
      "uri": "data:application/octet-stream;base64,"
    }
  ],
  "bufferViews": [
    {
      "name": "bufferView_0",
      "buffer": 0,
      "byteLength": 600,
      "byteOffset": 0,
      "byteStride": 12,
      "target": 34962
    },
    {
      "name": "bufferView_1",
      "buffer": 0,
      "byteLength": 600,
      "byteOffset": 600,
      "byteStride": 12,
      "target": 34962
    },
    {
      "name": "bufferView_2",
      "buffer": 0,
      "byteLength": 400,
      "byteOffset": 1200,
      "byteStride": 8,
      "target": 34962
    },
    {
      "name": "bufferView_3",
      "buffer": 0,
      "byteLength": 576,
      "byteOffset": 1600,
      "target": 34963
    },
    {
      "buffer": 0,
      "byteOffset": 2176,
      "byteLength": 14724
    }
  ],
  "images": [
    {
      "name": "Nature-Palette",
      "mimeType": "image/png",
      "bufferView": 4
    }
  ],
  "materials": [
    {
      "name": "Mat_Nature",
      "pbrMetallicRoughness": {
        "baseColorTexture": {
          "index": 0
        },
        "baseColorFactor": [
          1,
          1,
          1,
          1
        ],
        "metallicFactor": 0,
        "roughnessFactor": 0.775
      },
      "emissiveFactor": [
        0,
        0,
        0
      ],
      "alphaMode": "OPAQUE",
      "doubleSided": false
    }
  ],
  "meshes": [
    {
      "name": "Tree_Top_B_01_LOD2_Cylinder.680-Mesh",
      "primitives": [
        {
          "attributes": {
            "POSITION": 0,
            "NORMAL": 1,
            "TEXCOORD_0": 2
          },
          "indices": 3,
          "material": 0,
          "mode": 4
        }
      ]
    }
  ],
  "nodes": [
    {
      "name": "Tree_Top_B_01_LOD2_Cylinder.680",
      "mesh": 0
    }
  ],
  "samplers": [
    {
      "wrapS": 10497,
      "wrapT": 10497
    }
  ],
  "scene": 0,
  "scenes": [
    {
      "nodes": [
        0
      ]
    }
  ],
  "textures": [
    {
      "name": "Nature-Palette",
      "sampler": 0,
      "source": 0
    }
  ]
}
