{
  "accessors": [
    {
      "name": "TreeSimple_02_LOD2_Cylinder.593-Mesh_0_positions",
      "componentType": 5126,
      "count": 170,
      "min": [
        42.996788024902344,
        0.0038739999290555716,
        -42.00332260131836
      ],
      "max": [
        47.00326919555664,
        10.742777824401855,
        -37.99344253540039
      ],
      "type": "VEC3",
      "bufferView": 0,
      "byteOffset": 0
    },
    {
      "name": "TreeSimple_02_LOD2_Cylinder.593-Mesh_0_normals",
      "componentType": 5126,
      "count": 170,
      "min": [
        -0.9776937961578369,
        -0.9999997615814209,
        -0.984529972076416
      ],
      "max": [
        0.9759987592697144,
        0.99994295835495,
        0.9797759652137756
      ],
      "type": "VEC3",
      "bufferView": 1,
      "byteOffset": 0
    },
    {
      "name": "TreeSimple_02_LOD2_Cylinder.593-Mesh_0_texcoords",
      "componentType": 5126,
      "count": 170,
      "min": [
        0.5751379728317261,
        0.42017999291419983
      ],
      "max": [
        0.9187139868736267,
        0.75
      ],
      "type": "VEC2",
      "bufferView": 2,
      "byteOffset": 0
    },
    {
      "name": "TreeSimple_02_LOD2_Cylinder.593-Mesh_0_indices",
      "componentType": 5123,
      "count": 978,
      "min": [
        0
      ],
      "max": [
        169
      ],
      "type": "SCALAR",
      "bufferView": 3,
      "byteOffset": 0
    }
  ],
  "asset": {
    "generator": "obj2gltf",
    "version": "2.0"
  },
  "buffers": [
    {
      "name": "TreeSimple_02_LOD2",
      "byteLength": 22120,
      "uri": "data:application/octet-stream;base64,"
    }
  ],
  "bufferViews": [
    {
      "name": "bufferView_0",
      "buffer": 0,
      "byteLength": 2040,
      "byteOffset": 0,
      "byteStride": 12,
      "target": 34962
    },
    {
      "name": "bufferView_1",
      "buffer": 0,
      "byteLength": 2040,
      "byteOffset": 2040,
      "byteStride": 12,
      "target": 34962
    },
    {
      "name": "bufferView_2",
      "buffer": 0,
      "byteLength": 1360,
      "byteOffset": 4080,
      "byteStride": 8,
      "target": 34962
    },
    {
      "name": "bufferView_3",
      "buffer": 0,
      "byteLength": 1956,
      "byteOffset": 5440,
      "target": 34963
    },
    {
      "buffer": 0,
      "byteOffset": 7396,
      "byteLength": 14724
    }
  ],
  "images": [
    {
      "name": "Nature-Palette",
      "mimeType": "image/png",
      "bufferView": 4
    }
  ],
  "materials": [
    {
      "name": "Mat_Nature",
      "pbrMetallicRoughness": {
        "baseColorTexture": {
          "index": 0
        },
        "baseColorFactor": [
          1,
          1,
          1,
          1
        ],
        "metallicFactor": 0,
        "roughnessFactor": 0.775
      },
      "emissiveFactor": [
        0,
        0,
        0
      ],
      "alphaMode": "OPAQUE",
      "doubleSided": false
    }
  ],
  "meshes": [
    {
      "name": "TreeSimple_02_LOD2_Cylinder.593-Mesh",
      "primitives": [
        {
          "attributes": {
            "POSITION": 0,
            "NORMAL": 1,
            "TEXCOORD_0": 2
          },
          "indices": 3,
          "material": 0,
          "mode": 4
        }
      ]
    }
  ],
  "nodes": [
    {
      "name": "TreeSimple_02_LOD2_Cylinder.593",
      "mesh": 0
    }
  ],
  "samplers": [
    {
      "wrapS": 10497,
      "wrapT": 10497
    }
  ],
  "scene": 0,
  "scenes": [
    {
      "nodes": [
        0
      ]
    }
  ],
  "textures": [
    {
      "name": "Nature-Palette",
      "sampler": 0,
      "source": 0
    }
  ]
}
