{
  "accessors": [
    {
      "name": "Tree_Btm_D_03_LOD2_Cylinder.667-Mesh_0_positions",
      "componentType": 5126,
      "count": 122,
      "min": [
        -26.634057998657227,
        0.004755000118166208,
        -31.120634078979492
      ],
      "max": [
        -23.524749755859375,
        9.433930397033691,
        -29.06565284729004
      ],
      "type": "VEC3",
      "bufferView": 0,
      "byteOffset": 0
    },
    {
      "name": "Tree_Btm_D_03_LOD2_Cylinder.667-Mesh_0_normals",
      "componentType": 5126,
      "count": 122,
      "min": [
        -0.9340030550956726,
        -0.9942314624786377,
        -0.9989547729492188
      ],
      "max": [
        0.8936368227005005,
        0.9883590340614319,
        0.9990688562393188
      ],
      "type": "VEC3",
      "bufferView": 1,
      "byteOffset": 0
    },
    {
      "name": "Tree_Btm_D_03_LOD2_Cylinder.667-Mesh_0_texcoords",
      "componentType": 5126,
      "count": 122,
      "min": [
        0.9178720116615295,
        0.5892999768257141
      ],
      "max": [
        0.9178720116615295,
        0.5892999768257141
      ],
      "type": "VEC2",
      "bufferView": 2,
      "byteOffset": 0
    },
    {
      "name": "Tree_Btm_D_03_LOD2_Cylinder.667-Mesh_0_indices",
      "componentType": 5123,
      "count": 720,
      "min": [
        0
      ],
      "max": [
        121
      ],
      "type": "SCALAR",
      "bufferView": 3,
      "byteOffset": 0
    }
  ],
  "asset": {
    "generator": "obj2gltf",
    "version": "2.0"
  },
  "buffers": [
    {
      "name": "Tree_Btm_D_03_LOD2",
      "byteLength": 20068,
      "uri": "data:application/octet-stream;base64,"
    }
  ],
  "bufferViews": [
    {
      "name": "bufferView_0",
      "buffer": 0,
      "byteLength": 1464,
      "byteOffset": 0,
      "byteStride": 12,
      "target": 34962
    },
    {
      "name": "bufferView_1",
      "buffer": 0,
      "byteLength": 1464,
      "byteOffset": 1464,
      "byteStride": 12,
      "target": 34962
    },
    {
      "name": "bufferView_2",
      "buffer": 0,
      "byteLength": 976,
      "byteOffset": 2928,
      "byteStride": 8,
      "target": 34962
    },
    {
      "name": "bufferView_3",
      "buffer": 0,
      "byteLength": 1440,
      "byteOffset": 3904,
      "target": 34963
    },
    {
      "buffer": 0,
      "byteOffset": 5344,
      "byteLength": 14724
    }
  ],
  "images": [
    {
      "name": "Nature-Palette",
      "mimeType": "image/png",
      "bufferView": 4
    }
  ],
  "materials": [
    {
      "name": "Mat_Nature",
      "pbrMetallicRoughness": {
        "baseColorTexture": {
          "index": 0
        },
        "baseColorFactor": [
          1,
          1,
          1,
          1
        ],
        "metallicFactor": 0,
        "roughnessFactor": 0.775
      },
      "emissiveFactor": [
        0,
        0,
        0
      ],
      "alphaMode": "OPAQUE",
      "doubleSided": false
    }
  ],
  "meshes": [
    {
      "name": "Tree_Btm_D_03_LOD2_Cylinder.667-Mesh",
      "primitives": [
        {
          "attributes": {
            "POSITION": 0,
            "NORMAL": 1,
            "TEXCOORD_0": 2
          },
          "indices": 3,
          "material": 0,
          "mode": 4
        }
      ]
    }
  ],
  "nodes": [
    {
      "name": "Tree_Btm_D_03_LOD2_Cylinder.667",
      "mesh": 0
    }
  ],
  "samplers": [
    {
      "wrapS": 10497,
      "wrapT": 10497
    }
  ],
  "scene": 0,
  "scenes": [
    {
      "nodes": [
        0
      ]
    }
  ],
  "textures": [
    {
      "name": "Nature-Palette",
      "sampler": 0,
      "source": 0
    }
  ]
}
