{
  "accessors": [
    {
      "name": "TreeGiant_A_02_LOD2_Cylinder.811-Mesh_0_positions",
      "componentType": 5126,
      "count": 1086,
      "min": [
        -38.53859329223633,
        -0.6156079769134521,
        -53.06859588623047
      ],
      "max": [
        -20.062389373779297,
        17.66204833984375,
        -38.2707405090332
      ],
      "type": "VEC3",
      "bufferView": 0,
      "byteOffset": 0
    },
    {
      "name": "TreeGiant_A_02_LOD2_Cylinder.811-Mesh_0_normals",
      "componentType": 5126,
      "count": 1086,
      "min": [
        -0.9990479350090027,
        -0.9997906684875488,
        -0.9986227750778198
      ],
      "max": [
        0.9992826581001282,
        0.9979836940765381,
        0.9958093166351318
      ],
      "type": "VEC3",
      "bufferView": 1,
      "byteOffset": 0
    },
    {
      "name": "TreeGiant_A_02_LOD2_Cylinder.811-Mesh_0_texcoords",
      "componentType": 5126,
      "count": 1086,
      "min": [
        0.5776119828224182,
        0.08728999644517899
      ],
      "max": [
        0.9184749722480774,
        0.5851770043373108
      ],
      "type": "VEC2",
      "bufferView": 2,
      "byteOffset": 0
    },
    {
      "name": "TreeGiant_A_02_LOD2_Cylinder.811-Mesh_0_indices",
      "componentType": 5123,
      "count": 5556,
      "min": [
        0
      ],
      "max": [
        1085
      ],
      "type": "SCALAR",
      "bufferView": 3,
      "byteOffset": 0
    }
  ],
  "asset": {
    "generator": "obj2gltf",
    "version": "2.0"
  },
  "buffers": [
    {
      "name": "TreeGiant_A_02_LOD2",
      "byteLength": 60588,
      "uri": "data:application/octet-stream;base64,"
    }
  ],
  "bufferViews": [
    {
      "name": "bufferView_0",
      "buffer": 0,
      "byteLength": 13032,
      "byteOffset": 0,
      "byteStride": 12,
      "target": 34962
    },
    {
      "name": "bufferView_1",
      "buffer": 0,
      "byteLength": 13032,
      "byteOffset": 13032,
      "byteStride": 12,
      "target": 34962
    },
    {
      "name": "bufferView_2",
      "buffer": 0,
      "byteLength": 8688,
      "byteOffset": 26064,
      "byteStride": 8,
      "target": 34962
    },
    {
      "name": "bufferView_3",
      "buffer": 0,
      "byteLength": 11112,
      "byteOffset": 34752,
      "target": 34963
    },
    {
      "buffer": 0,
      "byteOffset": 45864,
      "byteLength": 14724
    }
  ],
  "images": [
    {
      "name": "Nature-Palette",
      "mimeType": "image/png",
      "bufferView": 4
    }
  ],
  "materials": [
    {
      "name": "Mat_Nature",
      "pbrMetallicRoughness": {
        "baseColorTexture": {
          "index": 0
        },
        "baseColorFactor": [
          1,
          1,
          1,
          1
        ],
        "metallicFactor": 0,
        "roughnessFactor": 0.775
      },
      "emissiveFactor": [
        0,
        0,
        0
      ],
      "alphaMode": "OPAQUE",
      "doubleSided": false
    }
  ],
  "meshes": [
    {
      "name": "TreeGiant_A_02_LOD2_Cylinder.811-Mesh",
      "primitives": [
        {
          "attributes": {
            "POSITION": 0,
            "NORMAL": 1,
            "TEXCOORD_0": 2
          },
          "indices": 3,
          "material": 0,
          "mode": 4
        }
      ]
    }
  ],
  "nodes": [
    {
      "name": "TreeGiant_A_02_LOD2_Cylinder.811",
      "mesh": 0
    }
  ],
  "samplers": [
    {
      "wrapS": 10497,
      "wrapT": 10497
    }
  ],
  "scene": 0,
  "scenes": [
    {
      "nodes": [
        0
      ]
    }
  ],
  "textures": [
    {
      "name": "Nature-Palette",
      "sampler": 0,
      "source": 0
    }
  ]
}
