{
  "accessors": [
    {
      "name": "Tree_Top_D_02_LOD2_Cylinder.665-Mesh_0_positions",
      "componentType": 5126,
      "count": 325,
      "min": [
        -18.37948226928711,
        4.495738983154297,
        -33.544193267822266
      ],
      "max": [
        -11.501749038696289,
        11.807123184204102,
        -26.786205291748047
      ],
      "type": "VEC3",
      "bufferView": 0,
      "byteOffset": 0
    },
    {
      "name": "Tree_Top_D_02_LOD2_Cylinder.665-Mesh_0_normals",
      "componentType": 5126,
      "count": 325,
      "min": [
        -0.9953913688659668,
        -0.9995377063751221,
        -0.9956164360046387
      ],
      "max": [
        0.9981969594955444,
        0.9924681186676025,
        0.9977977871894836
      ],
      "type": "VEC3",
      "bufferView": 1,
      "byteOffset": 0
    },
    {
      "name": "Tree_Top_D_02_LOD2_Cylinder.665-Mesh_0_texcoords",
      "componentType": 5126,
      "count": 325,
      "min": [
        0.4121440052986145,
        0.08682599663734436
      ],
      "max": [
        0.4121440052986145,
        0.08682599663734436
      ],
      "type": "VEC2",
      "bufferView": 2,
      "byteOffset": 0
    },
    {
      "name": "Tree_Top_D_02_LOD2_Cylinder.665-Mesh_0_indices",
      "componentType": 5123,
      "count": 1926,
      "min": [
        0
      ],
      "max": [
        324
      ],
      "type": "SCALAR",
      "bufferView": 3,
      "byteOffset": 0
    }
  ],
  "asset": {
    "generator": "obj2gltf",
    "version": "2.0"
  },
  "buffers": [
    {
      "name": "Tree_Top_D_02_LOD2",
      "byteLength": 28976,
      "uri": "data:application/octet-stream;base64,"
    }
  ],
  "bufferViews": [
    {
      "name": "bufferView_0",
      "buffer": 0,
      "byteLength": 3900,
      "byteOffset": 0,
      "byteStride": 12,
      "target": 34962
    },
    {
      "name": "bufferView_1",
      "buffer": 0,
      "byteLength": 3900,
      "byteOffset": 3900,
      "byteStride": 12,
      "target": 34962
    },
    {
      "name": "bufferView_2",
      "buffer": 0,
      "byteLength": 2600,
      "byteOffset": 7800,
      "byteStride": 8,
      "target": 34962
    },
    {
      "name": "bufferView_3",
      "buffer": 0,
      "byteLength": 3852,
      "byteOffset": 10400,
      "target": 34963
    },
    {
      "buffer": 0,
      "byteOffset": 14252,
      "byteLength": 14724
    }
  ],
  "images": [
    {
      "name": "Nature-Palette",
      "mimeType": "image/png",
      "bufferView": 4
    }
  ],
  "materials": [
    {
      "name": "Mat_Nature",
      "pbrMetallicRoughness": {
        "baseColorTexture": {
          "index": 0
        },
        "baseColorFactor": [
          1,
          1,
          1,
          1
        ],
        "metallicFactor": 0,
        "roughnessFactor": 0.775
      },
      "emissiveFactor": [
        0,
        0,
        0
      ],
      "alphaMode": "OPAQUE",
      "doubleSided": false
    }
  ],
  "meshes": [
    {
      "name": "Tree_Top_D_02_LOD2_Cylinder.665-Mesh",
      "primitives": [
        {
          "attributes": {
            "POSITION": 0,
            "NORMAL": 1,
            "TEXCOORD_0": 2
          },
          "indices": 3,
          "material": 0,
          "mode": 4
        }
      ]
    }
  ],
  "nodes": [
    {
      "name": "Tree_Top_D_02_LOD2_Cylinder.665",
      "mesh": 0
    }
  ],
  "samplers": [
    {
      "wrapS": 10497,
      "wrapT": 10497
    }
  ],
  "scene": 0,
  "scenes": [
    {
      "nodes": [
        0
      ]
    }
  ],
  "textures": [
    {
      "name": "Nature-Palette",
      "sampler": 0,
      "source": 0
    }
  ]
}
