{
  "accessors": [
    {
      "name": "Tree_Btm_A_01_LOD2_Cylinder.739-Mesh_0_positions",
      "componentType": 5126,
      "count": 78,
      "min": [
        -6.174596786499023,
        -0.004259999841451645,
        -20.538610458374023
      ],
      "max": [
        -3.7641549110412598,
        7.201669216156006,
        -19.203550338745117
      ],
      "type": "VEC3",
      "bufferView": 0,
      "byteOffset": 0
    },
    {
      "name": "Tree_Btm_A_01_LOD2_Cylinder.739-Mesh_0_normals",
      "componentType": 5126,
      "count": 78,
      "min": [
        -0.9987247586250305,
        -0.9999632239341736,
        -0.9278280735015869
      ],
      "max": [
        0.9988734722137451,
        0.7823076844215393,
        0.9998165369033813
      ],
      "type": "VEC3",
      "bufferView": 1,
      "byteOffset": 0
    },
    {
      "name": "Tree_Btm_A_01_LOD2_Cylinder.739-Mesh_0_texcoords",
      "componentType": 5126,
      "count": 78,
      "min": [
        0.9187139868736267,
        0.42274799942970276
      ],
      "max": [
        0.9187139868736267,
        0.42274799942970276
      ],
      "type": "VEC2",
      "bufferView": 2,
      "byteOffset": 0
    },
    {
      "name": "Tree_Btm_A_01_LOD2_Cylinder.739-Mesh_0_indices",
      "componentType": 5123,
      "count": 456,
      "min": [
        0
      ],
      "max": [
        77
      ],
      "type": "SCALAR",
      "bufferView": 3,
      "byteOffset": 0
    }
  ],
  "asset": {
    "generator": "obj2gltf",
    "version": "2.0"
  },
  "buffers": [
    {
      "name": "Tree_Btm_A_01_LOD2",
      "byteLength": 18132,
      "uri": "data:application/octet-stream;base64,"
    }
  ],
  "bufferViews": [
    {
      "name": "bufferView_0",
      "buffer": 0,
      "byteLength": 936,
      "byteOffset": 0,
      "byteStride": 12,
      "target": 34962
    },
    {
      "name": "bufferView_1",
      "buffer": 0,
      "byteLength": 936,
      "byteOffset": 936,
      "byteStride": 12,
      "target": 34962
    },
    {
      "name": "bufferView_2",
      "buffer": 0,
      "byteLength": 624,
      "byteOffset": 1872,
      "byteStride": 8,
      "target": 34962
    },
    {
      "name": "bufferView_3",
      "buffer": 0,
      "byteLength": 912,
      "byteOffset": 2496,
      "target": 34963
    },
    {
      "buffer": 0,
      "byteOffset": 3408,
      "byteLength": 14724
    }
  ],
  "images": [
    {
      "name": "Nature-Palette",
      "mimeType": "image/png",
      "bufferView": 4
    }
  ],
  "materials": [
    {
      "name": "Mat_Nature",
      "pbrMetallicRoughness": {
        "baseColorTexture": {
          "index": 0
        },
        "baseColorFactor": [
          1,
          1,
          1,
          1
        ],
        "metallicFactor": 0,
        "roughnessFactor": 0.775
      },
      "emissiveFactor": [
        0,
        0,
        0
      ],
      "alphaMode": "OPAQUE",
      "doubleSided": false
    }
  ],
  "meshes": [
    {
      "name": "Tree_Btm_A_01_LOD2_Cylinder.739-Mesh",
      "primitives": [
        {
          "attributes": {
            "POSITION": 0,
            "NORMAL": 1,
            "TEXCOORD_0": 2
          },
          "indices": 3,
          "material": 0,
          "mode": 4
        }
      ]
    }
  ],
  "nodes": [
    {
      "name": "Tree_Btm_A_01_LOD2_Cylinder.739",
      "mesh": 0
    }
  ],
  "samplers": [
    {
      "wrapS": 10497,
      "wrapT": 10497
    }
  ],
  "scene": 0,
  "scenes": [
    {
      "nodes": [
        0
      ]
    }
  ],
  "textures": [
    {
      "name": "Nature-Palette",
      "sampler": 0,
      "source": 0
    }
  ]
}
