{
  "accessors": [
    {
      "name": "Tree_Top_A_02_LOD2_Cylinder.738-Mesh_0_positions",
      "componentType": 5126,
      "count": 138,
      "min": [
        -18.591819763183594,
        4.472986221313477,
        -23.980134963989258
      ],
      "max": [
        -9.4320650100708,
        10.520672798156738,
        -15.887995719909668
      ],
      "type": "VEC3",
      "bufferView": 0,
      "byteOffset": 0
    },
    {
      "name": "Tree_Top_A_02_LOD2_Cylinder.738-Mesh_0_normals",
      "componentType": 5126,
      "count": 138,
      "min": [
        -0.9825887084007263,
        -0.9901070594787598,
        -0.9851337671279907
      ],
      "max": [
        0.9773563146591187,
        0.9982783794403076,
        0.9890924692153931
      ],
      "type": "VEC3",
      "bufferView": 1,
      "byteOffset": 0
    },
    {
      "name": "Tree_Top_A_02_LOD2_Cylinder.738-Mesh_0_texcoords",
      "componentType": 5126,
      "count": 138,
      "min": [
        0.2575260102748871,
        0.08132000267505646
      ],
      "max": [
        0.2575260102748871,
        0.08132000267505646
      ],
      "type": "VEC2",
      "bufferView": 2,
      "byteOffset": 0
    },
    {
      "name": "Tree_Top_A_02_LOD2_Cylinder.738-Mesh_0_indices",
      "componentType": 5123,
      "count": 792,
      "min": [
        0
      ],
      "max": [
        137
      ],
      "type": "SCALAR",
      "bufferView": 3,
      "byteOffset": 0
    }
  ],
  "asset": {
    "generator": "obj2gltf",
    "version": "2.0"
  },
  "buffers": [
    {
      "name": "Tree_Top_A_02_LOD2",
      "byteLength": 20724,
      "uri": "data:application/octet-stream;base64,"
    }
  ],
  "bufferViews": [
    {
      "name": "bufferView_0",
      "buffer": 0,
      "byteLength": 1656,
      "byteOffset": 0,
      "byteStride": 12,
      "target": 34962
    },
    {
      "name": "bufferView_1",
      "buffer": 0,
      "byteLength": 1656,
      "byteOffset": 1656,
      "byteStride": 12,
      "target": 34962
    },
    {
      "name": "bufferView_2",
      "buffer": 0,
      "byteLength": 1104,
      "byteOffset": 3312,
      "byteStride": 8,
      "target": 34962
    },
    {
      "name": "bufferView_3",
      "buffer": 0,
      "byteLength": 1584,
      "byteOffset": 4416,
      "target": 34963
    },
    {
      "buffer": 0,
      "byteOffset": 6000,
      "byteLength": 14724
    }
  ],
  "images": [
    {
      "name": "Nature-Palette",
      "mimeType": "image/png",
      "bufferView": 4
    }
  ],
  "materials": [
    {
      "name": "Mat_Nature",
      "pbrMetallicRoughness": {
        "baseColorTexture": {
          "index": 0
        },
        "baseColorFactor": [
          1,
          1,
          1,
          1
        ],
        "metallicFactor": 0,
        "roughnessFactor": 0.775
      },
      "emissiveFactor": [
        0,
        0,
        0
      ],
      "alphaMode": "OPAQUE",
      "doubleSided": false
    }
  ],
  "meshes": [
    {
      "name": "Tree_Top_A_02_LOD2_Cylinder.738-Mesh",
      "primitives": [
        {
          "attributes": {
            "POSITION": 0,
            "NORMAL": 1,
            "TEXCOORD_0": 2
          },
          "indices": 3,
          "material": 0,
          "mode": 4
        }
      ]
    }
  ],
  "nodes": [
    {
      "name": "Tree_Top_A_02_LOD2_Cylinder.738",
      "mesh": 0
    }
  ],
  "samplers": [
    {
      "wrapS": 10497,
      "wrapT": 10497
    }
  ],
  "scene": 0,
  "scenes": [
    {
      "nodes": [
        0
      ]
    }
  ],
  "textures": [
    {
      "name": "Nature-Palette",
      "sampler": 0,
      "source": 0
    }
  ]
}
