{
  "accessors": [
    {
      "name": "TreeGiant_B_01_LOD2_Cylinder.810-Mesh_0_positions",
      "componentType": 5126,
      "count": 1332,
      "min": [
        -59.43827819824219,
        -0.4093390107154846,
        -53.68571853637695
      ],
      "max": [
        -40.36114501953125,
        20.161699295043945,
        -35.48912048339844
      ],
      "type": "VEC3",
      "bufferView": 0,
      "byteOffset": 0
    },
    {
      "name": "TreeGiant_B_01_LOD2_Cylinder.810-Mesh_0_normals",
      "componentType": 5126,
      "count": 1332,
      "min": [
        -0.9986347556114197,
        -0.9999983310699463,
        -0.9983810782432556
      ],
      "max": [
        0.9958072304725647,
        0.9996379017829895,
        0.9999604821205139
      ],
      "type": "VEC3",
      "bufferView": 1,
      "byteOffset": 0
    },
    {
      "name": "TreeGiant_B_01_LOD2_Cylinder.810-Mesh_0_texcoords",
      "componentType": 5126,
      "count": 1332,
      "min": [
        0.7465000152587891,
        0.08729100227355957
      ],
      "max": [
        0.9135259985923767,
        0.41847899556159973
      ],
      "type": "VEC2",
      "bufferView": 2,
      "byteOffset": 0
    },
    {
      "name": "TreeGiant_B_01_LOD2_Cylinder.810-Mesh_0_indices",
      "componentType": 5123,
      "count": 7884,
      "min": [
        0
      ],
      "max": [
        1331
      ],
      "type": "SCALAR",
      "bufferView": 3,
      "byteOffset": 0
    }
  ],
  "asset": {
    "generator": "obj2gltf",
    "version": "2.0"
  },
  "buffers": [
    {
      "name": "TreeGiant_B_01_LOD2",
      "byteLength": 73116,
      "uri": "data:application/octet-stream;base64,"
    }
  ],
  "bufferViews": [
    {
      "name": "bufferView_0",
      "buffer": 0,
      "byteLength": 15984,
      "byteOffset": 0,
      "byteStride": 12,
      "target": 34962
    },
    {
      "name": "bufferView_1",
      "buffer": 0,
      "byteLength": 15984,
      "byteOffset": 15984,
      "byteStride": 12,
      "target": 34962
    },
    {
      "name": "bufferView_2",
      "buffer": 0,
      "byteLength": 10656,
      "byteOffset": 31968,
      "byteStride": 8,
      "target": 34962
    },
    {
      "name": "bufferView_3",
      "buffer": 0,
      "byteLength": 15768,
      "byteOffset": 42624,
      "target": 34963
    },
    {
      "buffer": 0,
      "byteOffset": 58392,
      "byteLength": 14724
    }
  ],
  "images": [
    {
      "name": "Nature-Palette",
      "mimeType": "image/png",
      "bufferView": 4
    }
  ],
  "materials": [
    {
      "name": "Mat_Nature",
      "pbrMetallicRoughness": {
        "baseColorTexture": {
          "index": 0
        },
        "baseColorFactor": [
          1,
          1,
          1,
          1
        ],
        "metallicFactor": 0,
        "roughnessFactor": 0.775
      },
      "emissiveFactor": [
        0,
        0,
        0
      ],
      "alphaMode": "OPAQUE",
      "doubleSided": false
    }
  ],
  "meshes": [
    {
      "name": "TreeGiant_B_01_LOD2_Cylinder.810-Mesh",
      "primitives": [
        {
          "attributes": {
            "POSITION": 0,
            "NORMAL": 1,
            "TEXCOORD_0": 2
          },
          "indices": 3,
          "material": 0,
          "mode": 4
        }
      ]
    }
  ],
  "nodes": [
    {
      "name": "TreeGiant_B_01_LOD2_Cylinder.810",
      "mesh": 0
    }
  ],
  "samplers": [
    {
      "wrapS": 10497,
      "wrapT": 10497
    }
  ],
  "scene": 0,
  "scenes": [
    {
      "nodes": [
        0
      ]
    }
  ],
  "textures": [
    {
      "name": "Nature-Palette",
      "sampler": 0,
      "source": 0
    }
  ]
}
