{
  "accessors": [
    {
      "name": "Tree_Btm_A_02_LOD2_Cylinder.741-Mesh_0_positions",
      "componentType": 5126,
      "count": 114,
      "min": [
        -17.02428436279297,
        0,
        -22.02452278137207
      ],
      "max": [
        -12.633590698242188,
        8.812505722045898,
        -18.77747344970703
      ],
      "type": "VEC3",
      "bufferView": 0,
      "byteOffset": 0
    },
    {
      "name": "Tree_Btm_A_02_LOD2_Cylinder.741-Mesh_0_normals",
      "componentType": 5126,
      "count": 114,
      "min": [
        -0.9390098452568054,
        -1,
        -0.9994559288024902
      ],
      "max": [
        0.9437578320503235,
        0.982221245765686,
        0.9990705251693726
      ],
      "type": "VEC3",
      "bufferView": 1,
      "byteOffset": 0
    },
    {
      "name": "Tree_Btm_A_02_LOD2_Cylinder.741-Mesh_0_texcoords",
      "componentType": 5126,
      "count": 114,
      "min": [
        0.9187139868736267,
        0.42274799942970276
      ],
      "max": [
        0.9187139868736267,
        0.42274799942970276
      ],
      "type": "VEC2",
      "bufferView": 2,
      "byteOffset": 0
    },
    {
      "name": "Tree_Btm_A_02_LOD2_Cylinder.741-Mesh_0_indices",
      "componentType": 5123,
      "count": 672,
      "min": [
        0
      ],
      "max": [
        113
      ],
      "type": "SCALAR",
      "bufferView": 3,
      "byteOffset": 0
    }
  ],
  "asset": {
    "generator": "obj2gltf",
    "version": "2.0"
  },
  "buffers": [
    {
      "name": "Tree_Btm_A_02_LOD2",
      "byteLength": 19716,
      "uri": "data:application/octet-stream;base64,"
    }
  ],
  "bufferViews": [
    {
      "name": "bufferView_0",
      "buffer": 0,
      "byteLength": 1368,
      "byteOffset": 0,
      "byteStride": 12,
      "target": 34962
    },
    {
      "name": "bufferView_1",
      "buffer": 0,
      "byteLength": 1368,
      "byteOffset": 1368,
      "byteStride": 12,
      "target": 34962
    },
    {
      "name": "bufferView_2",
      "buffer": 0,
      "byteLength": 912,
      "byteOffset": 2736,
      "byteStride": 8,
      "target": 34962
    },
    {
      "name": "bufferView_3",
      "buffer": 0,
      "byteLength": 1344,
      "byteOffset": 3648,
      "target": 34963
    },
    {
      "buffer": 0,
      "byteOffset": 4992,
      "byteLength": 14724
    }
  ],
  "images": [
    {
      "name": "Nature-Palette",
      "mimeType": "image/png",
      "bufferView": 4
    }
  ],
  "materials": [
    {
      "name": "Mat_Nature",
      "pbrMetallicRoughness": {
        "baseColorTexture": {
          "index": 0
        },
        "baseColorFactor": [
          1,
          1,
          1,
          1
        ],
        "metallicFactor": 0,
        "roughnessFactor": 0.775
      },
      "emissiveFactor": [
        0,
        0,
        0
      ],
      "alphaMode": "OPAQUE",
      "doubleSided": false
    }
  ],
  "meshes": [
    {
      "name": "Tree_Btm_A_02_LOD2_Cylinder.741-Mesh",
      "primitives": [
        {
          "attributes": {
            "POSITION": 0,
            "NORMAL": 1,
            "TEXCOORD_0": 2
          },
          "indices": 3,
          "material": 0,
          "mode": 4
        }
      ]
    }
  ],
  "nodes": [
    {
      "name": "Tree_Btm_A_02_LOD2_Cylinder.741",
      "mesh": 0
    }
  ],
  "samplers": [
    {
      "wrapS": 10497,
      "wrapT": 10497
    }
  ],
  "scene": 0,
  "scenes": [
    {
      "nodes": [
        0
      ]
    }
  ],
  "textures": [
    {
      "name": "Nature-Palette",
      "sampler": 0,
      "source": 0
    }
  ]
}
