{
  "accessors": [
    {
      "name": "Tree_Btm_A_03_LOD2_Cylinder.740-Mesh_0_positions",
      "componentType": 5126,
      "count": 126,
      "min": [
        -27.438108444213867,
        -0.0010870000114664435,
        -22.35685157775879
      ],
      "max": [
        -22.833118438720703,
        8.928135871887207,
        -18.213882446289062
      ],
      "type": "VEC3",
      "bufferView": 0,
      "byteOffset": 0
    },
    {
      "name": "Tree_Btm_A_03_LOD2_Cylinder.740-Mesh_0_normals",
      "componentType": 5126,
      "count": 126,
      "min": [
        -0.9946967363357544,
        -0.9999339580535889,
        -0.9964967370033264
      ],
      "max": [
        0.9776843190193176,
        0.9154911041259766,
        0.9989430904388428
      ],
      "type": "VEC3",
      "bufferView": 1,
      "byteOffset": 0
    },
    {
      "name": "Tree_Btm_A_03_LOD2_Cylinder.740-Mesh_0_texcoords",
      "componentType": 5126,
      "count": 126,
      "min": [
        0.9187139868736267,
        0.42274799942970276
      ],
      "max": [
        0.9187139868736267,
        0.42274799942970276
      ],
      "type": "VEC2",
      "bufferView": 2,
      "byteOffset": 0
    },
    {
      "name": "Tree_Btm_A_03_LOD2_Cylinder.740-Mesh_0_indices",
      "componentType": 5123,
      "count": 744,
      "min": [
        0
      ],
      "max": [
        125
      ],
      "type": "SCALAR",
      "bufferView": 3,
      "byteOffset": 0
    }
  ],
  "asset": {
    "generator": "obj2gltf",
    "version": "2.0"
  },
  "buffers": [
    {
      "name": "Tree_Btm_A_03_LOD2",
      "byteLength": 20244,
      "uri": "data:application/octet-stream;base64,"
    }
  ],
  "bufferViews": [
    {
      "name": "bufferView_0",
      "buffer": 0,
      "byteLength": 1512,
      "byteOffset": 0,
      "byteStride": 12,
      "target": 34962
    },
    {
      "name": "bufferView_1",
      "buffer": 0,
      "byteLength": 1512,
      "byteOffset": 1512,
      "byteStride": 12,
      "target": 34962
    },
    {
      "name": "bufferView_2",
      "buffer": 0,
      "byteLength": 1008,
      "byteOffset": 3024,
      "byteStride": 8,
      "target": 34962
    },
    {
      "name": "bufferView_3",
      "buffer": 0,
      "byteLength": 1488,
      "byteOffset": 4032,
      "target": 34963
    },
    {
      "buffer": 0,
      "byteOffset": 5520,
      "byteLength": 14724
    }
  ],
  "images": [
    {
      "name": "Nature-Palette",
      "mimeType": "image/png",
      "bufferView": 4
    }
  ],
  "materials": [
    {
      "name": "Mat_Nature",
      "pbrMetallicRoughness": {
        "baseColorTexture": {
          "index": 0
        },
        "baseColorFactor": [
          1,
          1,
          1,
          1
        ],
        "metallicFactor": 0,
        "roughnessFactor": 0.775
      },
      "emissiveFactor": [
        0,
        0,
        0
      ],
      "alphaMode": "OPAQUE",
      "doubleSided": false
    }
  ],
  "meshes": [
    {
      "name": "Tree_Btm_A_03_LOD2_Cylinder.740-Mesh",
      "primitives": [
        {
          "attributes": {
            "POSITION": 0,
            "NORMAL": 1,
            "TEXCOORD_0": 2
          },
          "indices": 3,
          "material": 0,
          "mode": 4
        }
      ]
    }
  ],
  "nodes": [
    {
      "name": "Tree_Btm_A_03_LOD2_Cylinder.740",
      "mesh": 0
    }
  ],
  "samplers": [
    {
      "wrapS": 10497,
      "wrapT": 10497
    }
  ],
  "scene": 0,
  "scenes": [
    {
      "nodes": [
        0
      ]
    }
  ],
  "textures": [
    {
      "name": "Nature-Palette",
      "sampler": 0,
      "source": 0
    }
  ]
}
