{
  "accessors": [
    {
      "name": "Tree_F_02_LOD2_Cylinder.596-Mesh_0_positions",
      "componentType": 5126,
      "count": 312,
      "min": [
        42.164859771728516,
        0.008964999578893185,
        -52.922088623046875
      ],
      "max": [
        47.79085922241211,
        14.10399341583252,
        -47.31184768676758
      ],
      "type": "VEC3",
      "bufferView": 0,
      "byteOffset": 0
    },
    {
      "name": "Tree_F_02_LOD2_Cylinder.596-Mesh_0_normals",
      "componentType": 5126,
      "count": 312,
      "min": [
        -0.9966627359390259,
        -0.9999976754188538,
        -0.9899569153785706
      ],
      "max": [
        0.9898040294647217,
        0.9980576634407043,
        0.9983267188072205
      ],
      "type": "VEC3",
      "bufferView": 1,
      "byteOffset": 0
    },
    {
      "name": "Tree_F_02_LOD2_Cylinder.596-Mesh_0_texcoords",
      "componentType": 5126,
      "count": 312,
      "min": [
        0.4082750082015991,
        0.2525379955768585
      ],
      "max": [
        0.925275981426239,
        0.5874900221824646
      ],
      "type": "VEC2",
      "bufferView": 2,
      "byteOffset": 0
    },
    {
      "name": "Tree_F_02_LOD2_Cylinder.596-Mesh_0_indices",
      "componentType": 5123,
      "count": 1827,
      "min": [
        0
      ],
      "max": [
        311
      ],
      "type": "SCALAR",
      "bufferView": 3,
      "byteOffset": 0
    }
  ],
  "asset": {
    "generator": "obj2gltf",
    "version": "2.0"
  },
  "buffers": [
    {
      "name": "Tree_F_02_LOD2",
      "byteLength": 28364,
      "uri": "data:application/octet-stream;base64,"
    }
  ],
  "bufferViews": [
    {
      "name": "bufferView_0",
      "buffer": 0,
      "byteLength": 3744,
      "byteOffset": 0,
      "byteStride": 12,
      "target": 34962
    },
    {
      "name": "bufferView_1",
      "buffer": 0,
      "byteLength": 3744,
      "byteOffset": 3744,
      "byteStride": 12,
      "target": 34962
    },
    {
      "name": "bufferView_2",
      "buffer": 0,
      "byteLength": 2496,
      "byteOffset": 7488,
      "byteStride": 8,
      "target": 34962
    },
    {
      "name": "bufferView_3",
      "buffer": 0,
      "byteLength": 3656,
      "byteOffset": 9984,
      "target": 34963
    },
    {
      "buffer": 0,
      "byteOffset": 13640,
      "byteLength": 14724
    }
  ],
  "images": [
    {
      "name": "Nature-Palette",
      "mimeType": "image/png",
      "bufferView": 4
    }
  ],
  "materials": [
    {
      "name": "Mat_Nature",
      "pbrMetallicRoughness": {
        "baseColorTexture": {
          "index": 0
        },
        "baseColorFactor": [
          1,
          1,
          1,
          1
        ],
        "metallicFactor": 0,
        "roughnessFactor": 0.775
      },
      "emissiveFactor": [
        0,
        0,
        0
      ],
      "alphaMode": "OPAQUE",
      "doubleSided": false
    }
  ],
  "meshes": [
    {
      "name": "Tree_F_02_LOD2_Cylinder.596-Mesh",
      "primitives": [
        {
          "attributes": {
            "POSITION": 0,
            "NORMAL": 1,
            "TEXCOORD_0": 2
          },
          "indices": 3,
          "material": 0,
          "mode": 4
        }
      ]
    }
  ],
  "nodes": [
    {
      "name": "Tree_F_02_LOD2_Cylinder.596",
      "mesh": 0
    }
  ],
  "samplers": [
    {
      "wrapS": 10497,
      "wrapT": 10497
    }
  ],
  "scene": 0,
  "scenes": [
    {
      "nodes": [
        0
      ]
    }
  ],
  "textures": [
    {
      "name": "Nature-Palette",
      "sampler": 0,
      "source": 0
    }
  ]
}
