{
  "accessors": [
    {
      "name": "Tree_Top_C_03_LOD2_Cylinder.671-Mesh_0_positions",
      "componentType": 5126,
      "count": 176,
      "min": [
        -59.28352355957031,
        4.96769905090332,
        -33.41217041015625
      ],
      "max": [
        -50.06114959716797,
        10.844701766967773,
        -26.720932006835938
      ],
      "type": "VEC3",
      "bufferView": 0,
      "byteOffset": 0
    },
    {
      "name": "Tree_Top_C_03_LOD2_Cylinder.671-Mesh_0_normals",
      "componentType": 5126,
      "count": 176,
      "min": [
        -0.9666256308555603,
        -0.9961029291152954,
        -0.9964944124221802
      ],
      "max": [
        0.9853922724723816,
        0.9984895586967468,
        0.9931870698928833
      ],
      "type": "VEC3",
      "bufferView": 1,
      "byteOffset": 0
    },
    {
      "name": "Tree_Top_C_03_LOD2_Cylinder.671-Mesh_0_texcoords",
      "componentType": 5126,
      "count": 176,
      "min": [
        0.41957899928092957,
        0.08758900314569473
      ],
      "max": [
        0.5849379897117615,
        0.08759800344705582
      ],
      "type": "VEC2",
      "bufferView": 2,
      "byteOffset": 0
    },
    {
      "name": "Tree_Top_C_03_LOD2_Cylinder.671-Mesh_0_indices",
      "componentType": 5123,
      "count": 516,
      "min": [
        0
      ],
      "max": [
        175
      ],
      "type": "SCALAR",
      "bufferView": 3,
      "byteOffset": 0
    }
  ],
  "asset": {
    "generator": "obj2gltf",
    "version": "2.0"
  },
  "buffers": [
    {
      "name": "Tree_Top_C_03_LOD2",
      "byteLength": 21388,
      "uri": "data:application/octet-stream;base64,"
    }
  ],
  "bufferViews": [
    {
      "name": "bufferView_0",
      "buffer": 0,
      "byteLength": 2112,
      "byteOffset": 0,
      "byteStride": 12,
      "target": 34962
    },
    {
      "name": "bufferView_1",
      "buffer": 0,
      "byteLength": 2112,
      "byteOffset": 2112,
      "byteStride": 12,
      "target": 34962
    },
    {
      "name": "bufferView_2",
      "buffer": 0,
      "byteLength": 1408,
      "byteOffset": 4224,
      "byteStride": 8,
      "target": 34962
    },
    {
      "name": "bufferView_3",
      "buffer": 0,
      "byteLength": 1032,
      "byteOffset": 5632,
      "target": 34963
    },
    {
      "buffer": 0,
      "byteOffset": 6664,
      "byteLength": 14724
    }
  ],
  "images": [
    {
      "name": "Nature-Palette",
      "mimeType": "image/png",
      "bufferView": 4
    }
  ],
  "materials": [
    {
      "name": "Mat_Nature",
      "pbrMetallicRoughness": {
        "baseColorTexture": {
          "index": 0
        },
        "baseColorFactor": [
          1,
          1,
          1,
          1
        ],
        "metallicFactor": 0,
        "roughnessFactor": 0.775
      },
      "emissiveFactor": [
        0,
        0,
        0
      ],
      "alphaMode": "OPAQUE",
      "doubleSided": false
    }
  ],
  "meshes": [
    {
      "name": "Tree_Top_C_03_LOD2_Cylinder.671-Mesh",
      "primitives": [
        {
          "attributes": {
            "POSITION": 0,
            "NORMAL": 1,
            "TEXCOORD_0": 2
          },
          "indices": 3,
          "material": 0,
          "mode": 4
        }
      ]
    }
  ],
  "nodes": [
    {
      "name": "Tree_Top_C_03_LOD2_Cylinder.671",
      "mesh": 0
    }
  ],
  "samplers": [
    {
      "wrapS": 10497,
      "wrapT": 10497
    }
  ],
  "scene": 0,
  "scenes": [
    {
      "nodes": [
        0
      ]
    }
  ],
  "textures": [
    {
      "name": "Nature-Palette",
      "sampler": 0,
      "source": 0
    }
  ]
}
