{
  "accessors": [
    {
      "name": "Tree_Btm_D_01_LOD2_Cylinder.669-Mesh_0_positions",
      "componentType": 5126,
      "count": 148,
      "min": [
        -6.540987968444824,
        -0.002041999949142337,
        -30.667444229125977
      ],
      "max": [
        -3.0190329551696777,
        6.996975898742676,
        -29.4924259185791
      ],
      "type": "VEC3",
      "bufferView": 0,
      "byteOffset": 0
    },
    {
      "name": "Tree_Btm_D_01_LOD2_Cylinder.669-Mesh_0_normals",
      "componentType": 5126,
      "count": 148,
      "min": [
        -0.9994964599609375,
        -0.988176167011261,
        -0.9190162420272827
      ],
      "max": [
        0.9992744326591492,
        0.9983031153678894,
        0.9404221773147583
      ],
      "type": "VEC3",
      "bufferView": 1,
      "byteOffset": 0
    },
    {
      "name": "Tree_Btm_D_01_LOD2_Cylinder.669-Mesh_0_texcoords",
      "componentType": 5126,
      "count": 148,
      "min": [
        0.9178720116615295,
        0.5892999768257141
      ],
      "max": [
        0.9178720116615295,
        0.5892999768257141
      ],
      "type": "VEC2",
      "bufferView": 2,
      "byteOffset": 0
    },
    {
      "name": "Tree_Btm_D_01_LOD2_Cylinder.669-Mesh_0_indices",
      "componentType": 5123,
      "count": 876,
      "min": [
        0
      ],
      "max": [
        147
      ],
      "type": "SCALAR",
      "bufferView": 3,
      "byteOffset": 0
    }
  ],
  "asset": {
    "generator": "obj2gltf",
    "version": "2.0"
  },
  "buffers": [
    {
      "name": "Tree_Btm_D_01_LOD2",
      "byteLength": 21212,
      "uri": "data:application/octet-stream;base64,"
    }
  ],
  "bufferViews": [
    {
      "name": "bufferView_0",
      "buffer": 0,
      "byteLength": 1776,
      "byteOffset": 0,
      "byteStride": 12,
      "target": 34962
    },
    {
      "name": "bufferView_1",
      "buffer": 0,
      "byteLength": 1776,
      "byteOffset": 1776,
      "byteStride": 12,
      "target": 34962
    },
    {
      "name": "bufferView_2",
      "buffer": 0,
      "byteLength": 1184,
      "byteOffset": 3552,
      "byteStride": 8,
      "target": 34962
    },
    {
      "name": "bufferView_3",
      "buffer": 0,
      "byteLength": 1752,
      "byteOffset": 4736,
      "target": 34963
    },
    {
      "buffer": 0,
      "byteOffset": 6488,
      "byteLength": 14724
    }
  ],
  "images": [
    {
      "name": "Nature-Palette",
      "mimeType": "image/png",
      "bufferView": 4
    }
  ],
  "materials": [
    {
      "name": "Mat_Nature",
      "pbrMetallicRoughness": {
        "baseColorTexture": {
          "index": 0
        },
        "baseColorFactor": [
          1,
          1,
          1,
          1
        ],
        "metallicFactor": 0,
        "roughnessFactor": 0.775
      },
      "emissiveFactor": [
        0,
        0,
        0
      ],
      "alphaMode": "OPAQUE",
      "doubleSided": false
    }
  ],
  "meshes": [
    {
      "name": "Tree_Btm_D_01_LOD2_Cylinder.669-Mesh",
      "primitives": [
        {
          "attributes": {
            "POSITION": 0,
            "NORMAL": 1,
            "TEXCOORD_0": 2
          },
          "indices": 3,
          "material": 0,
          "mode": 4
        }
      ]
    }
  ],
  "nodes": [
    {
      "name": "Tree_Btm_D_01_LOD2_Cylinder.669",
      "mesh": 0
    }
  ],
  "samplers": [
    {
      "wrapS": 10497,
      "wrapT": 10497
    }
  ],
  "scene": 0,
  "scenes": [
    {
      "nodes": [
        0
      ]
    }
  ],
  "textures": [
    {
      "name": "Nature-Palette",
      "sampler": 0,
      "source": 0
    }
  ]
}
