{
  "accessors": [
    {
      "name": "Tree_F_01_LOD2_Cylinder.597-Mesh_0_positions",
      "componentType": 5126,
      "count": 358,
      "min": [
        52.044349670410156,
        0.01408699993044138,
        -52.98752975463867
      ],
      "max": [
        58.03415298461914,
        16.165334701538086,
        -47.125396728515625
      ],
      "type": "VEC3",
      "bufferView": 0,
      "byteOffset": 0
    },
    {
      "name": "Tree_F_01_LOD2_Cylinder.597-Mesh_0_normals",
      "componentType": 5126,
      "count": 358,
      "min": [
        -0.9829702377319336,
        -0.9999790787696838,
        -0.9854035377502441
      ],
      "max": [
        0.9935439825057983,
        0.9956936240196228,
        0.9957586526870728
      ],
      "type": "VEC3",
      "bufferView": 1,
      "byteOffset": 0
    },
    {
      "name": "Tree_F_01_LOD2_Cylinder.597-Mesh_0_texcoords",
      "componentType": 5126,
      "count": 358,
      "min": [
        0.40827399492263794,
        0.2525379955768585
      ],
      "max": [
        0.925275981426239,
        0.5874900221824646
      ],
      "type": "VEC2",
      "bufferView": 2,
      "byteOffset": 0
    },
    {
      "name": "Tree_F_01_LOD2_Cylinder.597-Mesh_0_indices",
      "componentType": 5123,
      "count": 2106,
      "min": [
        0
      ],
      "max": [
        357
      ],
      "type": "SCALAR",
      "bufferView": 3,
      "byteOffset": 0
    }
  ],
  "asset": {
    "generator": "obj2gltf",
    "version": "2.0"
  },
  "buffers": [
    {
      "name": "Tree_F_01_LOD2",
      "byteLength": 30392,
      "uri": "data:application/octet-stream;base64,"
    }
  ],
  "bufferViews": [
    {
      "name": "bufferView_0",
      "buffer": 0,
      "byteLength": 4296,
      "byteOffset": 0,
      "byteStride": 12,
      "target": 34962
    },
    {
      "name": "bufferView_1",
      "buffer": 0,
      "byteLength": 4296,
      "byteOffset": 4296,
      "byteStride": 12,
      "target": 34962
    },
    {
      "name": "bufferView_2",
      "buffer": 0,
      "byteLength": 2864,
      "byteOffset": 8592,
      "byteStride": 8,
      "target": 34962
    },
    {
      "name": "bufferView_3",
      "buffer": 0,
      "byteLength": 4212,
      "byteOffset": 11456,
      "target": 34963
    },
    {
      "buffer": 0,
      "byteOffset": 15668,
      "byteLength": 14724
    }
  ],
  "images": [
    {
      "name": "Nature-Palette",
      "mimeType": "image/png",
      "bufferView": 4
    }
  ],
  "materials": [
    {
      "name": "Mat_Nature",
      "pbrMetallicRoughness": {
        "baseColorTexture": {
          "index": 0
        },
        "baseColorFactor": [
          1,
          1,
          1,
          1
        ],
        "metallicFactor": 0,
        "roughnessFactor": 0.775
      },
      "emissiveFactor": [
        0,
        0,
        0
      ],
      "alphaMode": "OPAQUE",
      "doubleSided": false
    }
  ],
  "meshes": [
    {
      "name": "Tree_F_01_LOD2_Cylinder.597-Mesh",
      "primitives": [
        {
          "attributes": {
            "POSITION": 0,
            "NORMAL": 1,
            "TEXCOORD_0": 2
          },
          "indices": 3,
          "material": 0,
          "mode": 4
        }
      ]
    }
  ],
  "nodes": [
    {
      "name": "Tree_F_01_LOD2_Cylinder.597",
      "mesh": 0
    }
  ],
  "samplers": [
    {
      "wrapS": 10497,
      "wrapT": 10497
    }
  ],
  "scene": 0,
  "scenes": [
    {
      "nodes": [
        0
      ]
    }
  ],
  "textures": [
    {
      "name": "Nature-Palette",
      "sampler": 0,
      "source": 0
    }
  ]
}
