{
  "accessors": [
    {
      "name": "Tree_Top_A_01_LOD2_Cylinder.736-Mesh_0_positions",
      "componentType": 5126,
      "count": 56,
      "min": [
        -8.868837356567383,
        4.24289608001709,
        -23.55746841430664
      ],
      "max": [
        -1.462048053741455,
        8.659536361694336,
        -16.138050079345703
      ],
      "type": "VEC3",
      "bufferView": 0,
      "byteOffset": 0
    },
    {
      "name": "Tree_Top_A_01_LOD2_Cylinder.736-Mesh_0_normals",
      "componentType": 5126,
      "count": 56,
      "min": [
        -0.9673254489898682,
        -0.9886295199394226,
        -0.9652272462844849
      ],
      "max": [
        0.9936487674713135,
        0.9999262690544128,
        0.99210125207901
      ],
      "type": "VEC3",
      "bufferView": 1,
      "byteOffset": 0
    },
    {
      "name": "Tree_Top_A_01_LOD2_Cylinder.736-Mesh_0_texcoords",
      "componentType": 5126,
      "count": 56,
      "min": [
        0.2575260102748871,
        0.08132000267505646
      ],
      "max": [
        0.2575260102748871,
        0.08132000267505646
      ],
      "type": "VEC2",
      "bufferView": 2,
      "byteOffset": 0
    },
    {
      "name": "Tree_Top_A_01_LOD2_Cylinder.736-Mesh_0_indices",
      "componentType": 5123,
      "count": 324,
      "min": [
        0
      ],
      "max": [
        55
      ],
      "type": "SCALAR",
      "bufferView": 3,
      "byteOffset": 0
    }
  ],
  "asset": {
    "generator": "obj2gltf",
    "version": "2.0"
  },
  "buffers": [
    {
      "name": "Tree_Top_A_01_LOD2",
      "byteLength": 17164,
      "uri": "data:application/octet-stream;base64,"
    }
  ],
  "bufferViews": [
    {
      "name": "bufferView_0",
      "buffer": 0,
      "byteLength": 672,
      "byteOffset": 0,
      "byteStride": 12,
      "target": 34962
    },
    {
      "name": "bufferView_1",
      "buffer": 0,
      "byteLength": 672,
      "byteOffset": 672,
      "byteStride": 12,
      "target": 34962
    },
    {
      "name": "bufferView_2",
      "buffer": 0,
      "byteLength": 448,
      "byteOffset": 1344,
      "byteStride": 8,
      "target": 34962
    },
    {
      "name": "bufferView_3",
      "buffer": 0,
      "byteLength": 648,
      "byteOffset": 1792,
      "target": 34963
    },
    {
      "buffer": 0,
      "byteOffset": 2440,
      "byteLength": 14724
    }
  ],
  "images": [
    {
      "name": "Nature-Palette",
      "mimeType": "image/png",
      "bufferView": 4
    }
  ],
  "materials": [
    {
      "name": "Mat_Nature",
      "pbrMetallicRoughness": {
        "baseColorTexture": {
          "index": 0
        },
        "baseColorFactor": [
          1,
          1,
          1,
          1
        ],
        "metallicFactor": 0,
        "roughnessFactor": 0.775
      },
      "emissiveFactor": [
        0,
        0,
        0
      ],
      "alphaMode": "OPAQUE",
      "doubleSided": false
    }
  ],
  "meshes": [
    {
      "name": "Tree_Top_A_01_LOD2_Cylinder.736-Mesh",
      "primitives": [
        {
          "attributes": {
            "POSITION": 0,
            "NORMAL": 1,
            "TEXCOORD_0": 2
          },
          "indices": 3,
          "material": 0,
          "mode": 4
        }
      ]
    }
  ],
  "nodes": [
    {
      "name": "Tree_Top_A_01_LOD2_Cylinder.736",
      "mesh": 0
    }
  ],
  "samplers": [
    {
      "wrapS": 10497,
      "wrapT": 10497
    }
  ],
  "scene": 0,
  "scenes": [
    {
      "nodes": [
        0
      ]
    }
  ],
  "textures": [
    {
      "name": "Nature-Palette",
      "sampler": 0,
      "source": 0
    }
  ]
}
