{
  "accessors": [
    {
      "name": "TreeGiant_A_01_LOD2_Cylinder.812-Mesh_0_positions",
      "componentType": 5126,
      "count": 1125,
      "min": [
        -17.726900100708008,
        -0.6455730199813843,
        -52.609764099121094
      ],
      "max": [
        -0.30745500326156616,
        16.959516525268555,
        -36.810829162597656
      ],
      "type": "VEC3",
      "bufferView": 0,
      "byteOffset": 0
    },
    {
      "name": "TreeGiant_A_01_LOD2_Cylinder.812-Mesh_0_normals",
      "componentType": 5126,
      "count": 1125,
      "min": [
        -0.9990993738174438,
        -0.9998555779457092,
        -0.9941527247428894
      ],
      "max": [
        0.9955475330352783,
        0.9997352957725525,
        0.9957692623138428
      ],
      "type": "VEC3",
      "bufferView": 1,
      "byteOffset": 0
    },
    {
      "name": "TreeGiant_A_01_LOD2_Cylinder.812-Mesh_0_texcoords",
      "componentType": 5126,
      "count": 1125,
      "min": [
        0.5776119828224182,
        0.08728999644517899
      ],
      "max": [
        0.9179239869117737,
        0.5851770043373108
      ],
      "type": "VEC2",
      "bufferView": 2,
      "byteOffset": 0
    },
    {
      "name": "TreeGiant_A_01_LOD2_Cylinder.812-Mesh_0_indices",
      "componentType": 5123,
      "count": 5757,
      "min": [
        0
      ],
      "max": [
        1124
      ],
      "type": "SCALAR",
      "bufferView": 3,
      "byteOffset": 0
    }
  ],
  "asset": {
    "generator": "obj2gltf",
    "version": "2.0"
  },
  "buffers": [
    {
      "name": "TreeGiant_A_01_LOD2",
      "byteLength": 62240,
      "uri": "data:application/octet-stream;base64,"
    }
  ],
  "bufferViews": [
    {
      "name": "bufferView_0",
      "buffer": 0,
      "byteLength": 13500,
      "byteOffset": 0,
      "byteStride": 12,
      "target": 34962
    },
    {
      "name": "bufferView_1",
      "buffer": 0,
      "byteLength": 13500,
      "byteOffset": 13500,
      "byteStride": 12,
      "target": 34962
    },
    {
      "name": "bufferView_2",
      "buffer": 0,
      "byteLength": 9000,
      "byteOffset": 27000,
      "byteStride": 8,
      "target": 34962
    },
    {
      "name": "bufferView_3",
      "buffer": 0,
      "byteLength": 11516,
      "byteOffset": 36000,
      "target": 34963
    },
    {
      "buffer": 0,
      "byteOffset": 47516,
      "byteLength": 14724
    }
  ],
  "images": [
    {
      "name": "Nature-Palette",
      "mimeType": "image/png",
      "bufferView": 4
    }
  ],
  "materials": [
    {
      "name": "Mat_Nature",
      "pbrMetallicRoughness": {
        "baseColorTexture": {
          "index": 0
        },
        "baseColorFactor": [
          1,
          1,
          1,
          1
        ],
        "metallicFactor": 0,
        "roughnessFactor": 0.775
      },
      "emissiveFactor": [
        0,
        0,
        0
      ],
      "alphaMode": "OPAQUE",
      "doubleSided": false
    }
  ],
  "meshes": [
    {
      "name": "TreeGiant_A_01_LOD2_Cylinder.812-Mesh",
      "primitives": [
        {
          "attributes": {
            "POSITION": 0,
            "NORMAL": 1,
            "TEXCOORD_0": 2
          },
          "indices": 3,
          "material": 0,
          "mode": 4
        }
      ]
    }
  ],
  "nodes": [
    {
      "name": "TreeGiant_A_01_LOD2_Cylinder.812",
      "mesh": 0
    }
  ],
  "samplers": [
    {
      "wrapS": 10497,
      "wrapT": 10497
    }
  ],
  "scene": 0,
  "scenes": [
    {
      "nodes": [
        0
      ]
    }
  ],
  "textures": [
    {
      "name": "Nature-Palette",
      "sampler": 0,
      "source": 0
    }
  ]
}
