{
  "accessors": [
    {
      "name": "Tree_Top_C_02_LOD2_Cylinder.673-Mesh_0_positions",
      "componentType": 5126,
      "count": 228,
      "min": [
        -49.22190856933594,
        2.8427679538726807,
        -33.6970329284668
      ],
      "max": [
        -40.39390563964844,
        9.15875244140625,
        -26.47330093383789
      ],
      "type": "VEC3",
      "bufferView": 0,
      "byteOffset": 0
    },
    {
      "name": "Tree_Top_C_02_LOD2_Cylinder.673-Mesh_0_normals",
      "componentType": 5126,
      "count": 228,
      "min": [
        -0.9839805364608765,
        -0.9760789275169373,
        -0.9941552877426147
      ],
      "max": [
        0.9845989346504211,
        0.9987554550170898,
        0.9808283448219299
      ],
      "type": "VEC3",
      "bufferView": 1,
      "byteOffset": 0
    },
    {
      "name": "Tree_Top_C_02_LOD2_Cylinder.673-Mesh_0_texcoords",
      "componentType": 5126,
      "count": 228,
      "min": [
        0.41957899928092957,
        0.08758900314569473
      ],
      "max": [
        0.5849379897117615,
        0.08759800344705582
      ],
      "type": "VEC2",
      "bufferView": 2,
      "byteOffset": 0
    },
    {
      "name": "Tree_Top_C_02_LOD2_Cylinder.673-Mesh_0_indices",
      "componentType": 5123,
      "count": 672,
      "min": [
        0
      ],
      "max": [
        227
      ],
      "type": "SCALAR",
      "bufferView": 3,
      "byteOffset": 0
    }
  ],
  "asset": {
    "generator": "obj2gltf",
    "version": "2.0"
  },
  "buffers": [
    {
      "name": "Tree_Top_C_02_LOD2",
      "byteLength": 23364,
      "uri": "data:application/octet-stream;base64,"
    }
  ],
  "bufferViews": [
    {
      "name": "bufferView_0",
      "buffer": 0,
      "byteLength": 2736,
      "byteOffset": 0,
      "byteStride": 12,
      "target": 34962
    },
    {
      "name": "bufferView_1",
      "buffer": 0,
      "byteLength": 2736,
      "byteOffset": 2736,
      "byteStride": 12,
      "target": 34962
    },
    {
      "name": "bufferView_2",
      "buffer": 0,
      "byteLength": 1824,
      "byteOffset": 5472,
      "byteStride": 8,
      "target": 34962
    },
    {
      "name": "bufferView_3",
      "buffer": 0,
      "byteLength": 1344,
      "byteOffset": 7296,
      "target": 34963
    },
    {
      "buffer": 0,
      "byteOffset": 8640,
      "byteLength": 14724
    }
  ],
  "images": [
    {
      "name": "Nature-Palette",
      "mimeType": "image/png",
      "bufferView": 4
    }
  ],
  "materials": [
    {
      "name": "Mat_Nature",
      "pbrMetallicRoughness": {
        "baseColorTexture": {
          "index": 0
        },
        "baseColorFactor": [
          1,
          1,
          1,
          1
        ],
        "metallicFactor": 0,
        "roughnessFactor": 0.775
      },
      "emissiveFactor": [
        0,
        0,
        0
      ],
      "alphaMode": "OPAQUE",
      "doubleSided": false
    }
  ],
  "meshes": [
    {
      "name": "Tree_Top_C_02_LOD2_Cylinder.673-Mesh",
      "primitives": [
        {
          "attributes": {
            "POSITION": 0,
            "NORMAL": 1,
            "TEXCOORD_0": 2
          },
          "indices": 3,
          "material": 0,
          "mode": 4
        }
      ]
    }
  ],
  "nodes": [
    {
      "name": "Tree_Top_C_02_LOD2_Cylinder.673",
      "mesh": 0
    }
  ],
  "samplers": [
    {
      "wrapS": 10497,
      "wrapT": 10497
    }
  ],
  "scene": 0,
  "scenes": [
    {
      "nodes": [
        0
      ]
    }
  ],
  "textures": [
    {
      "name": "Nature-Palette",
      "sampler": 0,
      "source": 0
    }
  ]
}
