{
  "accessors": [
    {
      "name": "Tree_Top_A_03_LOD2_Cylinder.737-Mesh_0_positions",
      "componentType": 5126,
      "count": 128,
      "min": [
        -29.946334838867188,
        5.078592777252197,
        -24.35043716430664
      ],
      "max": [
        -19.90854835510254,
        12.884001731872559,
        -16.231521606445312
      ],
      "type": "VEC3",
      "bufferView": 0,
      "byteOffset": 0
    },
    {
      "name": "Tree_Top_A_03_LOD2_Cylinder.737-Mesh_0_normals",
      "componentType": 5126,
      "count": 128,
      "min": [
        -0.9818650484085083,
        -0.998458206653595,
        -0.9983249306678772
      ],
      "max": [
        0.9801464676856995,
        0.9944068789482117,
        0.9909122586250305
      ],
      "type": "VEC3",
      "bufferView": 1,
      "byteOffset": 0
    },
    {
      "name": "Tree_Top_A_03_LOD2_Cylinder.737-Mesh_0_texcoords",
      "componentType": 5126,
      "count": 128,
      "min": [
        0.2575260102748871,
        0.08131899684667587
      ],
      "max": [
        0.2575260102748871,
        0.08132000267505646
      ],
      "type": "VEC2",
      "bufferView": 2,
      "byteOffset": 0
    },
    {
      "name": "Tree_Top_A_03_LOD2_Cylinder.737-Mesh_0_indices",
      "componentType": 5123,
      "count": 732,
      "min": [
        0
      ],
      "max": [
        127
      ],
      "type": "SCALAR",
      "bufferView": 3,
      "byteOffset": 0
    }
  ],
  "asset": {
    "generator": "obj2gltf",
    "version": "2.0"
  },
  "buffers": [
    {
      "name": "Tree_Top_A_03_LOD2",
      "byteLength": 20284,
      "uri": "data:application/octet-stream;base64,"
    }
  ],
  "bufferViews": [
    {
      "name": "bufferView_0",
      "buffer": 0,
      "byteLength": 1536,
      "byteOffset": 0,
      "byteStride": 12,
      "target": 34962
    },
    {
      "name": "bufferView_1",
      "buffer": 0,
      "byteLength": 1536,
      "byteOffset": 1536,
      "byteStride": 12,
      "target": 34962
    },
    {
      "name": "bufferView_2",
      "buffer": 0,
      "byteLength": 1024,
      "byteOffset": 3072,
      "byteStride": 8,
      "target": 34962
    },
    {
      "name": "bufferView_3",
      "buffer": 0,
      "byteLength": 1464,
      "byteOffset": 4096,
      "target": 34963
    },
    {
      "buffer": 0,
      "byteOffset": 5560,
      "byteLength": 14724
    }
  ],
  "images": [
    {
      "name": "Nature-Palette",
      "mimeType": "image/png",
      "bufferView": 4
    }
  ],
  "materials": [
    {
      "name": "Mat_Nature",
      "pbrMetallicRoughness": {
        "baseColorTexture": {
          "index": 0
        },
        "baseColorFactor": [
          1,
          1,
          1,
          1
        ],
        "metallicFactor": 0,
        "roughnessFactor": 0.775
      },
      "emissiveFactor": [
        0,
        0,
        0
      ],
      "alphaMode": "OPAQUE",
      "doubleSided": false
    }
  ],
  "meshes": [
    {
      "name": "Tree_Top_A_03_LOD2_Cylinder.737-Mesh",
      "primitives": [
        {
          "attributes": {
            "POSITION": 0,
            "NORMAL": 1,
            "TEXCOORD_0": 2
          },
          "indices": 3,
          "material": 0,
          "mode": 4
        }
      ]
    }
  ],
  "nodes": [
    {
      "name": "Tree_Top_A_03_LOD2_Cylinder.737",
      "mesh": 0
    }
  ],
  "samplers": [
    {
      "wrapS": 10497,
      "wrapT": 10497
    }
  ],
  "scene": 0,
  "scenes": [
    {
      "nodes": [
        0
      ]
    }
  ],
  "textures": [
    {
      "name": "Nature-Palette",
      "sampler": 0,
      "source": 0
    }
  ]
}
