{
  "accessors": [
    {
      "name": "Tree_E_03_LOD2_Cylinder.661-Mesh_0_positions",
      "componentType": 5126,
      "count": 235,
      "min": [
        22.913835525512695,
        0.02793700061738491,
        -42.70691680908203
      ],
      "max": [
        27.359025955200195,
        13.809791564941406,
        -38.02496337890625
      ],
      "type": "VEC3",
      "bufferView": 0,
      "byteOffset": 0
    },
    {
      "name": "Tree_E_03_LOD2_Cylinder.661-Mesh_0_normals",
      "componentType": 5126,
      "count": 235,
      "min": [
        -0.996022641658783,
        -0.9999994039535522,
        -0.9958759546279907
      ],
      "max": [
        0.9979751706123352,
        0.858562171459198,
        0.9968122839927673
      ],
      "type": "VEC3",
      "bufferView": 1,
      "byteOffset": 0
    },
    {
      "name": "Tree_E_03_LOD2_Cylinder.661-Mesh_0_texcoords",
      "componentType": 5126,
      "count": 235,
      "min": [
        0.5810289978981018,
        0.08684699982404709
      ],
      "max": [
        0.9187139868736267,
        0.5824030041694641
      ],
      "type": "VEC2",
      "bufferView": 2,
      "byteOffset": 0
    },
    {
      "name": "Tree_E_03_LOD2_Cylinder.661-Mesh_0_indices",
      "componentType": 5123,
      "count": 1368,
      "min": [
        0
      ],
      "max": [
        234
      ],
      "type": "SCALAR",
      "bufferView": 3,
      "byteOffset": 0
    }
  ],
  "asset": {
    "generator": "obj2gltf",
    "version": "2.0"
  },
  "buffers": [
    {
      "name": "Tree_E_03_LOD2",
      "byteLength": 24980,
      "uri": "data:application/octet-stream;base64,"
    }
  ],
  "bufferViews": [
    {
      "name": "bufferView_0",
      "buffer": 0,
      "byteLength": 2820,
      "byteOffset": 0,
      "byteStride": 12,
      "target": 34962
    },
    {
      "name": "bufferView_1",
      "buffer": 0,
      "byteLength": 2820,
      "byteOffset": 2820,
      "byteStride": 12,
      "target": 34962
    },
    {
      "name": "bufferView_2",
      "buffer": 0,
      "byteLength": 1880,
      "byteOffset": 5640,
      "byteStride": 8,
      "target": 34962
    },
    {
      "name": "bufferView_3",
      "buffer": 0,
      "byteLength": 2736,
      "byteOffset": 7520,
      "target": 34963
    },
    {
      "buffer": 0,
      "byteOffset": 10256,
      "byteLength": 14724
    }
  ],
  "images": [
    {
      "name": "Nature-Palette",
      "mimeType": "image/png",
      "bufferView": 4
    }
  ],
  "materials": [
    {
      "name": "Mat_Nature",
      "pbrMetallicRoughness": {
        "baseColorTexture": {
          "index": 0
        },
        "baseColorFactor": [
          1,
          1,
          1,
          1
        ],
        "metallicFactor": 0,
        "roughnessFactor": 0.775
      },
      "emissiveFactor": [
        0,
        0,
        0
      ],
      "alphaMode": "OPAQUE",
      "doubleSided": false
    }
  ],
  "meshes": [
    {
      "name": "Tree_E_03_LOD2_Cylinder.661-Mesh",
      "primitives": [
        {
          "attributes": {
            "POSITION": 0,
            "NORMAL": 1,
            "TEXCOORD_0": 2
          },
          "indices": 3,
          "material": 0,
          "mode": 4
        }
      ]
    }
  ],
  "nodes": [
    {
      "name": "Tree_E_03_LOD2_Cylinder.661",
      "mesh": 0
    }
  ],
  "samplers": [
    {
      "wrapS": 10497,
      "wrapT": 10497
    }
  ],
  "scene": 0,
  "scenes": [
    {
      "nodes": [
        0
      ]
    }
  ],
  "textures": [
    {
      "name": "Nature-Palette",
      "sampler": 0,
      "source": 0
    }
  ]
}
