{
  "accessors": [
    {
      "name": "Tree_E_01_LOD2_Cylinder.663-Mesh_0_positions",
      "componentType": 5126,
      "count": 243,
      "min": [
        1.6939899921417236,
        0.007042999844998121,
        -43.154052734375
      ],
      "max": [
        7.976837158203125,
        18.0290584564209,
        -36.749534606933594
      ],
      "type": "VEC3",
      "bufferView": 0,
      "byteOffset": 0
    },
    {
      "name": "Tree_E_01_LOD2_Cylinder.663-Mesh_0_normals",
      "componentType": 5126,
      "count": 243,
      "min": [
        -0.9960169792175293,
        -0.999995231628418,
        -0.9991332292556763
      ],
      "max": [
        0.9960198402404785,
        0.8675099611282349,
        0.9929896593093872
      ],
      "type": "VEC3",
      "bufferView": 1,
      "byteOffset": 0
    },
    {
      "name": "Tree_E_01_LOD2_Cylinder.663-Mesh_0_texcoords",
      "componentType": 5126,
      "count": 243,
      "min": [
        0.5810289978981018,
        0.08684699982404709
      ],
      "max": [
        0.9187139868736267,
        0.5824030041694641
      ],
      "type": "VEC2",
      "bufferView": 2,
      "byteOffset": 0
    },
    {
      "name": "Tree_E_01_LOD2_Cylinder.663-Mesh_0_indices",
      "componentType": 5123,
      "count": 1416,
      "min": [
        0
      ],
      "max": [
        242
      ],
      "type": "SCALAR",
      "bufferView": 3,
      "byteOffset": 0
    }
  ],
  "asset": {
    "generator": "obj2gltf",
    "version": "2.0"
  },
  "buffers": [
    {
      "name": "Tree_E_01_LOD2",
      "byteLength": 25332,
      "uri": "data:application/octet-stream;base64,"
    }
  ],
  "bufferViews": [
    {
      "name": "bufferView_0",
      "buffer": 0,
      "byteLength": 2916,
      "byteOffset": 0,
      "byteStride": 12,
      "target": 34962
    },
    {
      "name": "bufferView_1",
      "buffer": 0,
      "byteLength": 2916,
      "byteOffset": 2916,
      "byteStride": 12,
      "target": 34962
    },
    {
      "name": "bufferView_2",
      "buffer": 0,
      "byteLength": 1944,
      "byteOffset": 5832,
      "byteStride": 8,
      "target": 34962
    },
    {
      "name": "bufferView_3",
      "buffer": 0,
      "byteLength": 2832,
      "byteOffset": 7776,
      "target": 34963
    },
    {
      "buffer": 0,
      "byteOffset": 10608,
      "byteLength": 14724
    }
  ],
  "images": [
    {
      "name": "Nature-Palette",
      "mimeType": "image/png",
      "bufferView": 4
    }
  ],
  "materials": [
    {
      "name": "Mat_Nature",
      "pbrMetallicRoughness": {
        "baseColorTexture": {
          "index": 0
        },
        "baseColorFactor": [
          1,
          1,
          1,
          1
        ],
        "metallicFactor": 0,
        "roughnessFactor": 0.775
      },
      "emissiveFactor": [
        0,
        0,
        0
      ],
      "alphaMode": "OPAQUE",
      "doubleSided": false
    }
  ],
  "meshes": [
    {
      "name": "Tree_E_01_LOD2_Cylinder.663-Mesh",
      "primitives": [
        {
          "attributes": {
            "POSITION": 0,
            "NORMAL": 1,
            "TEXCOORD_0": 2
          },
          "indices": 3,
          "material": 0,
          "mode": 4
        }
      ]
    }
  ],
  "nodes": [
    {
      "name": "Tree_E_01_LOD2_Cylinder.663",
      "mesh": 0
    }
  ],
  "samplers": [
    {
      "wrapS": 10497,
      "wrapT": 10497
    }
  ],
  "scene": 0,
  "scenes": [
    {
      "nodes": [
        0
      ]
    }
  ],
  "textures": [
    {
      "name": "Nature-Palette",
      "sampler": 0,
      "source": 0
    }
  ]
}
