{
  "accessors": [
    {
      "name": "Tree_Top_D_03_LOD2_Cylinder.664-Mesh_0_positions",
      "componentType": 5126,
      "count": 188,
      "min": [
        -28.254240036010742,
        7.660338878631592,
        -33.21009826660156
      ],
      "max": [
        -21.67611312866211,
        13.736302375793457,
        -26.93724822998047
      ],
      "type": "VEC3",
      "bufferView": 0,
      "byteOffset": 0
    },
    {
      "name": "Tree_Top_D_03_LOD2_Cylinder.664-Mesh_0_normals",
      "componentType": 5126,
      "count": 188,
      "min": [
        -0.9957013130187988,
        -0.9989202618598938,
        -0.9980567693710327
      ],
      "max": [
        0.9987180233001709,
        0.9810013175010681,
        0.9902642965316772
      ],
      "type": "VEC3",
      "bufferView": 1,
      "byteOffset": 0
    },
    {
      "name": "Tree_Top_D_03_LOD2_Cylinder.664-Mesh_0_texcoords",
      "componentType": 5126,
      "count": 188,
      "min": [
        0.41214001178741455,
        0.08684699982404709
      ],
      "max": [
        0.41214001178741455,
        0.08684699982404709
      ],
      "type": "VEC2",
      "bufferView": 2,
      "byteOffset": 0
    },
    {
      "name": "Tree_Top_D_03_LOD2_Cylinder.664-Mesh_0_indices",
      "componentType": 5123,
      "count": 1116,
      "min": [
        0
      ],
      "max": [
        187
      ],
      "type": "SCALAR",
      "bufferView": 3,
      "byteOffset": 0
    }
  ],
  "asset": {
    "generator": "obj2gltf",
    "version": "2.0"
  },
  "buffers": [
    {
      "name": "Tree_Top_D_03_LOD2",
      "byteLength": 22972,
      "uri": "data:application/octet-stream;base64,"
    }
  ],
  "bufferViews": [
    {
      "name": "bufferView_0",
      "buffer": 0,
      "byteLength": 2256,
      "byteOffset": 0,
      "byteStride": 12,
      "target": 34962
    },
    {
      "name": "bufferView_1",
      "buffer": 0,
      "byteLength": 2256,
      "byteOffset": 2256,
      "byteStride": 12,
      "target": 34962
    },
    {
      "name": "bufferView_2",
      "buffer": 0,
      "byteLength": 1504,
      "byteOffset": 4512,
      "byteStride": 8,
      "target": 34962
    },
    {
      "name": "bufferView_3",
      "buffer": 0,
      "byteLength": 2232,
      "byteOffset": 6016,
      "target": 34963
    },
    {
      "buffer": 0,
      "byteOffset": 8248,
      "byteLength": 14724
    }
  ],
  "images": [
    {
      "name": "Nature-Palette",
      "mimeType": "image/png",
      "bufferView": 4
    }
  ],
  "materials": [
    {
      "name": "Mat_Nature",
      "pbrMetallicRoughness": {
        "baseColorTexture": {
          "index": 0
        },
        "baseColorFactor": [
          1,
          1,
          1,
          1
        ],
        "metallicFactor": 0,
        "roughnessFactor": 0.775
      },
      "emissiveFactor": [
        0,
        0,
        0
      ],
      "alphaMode": "OPAQUE",
      "doubleSided": false
    }
  ],
  "meshes": [
    {
      "name": "Tree_Top_D_03_LOD2_Cylinder.664-Mesh",
      "primitives": [
        {
          "attributes": {
            "POSITION": 0,
            "NORMAL": 1,
            "TEXCOORD_0": 2
          },
          "indices": 3,
          "material": 0,
          "mode": 4
        }
      ]
    }
  ],
  "nodes": [
    {
      "name": "Tree_Top_D_03_LOD2_Cylinder.664",
      "mesh": 0
    }
  ],
  "samplers": [
    {
      "wrapS": 10497,
      "wrapT": 10497
    }
  ],
  "scene": 0,
  "scenes": [
    {
      "nodes": [
        0
      ]
    }
  ],
  "textures": [
    {
      "name": "Nature-Palette",
      "sampler": 0,
      "source": 0
    }
  ]
}
