{
  "accessors": [
    {
      "name": "Tree_F_03_LOD2_Cylinder.595-Mesh_0_positions",
      "componentType": 5126,
      "count": 264,
      "min": [
        32.480384826660156,
        0.0070870001800358295,
        -52.7996826171875
      ],
      "max": [
        37.693199157714844,
        12.663373947143555,
        -47.50516128540039
      ],
      "type": "VEC3",
      "bufferView": 0,
      "byteOffset": 0
    },
    {
      "name": "Tree_F_03_LOD2_Cylinder.595-Mesh_0_normals",
      "componentType": 5126,
      "count": 264,
      "min": [
        -0.9762021899223328,
        -0.9999956488609314,
        -0.9860048890113831
      ],
      "max": [
        0.9906598925590515,
        0.9993388056755066,
        0.9997807741165161
      ],
      "type": "VEC3",
      "bufferView": 1,
      "byteOffset": 0
    },
    {
      "name": "Tree_F_03_LOD2_Cylinder.595-Mesh_0_texcoords",
      "componentType": 5126,
      "count": 264,
      "min": [
        0.4082750082015991,
        0.2525379955768585
      ],
      "max": [
        0.925275981426239,
        0.5874900221824646
      ],
      "type": "VEC2",
      "bufferView": 2,
      "byteOffset": 0
    },
    {
      "name": "Tree_F_03_LOD2_Cylinder.595-Mesh_0_indices",
      "componentType": 5123,
      "count": 1521,
      "min": [
        0
      ],
      "max": [
        263
      ],
      "type": "SCALAR",
      "bufferView": 3,
      "byteOffset": 0
    }
  ],
  "asset": {
    "generator": "obj2gltf",
    "version": "2.0"
  },
  "buffers": [
    {
      "name": "Tree_F_03_LOD2",
      "byteLength": 26216,
      "uri": "data:application/octet-stream;base64,"
    }
  ],
  "bufferViews": [
    {
      "name": "bufferView_0",
      "buffer": 0,
      "byteLength": 3168,
      "byteOffset": 0,
      "byteStride": 12,
      "target": 34962
    },
    {
      "name": "bufferView_1",
      "buffer": 0,
      "byteLength": 3168,
      "byteOffset": 3168,
      "byteStride": 12,
      "target": 34962
    },
    {
      "name": "bufferView_2",
      "buffer": 0,
      "byteLength": 2112,
      "byteOffset": 6336,
      "byteStride": 8,
      "target": 34962
    },
    {
      "name": "bufferView_3",
      "buffer": 0,
      "byteLength": 3044,
      "byteOffset": 8448,
      "target": 34963
    },
    {
      "buffer": 0,
      "byteOffset": 11492,
      "byteLength": 14724
    }
  ],
  "images": [
    {
      "name": "Nature-Palette",
      "mimeType": "image/png",
      "bufferView": 4
    }
  ],
  "materials": [
    {
      "name": "Mat_Nature",
      "pbrMetallicRoughness": {
        "baseColorTexture": {
          "index": 0
        },
        "baseColorFactor": [
          1,
          1,
          1,
          1
        ],
        "metallicFactor": 0,
        "roughnessFactor": 0.775
      },
      "emissiveFactor": [
        0,
        0,
        0
      ],
      "alphaMode": "OPAQUE",
      "doubleSided": false
    }
  ],
  "meshes": [
    {
      "name": "Tree_F_03_LOD2_Cylinder.595-Mesh",
      "primitives": [
        {
          "attributes": {
            "POSITION": 0,
            "NORMAL": 1,
            "TEXCOORD_0": 2
          },
          "indices": 3,
          "material": 0,
          "mode": 4
        }
      ]
    }
  ],
  "nodes": [
    {
      "name": "Tree_F_03_LOD2_Cylinder.595",
      "mesh": 0
    }
  ],
  "samplers": [
    {
      "wrapS": 10497,
      "wrapT": 10497
    }
  ],
  "scene": 0,
  "scenes": [
    {
      "nodes": [
        0
      ]
    }
  ],
  "textures": [
    {
      "name": "Nature-Palette",
      "sampler": 0,
      "source": 0
    }
  ]
}
