{
  "accessors": [
    {
      "name": "TreeSimple_03_LOD2_Cylinder.592-Mesh_0_positions",
      "componentType": 5126,
      "count": 146,
      "min": [
        53.03076171875,
        0.0017350000562146306,
        -41.96219253540039
      ],
      "max": [
        57.0115966796875,
        9.163110733032227,
        -38.014015197753906
      ],
      "type": "VEC3",
      "bufferView": 0,
      "byteOffset": 0
    },
    {
      "name": "TreeSimple_03_LOD2_Cylinder.592-Mesh_0_normals",
      "componentType": 5126,
      "count": 146,
      "min": [
        -0.9791954159736633,
        -0.9999998807907104,
        -0.9744815826416016
      ],
      "max": [
        0.9829154014587402,
        0.9999991059303284,
        0.9761075377464294
      ],
      "type": "VEC3",
      "bufferView": 1,
      "byteOffset": 0
    },
    {
      "name": "TreeSimple_03_LOD2_Cylinder.592-Mesh_0_texcoords",
      "componentType": 5126,
      "count": 146,
      "min": [
        0.5751379728317261,
        0.42017999291419983
      ],
      "max": [
        0.9187139868736267,
        0.75
      ],
      "type": "VEC2",
      "bufferView": 2,
      "byteOffset": 0
    },
    {
      "name": "TreeSimple_03_LOD2_Cylinder.592-Mesh_0_indices",
      "componentType": 5123,
      "count": 834,
      "min": [
        0
      ],
      "max": [
        145
      ],
      "type": "SCALAR",
      "bufferView": 3,
      "byteOffset": 0
    }
  ],
  "asset": {
    "generator": "obj2gltf",
    "version": "2.0"
  },
  "buffers": [
    {
      "name": "TreeSimple_03_LOD2",
      "byteLength": 21064,
      "uri": "data:application/octet-stream;base64,"
    }
  ],
  "bufferViews": [
    {
      "name": "bufferView_0",
      "buffer": 0,
      "byteLength": 1752,
      "byteOffset": 0,
      "byteStride": 12,
      "target": 34962
    },
    {
      "name": "bufferView_1",
      "buffer": 0,
      "byteLength": 1752,
      "byteOffset": 1752,
      "byteStride": 12,
      "target": 34962
    },
    {
      "name": "bufferView_2",
      "buffer": 0,
      "byteLength": 1168,
      "byteOffset": 3504,
      "byteStride": 8,
      "target": 34962
    },
    {
      "name": "bufferView_3",
      "buffer": 0,
      "byteLength": 1668,
      "byteOffset": 4672,
      "target": 34963
    },
    {
      "buffer": 0,
      "byteOffset": 6340,
      "byteLength": 14724
    }
  ],
  "images": [
    {
      "name": "Nature-Palette",
      "mimeType": "image/png",
      "bufferView": 4
    }
  ],
  "materials": [
    {
      "name": "Mat_Nature",
      "pbrMetallicRoughness": {
        "baseColorTexture": {
          "index": 0
        },
        "baseColorFactor": [
          1,
          1,
          1,
          1
        ],
        "metallicFactor": 0,
        "roughnessFactor": 0.775
      },
      "emissiveFactor": [
        0,
        0,
        0
      ],
      "alphaMode": "OPAQUE",
      "doubleSided": false
    }
  ],
  "meshes": [
    {
      "name": "TreeSimple_03_LOD2_Cylinder.592-Mesh",
      "primitives": [
        {
          "attributes": {
            "POSITION": 0,
            "NORMAL": 1,
            "TEXCOORD_0": 2
          },
          "indices": 3,
          "material": 0,
          "mode": 4
        }
      ]
    }
  ],
  "nodes": [
    {
      "name": "TreeSimple_03_LOD2_Cylinder.592",
      "mesh": 0
    }
  ],
  "samplers": [
    {
      "wrapS": 10497,
      "wrapT": 10497
    }
  ],
  "scene": 0,
  "scenes": [
    {
      "nodes": [
        0
      ]
    }
  ],
  "textures": [
    {
      "name": "Nature-Palette",
      "sampler": 0,
      "source": 0
    }
  ]
}
